<svg width="1920" height="1014" viewBox="0 0 1920 1014" fill="none" xmlns="http://www.w3.org/2000/svg">
<path d="M-159 28.8768C-133.898 21.1089 -42.3526 0.71067 68.5248 75.3207L70.9731 76.9681C136.409 121.004 172.807 145.497 208.484 148.772M208.484 148.772C232.156 150.944 255.511 143.775 286.82 126.776C363.981 84.8811 345.294 28.8633 282.985 76.1058C255.052 97.2842 229.997 122.078 208.484 148.772ZM208.484 148.772C135.621 239.184 103.404 351.391 137.71 418.745C182.146 505.985 320.602 615.19 482.256 551.117C498.738 544.584 513.26 535.594 525.856 524.927M525.856 524.927C603.602 459.087 607.955 329.388 547.104 319.551C508.283 313.276 447.014 394.41 512.99 505.123C517.043 511.924 521.334 518.535 525.856 524.927ZM525.856 524.927C595.108 622.828 718.444 669.369 870.03 563.305C963.519 497.891 1067.33 348.874 1250.78 297.959C1416.41 251.994 1529.58 343.607 1548.92 374.992C1557.59 392.494 1589.76 424.204 1649.14 411.032C1723.36 394.567 1760.1 381.822 1867.66 439.867C1910.28 462.87 1957.12 479.967 2001.92 485.282M2001.92 485.282C2070.17 493.378 2133.7 474.133 2170.4 406.775C2204.96 343.367 2089.57 384.924 2001.92 485.282ZM2001.92 485.282C1966.72 525.589 1935.98 575.381 1921.24 631.667C1869.77 828.096 2079.25 1004.36 2253.18 919.11C2271.12 907.103 2293.36 888.744 2314.67 866.818M2314.67 866.818C2374.22 805.552 2426.55 716.43 2357.7 660.193C2292.81 607.19 2267.82 751.746 2314.67 866.818ZM2314.67 866.818C2345.2 941.803 2406.24 1004.27 2506.63 991.386C2761.08 958.735 2777.14 772.011 2934.86 699.818C2989.12 674.983 3160.78 612.1 3330.55 733.435" stroke="#FCEFEB" stroke-width="40" stroke-linecap="round"/>
</svg>
