<svg width="23" height="19" viewBox="0 0 23 19" fill="none" xmlns="http://www.w3.org/2000/svg">
<path d="M3.41178 3.41992H19.3419C20.1389 3.41992 20.8629 3.74546 21.3877 4.27024C21.9125 4.79501 22.238 5.51905 22.238 6.31608V16.104C22.238 16.901 21.9125 17.625 21.3877 18.1498C20.8629 18.6746 20.1389 19.0001 19.3419 19.0001H3.41178C2.61476 19.0001 1.89072 18.6746 1.36594 18.1498C0.841166 17.625 0.515625 16.901 0.515625 16.104V6.31608C0.515625 5.51905 0.841166 4.79501 1.36594 4.27024C1.89072 3.74546 2.61476 3.41992 3.41178 3.41992ZM19.3419 4.09298H3.41178C2.80127 4.09298 2.2452 4.34321 1.84205 4.74635C1.4389 5.14949 1.18868 5.70441 1.18868 6.31608V16.104C1.18868 16.7145 1.43891 17.2705 1.84205 17.6737C2.2452 18.0769 2.80011 18.3271 3.41178 18.3271H19.3419C19.9524 18.3271 20.5085 18.0768 20.9116 17.6737C21.3148 17.2705 21.565 16.7156 21.565 16.104V6.31608C21.565 5.70556 21.3147 5.1495 20.9116 4.74635C20.5085 4.34319 19.9535 4.09298 19.3419 4.09298Z" fill="#040202"/>
<path d="M15.6183 3.4198V2.51157C15.6183 2.00648 15.4121 1.54772 15.0785 1.21409C14.746 0.880449 14.2861 0.674245 13.781 0.674245H8.97931C8.47423 0.674245 8.01547 0.880452 7.68183 1.21409C7.34819 1.54772 7.14199 2.00648 7.14199 2.51157V3.4198H15.6183ZM15.9544 4.09286H6.80586C6.61934 4.09286 6.46875 3.94226 6.46875 3.75575V2.51041C6.46875 1.81997 6.75141 1.19208 7.20554 0.736792C7.66083 0.281502 8.28753 0 8.97916 0H13.7809C14.4713 0 15.0992 0.282664 15.5545 0.736792C16.0098 1.19208 16.2913 1.81879 16.2913 2.51041V3.75575C16.2913 3.94227 16.1409 4.09286 15.9544 4.09286Z" fill="#040202"/>
<path d="M11.0056 11.9934H11.7471C12.0402 11.9934 12.3066 11.8729 12.5001 11.6795C12.6935 11.486 12.814 11.2196 12.814 10.9265V10.5106C12.814 10.4874 12.8048 10.4666 12.7909 10.4515L13.0272 10.2129L12.7885 10.4515C12.7862 10.4492 12.7827 10.4457 12.7804 10.4434C12.7665 10.433 12.7491 10.4272 12.7295 10.4272H10.0233C10.0001 10.4272 9.97926 10.4364 9.9642 10.4503L9.72555 10.214L9.9642 10.4527C9.96188 10.455 9.9584 10.4584 9.95609 10.4608C9.94566 10.4747 9.93987 10.492 9.93987 10.5117V10.9276C9.93987 11.2207 10.0603 11.4871 10.2538 11.6806C10.4473 11.8741 10.7137 11.9946 11.0068 11.9946L11.0056 11.9934ZM11.7471 12.6665H11.0056C10.5272 12.6665 10.0916 12.4707 9.77652 12.1556C9.46142 11.8405 9.26562 11.4049 9.26562 10.9265V10.5106C9.26562 10.316 9.34093 10.1364 9.46488 10.0008C9.47183 9.99157 9.47994 9.98346 9.48805 9.97536L9.48921 9.97651L9.49037 9.97536C9.62823 9.83866 9.81707 9.75293 10.0244 9.75293H12.7306C12.9252 9.75293 13.1048 9.82823 13.2403 9.95219C13.2496 9.95914 13.2577 9.96725 13.2658 9.97536L13.2647 9.97651L13.2658 9.97767C13.4025 10.1155 13.4883 10.3044 13.4883 10.5117V10.9276C13.4883 11.4061 13.2925 11.8416 12.9774 12.1567C12.6622 12.4718 12.2267 12.6676 11.7482 12.6676L11.7471 12.6665Z" fill="#040202"/>
<path d="M22.1572 8.17067C22.2719 8.02586 22.2476 7.81503 22.1016 7.69919C21.9568 7.5845 21.746 7.60883 21.6302 7.75479L19.136 10.907L13.2266 10.9082C13.0412 10.9082 12.8906 11.0588 12.8906 11.2441C12.8906 11.4295 13.0412 11.5801 13.2266 11.5801L19.2691 11.5789C19.378 11.5882 19.4904 11.5442 19.5634 11.4526L19.2992 11.2441L19.5622 11.4515L22.1572 8.17174L22.1572 8.17067Z" fill="#040202"/>
<path d="M1.13021 7.75492C1.01552 7.61011 0.804671 7.58463 0.65873 7.69932C0.513922 7.814 0.488435 8.02486 0.603124 8.1708L3.19808 11.4505L3.46106 11.2432L3.19693 11.4517C3.26991 11.5444 3.38112 11.5872 3.49118 11.578L9.53373 11.5791C9.71908 11.5791 9.86968 11.4285 9.86968 11.2432C9.86968 11.0578 9.71908 10.9072 9.53373 10.9072L3.62434 10.9061L1.13015 7.75385L1.13021 7.75492Z" fill="#040202"/>
</svg>
