<svg width="28" height="50" viewBox="0 0 28 50" fill="none" xmlns="http://www.w3.org/2000/svg">
<path d="M22.027 47.2633C23.9347 47.2614 25.4819 45.7143 25.4857 43.8045V6.19542C25.4819 4.28562 23.9347 2.73857 22.0271 2.73662M22.027 47.2633L22.0271 2.63662L22.027 2.73662M22.027 47.2633H6.12116C4.21351 47.2614 2.66632 45.7144 2.66246 43.8046V6.1953C2.66632 4.28555 4.21345 2.73857 6.12106 2.73662M22.027 47.2633L6.12106 2.73662M22.0271 2.73662C22.027 2.73662 22.027 2.73662 22.027 2.73662M22.0271 2.73662L22.027 2.73662M22.0271 2.73662L6.12116 2.73662M22.027 2.73662H6.12116M6.12116 2.73662L6.12106 2.73662M6.12116 2.73662L6.12106 2.73662M22.0273 0.974219H22.0271L6.12106 0.974218L6.12079 0.974219C3.24152 0.982183 0.909746 3.31587 0.900061 6.19488V6.19522L0.90006 43.8047L0.900062 43.8051C0.910017 46.6841 3.2416 49.0181 6.1208 49.0257H6.12106L22.0271 49.0257L22.0273 49.0257C24.9066 49.0177 27.2384 46.6841 27.2481 43.805V43.8047V6.19522L27.2481 6.19487C27.2381 3.31579 24.9065 0.981865 22.0273 0.974219ZM12.7481 5.31905L12.7481 5.31919C12.5256 5.85642 12.6473 6.47366 13.0588 6.8852C13.4703 7.29675 14.0876 7.4184 14.6249 7.19594C15.1623 6.9734 15.5108 6.45056 15.5108 5.86915C15.5108 5.07562 14.8684 4.43324 14.0749 4.43324C13.4933 4.43324 12.9707 4.78385 12.7481 5.31905ZM13.9585 5.91725L13.9581 5.9165C13.9388 5.87022 13.9495 5.8157 13.9854 5.77973C14.0214 5.74377 14.0759 5.73307 14.1222 5.75244L14.123 5.75275C14.1713 5.77252 14.2014 5.81796 14.2014 5.86918C14.2014 5.93895 14.1447 5.99574 14.0749 5.99574C14.0237 5.99574 13.9782 5.96559 13.9585 5.91725Z" fill="#B66357" stroke="#B66357" stroke-width="0.2"/>
</svg>
