<svg width="41" height="49" viewBox="0 0 41 49" fill="none" xmlns="http://www.w3.org/2000/svg">
<path d="M18.919 1.20711L18.919 1.20708L18.4766 1.60507L18.4727 1.60862L18.4727 1.60859C16.1336 3.66844 13.6502 5.1411 11.0259 6.00821C8.35791 6.89237 5.83089 7.50966 3.44348 7.86156L3.44328 7.86159C2.13907 8.05329 1.17645 9.16432 1.17645 10.471V29.4147C1.17645 32.947 2.88251 36.2649 5.76609 38.3343L17.2691 46.5873C17.2691 46.5873 17.2691 46.5873 17.2691 46.5873C19.3034 48.0467 22.0495 48.0467 24.0839 46.5873L35.5868 38.3343C38.4704 36.2652 40.1764 32.9472 40.1764 29.4147V10.4338C40.1764 9.13896 39.2288 8.03285 37.9362 7.82956L37.936 7.82953C35.251 7.40604 32.7137 6.79991 30.3269 6.0082C27.8737 5.19778 25.2567 3.57141 22.4839 1.15556L18.919 1.20711ZM18.919 1.20711L18.9232 1.20321M18.919 1.20711L18.9232 1.20321M18.9232 1.20321C19.9216 0.283986 21.4598 0.263748 22.4838 1.1555L18.9232 1.20321ZM21.7533 1.97416L21.7525 1.97353C21.1532 1.45325 20.2599 1.46686 19.6712 2.00666L19.2172 2.41517C19.2166 2.41573 19.2159 2.41629 19.2153 2.41686C16.7494 4.58894 14.1352 6.12999 11.3794 7.04338C8.64542 7.9494 6.05449 8.58117 3.6084 8.94103L3.60803 8.94109C2.84922 9.05331 2.28119 9.69998 2.28119 10.471V29.4148C2.28119 32.6004 3.82004 35.5887 6.41735 37.4526L6.4174 37.4527L17.9204 45.7057L17.9207 45.7059C19.5672 46.8856 21.787 46.8856 23.4335 45.7059L23.4337 45.7057L34.9368 37.4527L34.9368 37.4526C37.5341 35.5886 39.073 32.6003 39.073 29.4148V10.4339C39.073 9.672 38.5149 9.02504 37.7627 8.90662C35.0141 8.47322 32.4177 7.85379 29.9751 7.04353L29.9748 7.04341C27.3974 6.19051 24.6607 4.5079 21.7533 1.97416Z" fill="#B66357" stroke="#B66357"/>
<mask id="path-2-outside-1_1032_5667" maskUnits="userSpaceOnUse" x="10.6765" y="10" width="20" height="25" fill="black">
<rect fill="white" x="10.6765" y="10" width="20" height="25"/>
<path d="M20.6743 11C17.0475 11 14.111 13.8288 14.111 17.3274V18.4602C12.7497 18.568 11.6765 19.6764 11.6765 21.0247V31.4252C11.6765 32.8454 12.866 34 14.329 34H27.0239C28.487 34 29.6765 32.8454 29.6765 31.4252V21.0247C29.6765 19.6751 28.6006 18.5654 27.2393 18.4589V17.3274C27.2393 13.8277 24.3025 11 20.676 11H20.6743ZM20.6743 11.8198C23.8502 11.8198 26.393 14.2727 26.393 17.3274V18.45H14.9579V17.3274C14.9579 14.2716 17.4994 11.8198 20.6753 11.8198H20.6743ZM14.3289 19.2697H14.5152C14.5218 19.271 14.5284 19.271 14.5364 19.2723H26.8174H26.8161C26.8319 19.2723 26.8465 19.271 26.8597 19.2697H27.0236C28.032 19.2697 28.829 20.0459 28.829 21.026V31.4265C28.829 32.4054 28.032 33.1803 27.0236 33.1803L14.3288 33.179C13.3203 33.179 12.5207 32.4054 12.5207 31.4253V21.0248C12.5207 20.0459 13.3203 19.2684 14.3288 19.2684L14.3289 19.2697ZM20.6756 22.7054C19.2852 22.7054 18.1486 23.8087 18.1486 25.1583C18.1486 26.0525 18.7036 26.8094 19.4914 27.2391V28.7247C19.4914 29.2828 19.9685 29.7421 20.5434 29.7434H20.8104C21.384 29.7434 21.8598 29.2828 21.8598 28.7247V27.2391C22.6476 26.8094 23.204 26.0537 23.204 25.1583C23.204 23.8087 22.0674 22.7054 20.6769 22.7054H20.6756ZM20.6756 23.5264C21.61 23.5264 22.3581 24.2513 22.3581 25.1583C22.3581 25.8331 21.9325 26.4361 21.2849 26.6811H21.2836C21.121 26.7427 21.014 26.8953 21.014 27.0647V28.7248C21.014 28.8415 20.9294 28.9211 20.8091 28.9211H20.5421C20.4219 28.9211 20.3373 28.8415 20.3373 28.7248V27.0647C20.3386 26.8953 20.2302 26.7427 20.0676 26.6811C19.42 26.4373 18.9944 25.8344 18.9944 25.1583C18.9944 24.2513 19.7412 23.5264 20.6756 23.5264H20.6756Z"/>
</mask>
<path d="M20.6743 11C17.0475 11 14.111 13.8288 14.111 17.3274V18.4602C12.7497 18.568 11.6765 19.6764 11.6765 21.0247V31.4252C11.6765 32.8454 12.866 34 14.329 34H27.0239C28.487 34 29.6765 32.8454 29.6765 31.4252V21.0247C29.6765 19.6751 28.6006 18.5654 27.2393 18.4589V17.3274C27.2393 13.8277 24.3025 11 20.676 11H20.6743ZM20.6743 11.8198C23.8502 11.8198 26.393 14.2727 26.393 17.3274V18.45H14.9579V17.3274C14.9579 14.2716 17.4994 11.8198 20.6753 11.8198H20.6743ZM14.3289 19.2697H14.5152C14.5218 19.271 14.5284 19.271 14.5364 19.2723H26.8174H26.8161C26.8319 19.2723 26.8465 19.271 26.8597 19.2697H27.0236C28.032 19.2697 28.829 20.0459 28.829 21.026V31.4265C28.829 32.4054 28.032 33.1803 27.0236 33.1803L14.3288 33.179C13.3203 33.179 12.5207 32.4054 12.5207 31.4253V21.0248C12.5207 20.0459 13.3203 19.2684 14.3288 19.2684L14.3289 19.2697ZM20.6756 22.7054C19.2852 22.7054 18.1486 23.8087 18.1486 25.1583C18.1486 26.0525 18.7036 26.8094 19.4914 27.2391V28.7247C19.4914 29.2828 19.9685 29.7421 20.5434 29.7434H20.8104C21.384 29.7434 21.8598 29.2828 21.8598 28.7247V27.2391C22.6476 26.8094 23.204 26.0537 23.204 25.1583C23.204 23.8087 22.0674 22.7054 20.6769 22.7054H20.6756ZM20.6756 23.5264C21.61 23.5264 22.3581 24.2513 22.3581 25.1583C22.3581 25.8331 21.9325 26.4361 21.2849 26.6811H21.2836C21.121 26.7427 21.014 26.8953 21.014 27.0647V28.7248C21.014 28.8415 20.9294 28.9211 20.8091 28.9211H20.5421C20.4219 28.9211 20.3373 28.8415 20.3373 28.7248V27.0647C20.3386 26.8953 20.2302 26.7427 20.0676 26.6811C19.42 26.4373 18.9944 25.8344 18.9944 25.1583C18.9944 24.2513 19.7412 23.5264 20.6756 23.5264H20.6756Z" fill="#B66357"/>
<path d="M14.111 18.4602L14.1425 18.859L14.511 18.8298V18.4602H14.111ZM27.2393 18.4589H26.8393V18.8289L27.2081 18.8577L27.2393 18.4589ZM26.393 18.45V18.85H26.793V18.45H26.393ZM14.9579 18.45H14.5579V18.85H14.9579V18.45ZM14.3289 19.2697L13.9304 19.305L13.9627 19.6697H14.3289V19.2697ZM14.5152 19.2697L14.5915 18.8771L14.5537 18.8697H14.5152V19.2697ZM14.5364 19.2723L14.4725 19.6672L14.5042 19.6723H14.5364V19.2723ZM26.8597 19.2697V18.8697H26.8403L26.821 18.8716L26.8597 19.2697ZM27.0236 33.1803L27.0235 33.5803H27.0236V33.1803ZM14.3288 33.179L14.3288 32.779H14.3288V33.179ZM14.3288 19.2684L14.7272 19.2332L14.6949 18.8684H14.3288V19.2684ZM19.4914 27.2391H19.8914V27.0017L19.683 26.888L19.4914 27.2391ZM20.5434 29.7434L20.5426 30.1434H20.5434V29.7434ZM21.8598 27.2391L21.6683 26.888L21.4598 27.0017V27.2391H21.8598ZM21.2849 26.6811V27.0811H21.358L21.4265 27.0552L21.2849 26.6811ZM21.2836 26.6811V26.2811H21.2104L21.1419 26.307L21.2836 26.6811ZM20.3373 27.0647L19.9373 27.0616V27.0647H20.3373ZM20.0676 26.6811L20.2094 26.307L20.2085 26.3067L20.0676 26.6811ZM20.6743 10.6C16.8406 10.6 13.711 13.5941 13.711 17.3274H14.511C14.511 14.0635 17.2544 11.4 20.6743 11.4V10.6ZM13.711 17.3274V18.4602H14.511V17.3274H13.711ZM14.0794 18.0614C12.5221 18.1847 11.2765 19.4558 11.2765 21.0247H12.0765C12.0765 19.8969 12.9772 18.9512 14.1425 18.859L14.0794 18.0614ZM11.2765 21.0247V31.4252H12.0765V21.0247H11.2765ZM11.2765 31.4252C11.2765 33.0774 12.6563 34.4 14.329 34.4V33.6C13.0756 33.6 12.0765 32.6133 12.0765 31.4252H11.2765ZM14.329 34.4H27.0239V33.6H14.329V34.4ZM27.0239 34.4C28.6966 34.4 30.0765 33.0774 30.0765 31.4252H29.2765C29.2765 32.6133 28.2773 33.6 27.0239 33.6V34.4ZM30.0765 31.4252V21.0247H29.2765V31.4252H30.0765ZM30.0765 21.0247C30.0765 19.4545 28.828 18.182 27.2705 18.0601L27.2081 18.8577C28.3732 18.9488 29.2765 19.8957 29.2765 21.0247H30.0765ZM27.6393 18.4589V17.3274H26.8393V18.4589H27.6393ZM27.6393 17.3274C27.6393 13.593 24.5094 10.6 20.676 10.6V11.4C24.0957 11.4 26.8393 14.0625 26.8393 17.3274H27.6393ZM20.676 10.6H20.6743V11.4H20.676V10.6ZM20.6743 12.2198C23.6434 12.2198 25.993 14.5075 25.993 17.3274H26.793C26.793 14.0379 24.057 11.4198 20.6743 11.4198V12.2198ZM25.993 17.3274V18.45H26.793V17.3274H25.993ZM26.393 18.05H14.9579V18.85H26.393V18.05ZM15.3579 18.45V17.3274H14.5579V18.45H15.3579ZM15.3579 17.3274C15.3579 14.5063 17.7063 12.2198 20.6753 12.2198V11.4198C17.2926 11.4198 14.5579 14.0368 14.5579 17.3274H15.3579ZM20.6753 11.4198H20.6743V12.2198H20.6753V11.4198ZM14.3289 19.6697H14.5152V18.8697H14.3289V19.6697ZM14.439 19.6624C14.4528 19.6651 14.4644 19.6667 14.4726 19.6676C14.4803 19.6686 14.4868 19.6692 14.4885 19.6693C14.4915 19.6696 14.4895 19.6694 14.4873 19.6692C14.4844 19.6689 14.4791 19.6682 14.4725 19.6672L14.6002 18.8774C14.5896 18.8757 14.5806 18.8746 14.574 18.8739C14.5681 18.8732 14.5625 18.8727 14.5621 18.8727C14.5603 18.8725 14.5635 18.8728 14.5678 18.8733C14.5726 18.8739 14.581 18.875 14.5915 18.8771L14.439 19.6624ZM14.5364 19.6723H26.8174V18.8723H14.5364V19.6723ZM26.8174 18.8723H26.8161V19.6723H26.8174V18.8723ZM26.8161 19.6723C26.8526 19.6723 26.8834 19.6693 26.8983 19.6679L26.821 18.8716C26.8154 18.8721 26.8134 18.8723 26.8125 18.8724C26.8118 18.8724 26.8133 18.8723 26.8161 18.8723V19.6723ZM26.8597 19.6697H27.0236V18.8697H26.8597V19.6697ZM27.0236 19.6697C27.8215 19.6697 28.429 20.277 28.429 21.026H29.229C29.229 19.8148 28.2426 18.8697 27.0236 18.8697V19.6697ZM28.429 21.026V31.4265H29.229V21.026H28.429ZM28.429 31.4265C28.429 32.1737 27.822 32.7803 27.0236 32.7803V33.5803C28.242 33.5803 29.229 32.6371 29.229 31.4265H28.429ZM27.0236 32.7803L14.3288 32.779L14.3287 33.579L27.0235 33.5803L27.0236 32.7803ZM14.3288 32.779C13.5293 32.779 12.9207 32.1727 12.9207 31.4253H12.1207C12.1207 32.638 13.1113 33.579 14.3288 33.579V32.779ZM12.9207 31.4253V21.0248H12.1207V31.4253H12.9207ZM12.9207 21.0248C12.9207 20.2776 13.5303 19.6684 14.3288 19.6684V18.8684C13.1103 18.8684 12.1207 19.8142 12.1207 21.0248H12.9207ZM13.9303 19.3037L13.9304 19.305L14.7273 19.2345L14.7272 19.2332L13.9303 19.3037ZM20.6756 22.3054C19.0756 22.3054 17.7486 23.5766 17.7486 25.1583H18.5486C18.5486 24.0407 19.4948 23.1054 20.6756 23.1054V22.3054ZM17.7486 25.1583C17.7486 26.2307 18.4142 27.1071 19.2998 27.5903L19.683 26.888C18.9931 26.5116 18.5486 25.8743 18.5486 25.1583H17.7486ZM19.0914 27.2391V28.7247H19.8914V27.2391H19.0914ZM19.0914 28.7247C19.0914 29.5169 19.7609 30.1416 20.5426 30.1434L20.5443 29.3434C20.1762 29.3426 19.8914 29.0487 19.8914 28.7247H19.0914ZM20.5434 30.1434H20.8104V29.3434H20.5434V30.1434ZM20.8104 30.1434C21.5933 30.1434 22.2598 29.5152 22.2598 28.7247H21.4598C21.4598 29.0504 21.1748 29.3434 20.8104 29.3434V30.1434ZM22.2598 28.7247V27.2391H21.4598V28.7247H22.2598ZM22.0514 27.5903C22.9365 27.1074 23.604 26.2324 23.604 25.1583H22.804C22.804 25.875 22.3586 26.5114 21.6683 26.888L22.0514 27.5903ZM23.604 25.1583C23.604 23.5766 22.277 22.3054 20.6769 22.3054V23.1054C21.8578 23.1054 22.804 24.0407 22.804 25.1583H23.604ZM20.6769 22.3054H20.6756V23.1054H20.6769V22.3054ZM20.6756 23.9264C21.4008 23.9264 21.9581 24.4837 21.9581 25.1583H22.7581C22.7581 24.0188 21.8192 23.1264 20.6756 23.1264V23.9264ZM21.9581 25.1583C21.9581 25.6606 21.6413 26.1186 21.1434 26.307L21.4265 27.0552C22.2238 26.7535 22.7581 26.0056 22.7581 25.1583H21.9581ZM21.2849 26.2811H21.2836V27.0811H21.2849V26.2811ZM21.1419 26.307C20.8287 26.4257 20.614 26.7239 20.614 27.0647H21.414C21.414 27.0646 21.4139 27.0647 21.414 27.0645C21.4141 27.0642 21.4144 27.0635 21.4151 27.0624C21.4166 27.0603 21.4196 27.0573 21.4253 27.0552L21.1419 26.307ZM20.614 27.0647V28.7248H21.414V27.0647H20.614ZM20.614 28.7248C20.614 28.6825 20.6315 28.624 20.6807 28.5771C20.7282 28.5318 20.7802 28.5211 20.8091 28.5211V29.3211C20.9583 29.3211 21.1127 29.2705 21.2326 29.1563C21.3541 29.0404 21.414 28.8838 21.414 28.7248H20.614ZM20.8091 28.5211H20.5421V29.3211H20.8091V28.5211ZM20.5421 28.5211C20.5711 28.5211 20.623 28.5318 20.6705 28.5771C20.7197 28.624 20.7373 28.6825 20.7373 28.7248H19.9373C19.9373 28.8838 19.9971 29.0404 20.1186 29.1563C20.2385 29.2705 20.3929 29.3211 20.5421 29.3211V28.5211ZM20.7373 28.7248V27.0647H19.9373V28.7248H20.7373ZM20.7373 27.0678C20.7399 26.7224 20.5201 26.4248 20.2094 26.307L19.9259 27.0551C19.9322 27.0575 19.9355 27.0609 19.937 27.0629C19.9383 27.0648 19.9373 27.0642 19.9373 27.0616L20.7373 27.0678ZM20.2085 26.3067C19.7115 26.1196 19.3944 25.6622 19.3944 25.1583H18.5944C18.5944 26.0066 19.1285 26.755 19.9267 27.0555L20.2085 26.3067ZM19.3944 25.1583C19.3944 24.4833 19.9508 23.9264 20.6756 23.9264V23.1264C19.5316 23.1264 18.5944 24.0192 18.5944 25.1583H19.3944ZM20.6756 23.1264H20.6756V23.9264H20.6756V23.1264Z" fill="#B66357" mask="url(#path-2-outside-1_1032_5667)"/>
</svg>
