<svg width="40" height="40" viewBox="0 0 40 40" fill="none" xmlns="http://www.w3.org/2000/svg">
<g opacity="0.2" filter="url(#filter0_b_525_2698)">
<circle cx="20" cy="20" r="20" fill="#F1AD9C"/>
</g>
<path fill-rule="evenodd" clip-rule="evenodd" d="M15.5702 10H24.4298C25.29 10 26 10.6906 26 11.5273V28.4727C26 29.3094 25.29 30 24.4298 30H15.5702C14.71 30 14 29.3094 14 28.4727V11.5273C14 10.6906 14.71 10 15.5702 10V10ZM18.9345 28.6179C18.7105 28.6179 18.5611 28.4726 18.5611 28.2546C18.5611 28.0367 18.7105 27.8914 18.9345 27.8914H21.1031C21.2902 27.8914 21.4766 28.0367 21.4766 28.2546C21.4766 28.4726 21.2894 28.6179 21.1031 28.6179H18.9345ZM15.0465 12.4726V26.5093H24.9903V12.4726H15.0465Z" fill="#B66357"/>
<defs>
<filter id="filter0_b_525_2698" x="-130" y="-130" width="300" height="300" filterUnits="userSpaceOnUse" color-interpolation-filters="sRGB">
<feFlood flood-opacity="0" result="BackgroundImageFix"/>
<feGaussianBlur in="BackgroundImage" stdDeviation="65"/>
<feComposite in2="SourceAlpha" operator="in" result="effect1_backgroundBlur_525_2698"/>
<feBlend mode="normal" in="SourceGraphic" in2="effect1_backgroundBlur_525_2698" result="shape"/>
</filter>
</defs>
</svg>
