<svg width="40" height="49" viewBox="0 0 40 49" fill="none" xmlns="http://www.w3.org/2000/svg">
<path d="M17.9081 0.835376C19.0943 -0.256834 20.92 -0.280377 22.1358 0.778511C24.8793 3.16879 27.4392 4.75124 29.8079 5.53362C32.1665 6.31601 34.6771 6.91603 37.3375 7.33563C38.8711 7.57682 40 8.89062 40 10.4338V29.4147C40 33.109 38.2158 36.578 35.2019 38.7405L23.6988 46.9936C21.4902 48.5779 18.5097 48.5779 16.3012 46.9936L4.79812 38.7405C1.78427 36.5777 0 33.1088 0 29.4147V10.471C0 8.91401 1.14672 7.59435 2.69411 7.36691C5.04878 7.01983 7.54751 6.41003 10.1924 5.53352C12.7444 4.69035 15.1701 3.25498 17.4658 1.23336L17.9081 0.835376ZM20.7483 2.35111C20.3417 1.99815 19.7338 2.00599 19.3312 2.3766L18.8713 2.79034C16.3607 5.00217 13.6882 6.5807 10.8602 7.51799C8.10292 8.43175 5.48359 9.07102 3.00472 9.43571C2.48763 9.51218 2.10473 9.9514 2.10473 10.471V29.4148C2.10473 32.4384 3.56527 35.2759 6.03242 37.0464L17.5354 45.2995C19.0079 46.3544 20.9934 46.3544 22.4658 45.2995L33.9688 37.0464C36.436 35.2758 37.8965 32.4384 37.8965 29.4148V10.4339C37.8965 9.92017 37.5195 9.48094 37.0083 9.40052C34.2353 8.96325 31.612 8.33773 29.1413 7.51809C26.4807 6.63767 23.6878 4.91211 20.7492 2.35121L20.7483 2.35111ZM30.2323 18.3497C30.6053 18.7341 30.6231 19.3282 30.2935 19.7321L30.2046 19.8302L17.0873 32.3797C16.7103 32.7385 16.132 32.766 15.7254 32.4621L15.6267 32.3797L9.79637 26.8012C9.37794 26.4012 9.3661 25.7384 9.76874 25.3227C10.1398 24.9384 10.7379 24.8992 11.1563 25.209L11.2569 25.2953L16.3572 30.1739L28.7444 18.3226C29.1628 17.9226 29.8299 17.9344 30.2326 18.3501L30.2323 18.3497Z" fill="#B66357"/>
</svg>
