<svg width="19" height="20" viewBox="0 0 19 20" fill="none" xmlns="http://www.w3.org/2000/svg">
<path d="M2.50647 14.5827C2.73713 14.8343 3.12957 14.9302 3.74069 14.883C4.00804 14.8628 4.26194 14.8194 4.48585 14.7812C5.30591 14.6419 5.51262 14.6553 5.6609 15.1129L5.66914 15.1376C5.97769 16.0888 6.32669 17.1672 4.80265 18.5811L4.80115 18.5826C4.78318 18.5991 4.36078 18.9983 3.89047 19.4933C3.77663 19.6139 3.78113 19.8034 3.9017 19.9172C4.02153 20.031 4.21101 20.0265 4.32483 19.9059C4.6319 19.5824 4.92322 19.2963 5.08348 19.1413C5.23626 19.1765 5.39278 19.1945 5.55005 19.193C6.40682 19.193 8.08654 18.7549 10.743 16.2888C11.7983 15.4792 13.487 14.3417 13.991 14.3103C14.167 14.332 15.3421 14.5117 15.8491 15.4651L17.6098 19.8125C17.6719 19.966 17.8464 20.0402 18 19.978C18.1535 19.9159 18.2276 19.7414 18.1655 19.5878L16.3988 15.2262C16.395 15.2172 16.3913 15.2082 16.3868 15.2C15.7405 13.9635 14.316 13.7441 14.0578 13.7141C13.6271 13.5509 13.2744 13.2296 13.0707 12.8162C12.7861 12.2178 12.8393 11.4352 13.2242 10.4998C13.5485 9.74644 13.7957 8.9616 13.9589 8.15722C14.0975 8.04413 14.4622 7.72659 14.5558 6.9979C14.594 6.76199 14.6022 6.52234 14.5805 6.28419L14.5798 6.2737C14.5565 5.86779 14.3903 5.48286 14.1102 5.18853C14.1439 4.5909 13.8713 4.01798 13.386 3.6675L13.3853 3.66675L13.3493 3.63979L13.3501 3.64054C13.2752 3.58512 13.1973 3.53569 13.1156 3.4915C13.1134 3.47353 13.1111 3.45556 13.1089 3.43758C13.0153 2.72688 12.4933 2.14721 11.796 1.97946C11.6762 1.951 11.5541 1.93452 11.4321 1.93153C11.1864 1.64021 10.8547 1.43501 10.4847 1.34438C10.3611 1.31443 10.2338 1.2972 10.1065 1.29496C10.0878 1.29421 10.069 1.29421 10.0503 1.29421C9.79719 1.29421 9.5478 1.34738 9.31714 1.44998C8.94493 1.05306 8.42519 0.827637 7.88071 0.827637C7.43437 0.829135 7.00075 0.979665 6.64949 1.25602C6.54914 1.20809 6.44429 1.17064 6.33645 1.14443C6.20988 1.11372 6.07881 1.098 5.94852 1.098C5.30669 1.09875 4.72255 1.46796 4.44546 2.04686C3.77817 2.19065 3.23446 2.67294 3.01203 3.3185C2.80309 3.50722 2.62335 3.72665 2.47881 3.96929C2.42189 4.05542 2.37845 4.15053 2.34999 4.25089C2.34325 4.25988 2.33651 4.26887 2.33127 4.2786C2.08938 4.71896 1.47301 6.80394 1.40337 7.04052C1.37716 7.13039 1.39364 7.227 1.44906 7.30264L2.02871 8.08975L0.839438 10.7042C0.794503 10.8023 0.806485 10.9169 0.870145 11.0045C0.933804 11.0922 1.04015 11.1379 1.14724 11.1251C1.56663 11.0757 2.00249 11.1423 2.05117 11.2292C2.05267 11.2577 2.04743 11.2861 2.03619 11.3123C1.85271 11.8134 1.95831 12.0695 2.08188 12.2889C2.13954 12.3908 2.14254 12.3968 2.0991 12.5001C1.9276 12.9023 2.08188 13.103 2.25563 13.246C2.32528 13.3037 2.35448 13.3277 2.32228 13.5254C2.26312 13.8841 2.23911 14.2921 2.50647 14.5827ZM2.97604 4.30401C3.11758 4.08982 3.32054 3.78201 3.50328 3.71836C3.50927 3.70114 3.51451 3.68616 3.5205 3.67193L3.51975 3.67118C3.52724 3.65396 3.53623 3.63748 3.54596 3.62175C3.68227 3.09079 4.12487 2.69387 4.66785 2.61672C4.67459 2.62271 4.68058 2.6302 4.68882 2.63544C4.72701 2.6639 5.05504 2.93201 4.82886 3.52964C4.80115 3.60453 4.8034 3.68691 4.83635 3.75955C4.86856 3.8322 4.92847 3.88837 5.00336 3.91682C5.0775 3.94453 5.15988 3.94229 5.23253 3.90934C5.30517 3.87638 5.36134 3.81647 5.3898 3.74233C5.69761 2.92976 5.32764 2.37333 5.06552 2.17038C5.26322 1.87605 5.5935 1.69932 5.94849 1.69706C6.03162 1.69706 6.114 1.7068 6.1949 1.72627C6.26904 1.74574 6.34019 1.7727 6.40834 1.80715C6.44579 2.61972 6.80751 5.78611 10.1732 6.36491C10.1897 6.36791 10.2069 6.36941 10.2241 6.36941C10.3799 6.36941 10.5095 6.25033 10.5222 6.0953C10.5357 5.94028 10.4278 5.80097 10.2743 5.77477C7.22916 5.25127 7.01501 2.347 7.0037 1.74193C7.2516 1.53973 7.56088 1.42889 7.88067 1.42665C7.99077 1.42665 8.1001 1.44013 8.20645 1.46634C8.44087 1.52251 8.65656 1.64159 8.82955 1.8101C8.61087 2.06248 8.47981 2.37927 8.45584 2.71177C8.44835 3.03755 8.57567 3.35208 8.80782 3.57975C8.92166 3.69957 9.11113 3.70482 9.2317 3.59098C9.35153 3.47715 9.35677 3.28768 9.24294 3.16786C9.12311 3.05552 9.05496 2.89826 9.05421 2.73424C9.08566 2.4931 9.198 2.26917 9.374 2.10067C9.57397 1.96661 9.80986 1.89397 10.051 1.89322C10.0652 1.89322 10.0795 1.89322 10.0929 1.89397H10.0944C10.1776 1.89547 10.26 1.90596 10.3408 1.92618C10.4929 1.96437 10.6352 2.03177 10.761 2.12464C10.6494 2.19654 10.5543 2.29015 10.4802 2.3995C10.2929 2.67808 10.2607 3.03457 10.3858 3.45844C10.4322 3.61721 10.5985 3.70783 10.7573 3.6614C10.916 3.61422 11.0074 3.44795 10.9602 3.28919C10.8891 3.04655 10.8936 2.86006 10.9752 2.7365C11.0628 2.62641 11.1901 2.55452 11.3294 2.53579C11.3354 2.53504 11.3414 2.53279 11.3474 2.53205C11.3624 2.5313 11.3766 2.53055 11.3916 2.53055C11.48 2.53055 11.5683 2.54103 11.6545 2.562C12.112 2.67359 12.4543 3.05478 12.5157 3.52135C12.518 3.53558 12.5172 3.54981 12.5187 3.56404C12.2663 3.85386 11.8634 3.96021 11.5009 3.83364C11.3414 3.7902 11.1767 3.88381 11.1332 4.04334C11.089 4.20286 11.1834 4.36761 11.3429 4.41181C11.4987 4.45524 11.659 4.47771 11.8207 4.47846C12.2177 4.47996 12.5996 4.32643 12.8849 4.04933C12.9224 4.0718 12.9583 4.09576 12.9935 4.12123L12.995 4.12272C13.3171 4.3429 13.5095 4.70613 13.5118 5.09555C13.4871 5.11877 13.4661 5.14498 13.4504 5.17493C13.4376 5.1989 13.1336 5.75684 12.0978 5.4805C11.9376 5.43856 11.7743 5.53367 11.7316 5.69319C11.6889 5.85271 11.784 6.01747 11.9435 6.06016C12.1712 6.12307 12.4056 6.15602 12.6408 6.15902C13.0639 6.17549 13.4743 6.01748 13.7769 5.72167C13.8997 5.89841 13.9709 6.10585 13.9821 6.32154C14.0023 6.52001 13.9956 6.71995 13.9619 6.91693C13.893 7.46812 13.6361 7.64562 13.55 7.71751C13.2047 7.9946 12.8737 8.05676 12.3967 8.05676C12.3547 8.05676 12.315 8.05526 12.2731 8.05227C12.2371 8.05077 12.2027 8.04777 12.1667 8.04403C12.1555 8.04253 12.145 8.04103 12.1338 8.03954C12.1173 8.0328 12.1001 8.02755 12.0829 8.02381C11.9413 7.98561 11.8177 7.89724 11.7346 7.77591C11.647 7.59543 11.638 7.38724 11.7099 7.20001C11.7556 7.04124 11.6627 6.87573 11.5039 6.83004C11.3444 6.78511 11.1789 6.87722 11.134 7.03674C11.0127 7.38274 11.0441 7.76393 11.2216 8.08522C11.3399 8.27544 11.5107 8.42748 11.7144 8.52257C11.2119 9.38905 10.1349 9.59726 10.1349 9.59726L9.98214 11.3302C9.9814 11.4868 9.85333 11.6133 9.69606 11.6118H9.51707C9.36429 11.6021 9.24147 11.483 9.22575 11.3317C9.10143 10.8397 9.00331 10.3417 8.93367 9.83917C8.9172 9.68564 8.73971 9.619 8.59891 9.59653C7.96983 9.49617 8.29185 8.57727 8.29185 8.57727C8.14356 8.57727 7.99903 8.53907 7.87096 8.46643C8.34802 8.26048 8.67604 7.81113 8.72472 7.29364C8.73895 7.12888 8.61612 6.98359 8.45136 6.96936C8.2866 6.95588 8.14206 7.07796 8.12783 7.24272C8.07391 7.88003 7.36094 8.01483 7.32724 8.02083C7.3145 8.02308 7.30177 8.02757 7.28904 8.03207C7.25833 8.03731 7.22688 8.0433 7.19617 8.04705C7.17446 8.05004 7.15423 8.05154 7.13327 8.05304C7.09582 8.05603 7.05838 8.05753 7.02168 8.05753L7.02093 8.05678C6.32519 8.05978 5.71856 7.58346 5.55606 6.90646C5.98668 6.76417 6.56559 6.38822 6.62775 5.64531C6.64197 5.48055 6.51915 5.336 6.35439 5.32178C6.18963 5.3083 6.04508 5.43037 6.03086 5.59513C6.0009 5.89544 5.80842 6.15457 5.53058 6.27064C5.50436 6.27813 5.47815 6.28562 5.45194 6.29311C5.28568 6.33654 5.11418 6.35826 4.94194 6.35826C4.45215 6.3313 3.98333 6.15306 3.59914 5.84825C3.22618 5.52397 2.98279 5.07613 2.91463 4.58635C2.8989 4.48824 2.92062 4.38714 2.97604 4.30401ZM1.58605 10.5094L2.64727 8.17733C2.69221 8.07848 2.68023 7.96389 2.61582 7.87628L2.01968 7.06745C2.17096 6.55895 2.36792 5.92161 2.53867 5.41087C2.6922 5.76061 2.92585 6.06991 3.22093 6.3133C3.71222 6.70423 4.31509 6.92964 4.94195 6.95736H4.95243C5.1464 7.94591 6.01365 8.65813 7.02092 8.65589C7.06361 8.65589 7.10705 8.65439 7.15049 8.65214C7.28304 8.79743 7.43882 8.91725 7.61181 9.00937C7.59908 9.25202 7.65524 9.49391 7.77357 9.70585C7.90688 9.92829 8.12107 10.0908 8.37121 10.1589C8.43112 10.5559 8.52773 10.9723 8.60787 11.319L8.64157 11.465L8.64232 11.4658C8.71946 11.8904 9.08493 12.202 9.51705 12.211H9.69604C10.1709 12.2117 10.561 11.8373 10.5805 11.3632L10.6958 10.0519C11.1811 9.86987 11.9361 9.46845 12.3225 8.65439C12.3472 8.65514 12.3712 8.65589 12.3959 8.65589C12.6857 8.66338 12.9763 8.62593 13.2549 8.5458C13.1066 9.13219 12.9126 9.70586 12.6752 10.2623C12.2192 11.3699 12.1705 12.3158 12.53 13.0737C12.694 13.4167 12.9396 13.714 13.2444 13.9409C12.2019 14.4314 10.7198 15.5503 10.3663 15.8222C10.3588 15.8281 10.3521 15.8341 10.3446 15.8401C7.88881 18.1235 6.36193 18.5451 5.63914 18.5819C6.93626 17.1036 6.53784 15.8731 6.23902 14.9527L6.23078 14.9279C5.908 13.9311 5.09918 14.0682 4.38471 14.1895C4.16304 14.227 3.93386 14.2659 3.6942 14.2846C3.16697 14.3251 2.99996 14.2344 2.94679 14.1768C2.87565 14.0989 2.86441 13.9169 2.91234 13.6196C2.98948 13.147 2.82472 12.9381 2.63525 12.7816L2.6315 12.7786C2.63525 12.7666 2.64124 12.7516 2.64873 12.7329L2.65022 12.7336C2.76855 12.497 2.75058 12.2147 2.60304 11.9937C2.53789 11.8776 2.49445 11.8012 2.59855 11.5167C2.69441 11.2987 2.66445 11.0456 2.51991 10.8554C2.31621 10.5993 1.92157 10.5229 1.58605 10.5094Z" fill="#040202"/>
</svg>
