<svg width="12" height="15" viewBox="0 0 12 15" fill="none" xmlns="http://www.w3.org/2000/svg">
<path d="M4.91185 6.64529V7.64957L5.06786 8.37557C5.2263 8.43277 6.08177 8.70998 6.92009 8.37766L7.07446 7.64964V6.63525C6.73744 6.77642 6.3692 6.85549 5.98242 6.85549M4.91185 6.64529V6.5912C5.24171 6.72863 5.6022 6.80514 5.97979 6.80549L5.98242 6.85549M4.91185 6.64529C5.24314 6.7805 5.60439 6.85549 5.98242 6.85549M4.91185 6.64529L5.98243 6.80567V6.85549C5.98243 6.85549 5.98242 6.85549 5.98242 6.85549M3.34618 9.98385L3.3459 9.98344C3.3072 9.9246 3.29966 9.84918 3.32775 9.78335L3.32771 9.78344L3.37379 9.80286L3.32782 9.78319L4.11738 7.90955C2.74302 8.10334 1.37462 9.4211 1.37462 11.4635L1.37455 13.6249H3.07189V12.628C3.07189 12.5111 3.16658 12.4153 3.28351 12.4153C3.40043 12.4153 3.49513 12.5111 3.49513 12.628V13.6249H5.50886C4.02904 12.2577 3.7714 10.9322 3.75955 10.8663L3.75949 10.866C3.75299 10.8283 3.75617 10.7893 3.77027 10.7526L3.34618 9.98385ZM3.34618 9.98385C3.38539 10.0422 3.45117 10.079 3.52278 10.079H4.02778M3.34618 9.98385L4.02778 10.079M4.02778 10.079L3.77029 10.7525L4.02778 10.079ZM8.25217 10.725L8.25221 10.7251C8.26542 10.7609 8.2687 10.7991 8.26213 10.8363L8.21289 10.8276L8.26213 10.8363C8.25042 10.9025 7.99639 12.2429 6.53573 13.625H8.46964V12.6281C8.46964 12.5112 8.56433 12.4154 8.68126 12.4154C8.79818 12.4154 8.89287 12.5112 8.89287 12.6281V13.625H10.6269L10.6262 11.463V11.463C10.6262 9.44682 9.2927 8.1374 7.937 7.91841L8.68836 9.74624L8.68842 9.7464L8.64218 9.76541L8.25217 10.725ZM8.25217 10.725L7.997 10.0403L8.25217 10.725ZM4.4872 7.45924H4.46523C2.52066 7.45924 0.95 9.26173 0.95 11.4632L0.95 11.4632L0.951263 13.8374C0.951263 13.8374 0.951263 13.8374 0.951263 13.8374C0.95127 13.9543 1.04596 14.05 1.16288 14.05H10.8378C10.9547 14.05 11.0494 13.9543 11.0494 13.8374L11.05 11.4621C11.05 9.26123 9.4793 7.45924 7.53526 7.45924L7.53525 7.45928H7.49763V6.4261C7.49763 6.42188 7.49732 6.41762 7.49681 6.41344C8.32189 5.89261 8.87453 4.96345 8.87453 3.90271C8.87453 2.27512 7.57786 0.95 5.98104 0.95C4.38489 0.95 3.0882 2.27572 3.0882 3.90271C3.0882 4.97248 3.65038 5.90927 4.4872 6.42689V7.45924ZM7.51833 9.70488C7.47984 9.76022 7.4706 9.82954 7.49021 9.89163L7.49019 9.89242L7.49358 9.90152L7.83363 10.8149C7.77442 11.0616 7.46251 12.1322 6.31857 13.2466L7.4572 7.88391H7.46526L8.17606 9.61355H7.69195C7.62283 9.61355 7.5575 9.64739 7.51833 9.70488ZM4.46481 9.6979C4.42835 9.66976 4.3832 9.65365 4.33586 9.65365H3.84239L4.54941 7.97647L5.67028 13.1942C4.56275 12.1167 4.25052 11.0884 4.18929 10.8447L4.53409 9.94257L4.53428 9.94205C4.5581 9.87759 4.54996 9.80407 4.51039 9.746L4.5102 9.74573L4.47162 9.68909L4.46481 9.6979ZM7.67094 2.06341C8.09112 2.46803 8.37344 3.02018 8.43663 3.63924L6.87586 2.69912C7.13775 2.52115 7.40409 2.3112 7.67094 2.06341ZM5.99132 1.37471C6.48853 1.37653 6.9508 1.53042 7.33822 1.79205C5.65489 3.32696 3.99546 3.25365 3.60989 3.21208C3.90426 2.15283 4.85563 1.37471 5.98238 1.37471H5.99132ZM3.51281 3.90279C3.51281 3.81168 3.51933 3.7215 3.5292 3.63199C3.61504 3.6435 3.76308 3.65801 3.96218 3.65801C4.51664 3.65801 5.46014 3.54248 6.51426 2.92756C6.73697 3.22418 7.3234 3.84299 8.44322 4.07597C8.355 5.38937 7.28569 6.43015 5.98239 6.43015C4.62156 6.43015 3.51282 5.29742 3.51278 3.90279L3.51281 3.90279ZM3.80876 10.8574C3.81937 10.9164 4.0777 12.2541 5.58283 13.6249L3.80876 10.8574ZM5.99909 12.7137L5.16979 8.85219C5.37723 8.90703 5.68151 8.96524 6.03347 8.96524C6.27689 8.96524 6.54404 8.93639 6.81745 8.85952L5.99909 12.7137Z" fill="#B66357" stroke="#B66357" stroke-width="0.1"/>
</svg>
