<svg width="18" height="21" viewBox="0 0 18 21" fill="none" xmlns="http://www.w3.org/2000/svg">
<path d="M15.5358 12.9702V0.268105C15.5358 0.120982 15.4177 0.00193274 15.2706 0H1.00151C0.85439 0 0.734375 0.120023 0.734375 0.268105V17.1486C0.734375 17.2967 0.854398 17.4167 1.00151 17.4167H11.9961C12.2419 17.7497 12.5555 18.0265 12.9156 18.2307V20.7319C12.9156 20.8393 12.9804 20.9361 13.0792 20.9787C13.1121 20.9923 13.1479 21 13.1837 21C13.2544 21 13.3202 20.9729 13.3695 20.9245L14.3704 19.9527L15.3722 20.9245C15.4496 20.999 15.5658 21.0203 15.6645 20.9777C15.7632 20.9361 15.8281 20.8384 15.8271 20.7309V18.2298C16.8018 17.681 17.3796 16.6269 17.3187 15.5098C17.2567 14.3938 16.5656 13.4086 15.5358 12.9702ZM1.26969 16.8805V0.536211H15.0006V12.7997C13.9126 12.5558 12.7811 12.9487 12.0774 13.8131C11.3747 14.6774 11.2208 15.8651 11.6806 16.8804L1.26969 16.8805ZM15.29 20.0978L14.5563 19.3854C14.4527 19.2837 14.2872 19.2847 14.1827 19.3863L13.449 20.0987V18.4688C14.0433 18.6836 14.6947 18.6836 15.2881 18.4688L15.29 20.0978ZM14.3705 18.0942C13.3929 18.0942 12.5121 17.5066 12.1375 16.6036C11.7639 15.7015 11.97 14.662 12.6611 13.9708C13.3513 13.2797 14.3908 13.0726 15.2939 13.4462C16.196 13.8198 16.7854 14.7007 16.7854 15.6783C16.7835 17.012 15.7043 18.0922 14.3705 18.0942Z" fill="#040202"/>
<path d="M14.3701 13.8394C13.6267 13.8394 12.956 14.2875 12.6714 14.9747C12.3868 15.662 12.5436 16.4527 13.0692 16.9793C13.5958 17.5049 14.3865 17.6617 15.0738 17.3771C15.761 17.0926 16.2091 16.4218 16.2091 15.6784C16.2091 14.663 15.3854 13.8394 14.3701 13.8394ZM14.3701 16.9823C13.8426 16.9823 13.3673 16.6639 13.166 16.177C12.9647 15.6901 13.076 15.1297 13.4486 14.7571C13.8213 14.3844 14.3817 14.2731 14.8686 14.4744C15.3554 14.6758 15.6739 15.151 15.6739 15.6785C15.6739 16.3986 15.0902 16.9833 14.3701 16.9852V16.9823Z" fill="#040202"/>
<path d="M3.5649 4.62095L5.55299 5.50465L5.55396 7.35433C5.55396 7.42015 5.57816 7.48404 5.62268 7.5334C5.65752 7.57212 6.488 8.47132 8.13053 8.47132C9.77309 8.47132 10.6045 7.57116 10.6384 7.5334C10.6829 7.48113 10.7081 7.41338 10.7071 7.34466V5.50561L12.3197 4.78935V6.91103C12.3197 7.05815 12.4397 7.17817 12.5868 7.17817C12.7349 7.17817 12.8549 7.05814 12.8549 6.91103V4.37617C12.8539 4.32971 12.8404 4.28518 12.8172 4.2455C12.8113 4.23582 12.8055 4.22711 12.7978 4.21743C12.7726 4.18258 12.7397 4.15548 12.701 4.13709C12.6981 4.13709 12.6971 4.13322 12.6952 4.13128L8.23899 2.15092C8.17027 2.12092 8.09187 2.12092 8.02218 2.15092L3.56499 4.13128C3.46916 4.17484 3.40625 4.27066 3.40625 4.37617C3.40625 4.48167 3.46908 4.57739 3.5649 4.62095ZM10.1719 7.24204C9.96379 7.42981 9.29108 7.93701 8.13055 7.93701C6.97001 7.93701 6.29732 7.42981 6.09017 7.243V5.74273L8.02214 6.60126C8.09086 6.63223 8.17023 6.63127 8.23895 6.60029L10.1709 5.74176L10.1719 7.24204ZM8.13055 2.68895L11.9266 4.37603L8.12955 6.06312L4.33346 4.37603L8.13055 2.68895Z" fill="#040202"/>
<path d="M3.53276 10.5704H12.7358C12.8829 10.5704 13.003 10.4504 13.003 10.3023C13.003 10.1552 12.8829 10.0352 12.7358 10.0352H3.53276C3.38564 10.0352 3.26562 10.1552 3.26562 10.3023C3.26562 10.4504 3.38565 10.5704 3.53276 10.5704Z" fill="#040202"/>
<path d="M8.86373 11.7331H3.52095C3.44835 11.7302 3.3777 11.7573 3.32446 11.8077C3.27219 11.8589 3.24219 11.9286 3.24219 12.0012C3.24219 12.0748 3.27219 12.1445 3.32446 12.1948C3.3777 12.2451 3.44835 12.2723 3.52095 12.2693H8.86373C8.93633 12.2723 9.00698 12.2451 9.06022 12.1948C9.11249 12.1445 9.14249 12.0748 9.14249 12.0012C9.14249 11.9286 9.11249 11.8589 9.06022 11.8077C9.00698 11.7573 8.93633 11.7302 8.86373 11.7331Z" fill="#040202"/>
</svg>
