<svg width="40" height="49" viewBox="0 0 40 49" fill="none" xmlns="http://www.w3.org/2000/svg">
<path d="M17.9081 0.835376C19.0943 -0.256834 20.92 -0.280377 22.1358 0.778511C24.8793 3.16879 27.4392 4.75124 29.8079 5.53362C32.1665 6.31601 34.6771 6.91603 37.3375 7.33563C38.8711 7.57682 40 8.89062 40 10.4338V29.4147C40 33.109 38.2158 36.578 35.2019 38.7405L23.6988 46.9936C21.4902 48.5779 18.5097 48.5779 16.3012 46.9936L4.79812 38.7405C1.78427 36.5777 0 33.1088 0 29.4147V10.471C0 8.91401 1.14672 7.59435 2.69411 7.36691C5.04878 7.01983 7.54751 6.41003 10.1924 5.53352C12.7444 4.69035 15.1701 3.25498 17.4658 1.23336L17.9081 0.835376ZM20.7483 2.35111C20.3417 1.99815 19.7338 2.00599 19.3312 2.3766L18.8713 2.79034C16.3607 5.00217 13.6882 6.5807 10.8602 7.51799C8.10292 8.43175 5.48359 9.07102 3.00472 9.43571C2.48763 9.51218 2.10473 9.95139 2.10473 10.471V29.4148C2.10473 32.4384 3.56527 35.2759 6.03242 37.0464L17.5354 45.2995C19.0079 46.3544 20.9934 46.3544 22.4658 45.2995L33.9688 37.0464C36.436 35.2758 37.8965 32.4384 37.8965 29.4148V10.4339C37.8965 9.92017 37.5195 9.48094 37.0083 9.40052C34.2353 8.96325 31.612 8.33773 29.1413 7.51809C26.4807 6.63767 23.687 4.91201 20.7483 2.35111Z" fill="#B66357"/>
<path d="M27.5893 33.011C25.9126 34.6558 23.2324 33.9368 21.3496 33.0934C19.9914 32.4869 18.7516 31.6535 17.5943 30.7287C16.3235 29.7105 15.1662 28.5437 14.1587 27.2636C13.2485 26.1069 12.4307 24.8728 11.844 23.5163C11.3659 22.4158 10.9901 21.239 11.0002 20.0309C11.0102 19.0639 11.3036 18.1131 11.9877 17.4092C12.482 16.9052 12.9853 16.4121 13.4846 15.9131C13.6955 15.7022 13.8965 15.4813 14.1376 15.3016C14.7956 14.8136 15.6907 14.9471 16.2673 15.4914C16.8078 16.0005 17.3161 16.5397 17.8415 17.0648C18.0625 17.2857 18.3047 17.4966 18.4744 17.7587C18.9014 18.4214 18.7316 19.2749 18.2022 19.8151C17.94 20.0822 17.6677 20.3493 17.3995 20.6174C17.2659 20.7509 17.1323 20.8845 16.9987 21.018C16.9675 21.0491 16.9313 21.0853 16.9012 21.1154C16.865 21.1516 16.7626 21.2801 16.8339 21.1827C16.9263 21.0542 16.7254 21.3624 16.7364 21.3674C16.7515 21.3725 16.7927 21.1877 16.7465 21.3524C16.7314 21.4136 16.7154 21.4709 16.7003 21.5321C16.6742 21.6406 16.6591 21.6145 16.6953 21.5171C16.6752 21.5632 16.6852 21.6406 16.6802 21.6918C16.6752 21.8153 16.6802 21.9388 16.6902 22.0673C16.6902 22.0934 16.6953 22.1235 16.7003 22.1496C16.7003 22.1446 16.6691 22.001 16.6902 22.0884C16.7053 22.1557 16.7164 22.227 16.7264 22.2942C16.7575 22.4378 16.7937 22.5774 16.8399 22.716C16.8811 22.8545 16.9323 22.9931 16.9836 23.1276C16.9936 23.1588 17.0097 23.1949 17.0248 23.225C17.0197 23.21 16.9786 23.1226 17.0197 23.205C17.0609 23.2923 17.1021 23.3797 17.1433 23.467C17.298 23.7803 17.4728 24.0835 17.6677 24.3768C17.8837 24.7111 18.0485 24.927 18.2795 25.2042C18.7989 25.8207 19.3806 26.392 20.0125 26.8901C20.1973 27.0337 20.568 27.2907 20.8403 27.4604C21.1286 27.6402 21.432 27.8048 21.7404 27.9434C21.7715 27.9585 21.8077 27.9745 21.8378 27.9896C21.8278 27.9846 21.7354 27.9484 21.8178 27.9796C21.8901 28.0107 21.9664 28.0408 22.0388 28.0669C22.1824 28.1181 22.3271 28.1643 22.4758 28.2055C22.6044 28.2416 22.7329 28.2667 22.8615 28.2928C22.8927 28.2979 22.9178 28.3029 22.9489 28.3079C22.9439 28.3079 22.7942 28.2928 22.8877 28.2979C22.96 28.3029 23.0313 28.3129 23.1087 28.3129C23.2222 28.3179 23.3297 28.3079 23.4432 28.3079C23.5869 28.3029 23.2995 28.344 23.4332 28.3079C23.4944 28.2928 23.5567 28.2818 23.613 28.2667C23.623 28.2617 23.7416 28.2256 23.7416 28.2256C23.7366 28.2105 23.5617 28.323 23.6803 28.2517C23.7004 28.2416 23.7215 28.2316 23.7366 28.2205C23.7727 28.2005 23.8089 28.1693 23.845 28.1533C23.9274 28.1171 23.7315 28.2667 23.7938 28.1944C23.8139 28.1743 23.835 28.1583 23.8551 28.1382C24.0711 27.9324 24.2821 27.7114 24.493 27.5006C24.7351 27.2586 24.9662 27.0126 25.2133 26.7806C25.8663 26.1581 26.8438 26.143 27.5179 26.7445C28.0272 27.2023 28.4954 27.7164 28.9786 28.2045C29.1634 28.3892 29.3543 28.5639 29.5291 28.7547C30.157 29.4235 30.157 30.4105 29.5291 31.0782C29.061 31.5773 28.5567 32.0502 28.0734 32.5332C27.9137 32.6818 27.7489 32.8465 27.5892 33.0112C27.2959 33.3044 26.7915 33.3044 26.4992 33.0112C26.2059 32.718 26.2059 32.2139 26.4992 31.9217C26.9523 31.4689 27.4043 31.017 27.8574 30.5642C28.0473 30.3744 28.2432 30.1836 28.4331 29.9888C28.4381 29.9838 28.4381 29.9838 28.4431 29.9788C28.3708 30.0511 28.4742 29.9376 28.4943 29.8964C28.4381 30.0249 28.5205 29.799 28.4742 29.9426C28.4742 29.9326 28.4742 29.8141 28.4793 29.9065C28.4893 30.0149 28.4381 29.8091 28.4793 29.8964C28.5154 29.9737 28.3868 29.7629 28.4331 29.8191C28.4642 29.8553 28.4481 29.8392 28.4381 29.8342C28.418 29.8141 28.3919 29.788 28.3708 29.7669L26.7815 28.1784C26.6941 28.091 26.5916 28.0037 26.5092 27.9063C26.4942 27.8912 26.4781 27.8701 26.458 27.8551C26.4479 27.845 26.5554 27.9113 26.468 27.8551C26.4369 27.835 26.4068 27.8139 26.3756 27.8038C26.4841 27.85 26.3656 27.8038 26.3605 27.8139C26.3555 27.8189 26.4942 27.8239 26.3917 27.8239C26.2892 27.8239 26.4228 27.8189 26.4228 27.8139C26.4178 27.8089 26.3043 27.8551 26.3816 27.8189C26.454 27.7828 26.3505 27.834 26.3455 27.839C26.232 27.9163 26.3656 27.8129 26.2942 27.8852C26.1968 27.9876 26.0933 28.086 25.9959 28.1834C25.4865 28.6925 24.9722 29.3663 24.2931 29.6484C23.2081 30.1063 21.9584 29.7207 20.9446 29.2528C19.5974 28.6252 18.3829 27.6331 17.4053 26.5226C16.4901 25.4844 15.6613 24.2603 15.3067 22.9038C15.0445 21.9168 15.0696 20.8012 15.816 20.0251C16.253 19.5722 16.7161 19.1354 17.1582 18.6836C17.112 18.7298 17.1431 18.7097 17.1733 18.6635C17.1783 18.6585 17.2295 18.55 17.1933 18.6273C17.1572 18.7047 17.2034 18.5912 17.1984 18.5862C17.1933 18.5812 17.1883 18.7197 17.1883 18.6173C17.1883 18.5149 17.1933 18.6484 17.1984 18.6484C17.2034 18.6434 17.1572 18.5299 17.1933 18.6073C17.2345 18.6896 17.1471 18.5249 17.1321 18.5099C17.2094 18.6022 17.0708 18.4637 17.0497 18.4486C16.7975 18.1966 16.5454 17.9446 16.2882 17.6875C15.9999 17.3993 15.7126 17.1121 15.4242 16.824C15.3469 16.7466 15.2645 16.6693 15.1932 16.593C15.1882 16.588 15.147 16.5418 15.1882 16.5779C15.2394 16.6241 15.0335 16.4906 15.1108 16.5318C15.1882 16.5679 15.0746 16.5217 15.0696 16.5267C15.0696 16.5267 15.1831 16.5006 15.0646 16.5368C15.0957 16.5267 15.2083 16.4956 15.0596 16.5418C15.0696 16.5368 15.157 16.4906 15.0797 16.5318C15.0385 16.5518 14.9611 16.6292 15.0284 16.5629C15.0134 16.5779 14.9973 16.589 14.9872 16.6041C14.9099 16.6964 14.8175 16.7737 14.7301 16.8611L13.1508 18.4396C13.0946 18.4958 13.0323 18.5581 12.9811 18.6193C12.966 18.6344 12.9549 18.6554 12.9399 18.6705C12.8625 18.7528 12.9961 18.6344 12.9811 18.6193C12.9811 18.6193 12.9137 18.7167 12.9087 18.7277C12.8575 18.8051 12.8113 18.8924 12.7651 18.9748C12.75 19.0009 12.6877 19.1445 12.7389 19.026C12.7902 18.9075 12.7239 19.0671 12.7128 19.1033C12.6817 19.1957 12.6515 19.2931 12.6304 19.3915C12.6104 19.4838 12.5943 19.5812 12.5742 19.6746C12.5541 19.7771 12.5842 19.51 12.5842 19.6134C12.5842 19.6395 12.5792 19.6646 12.5742 19.6857C12.5692 19.7419 12.5641 19.8042 12.5641 19.8604C12.5541 20.0913 12.5591 20.3233 12.5792 20.5542C12.5842 20.6105 12.5943 20.6677 12.5943 20.7239C12.5993 20.8113 12.5842 20.6627 12.5842 20.6627C12.5893 20.6938 12.5943 20.7189 12.5993 20.75C12.6194 20.8886 12.6455 21.0222 12.6767 21.1617C12.7952 21.707 12.975 22.2361 13.186 22.7502C13.1398 22.6318 13.2011 22.7864 13.2171 22.8276C13.2533 22.9049 13.2845 22.9822 13.3196 23.0585C13.3869 23.2021 13.4582 23.3467 13.5306 23.4903C13.6793 23.7885 13.844 24.0817 14.0138 24.3699C15.4956 26.8631 17.6655 29.0891 20.0886 30.6626C20.6442 31.022 21.2148 31.3514 21.8115 31.6396C21.9551 31.7068 22.0948 31.7731 22.2385 31.8354C22.2696 31.8504 22.3058 31.8665 22.3359 31.8765C22.3259 31.8715 22.2334 31.8354 22.3158 31.8665C22.3932 31.8976 22.4645 31.9277 22.5419 31.9538C22.8091 32.0563 23.0823 32.1497 23.3596 32.226C23.6168 32.2983 23.874 32.3595 24.1362 32.4057C24.1924 32.4157 24.2497 32.4258 24.311 32.4368C24.4657 32.4629 24.1824 32.4268 24.331 32.4418C24.4596 32.4519 24.5882 32.468 24.7168 32.473C24.9429 32.483 25.1639 32.473 25.3909 32.4529C25.5346 32.4429 25.2362 32.484 25.3809 32.4529C25.4271 32.4429 25.4733 32.4378 25.5245 32.4268C25.622 32.4067 25.7204 32.3806 25.8179 32.3495C25.8691 32.3344 25.9203 32.3133 25.9665 32.2983C26.1263 32.242 25.9464 32.3033 25.9515 32.3083C25.9565 32.3133 26.1675 32.1999 26.1886 32.1898C26.2247 32.1697 26.2659 32.1436 26.3021 32.1225C26.3332 32.1025 26.4719 32.0041 26.3634 32.0814C26.2609 32.1587 26.3784 32.0663 26.4045 32.0452C26.4407 32.0091 26.4819 31.9779 26.5181 31.9428C26.8164 31.6496 27.3097 31.6446 27.6081 31.9428C27.8823 32.2139 27.8873 32.718 27.589 33.0112L27.5893 33.011Z" fill="#B66357"/>
</svg>
