<svg width="40" height="49" viewBox="0 0 40 49" fill="none" xmlns="http://www.w3.org/2000/svg">
<path d="M17.9077 0.835376C19.0939 -0.256834 20.9196 -0.280377 22.1354 0.778511C24.8789 3.16879 27.4387 4.75124 29.8075 5.53362C32.1661 6.31601 34.6766 6.91603 37.337 7.33563C38.8706 7.57682 39.9996 8.89062 39.9996 10.4338V29.4147C39.9996 33.109 38.2153 36.578 35.2014 38.7405L23.6984 46.9936C21.4898 48.5779 18.5093 48.5779 16.3007 46.9936L4.79769 38.7405C1.78384 36.5777 -0.000427246 33.1088 -0.000427246 29.4147V10.471C-0.000427246 8.91401 1.14629 7.59435 2.69369 7.36691C5.04836 7.01983 7.54708 6.41003 10.1919 5.53352C12.744 4.69035 15.1697 3.25498 17.4653 1.23336L17.9077 0.835376ZM20.7479 2.35111C20.3413 1.99815 19.7334 2.00599 19.3307 2.3766L18.8709 2.79034C16.3603 5.00217 13.6878 6.5807 10.8598 7.51799C8.1025 8.43175 5.48316 9.07102 3.0043 9.43571C2.4872 9.51218 2.10431 9.95139 2.10431 10.471V29.4148C2.10431 32.4384 3.56485 35.2759 6.03199 37.0464L17.535 45.2995C19.0074 46.3544 20.993 46.3544 22.4654 45.2995L33.9684 37.0464C36.4356 35.2758 37.8961 32.4384 37.8961 29.4148V10.4339C37.8961 9.92017 37.5191 9.48094 37.0079 9.40052C34.2348 8.96325 31.6116 8.33773 29.1408 7.51809C26.4803 6.63767 23.6865 4.91201 20.7479 2.35111Z" fill="#B66357"/>
<path d="M30.7709 21.9742L31.9983 21.4806L30.7417 20.5852L31.8805 20.1241L24.6752 15L20.2054 16.3744L20.8124 16.8894L24.5317 15.7405L30.4491 19.9581L26.4457 21.5872L26.4211 21.5962L26.0766 21.318L29.8094 19.856L24.4779 16.0245L21.0625 17.106L20.8056 16.8906L20.1919 16.3756L19.7667 16.0188L14.4036 17.7725L14.7469 18.0485L8.77698 19.8953L9.89445 20.9084L8.78034 21.2517L9.91352 22.2705L8.78034 22.6205L9.91352 23.6393L8.78034 23.9894L9.91352 25.0081L8.78034 25.3582L9.91352 26.3769L8.78034 26.727L16.0035 33.2907L21.0735 31.2195V31.721L26.5308 29.8025V29.1281L31.9703 26.9538L30.7563 26.0786L31.9916 25.5849L30.7675 24.7098L31.9972 24.2161L30.7709 23.341L31.9994 22.8473L30.7709 21.9742ZM24.3589 16.7683L28.4114 19.681L25.4897 20.8255L24.8715 20.306C24.6707 18.6702 23.0528 18.1058 22.0228 17.9128L21.6728 17.6189L24.3589 16.7683ZM15.3878 18.5646L15.6907 18.8069L10.9067 20.3227L16.2999 25.1483L21.0773 23.2421L21.0739 23.3655V23.6135L16.0823 25.6768L10.0448 20.1871L15.3878 18.5646ZM19.834 22.1414L20.5846 22.7461L16.4399 24.3685L12.2347 20.6076L16.321 19.3139L16.6139 19.5495C16.551 20.3237 16.7687 22.0179 19.8339 22.1413L19.834 22.1414ZM15.943 26.4586L21.0736 24.3404V25.0203L16.1437 27.0342L10.0761 21.5456L10.4172 21.4346L15.943 26.4586ZM16.0058 27.814L21.0739 25.7451V26.388L16.1439 28.4008L10.0763 22.9122L10.441 22.7933L16.0058 27.814ZM16.0058 29.1828L21.0739 27.1139V27.7568L16.1439 29.7707L10.0763 24.2821L10.441 24.1643L16.0058 29.1828ZM16.0058 30.5516L21.0739 28.4827V29.1256L16.1439 31.1395L10.0763 25.6509L10.441 25.532L16.0058 30.5516ZM16.1438 32.5072L10.0762 27.0186L10.479 26.8997L15.9957 31.9204L21.0738 29.8515V30.4944L16.1438 32.5072ZM25.6693 22.5373V29.3354L21.9354 30.7524V23.0422L21.2151 22.4621L17.0446 19.0683L16.4376 18.5612L16.1504 18.3199L15.788 18.0237L19.6184 16.7727L20.0391 17.125L20.3017 17.345L20.9131 17.8577L24.776 21.1036L25.3269 21.5962L25.6691 21.9933L25.6693 22.5373ZM30.578 22.6832L26.531 24.2977V23.6548L29.9866 22.2714L30.578 22.6832ZM29.9743 20.8836L30.5645 21.3133L26.531 22.93V22.2681L29.9743 20.8836ZM30.578 26.7886L26.531 28.4042V27.7613L29.9866 26.378L30.578 26.7886ZM30.578 25.4209L26.531 27.0354V26.3926L29.9866 25.0092L30.578 25.4209ZM30.578 24.0521L26.531 25.6667V25.0238L29.9866 23.6404L30.578 24.0521Z" fill="#B66357"/>
</svg>
