<svg width="51" height="51" viewBox="0 0 51 51" fill="none" xmlns="http://www.w3.org/2000/svg">
<path d="M11.5252 11.7951L11.5337 11.799L11.5351 11.7996C11.5462 11.8047 11.5744 11.8178 11.6096 11.8178C11.6483 11.8178 11.6837 11.8146 11.7213 11.8084L11.7223 11.8083L11.8367 11.7884H42.6573C45.4641 11.7884 47.7446 14.0225 47.7446 16.7631V24.7085C47.5172 24.6563 47.2835 24.6268 47.047 24.6268H31.5611C31.3982 24.6268 31.2372 24.6378 31.0785 24.6627M31.0785 24.6627C31.0785 24.6627 31.0786 24.6627 31.0787 24.6627L31.094 24.7615L31.0785 24.6627ZM40.8846 5.79119L40.8845 5.7907L30.3735 1.02386L30.4033 0.928431C30.4032 0.928403 30.4032 0.928375 30.4031 0.928347C30.2403 0.87747 30.0604 0.896845 29.9128 0.972205L29.9122 0.972508L11.506 10.5204H7.28002C3.76317 10.5204 0.9 13.3209 0.9 16.7641V43.8563C0.9 47.3021 3.76312 50.1 7.28002 50.1H42.6574C46.1742 50.1 49.0374 47.3022 49.0374 43.8563V35.2502C49.6976 34.6869 50.1 33.89 50.1 33.0311L50.1 27.5902L50.1 27.5899C50.0972 26.7337 49.6974 25.9397 49.0376 25.3715V16.7638C49.0376 13.318 46.1745 10.5201 42.6576 10.5201H41.7896L40.8846 5.79119ZM48.8048 33.0299V33.03C48.8048 33.5758 48.5243 34.0951 48.0653 34.4158H48.0647L48.0402 34.4312C47.7333 34.6246 47.3994 34.7231 47.0446 34.7231H31.5615C30.5862 34.7231 29.8012 33.9601 29.8012 33.03V27.5892C29.8012 27.4154 29.8341 27.235 29.9095 27.0368L29.9095 27.0368L29.9106 27.0336C30.139 26.3659 30.8174 25.896 31.5642 25.896H47.0473C47.4019 25.896 47.7355 25.9945 48.031 26.1793C48.5205 26.5067 48.8103 27.0344 48.8103 27.5891C48.8103 27.5891 48.8103 27.5891 48.8103 27.5892L48.8048 33.0299ZM40.4741 10.5198H18.749L32.2328 8.04586L32.2335 8.04572L33.4034 7.82215C33.4152 7.82067 33.425 7.81756 33.4322 7.81473C33.4384 7.81228 33.4437 7.80959 33.4479 7.80725L39.7318 6.64751L40.4741 10.5198Z" fill="#B66357" stroke="#B66357" stroke-width="0.2"/>
</svg>
