<svg width="16" height="12" viewBox="0 0 16 12" fill="none" xmlns="http://www.w3.org/2000/svg">
<path d="M14.6994 2.12083L9.74189 5.38348C9.68213 5.38749 9.62374 5.41274 9.57914 5.45858C9.56101 5.47706 9.54626 5.49769 9.53493 5.51968L8.18113 6.41065L1.52977 2.11843C1.73467 1.69532 2.1679 1.40356 2.6696 1.40299L13.5585 1.40299M13.5585 1.40299C13.5584 1.40299 13.5584 1.40299 13.5584 1.40299L13.5585 1.30299V1.40299H13.5585ZM13.5585 11.1H13.5586C13.9527 11.0996 14.3166 10.9706 14.6106 10.7525C14.648 10.7738 14.6907 10.7854 14.7355 10.7854C14.839 10.7854 14.9289 10.7227 14.9677 10.6298L14.9682 10.6286C14.9966 10.5581 14.9912 10.4793 14.9565 10.4142C15.1887 10.115 15.3273 9.73944 15.328 9.33155V9.33136V2.66864L15.328 2.66845C15.3277 2.49792 15.3033 2.33303 15.258 2.17701C15.2544 2.15488 15.2477 2.13297 15.2378 2.11189C15.0037 1.40829 14.3406 0.90072 13.5586 0.9H13.5585L2.66948 0.9L2.66939 0.9C1.88307 0.900723 1.21692 1.41395 0.986374 2.12365C0.981389 2.13601 0.977452 2.14867 0.974548 2.1615C0.926357 2.32208 0.900325 2.49225 0.9 2.66845V2.66864L0.9 9.33136L0.9 9.33155C0.90075 9.73922 1.03913 10.1146 1.27115 10.4137C1.23602 10.479 1.23064 10.5578 1.25905 10.6283L1.25904 10.6283L1.25953 10.6295C1.29862 10.723 1.3898 10.7851 1.49262 10.7851C1.53696 10.7851 1.57967 10.7732 1.61686 10.7521C1.91097 10.9704 2.27507 11.0996 2.66939 11.1H2.66948H13.5585ZM14.2387 10.3987C14.0422 10.5242 13.8089 10.597 13.5584 10.5973H2.66959C2.41884 10.597 2.1852 10.524 1.98861 10.3982L6.51928 5.93683L8.04545 6.92179C8.04555 6.92186 8.04566 6.92194 8.04577 6.92201C8.08666 6.9487 8.13444 6.96275 8.18253 6.96275C8.23179 6.96275 8.27962 6.94833 8.32043 6.92159L8.3206 6.92148L9.75081 5.9802L14.2387 10.3987ZM14.6007 10.0493L10.1805 5.69743L14.824 2.64133C14.8242 2.6505 14.8243 2.65969 14.8243 2.6689V9.3314C14.824 9.59803 14.7415 9.84531 14.6007 10.0493Z" fill="#969292" stroke="#969292" stroke-width="0.2"/>
</svg>
