<svg width="40" height="50" viewBox="0 0 40 50" fill="none" xmlns="http://www.w3.org/2000/svg">
<path d="M15.775 21.7157V25.561L16.3798 28.2955C16.8501 28.4658 20.2515 29.6037 23.5749 28.3016L24.173 25.5611V21.6773C22.8691 22.2268 21.4384 22.5357 19.9332 22.5357M15.775 21.7157V21.6075C17.0545 22.1388 18.4576 22.4351 19.9289 22.4357L19.9332 22.5357M15.775 21.7157C17.0572 22.2425 18.4615 22.5357 19.9332 22.5357M15.775 21.7157L19.9332 22.4364V22.5357C19.9332 22.5357 19.9332 22.5357 19.9332 22.5357M9.99092 34.125L9.99037 34.1242C9.85879 33.9299 9.83316 33.6801 9.92882 33.4627C9.92884 33.4626 9.92886 33.4626 9.92887 33.4626L12.9882 26.4084C7.66497 27.0545 2.33354 31.9815 2.33354 39.6345L2.3333 47.6997H8.96319V43.934C8.96319 43.546 9.28598 43.2335 9.67734 43.2335C10.0687 43.2335 10.3915 43.546 10.3915 43.934V47.6997H18.3595C12.6093 42.6164 11.6182 37.6485 11.575 37.4149L11.5748 37.4142C11.5526 37.2889 11.5636 37.1599 11.6114 37.0387L9.99092 34.125ZM9.99092 34.125C10.1245 34.3182 10.3469 34.4379 10.5866 34.4379H12.6348M9.99092 34.125L12.6348 34.4379M12.6348 34.4379L11.6115 37.0386L12.6348 34.4379ZM37.6722 47.7001H30.9029V43.9344C30.9029 43.5463 30.5801 43.2339 30.1888 43.2339C29.7974 43.2339 29.4746 43.5463 29.4746 43.9344V47.7001H21.8138C27.4875 42.5622 28.4646 37.5397 28.5074 37.3045C28.5298 37.1812 28.5186 37.0548 28.4737 36.9367L28.4736 36.9365L27.4605 34.295H29.4717C29.711 34.295 29.9312 34.1778 30.065 33.9844C30.1995 33.7899 30.225 33.5426 30.1324 33.3256L37.6722 47.7001ZM37.6722 47.7001L37.6696 39.6326C37.6696 32.0759 32.4716 27.1796 27.2185 26.438L30.1322 33.3253L37.6722 47.7001ZM14.3414 24.9341H14.1679C6.84154 24.9341 0.9 31.5379 0.9 39.6334L0.9 39.6335L0.904798 48.3995C0.904798 48.3995 0.904798 48.3995 0.904798 48.3996C0.904828 48.7876 1.2276 49.1 1.61894 49.1H38.3835C38.7748 49.1 39.0976 48.7876 39.0976 48.3995L39.1 39.6293C39.1 31.5361 33.1583 24.9341 25.834 24.9341L25.834 24.9343H25.601V21.0348C25.601 21.0046 25.5957 20.9743 25.5892 20.9474C28.7265 19.0458 30.8332 15.6263 30.8332 11.7177C30.8332 5.75051 25.9417 0.9 19.928 0.9C13.9168 0.9 9.02516 5.7527 9.02516 11.7177C9.02516 15.6576 11.1662 19.1038 14.3454 20.9937C14.3431 21.0059 14.3414 21.0198 14.3414 21.0347V24.9341ZM25.844 33.1888C25.7109 33.375 25.6807 33.6101 25.7533 33.819L25.7532 33.8202L25.7603 33.8385L27.0614 37.2342C26.8458 38.1223 25.6383 42.2397 21.0623 46.4763L25.464 26.3329H25.629L28.4016 32.8885H26.4294C26.1968 32.8885 25.9763 32.9994 25.844 33.1888ZM14.1754 33.2367C14.0429 33.1102 13.8641 33.0366 13.6763 33.0366H11.6672L14.5158 26.4705L18.8962 46.2834C14.459 42.1818 13.2486 38.2221 13.0254 37.3444L14.3451 33.9894L14.3455 33.9884C14.4268 33.7747 14.3988 33.5311 14.2644 33.3395L14.2639 33.339L14.184 33.2248L14.1754 33.2367ZM26.3504 4.80831C28.0241 6.3466 29.1406 8.47161 29.3604 10.8548C25.7976 10.0654 23.9045 8.14137 23.2001 7.25471C24.2367 6.57595 25.2925 5.76878 26.3504 4.80831ZM19.9558 2.29891C21.9077 2.3035 23.7194 2.90137 25.2268 3.91496C18.6143 9.82404 12.0726 9.39001 10.8042 9.24025C11.9007 5.24811 15.572 2.29894 19.9331 2.29894H19.9557L19.9558 2.29891ZM10.4587 11.718C10.4587 11.3479 10.4883 10.9828 10.5317 10.6218C10.8333 10.6648 11.4271 10.7296 12.2563 10.7296C14.3627 10.7296 17.9611 10.3007 21.9787 8.00429C22.7818 9.0664 25.0172 11.4304 29.3788 12.2898C29.0768 17.2136 24.9627 21.1344 19.9331 21.1344C14.7076 21.1344 10.4587 16.9096 10.4586 11.718L10.4587 11.718ZM19.997 44.6687L16.727 29.8737C17.509 30.0846 18.7168 30.3255 20.1272 30.3255C21.0875 30.3255 22.1452 30.2098 23.2248 29.8982L19.997 44.6687Z" fill="#B66357" stroke="#B66357" stroke-width="0.2"/>
</svg>
