<svg width="38" height="52" viewBox="0 0 38 52" fill="none" xmlns="http://www.w3.org/2000/svg">
<path d="M9.4022 21.3712L8.13034 19.332L8.13004 19.3316C7.9381 19.0277 7.5389 18.9361 7.23839 19.1312L7.23793 19.1315C6.93932 19.3276 6.85214 19.73 7.0412 20.0353L7.04138 20.0356L8.76687 22.8012L8.76701 22.8014C8.87456 22.9728 9.05464 23.0866 9.25515 23.1036C9.276 23.1061 9.2958 23.1061 9.30955 23.1061H9.31134C9.49388 23.1061 9.6659 23.0269 9.78931 22.8919L9.79013 22.891L13.7829 18.4126L9.4022 21.3712ZM9.4022 21.3712L12.8276 17.5313L12.8277 17.5311C13.0676 17.2634 13.4766 17.2419 13.7403 17.4876C14.0019 17.7314 14.0225 18.145 13.7831 18.4125L9.4022 21.3712ZM9.2552 33.9491C9.05467 33.9321 8.87457 33.8183 8.76701 33.6469L8.76687 33.6466L7.04138 30.8811L7.0412 30.8808C6.85214 30.5755 6.93932 30.1731 7.23793 29.9769L7.23868 29.9765C7.54088 29.7818 7.93804 29.873 8.13004 30.177L8.13034 30.1775L9.4022 32.2166L12.8276 28.3768L12.8277 28.3766C13.0676 28.1089 13.4766 28.0874 13.7403 28.3331C14.002 28.577 14.0226 28.9907 13.7829 29.2581L9.79012 33.7345L9.78986 33.7348C9.66631 33.8722 9.494 33.9515 9.31134 33.9515H9.30952C9.29579 33.9515 9.27602 33.9515 9.2552 33.9491ZM9.2552 33.9491C9.25438 33.949 9.25355 33.9489 9.25273 33.9488L9.26537 33.8496L9.25729 33.9493C9.25659 33.9492 9.2559 33.9491 9.2552 33.9491ZM9.25521 44.7951C9.27696 44.7976 9.29757 44.7975 9.31134 44.7975C9.49315 44.7975 9.66573 44.7208 9.78987 44.5827L9.79013 44.5824L13.7829 40.1041C14.0226 39.8367 14.002 39.423 13.7403 39.1791C13.4766 38.9333 13.0676 38.9549 12.8277 39.2226L12.8276 39.2228L9.4022 43.0626L8.13034 41.0235L8.13004 41.023C7.9381 40.7191 7.5389 40.6276 7.23839 40.8226L7.23793 40.8229C6.93932 41.0191 6.85214 41.4215 7.0412 41.7268L7.04138 41.727L8.76687 44.4926L8.76701 44.4928C8.87457 44.6643 9.05467 44.7781 9.25521 44.7951ZM9.25521 44.7951C9.2559 44.7951 9.25659 44.7952 9.25729 44.7952L9.26537 44.6956L9.25273 44.7948C9.25356 44.7949 9.25438 44.795 9.25521 44.7951ZM27.9719 8.41988V8.94474C27.9718 8.94949 27.9717 8.95426 27.9717 8.95904C27.9717 8.96381 27.9718 8.96858 27.9719 8.97333V10.8882H10.0281L10.0282 8.96984C10.0282 8.9656 10.0283 8.96135 10.0283 8.95708C10.0283 8.95284 10.0282 8.9486 10.0282 8.94438L10.0282 8.42184C10.0282 7.11775 11.0673 6.06089 12.3412 6.06089H14.8021C15.1345 6.06089 15.4097 5.80578 15.4436 5.47312C15.6357 3.61251 17.1664 2.2113 19 2.2113C20.8337 2.2113 22.3643 3.61254 22.5565 5.47118L22.5565 5.47165C22.5924 5.80329 22.865 6.05894 23.1979 6.05894H25.6588C26.9328 6.05894 27.9719 7.11585 27.9719 8.41988ZM12.3427 4.74959C10.3926 4.74959 8.80391 6.33517 8.74188 8.30238H3.53943C2.0824 8.30238 0.9 9.51112 0.9 10.9922V48.4102C0.9 49.8913 2.0824 51.1 3.53943 51.1H34.4605C35.9175 51.1 37.1 49.8913 37.1 48.4121V10.9942C37.1 9.51307 35.9176 8.30434 34.4606 8.30434H29.2593C29.1982 6.33434 27.6072 4.74959 25.6584 4.74959H23.7436C23.2457 2.51927 21.3003 0.9 18.9996 0.9C16.6989 0.9 14.7535 2.51923 14.2574 4.74959H12.3427ZM29.2611 11.5449V9.61374H34.4606C35.2039 9.61374 35.8103 10.2311 35.8103 10.9922L35.8122 48.4102C35.8122 49.1732 35.2059 49.7887 34.4625 49.7887H3.53943C2.796 49.7887 2.18971 49.1732 2.18971 48.4102V10.9922C2.18971 10.2293 2.79782 9.61374 3.53943 9.61374H3.53947L8.73999 9.612V11.5449C8.73999 11.9049 9.02615 12.1996 9.3839 12.1996H28.6156C28.9753 12.1996 29.2611 11.9029 29.2611 11.5449ZM17.4699 21.0706H30.4158C30.7736 21.0706 31.0597 20.7759 31.0597 20.4159C31.0597 20.0558 30.7736 19.7612 30.4158 19.7612H17.4699C17.1121 19.7612 16.826 20.0558 16.826 20.4159C16.826 20.7759 17.1121 21.0706 17.4699 21.0706ZM17.4699 31.9185H30.4158C30.7736 31.9185 31.0597 31.6238 31.0597 31.2638C31.0597 30.9038 30.7736 30.6091 30.4158 30.6091H17.4699C17.1121 30.6091 16.826 30.9038 16.826 31.2638C16.826 31.6239 17.1121 31.9185 17.4699 31.9185ZM17.4699 42.764H30.4158C30.7736 42.764 31.0597 42.4693 31.0597 42.1093C31.0597 41.7493 30.7736 41.4546 30.4158 41.4546H17.4699C17.1121 41.4546 16.826 41.7493 16.826 42.1093C16.826 42.4693 17.1121 42.764 17.4699 42.764Z" fill="#B66357" stroke="#B66357" stroke-width="0.2"/>
</svg>
