<svg width="48" height="48" viewBox="0 0 48 48" fill="none" xmlns="http://www.w3.org/2000/svg">
<path d="M42.8903 5.05777H34.7277V1.82206C34.7277 1.34144 34.3389 0.95 33.8556 0.95C33.375 0.95 32.9836 1.33874 32.9836 1.82206V9.21548C32.9836 9.69611 33.3723 10.0875 33.8556 10.0875C34.3363 10.0875 34.7277 9.6988 34.7277 9.21548V6.80183H42.8903C44.2219 6.80183 45.3038 7.8862 45.3038 9.21548V16.5589L2.69404 16.5564V9.21554C2.69404 7.88386 3.77837 6.80189 5.10757 6.80189H11.6785H11.7285V6.75189V5.10777V5.05777H11.6785H5.10757C2.81697 5.05777 0.95 6.92483 0.95 9.21554V42.8922C0.95 45.1829 2.81697 47.05 5.10757 47.05H42.8924C45.183 47.05 47.05 45.1829 47.05 42.8922V9.21554C47.0475 6.92236 45.1834 5.05777 42.8903 5.05777ZM45.3067 42.8419H45.3038V42.8919C45.3038 44.2236 44.2195 45.3056 42.8903 45.3056H5.10795C3.77634 45.3056 2.69442 44.2212 2.69442 42.8919V18.3004H45.3067V42.8419ZM31.3918 5.05815H15.014V1.82244C15.014 1.34182 14.6253 0.95038 14.142 0.95038C13.6614 0.95038 13.27 1.33912 13.27 1.82244V9.21586C13.27 9.69658 13.6613 10.088 14.142 10.088C14.6226 10.088 15.014 9.69924 15.014 9.21592V6.80227H31.3918H31.4418V6.75227V5.10815V5.05815H31.3918Z" fill="#B66357" stroke="#B66357" stroke-width="0.1"/>
</svg>
