<svg width="52" height="52" viewBox="0 0 52 52" fill="none" xmlns="http://www.w3.org/2000/svg">
<path d="M26.1371 11.0352H26C25.4072 11.0352 24.9241 11.5183 24.9241 12.1111V26C24.9241 26.292 25.0309 26.574 25.2284 26.7716L25.2286 26.7718L33.7644 35.2785L33.7645 35.2787M26.1371 11.0352L35.1725 33.8704C35.5341 34.2321 35.5341 34.8108 35.1725 35.1725C34.8108 35.5341 34.2321 35.5341 33.8704 35.1725L33.7645 35.2787M26.1371 11.0352L26.1379 11.0445M26.1371 11.0352L26.1379 11.0445M33.7645 35.2787C34.1848 35.6988 34.8583 35.6987 35.2785 35.2785C35.6987 34.8583 35.6988 34.1848 35.2787 33.7645C35.2786 33.7645 35.2786 33.7644 35.2785 33.7643M33.7645 35.2787L35.2785 33.7643M35.2785 33.7643L27.076 25.533V12.1116C27.076 11.5655 26.666 11.1125 26.1379 11.0445M35.2785 33.7643L26.1379 11.0445M0.849998 26C0.849998 12.1227 12.1227 0.85 26 0.85C39.8773 0.85 51.15 12.1227 51.15 26C51.15 39.8773 39.8773 51.15 26 51.15C12.1227 51.15 0.849998 39.8773 0.849998 26ZM48.9981 26C48.9981 13.2865 38.7135 3.00185 26 3.00185C13.2865 3.00185 3.00185 13.2865 3.00185 26C3.00185 38.7135 13.2865 48.9981 26 48.9981C38.7135 48.9981 48.9981 38.7135 48.9981 26Z" fill="#B66357" stroke="#B66357" stroke-width="0.3"/>
</svg>
