<svg width="40" height="49" viewBox="0 0 40 49" fill="none" xmlns="http://www.w3.org/2000/svg">
<path d="M17.9081 0.835376C19.0943 -0.256834 20.92 -0.280377 22.1358 0.778511C24.8793 3.16879 27.4391 4.75124 29.8078 5.53362C32.1665 6.31601 34.677 6.91603 37.3374 7.33563C38.871 7.57682 40 8.89062 40 10.4338V29.4147C40 33.109 38.2157 36.578 35.2018 38.7405L23.6988 46.9936C21.4902 48.5779 18.5097 48.5779 16.3011 46.9936L4.79807 38.7405C1.78422 36.5777 -4.57764e-05 33.1088 -4.57764e-05 29.4147V10.471C-4.57764e-05 8.91401 1.14667 7.59435 2.69407 7.36691C5.04874 7.01983 7.54746 6.41003 10.1923 5.53352C12.7443 4.69035 15.1701 3.25498 17.4657 1.23336L17.9081 0.835376ZM20.7483 2.35111C20.3417 1.99815 19.7338 2.00599 19.3311 2.3766L18.8712 2.79034C16.3606 5.00217 13.6882 6.5807 10.8601 7.51799C8.10288 8.43175 5.48354 9.07102 3.00468 9.43571C2.48758 9.51218 2.10469 9.95139 2.10469 10.471V29.4148C2.10469 32.4384 3.56523 35.2759 6.03237 37.0464L17.5354 45.2995C19.0078 46.3544 20.9934 46.3544 22.4658 45.2995L33.9688 37.0464C36.4359 35.2758 37.8965 32.4384 37.8965 29.4148V10.4339C37.8965 9.92017 37.5195 9.48094 37.0083 9.40052C34.2352 8.96325 31.612 8.33773 29.1412 7.51809C26.4806 6.63767 23.6869 4.91201 20.7483 2.35111Z" fill="#B66357"/>
<path d="M21.9558 27.1719C25.2879 27.1719 28 24.2179 28 20.5854C28 16.9555 25.2892 14 21.9558 14H17.6274C17.0548 14 16.5911 14.5054 16.5911 15.1294C16.5911 15.2261 16.6037 15.3194 16.6238 15.408C16.6027 15.4978 16.5911 15.5899 16.5911 15.6866V24.913H16.0364C15.4638 24.913 15 25.4184 15 26.0424C15 26.6664 15.4638 27.1718 16.0364 27.1718H16.5911V28.6362H16.0364C15.4638 28.6362 15 29.1416 15 29.7656C15 30.3896 15.4638 30.895 16.0364 30.895H16.5911V32.8706C16.5911 33.4946 17.0548 34 17.6274 34C18.2001 34 18.6638 33.4946 18.6638 32.8706V30.895H21.7224C22.2951 30.895 22.7588 30.3896 22.7588 29.7656C22.7588 29.1416 22.2951 28.6362 21.7224 28.6362H18.6638V27.1718L21.9558 27.1719ZM18.6638 16.2591H21.9569C24.147 16.2591 25.9283 18.2001 25.9283 20.5857C25.9283 22.9723 24.1471 24.9134 21.9569 24.9134H18.6638V16.2591Z" fill="#B66357"/>
</svg>
