<svg width="160" height="142" viewBox="0 0 160 142" fill="none" xmlns="http://www.w3.org/2000/svg">
<path d="M92.3697 45.7891C88.4303 55.6145 73.8899 59.2257 76.2414 44.7743C76.9682 40.3102 71.5806 37.1459 71.0036 33.9884C69.6941 26.8092 76.308 24.4646 77.7905 17.8822C80.0243 7.96251 84.3533 -7.93738 112.159 8.75218C120.204 13.5823 92.3697 45.7891 92.3697 45.7891Z" fill="#002869"/>
<path d="M130.654 109.197C112.991 105.371 91.5386 102.199 73.7435 99.4366C75.458 88.8515 79.464 74.7228 79.9856 72.2761C84.2601 52.3126 93.434 43.8247 114.224 43.8247C132.033 50.0511 126.817 63.5044 127.662 75.8607C128.23 84.2099 129.811 94.8261 130.644 104.059C130.683 104.373 130.619 108.883 130.654 109.197Z" fill="#01609A"/>
<path d="M104.084 43.8247C104.084 43.8247 103.82 71.5453 88.9719 101.364C84.2868 100.588 79.5905 99.6518 75.0851 98.9508C69.7808 98.1257 58.0124 96.4576 52.6526 95.5825C52.6526 95.5825 54.0108 86.9106 60.0054 82.6783C68.6012 76.6083 59.3529 44.56 104.084 43.8247Z" fill="#01609A"/>
<path d="M128.265 94.4779C128.207 94.4777 128.149 94.4636 128.098 94.4368C125.323 92.9839 123.938 89.9949 122.47 86.8307C121.002 83.6665 119.345 80.1008 116.034 77.3846C115.963 77.3234 115.918 77.2366 115.91 77.1428C115.902 77.0491 115.931 76.9559 115.991 76.8833C116.051 76.8107 116.136 76.7644 116.23 76.7545C116.324 76.7445 116.417 76.7717 116.491 76.8301C119.931 79.6494 121.624 83.3038 123.121 86.5279C124.599 89.7121 125.874 92.4604 128.432 93.8002C128.503 93.8375 128.56 93.8977 128.593 93.971C128.626 94.0444 128.633 94.1267 128.614 94.2047C128.595 94.2828 128.55 94.3522 128.486 94.4017C128.423 94.4512 128.345 94.478 128.264 94.4779H128.265Z" fill="#002869"/>
<path d="M76.0073 94.2687C75.8153 94.2687 75.6567 94.2887 75.6478 94.0957C75.0008 79.7264 79.1511 69.2865 79.1988 69.1822C79.272 68.9981 79.4829 68.9527 79.6659 69.0248C79.7554 69.0654 79.8259 69.1387 79.863 69.2297C79.9002 69.3206 79.9011 69.4223 79.8657 69.5139C79.8235 69.617 75.7321 79.8484 76.3713 94.0525C76.3802 94.251 76.227 94.2687 76.0284 94.2687H76.0073Z" fill="#002869"/>
<path d="M150.196 37.249C150.18 37.2507 150.163 37.2507 150.146 37.249C139.418 35.8782 140.024 29.1726 140.728 21.4068C140.802 20.5994 140.876 19.7742 140.94 18.9346C140.949 18.8302 140.999 18.7334 141.079 18.6652C141.158 18.5969 141.262 18.5627 141.366 18.5698C141.471 18.578 141.568 18.6273 141.636 18.7069C141.704 18.7866 141.738 18.89 141.73 18.9945C141.666 19.8386 141.591 20.667 141.517 21.4789C140.796 29.4388 140.276 35.1894 150.247 36.4638C150.347 36.4768 150.438 36.5273 150.502 36.6049C150.566 36.6826 150.598 36.7816 150.591 36.882C150.585 36.9823 150.54 37.0764 150.467 37.1452C150.394 37.214 150.297 37.2523 150.196 37.2524V37.249Z" fill="#002869"/>
<path d="M74.1396 50.0516C74.0654 50.0518 73.9926 50.0312 73.9296 49.9919C73.8665 49.9527 73.8158 49.8966 73.7833 49.8299C73.7507 49.7632 73.7377 49.6887 73.7455 49.6149C73.7534 49.5412 73.7819 49.4711 73.8278 49.4128C77.9082 44.1834 73.8378 36.9599 73.7956 36.8878C73.7696 36.8427 73.7529 36.7929 73.7462 36.7412C73.7395 36.6896 73.7431 36.6371 73.7567 36.5869C73.7703 36.5366 73.7936 36.4895 73.8255 36.4483C73.8573 36.4071 73.8969 36.3725 73.9421 36.3466C73.9872 36.3207 74.0371 36.3039 74.0887 36.2972C74.1404 36.2905 74.1929 36.2941 74.2432 36.3077C74.2935 36.3213 74.3406 36.3447 74.3818 36.3764C74.4231 36.4082 74.4577 36.4478 74.4836 36.493C74.5269 36.5695 78.8581 44.2566 74.4514 49.8997C74.4145 49.9471 74.3672 49.9854 74.3131 50.0118C74.2591 50.0381 74.1997 50.0517 74.1396 50.0516Z" fill="#002869"/>
<path d="M77.8816 13.6398C77.8506 13.6393 77.8198 13.6356 77.7895 13.6287C77.6873 13.604 77.599 13.5398 77.5439 13.4503C77.4888 13.3607 77.4714 13.253 77.4954 13.1507C79.342 5.42587 85.836 3.27979 86.5151 3.27979C86.6186 3.28008 86.7178 3.3213 86.791 3.39445C86.8642 3.46761 86.9054 3.56673 86.9057 3.67018C86.9063 3.77494 86.8657 3.87574 86.7927 3.95085C86.7196 4.02595 86.6199 4.06935 86.5151 4.07167C85.897 4.0872 79.9679 6.20667 78.2667 13.3381C78.2456 13.4242 78.1961 13.5008 78.1263 13.5555C78.0565 13.6102 77.9703 13.6398 77.8816 13.6398Z" fill="#002869"/>
<path d="M142.682 60.6665C141.494 60.6599 140.307 60.5673 139.131 60.3893C139.029 60.3736 138.937 60.3184 138.874 60.2354C138.812 60.1525 138.785 60.0484 138.799 59.9456C138.815 59.8425 138.872 59.75 138.956 59.6879C139.039 59.6257 139.144 59.5988 139.248 59.6129C144.391 60.3715 148.174 59.5319 150.481 57.123C154.057 53.3954 152.903 47.0858 152.889 47.0225C152.876 46.9701 152.873 46.9155 152.882 46.862C152.89 46.8085 152.91 46.7573 152.939 46.7116C152.968 46.6659 153.006 46.6266 153.051 46.5962C153.095 46.5658 153.146 46.5449 153.199 46.5348C153.252 46.5247 153.307 46.5256 153.36 46.5375C153.413 46.5493 153.463 46.5719 153.506 46.6038C153.55 46.6357 153.587 46.6762 153.614 46.7229C153.642 46.7695 153.66 46.8213 153.666 46.875C153.718 47.149 154.907 53.6516 151.052 57.6709C149.138 59.6617 146.33 60.6665 142.682 60.6665Z" fill="#002869"/>
<path d="M159.589 118.252C159.559 118.329 159.506 118.396 159.438 118.443C159.369 118.49 159.288 118.516 159.205 118.516C159.152 118.515 159.099 118.504 159.051 118.483C150.222 114.916 137.428 111.513 123.163 108.418C111.16 105.817 98.1247 103.427 85.5518 101.338C81.2906 100.636 77.0848 99.9552 72.9878 99.3197C62.1938 97.6395 52.1676 96.2242 43.9747 95.1152C31.5106 93.436 1.25127 89.2203 0.964969 89.176C0.911641 89.1716 0.859748 89.1565 0.812382 89.1316C0.765016 89.1068 0.723149 89.0726 0.689282 89.0312C0.655415 88.9898 0.630241 88.942 0.615262 88.8906C0.600283 88.8393 0.595807 88.7855 0.602099 88.7323C0.624293 88.5017 0.824038 88.2954 1.05264 88.3275C1.34893 88.3608 62.8629 96.8797 73.1199 98.4713C77.2934 99.119 81.5869 99.831 85.9358 100.555C98.3555 102.618 111.215 104.992 123.075 107.557C137.495 110.673 150.43 114.115 159.362 117.714C159.462 117.757 159.541 117.837 159.583 117.938C159.626 118.038 159.627 118.15 159.589 118.252Z" fill="#002869"/>
<path d="M117.967 122.621H117.953C117.942 122.371 117.814 122.146 117.806 121.892C117.746 119.896 54.7631 108.554 53.0831 110.69C51.3319 112.922 51.3586 116.286 51.4762 120.887C51.3231 126.115 51.9478 131.466 51.9478 131.466L86.3696 140.403C86.6726 140.453 90.0638 142.022 90.3645 141.979C92.777 141.633 118.048 126.895 117.965 124.2L117.967 122.621Z" fill="white"/>
<path d="M96.9007 122.457L94.0543 121.809C93.9665 121.789 93.8866 121.743 93.8251 121.677C93.7636 121.611 93.7232 121.529 93.7091 121.44C93.695 121.351 93.7079 121.259 93.7461 121.178C93.7843 121.096 93.846 121.028 93.9234 120.982L95.3915 120.108C95.7336 119.904 96.1408 119.84 96.5289 119.928L99.4652 120.594C99.5413 120.611 99.6104 120.651 99.6635 120.708C99.7167 120.765 99.7515 120.837 99.7634 120.914C99.7753 120.991 99.7639 121.07 99.7305 121.141C99.6971 121.211 99.6434 121.27 99.5762 121.31L97.9261 122.293C97.618 122.477 97.2509 122.536 96.9007 122.457Z" fill="#E8E2E3"/>
<path d="M103.203 124.09L100.356 123.442C100.268 123.423 100.188 123.377 100.126 123.311C100.064 123.245 100.023 123.162 100.009 123.073C99.9951 122.984 100.008 122.893 100.047 122.811C100.085 122.729 100.147 122.661 100.225 122.615L101.693 121.741C102.036 121.538 102.443 121.473 102.831 121.561L105.767 122.227C105.843 122.244 105.912 122.284 105.965 122.341C106.019 122.399 106.053 122.47 106.065 122.548C106.077 122.625 106.066 122.704 106.033 122.774C105.999 122.845 105.945 122.904 105.878 122.943L104.228 123.926C103.92 124.11 103.553 124.169 103.203 124.09Z" fill="#E8E2E3"/>
<path d="M109.266 125.39L106.42 124.743C106.332 124.723 106.252 124.677 106.19 124.611C106.129 124.545 106.089 124.462 106.074 124.373C106.06 124.284 106.073 124.193 106.111 124.111C106.15 124.03 106.211 123.962 106.289 123.915L107.757 123.041C108.099 122.838 108.506 122.774 108.894 122.862L111.831 123.527C111.907 123.545 111.976 123.585 112.029 123.642C112.082 123.699 112.117 123.771 112.129 123.848C112.141 123.925 112.129 124.004 112.096 124.074C112.063 124.145 112.009 124.204 111.942 124.244L110.291 125.226C109.983 125.41 109.616 125.469 109.266 125.39Z" fill="#E8E2E3"/>
<path d="M91.2135 125.224L88.3671 124.578C88.2793 124.557 88.1994 124.511 88.1379 124.446C88.0764 124.38 88.036 124.297 88.0219 124.208C88.0078 124.119 88.0207 124.028 88.0589 123.946C88.0971 123.865 88.1588 123.796 88.2362 123.75L89.7043 122.876C90.0462 122.672 90.4536 122.608 90.8417 122.697L93.778 123.362C93.8541 123.38 93.9231 123.419 93.9763 123.477C94.0294 123.534 94.0642 123.606 94.0762 123.683C94.0881 123.76 94.0767 123.839 94.0433 123.909C94.0099 123.98 93.9562 124.039 93.889 124.078L92.2388 125.06C91.9308 125.244 91.5637 125.303 91.2135 125.224Z" fill="#E8E2E3"/>
<path d="M97.5155 126.857L94.6691 126.21C94.5812 126.19 94.5014 126.144 94.4399 126.078C94.3784 126.012 94.338 125.93 94.3239 125.841C94.3098 125.752 94.3227 125.66 94.3609 125.579C94.399 125.497 94.4608 125.429 94.5381 125.383L96.0063 124.509C96.3481 124.305 96.7556 124.24 97.1437 124.329L100.08 124.994C100.156 125.012 100.225 125.052 100.278 125.109C100.331 125.166 100.366 125.238 100.378 125.315C100.39 125.392 100.379 125.471 100.345 125.542C100.312 125.612 100.258 125.671 100.191 125.711L98.5408 126.692C98.2327 126.877 97.8657 126.935 97.5155 126.857Z" fill="#E8E2E3"/>
<path d="M103.582 128.158L100.736 127.511C100.648 127.491 100.568 127.445 100.507 127.379C100.446 127.313 100.405 127.23 100.391 127.141C100.377 127.052 100.39 126.961 100.428 126.879C100.466 126.798 100.528 126.729 100.605 126.683L102.073 125.81C102.415 125.606 102.822 125.542 103.211 125.63L106.147 126.296C106.223 126.313 106.292 126.353 106.345 126.41C106.399 126.467 106.434 126.538 106.445 126.616C106.457 126.693 106.446 126.772 106.412 126.842C106.379 126.913 106.325 126.971 106.258 127.011L104.608 127.994C104.3 128.178 103.932 128.237 103.582 128.158Z" fill="#E8E2E3"/>
<path d="M85.6795 127.74L82.8331 127.094C82.745 127.074 82.6648 127.028 82.603 126.962C82.5412 126.896 82.5007 126.813 82.4866 126.724C82.4724 126.635 82.4855 126.543 82.5239 126.461C82.5623 126.38 82.6244 126.311 82.7022 126.265L84.1703 125.392C84.5122 125.188 84.9196 125.124 85.3078 125.213L88.244 125.878C88.3201 125.896 88.3892 125.936 88.4423 125.993C88.4955 126.05 88.5303 126.122 88.5422 126.199C88.5542 126.276 88.5427 126.355 88.5093 126.425C88.476 126.496 88.4222 126.555 88.355 126.595L86.7049 127.577C86.3966 127.761 86.0296 127.819 85.6795 127.74Z" fill="#E8E2E3"/>
<path d="M91.9815 129.373L89.1351 128.726C89.047 128.706 88.9668 128.66 88.905 128.594C88.8432 128.528 88.8027 128.445 88.7886 128.356C88.7744 128.267 88.7875 128.176 88.8259 128.094C88.8643 128.012 88.9264 127.944 89.0042 127.898L90.4723 127.025C90.8142 126.821 91.2216 126.756 91.6098 126.845L94.546 127.511C94.6221 127.528 94.6912 127.568 94.7443 127.625C94.7975 127.682 94.8323 127.754 94.8442 127.831C94.8562 127.908 94.8447 127.987 94.8113 128.058C94.778 128.128 94.7242 128.187 94.657 128.227L93.0069 129.21C92.6986 129.393 92.3316 129.452 91.9815 129.373Z" fill="#E8E2E3"/>
<path d="M98.0481 130.675L95.2018 130.028C95.1136 130.008 95.0334 129.962 94.9717 129.896C94.9099 129.83 94.8693 129.748 94.8552 129.658C94.8411 129.569 94.8541 129.478 94.8925 129.396C94.931 129.314 94.9931 129.246 95.0708 129.2L96.539 128.326C96.8812 128.123 97.2884 128.059 97.6764 128.147L100.613 128.813C100.689 128.83 100.758 128.87 100.811 128.927C100.864 128.984 100.899 129.056 100.911 129.133C100.923 129.21 100.911 129.289 100.878 129.36C100.845 129.43 100.791 129.489 100.724 129.529L99.0735 130.512C98.7651 130.695 98.3982 130.753 98.0481 130.675Z" fill="#E8E2E3"/>
<path d="M80.3218 130.508L77.4754 129.861C77.3875 129.841 77.3077 129.795 77.2462 129.729C77.1847 129.664 77.1443 129.581 77.1302 129.492C77.1161 129.403 77.129 129.312 77.1672 129.23C77.2053 129.149 77.2671 129.08 77.3444 129.034L78.8126 128.16C79.1544 127.956 79.5619 127.892 79.95 127.98L82.8863 128.646C82.9624 128.663 83.0314 128.703 83.0846 128.76C83.1377 128.818 83.1725 128.889 83.1845 128.966C83.1964 129.044 83.185 129.123 83.1516 129.193C83.1182 129.264 83.0645 129.323 82.9972 129.362L81.3471 130.344C81.0391 130.528 80.672 130.587 80.3218 130.508Z" fill="#E8E2E3"/>
<path d="M86.6282 132.141L83.7818 131.494C83.694 131.474 83.6142 131.428 83.5526 131.362C83.4911 131.296 83.4507 131.214 83.4366 131.125C83.4226 131.036 83.4354 130.945 83.4736 130.863C83.5118 130.781 83.5735 130.713 83.6509 130.667L85.119 129.793C85.4609 129.589 85.8683 129.524 86.2565 129.613L89.1927 130.279C89.2688 130.296 89.3379 130.336 89.391 130.393C89.4442 130.45 89.479 130.522 89.4909 130.599C89.5029 130.676 89.4914 130.755 89.458 130.826C89.4247 130.896 89.3709 130.955 89.3037 130.995L87.6536 131.977C87.3455 132.161 86.9784 132.219 86.6282 132.141Z" fill="#E8E2E3"/>
<path d="M92.6906 133.441L89.8442 132.794C89.756 132.775 89.6758 132.729 89.6141 132.663C89.5523 132.597 89.5117 132.514 89.4976 132.425C89.4835 132.335 89.4965 132.244 89.5349 132.162C89.5734 132.08 89.6355 132.012 89.7132 131.966L91.1814 131.093C91.5232 130.889 91.9307 130.825 92.3188 130.913L95.2551 131.579C95.3312 131.596 95.4002 131.636 95.4534 131.694C95.5065 131.751 95.5413 131.822 95.5533 131.9C95.5652 131.977 95.5538 132.056 95.5204 132.126C95.487 132.197 95.4333 132.256 95.366 132.295L93.7159 133.277C93.4078 133.461 93.0408 133.52 92.6906 133.441Z" fill="#E8E2E3"/>
<path d="M96.145 135.542C96.078 135.542 96.0129 135.52 95.96 135.479C95.907 135.438 95.8692 135.381 95.8524 135.316C95.8356 135.251 95.8409 135.183 95.8673 135.121C95.8938 135.06 95.9399 135.009 95.9985 134.976C96.1705 134.882 113.189 125.498 115.217 123.731C115.247 123.704 115.282 123.682 115.32 123.668C115.358 123.654 115.399 123.648 115.439 123.65C115.48 123.652 115.519 123.663 115.556 123.68C115.592 123.698 115.625 123.723 115.651 123.753C115.678 123.784 115.698 123.82 115.711 123.858C115.723 123.897 115.728 123.937 115.724 123.978C115.721 124.018 115.709 124.057 115.69 124.093C115.671 124.129 115.645 124.161 115.614 124.186C113.537 125.994 96.9939 135.116 96.2914 135.504C96.2465 135.529 96.1962 135.542 96.145 135.542Z" fill="#E8E2E3"/>
<path d="M78.1501 133.851C76.8185 133.234 81.4603 127.148 81.4603 127.148C80.253 127.892 75.468 132.635 74.1197 132.202C72.575 131.708 71.695 132.424 71.2888 131.673C70.5675 130.334 74.3638 124.918 76.106 122.599C75.4524 123.207 74.6279 123.964 74.0065 124.675C72.0712 126.893 70.9315 129.394 69.2348 128.661C69.2348 127.182 75.1162 118.632 78.3021 117.159C80.2996 116.233 88.8931 114.445 92.736 113.853L97.3313 119.045C96.0518 123.719 89.6743 126.975 86.5772 127.538C81.912 128.38 79.7059 134.567 78.1501 133.851Z" fill="#FF9669"/>
<path d="M96.1473 123.391C111.185 118.894 138.793 122.682 143.392 97.1999C152.584 46.2683 109.71 39.8955 109.71 39.8955C96.9296 60.295 118.427 86.5881 111.742 94.6479C104.085 103.879 102.764 108.228 92.2012 112.225C89.8043 113.13 94.0067 124.032 96.1473 123.391Z" fill="#01609A"/>
<path d="M109.526 29.4565L109.859 48.7547C109.859 54.0894 93.1832 54.411 92.9679 48.6072L92.413 40.7814L109.526 29.4565Z" fill="#F8B791"/>
<path d="M83.3168 29.3016C83.3035 30.4184 83.227 31.4388 83.359 32.529C83.5333 33.9729 83.9394 35.3792 84.5619 36.6937C86.2365 40.1984 89.5678 44.8787 93.3385 44.9586C101.066 45.1216 108.137 36.6404 106.457 27.0191C104.99 18.6255 97.0105 6.10946 94.7401 11.27C91.2157 19.2754 86.5283 16.5759 83.956 21.548C83.4178 22.5905 82.9429 23.8848 83.1704 26.7895C83.2447 27.7178 83.3246 28.5308 83.3168 29.3016Z" fill="#F8B791"/>
<path d="M97.3124 33.2007C97.332 33.9427 97.5713 34.6623 98 35.2684C98.4287 35.8745 99.0277 36.3399 99.7211 36.6059C100.414 36.8718 101.171 36.9262 101.896 36.7623C102.62 36.5984 103.279 36.2235 103.791 35.685C104.302 35.1465 104.642 34.4686 104.767 33.737C104.893 33.0054 104.799 32.253 104.497 31.5749C104.195 30.8968 103.698 30.3235 103.07 29.9275C102.442 29.5314 101.71 29.3304 100.968 29.3499C99.9723 29.3766 99.0281 29.7972 98.3427 30.5192C97.6573 31.2413 97.2868 32.2057 97.3124 33.2007Z" fill="#F27979"/>
<path d="M83.359 32.5295C83.5428 33.9714 83.9485 35.3763 84.562 36.6942C85.4652 36.4783 86.2563 35.9357 86.7828 35.1711C87.3093 34.4065 87.5337 33.4741 87.4127 32.5539C87.2918 31.6336 86.834 30.7908 86.1278 30.188C85.4216 29.5852 84.5171 29.2653 83.5887 29.2899C83.4944 29.2899 83.4057 29.2988 83.3169 29.3065C83.2991 30.419 83.227 31.4393 83.359 32.5295Z" fill="#F27979"/>
<path d="M94.4416 28.5745C94.4416 28.5745 96.1061 30.9768 100.554 27.8514C101.109 27.4599 98.5974 28.4159 97.0194 28.641C95.3948 28.874 94.001 28.0643 94.4416 28.5745Z" fill="#002869"/>
<path d="M84.0138 27.63C84.4255 28.2222 87.9222 30.5757 89.0075 28.2245C89.2915 27.6078 88.0842 28.9376 86.555 28.4884C84.9814 28.027 83.7508 27.2507 84.0138 27.63Z" fill="#002869"/>
<path d="M92.7316 34.729C91.7473 34.8399 90.217 34.6958 89.8863 33.5478C89.7409 33.0432 89.974 32.5918 90.1815 32.1382C90.7108 30.9836 91.1802 29.92 91.0626 28.608C91.0459 28.4361 91.3123 28.3795 91.3278 28.5536C91.4454 29.8091 91.0759 30.855 90.551 31.9829C90.2447 32.6484 89.8674 33.2373 90.44 33.9005C90.9594 34.5006 91.9326 34.5427 92.6705 34.4628C92.8425 34.444 92.8991 34.7102 92.726 34.729H92.7316Z" fill="#F27979"/>
<path d="M96.5301 36.9505C96.7854 36.3472 91.9227 38.0885 89.4713 36.7864C88.0121 36.0111 92.2323 44.0332 96.5301 36.9505Z" fill="white"/>
<path d="M91.0515 5.22065C91.0515 5.22065 104.195 -8.51208 122.583 8.56788C128.623 14.1788 139.242 10.0574 142.234 19.5634C143.972 25.0866 136.509 33.7486 144.856 36.8563C160.045 42.5126 155.674 61.579 138.111 58.4469C129.788 56.9607 125.135 64.4271 117.209 61.5202C109.854 58.8229 113.912 50.9062 107.857 44.9571C100.63 37.8589 103.205 35.5121 104.55 29.5241C104.648 29.0893 104.764 28.6513 104.876 28.2021C105.199 26.7126 105.287 25.334 104.611 24.0275C102.599 20.139 90.7486 23.3287 92.7138 13.7751C94.5737 4.75262 91.0515 5.22065 91.0515 5.22065Z" fill="#002869"/>
<path d="M113.455 90.8455C113.26 90.8455 113.1 90.7546 113.093 90.5594C112.927 85.7704 113.648 75.4691 113.663 75.3649C113.664 75.3173 113.675 75.2706 113.696 75.2278C113.717 75.185 113.746 75.1472 113.783 75.1168C113.819 75.0864 113.862 75.0642 113.908 75.0517C113.954 75.0392 114.002 75.0367 114.049 75.0443C114.145 75.0536 114.234 75.1002 114.296 75.1739C114.358 75.2477 114.389 75.3429 114.382 75.4392C114.375 75.5423 113.649 85.7792 113.815 90.5295C113.821 90.7302 113.665 90.8455 113.465 90.8455H113.455Z" fill="#002869"/>
<path d="M90.0805 94.3349C89.5101 90.7259 25.5715 80.2273 24.8846 82.8603C23.6905 87.4386 23.8193 124.945 23.8193 124.945C22.9315 124.99 23.0025 129.542 23.8537 129.79C29.5786 131.463 84.7573 142.485 90.3635 141.984C91.1236 141.915 90.7796 139.274 90.3768 138.626C90.3813 138.626 91.0937 100.739 90.0805 94.3349Z" fill="white"/>
<path d="M86.7159 137.31C82.3614 137.31 68.9607 134.969 56.865 132.568C47.1573 130.641 28.5166 126.676 27.4513 125.46C26.1984 124.028 25.992 110.765 26.8365 86.0383L26.8753 84.8782C26.892 84.3414 27.7187 84.2693 28.0727 84.2382C35.572 83.5927 87.7068 92.8403 88.3383 95.8936C89.226 100.186 88.3815 135.229 88.3449 136.718C88.3449 136.843 88.2794 137.065 87.9343 137.186C87.6946 137.27 87.2807 137.31 86.7159 137.31ZM27.4812 84.9613L27.4446 86.0582C26.3027 119.476 27.3891 124.467 27.9096 125.06C28.6575 125.857 42.0028 129.019 57.6695 132.111C76.9672 135.922 86.7103 137.102 87.7424 136.619C87.7878 134.701 88.6002 100.179 87.7424 96.0267C87.6536 95.8426 86.6071 94.8234 74.8177 92.1948C55.9151 87.9736 29.1458 83.8944 27.4812 84.9613Z" fill="#E8E2E3"/>
</svg>
