<svg width="174" height="107" viewBox="0 0 174 107" fill="none" xmlns="http://www.w3.org/2000/svg">
<path d="M164.875 55.4559L164.963 52.5596L82.9866 76.2516V77.4362C82.9865 77.6927 83.0369 77.9468 83.1348 78.1838C83.2327 78.4209 83.3763 78.6363 83.5573 78.8177C83.7383 78.9992 83.9532 79.1431 84.1898 79.2413C84.4263 79.3395 84.6798 79.39 84.9359 79.39H142.276C142.741 79.39 143.201 79.2933 143.627 79.1061C144.053 78.9189 144.435 78.6453 144.75 78.3024L164.363 56.7782C164.693 56.4174 164.876 55.9455 164.875 55.4559Z" fill="#D9C3B8"/>
<path d="M106.741 50.9074C106.991 51.021 107.262 51.0796 107.537 51.0791H164.52C164.703 51.0787 164.886 51.0495 165.06 50.9925C165.347 50.898 165.605 50.7298 165.807 50.5045C166.009 50.2793 166.149 50.0049 166.213 49.7087L173.968 13.5184C174.027 13.1441 174.004 12.7617 173.901 12.3972C173.798 12.0328 173.617 11.695 173.371 11.4071C173.126 11.1193 172.821 10.8881 172.477 10.7296C172.134 10.5711 171.76 10.4889 171.382 10.4888H115.913C115.289 10.4888 114.686 10.7123 114.212 11.1189C113.737 11.5254 113.424 12.0884 113.327 12.7062L105.651 48.744C105.56 49.175 105.618 49.6244 105.816 50.0178C106.014 50.4112 106.34 50.725 106.741 50.9074Z" fill="#F8EADD"/>
<path d="M109.581 48.0298H162.287L164.091 40.2121L166.865 28.1981L169.455 16.9799C169.506 16.6553 169.486 16.3235 169.396 16.0075C169.307 15.6914 169.15 15.3985 168.937 15.149C168.723 14.8994 168.459 14.699 168.161 14.5616C167.863 14.4242 167.539 14.3531 167.211 14.353H119.103C118.562 14.3529 118.038 14.5469 117.626 14.8999C117.215 15.253 116.943 15.7417 116.86 16.278L109.949 46.4268L109.581 48.0298Z" fill="#D9C3B8"/>
<path d="M82.9866 76.2508H142.276C142.741 76.2508 143.201 76.1541 143.627 75.9668C144.053 75.7794 144.435 75.5056 144.75 75.1625L164.714 53.0993C165.084 52.7106 165.034 52.2945 164.782 52.0354C164.696 51.9508 164.594 51.8841 164.482 51.8392C164.371 51.7943 164.251 51.7722 164.131 51.774H106.132C105.824 51.774 105.519 51.8385 105.237 51.9634C104.956 52.0884 104.703 52.271 104.496 52.4996L82.9866 76.2508Z" fill="#F8EADD"/>
<path d="M103.155 65.0806H100.072L98.3738 66.93H101.457L103.155 65.0806Z" fill="white"/>
<path d="M105.415 62.6421H102.331L100.633 64.4915H103.717L105.415 62.6421Z" fill="white"/>
<path d="M107.719 60.1597H104.635L102.937 62.0091H106.021L107.719 60.1597Z" fill="white"/>
<path d="M110.022 57.6772H106.939L105.241 59.5267H108.324L110.022 57.6772Z" fill="white"/>
<path d="M112.282 55.2388H109.2L107.502 57.0882H110.584L112.282 55.2388Z" fill="white"/>
<path d="M107.154 65.0806H104.07L102.372 66.93H105.456L107.154 65.0806Z" fill="white"/>
<path d="M109.414 62.6421H106.33L104.632 64.4915H107.716L109.414 62.6421Z" fill="white"/>
<path d="M111.717 60.1597H108.634L106.936 62.0091H110.019L111.717 60.1597Z" fill="white"/>
<path d="M114.021 57.6772H110.938L109.24 59.5267H112.323L114.021 57.6772Z" fill="white"/>
<path d="M116.281 55.2388H113.198L111.5 57.0882H114.583L116.281 55.2388Z" fill="white"/>
<path d="M111.239 65.0806H108.156L106.458 66.93H109.541L111.239 65.0806Z" fill="white"/>
<path d="M113.499 62.6421H110.417L108.719 64.4915H111.801L113.499 62.6421Z" fill="white"/>
<path d="M115.803 60.1597H112.72L111.022 62.0091H114.105L115.803 60.1597Z" fill="white"/>
<path d="M118.106 57.6772H115.024L113.326 59.5267H116.409L118.106 57.6772Z" fill="white"/>
<path d="M120.367 55.2388H117.284L115.586 57.0882H118.669L120.367 55.2388Z" fill="white"/>
<path d="M115.325 65.0806H112.242L110.544 66.93H113.627L115.325 65.0806Z" fill="white"/>
<path d="M117.586 62.6421H114.502L112.804 64.4915H115.888L117.586 62.6421Z" fill="white"/>
<path d="M119.889 60.1597H116.806L115.108 62.0091H118.191L119.889 60.1597Z" fill="white"/>
<path d="M122.193 57.6772H119.109L117.411 59.5267H120.495L122.193 57.6772Z" fill="white"/>
<path d="M124.453 55.2388H121.37L119.672 57.0882H122.755L124.453 55.2388Z" fill="white"/>
<path d="M119.411 65.0806H116.328L114.63 66.93H117.713L119.411 65.0806Z" fill="white"/>
<path d="M121.671 62.6421H118.588L116.89 64.4915H119.973L121.671 62.6421Z" fill="white"/>
<path d="M123.975 60.1597H120.892L119.193 62.0091H122.277L123.975 60.1597Z" fill="white"/>
<path d="M126.278 57.6772H123.195L121.497 59.5267H124.58L126.278 57.6772Z" fill="white"/>
<path d="M128.539 55.2388H125.456L123.758 57.0882H126.841L128.539 55.2388Z" fill="white"/>
<path d="M123.322 65.0806H120.24L118.542 66.93H121.624L123.322 65.0806Z" fill="white"/>
<path d="M125.583 62.6421H122.5L120.802 64.4915H123.885L125.583 62.6421Z" fill="white"/>
<path d="M127.887 60.1597H124.803L123.105 62.0091H126.189L127.887 60.1597Z" fill="white"/>
<path d="M130.19 57.6772H127.107L125.409 59.5267H128.492L130.19 57.6772Z" fill="white"/>
<path d="M132.45 55.2388H129.368L127.67 57.0882H130.752L132.45 55.2388Z" fill="white"/>
<path d="M127.321 65.0806H124.238L122.54 66.93H125.623L127.321 65.0806Z" fill="white"/>
<path d="M129.582 62.6421H126.498L124.8 64.4915H127.884L129.582 62.6421Z" fill="white"/>
<path d="M131.886 60.1597H128.802L127.104 62.0091H130.188L131.886 60.1597Z" fill="white"/>
<path d="M134.189 57.6772H131.106L129.408 59.5267H132.491L134.189 57.6772Z" fill="white"/>
<path d="M136.449 55.2388H133.366L131.668 57.0882H134.751L136.449 55.2388Z" fill="white"/>
<path d="M131.321 65.0806H128.237L126.539 66.93H129.623L131.321 65.0806Z" fill="white"/>
<path d="M133.581 62.6421H130.497L128.799 64.4915H131.883L133.581 62.6421Z" fill="white"/>
<path d="M135.884 60.1597H132.801L131.103 62.0091H134.186L135.884 60.1597Z" fill="white"/>
<path d="M138.188 57.6772H135.105L133.406 59.5267H136.49L138.188 57.6772Z" fill="white"/>
<path d="M140.448 55.2388H137.365L135.667 57.0882H138.75L140.448 55.2388Z" fill="white"/>
<path d="M135.232 65.0806H132.149L130.451 66.93H133.534L135.232 65.0806Z" fill="white"/>
<path d="M137.493 62.6421H134.409L132.711 64.4915H135.795L137.493 62.6421Z" fill="white"/>
<path d="M139.796 60.1597H136.713L135.015 62.0091H138.098L139.796 60.1597Z" fill="white"/>
<path d="M142.1 57.6772H139.016L137.319 59.5267H140.402L142.1 57.6772Z" fill="white"/>
<path d="M144.36 55.2388H141.277L139.579 57.0882H142.662L144.36 55.2388Z" fill="white"/>
<path d="M139.231 65.0806H136.148L134.45 66.93H137.533L139.231 65.0806Z" fill="white"/>
<path d="M141.492 62.6421H138.408L136.71 64.4915H139.794L141.492 62.6421Z" fill="white"/>
<path d="M143.795 60.1597H140.711L139.014 62.0091H142.097L143.795 60.1597Z" fill="white"/>
<path d="M146.099 57.6772H143.015L141.317 59.5267H144.401L146.099 57.6772Z" fill="white"/>
<path d="M148.359 55.2388H145.276L143.578 57.0882H146.661L148.359 55.2388Z" fill="white"/>
<path d="M143.23 65.0806H140.147L138.449 66.93H141.532L143.23 65.0806Z" fill="white"/>
<path d="M145.49 62.6421H142.407L140.709 64.4915H143.792L145.49 62.6421Z" fill="white"/>
<path d="M147.794 60.1597H144.71L143.012 62.0091H146.096L147.794 60.1597Z" fill="white"/>
<path d="M150.098 57.6772H147.014L145.316 59.5267H148.4L150.098 57.6772Z" fill="white"/>
<path d="M152.357 55.2388H149.275L147.577 57.0882H150.659L152.357 55.2388Z" fill="white"/>
<path d="M147.229 65.0806H144.146L142.448 66.93H145.531L147.229 65.0806Z" fill="white"/>
<path d="M149.489 62.6421H146.406L144.708 64.4915H147.791L149.489 62.6421Z" fill="white"/>
<path d="M151.793 60.1597H148.709L147.011 62.0091H150.095L151.793 60.1597Z" fill="white"/>
<path d="M154.096 57.6772H151.013L149.315 59.5267H152.399L154.096 57.6772Z" fill="white"/>
<path d="M156.356 55.2388H153.273L151.576 57.0882H154.658L156.356 55.2388Z" fill="white"/>
<path d="M128.434 68.2012H113.441L108.353 73.8984H123.345L128.434 68.2012Z" fill="white"/>
<path d="M109.581 48.0294H120.753C127.743 47.3016 138.165 47.5593 149.093 48.0294H162.286L164.091 40.2125L166.865 28.1985C164.875 26.6696 163.023 24.6691 161.698 21.5506C159.518 16.4191 158.274 14.9776 155.352 13.4502C153.264 12.3581 149.856 12.2115 147.876 8.04915C144.312 0.55877 138.054 -1.06709 134.663 0.732758C129.416 -1.13743 125.156 3.43513 122.753 8.04915C119.623 14.0595 111.965 15.5477 112.282 26.7806C112.519 35.1691 105.619 36.3648 109.581 48.0294Z" fill="#002869"/>
<path d="M120.734 48.0289H149.141C150.233 43.1905 153.87 22.1735 139.188 18.6108C139.12 18.5945 139.051 18.5775 138.982 18.5619C137.978 18.3298 136.959 18.1604 135.934 18.0548C127.322 17.156 123.157 22.8939 120.736 27.5464C118.19 32.4418 119.697 43.9879 120.734 48.0289Z" fill="#D9C3B8"/>
<path d="M131.179 13.3361C131.452 11.9294 132.569 10.1688 132.152 9.96368C131.656 9.72084 130.834 11.8302 130.585 12.3329C130.839 11.8094 132.017 9.4395 131.514 9.29734C130.989 9.14927 129.795 12.0123 129.627 12.3603C129.701 12.1885 131.334 9.42691 130.689 9.18851C130.163 8.99379 128.929 11.7621 128.761 12.11C128.852 11.8924 130.071 9.52908 129.43 9.44912C128.918 9.38471 127.99 11.8354 127.792 12.167C127.172 13.2036 127.002 14.4267 126.428 16.6833C126.325 17.0891 125.649 17.7732 125.649 17.7732L128.17 19.5034C128.17 19.5034 128.561 19.1162 129.289 18.3507C131.454 16.0681 130.732 15.6283 131.179 13.3361Z" fill="#FDB98D"/>
<path d="M128.17 19.6403C128.142 19.6403 128.115 19.6318 128.091 19.6159L125.57 17.8856C125.553 17.874 125.539 17.8588 125.528 17.8411C125.518 17.8234 125.512 17.8037 125.51 17.7833C125.508 17.7629 125.51 17.7423 125.517 17.723C125.524 17.7037 125.535 17.6862 125.55 17.6716C125.73 17.4888 126.215 16.9483 126.289 16.6455C126.427 16.1013 126.543 15.6089 126.645 15.1803C126.971 13.8069 127.187 12.8992 127.667 12.0936C127.709 12.0233 127.799 11.8219 127.903 11.5894C128.581 10.0695 129.026 9.25652 129.443 9.3076C129.495 9.31297 129.545 9.33118 129.589 9.36063C129.633 9.39008 129.668 9.42985 129.693 9.47641C129.747 9.57562 129.767 9.71629 129.741 9.90657C130.265 9.06698 130.537 8.98258 130.732 9.05513C130.781 9.07275 130.824 9.10099 130.86 9.13776C130.896 9.17453 130.923 9.21891 130.94 9.26762C130.964 9.33905 130.975 9.41433 130.973 9.48973C131.198 9.21357 131.383 9.11288 131.547 9.15953C131.589 9.17128 131.627 9.19223 131.659 9.22082C131.691 9.2494 131.716 9.28489 131.733 9.32463C131.791 9.45642 131.784 9.67187 131.705 9.98357C131.771 9.91615 131.85 9.86298 131.937 9.82735C131.981 9.8102 132.027 9.80226 132.074 9.80405C132.121 9.80583 132.167 9.81729 132.209 9.83771C132.561 10.0102 132.317 10.6025 131.949 11.4976C131.705 12.0899 131.431 12.7607 131.312 13.3619C131.217 13.8647 131.155 14.3732 131.127 14.8841C131.044 16.0472 130.994 16.7499 129.385 18.4431C128.665 19.202 128.267 19.5951 128.264 19.5996C128.239 19.6247 128.205 19.6392 128.17 19.6403ZM125.865 17.7471L128.156 19.3197C128.304 19.1716 128.66 18.8096 129.19 18.2513C130.73 16.6299 130.777 15.9658 130.856 14.8649C130.885 14.343 130.948 13.8237 131.045 13.3101C131.168 12.6815 131.449 11.9966 131.698 11.3925C131.841 11.0453 131.976 10.7165 132.049 10.4685C132.144 10.1479 132.096 10.0917 132.095 10.0909C132.086 10.0867 132.077 10.0845 132.067 10.0845C132.058 10.0845 132.048 10.0867 132.04 10.0909C131.825 10.1687 131.53 10.6736 131.278 11.1785C131.134 11.5124 130.958 11.8923 130.749 12.3224L130.73 12.3594L130.714 12.3935C130.697 12.4248 130.668 12.4482 130.634 12.4589C130.6 12.4696 130.563 12.4668 130.531 12.451C130.498 12.4352 130.474 12.4078 130.461 12.3742C130.449 12.3406 130.449 12.3035 130.463 12.2706L130.478 12.2387C130.517 12.158 130.568 12.0425 130.626 11.9115C130.755 11.6235 130.885 11.3362 131.017 11.0712C131.632 9.64077 131.499 9.44901 131.478 9.42902C131.478 9.42902 131.294 9.40755 130.795 10.2768C130.58 10.8646 130.211 11.5776 129.863 12.2158C129.821 12.2898 129.78 12.3639 129.764 12.3994L129.754 12.4187C129.739 12.4523 129.711 12.4785 129.676 12.4915C129.642 12.5045 129.603 12.5032 129.57 12.4879C129.536 12.4726 129.51 12.4445 129.497 12.4099C129.484 12.3752 129.485 12.3368 129.501 12.3032L129.512 12.2787C129.534 12.2321 129.568 12.1551 129.611 12.0603C129.98 11.2392 130.283 10.6114 130.544 10.1524C130.711 9.69778 130.725 9.47271 130.684 9.36535C130.672 9.33204 130.657 9.32241 130.642 9.31723C130.642 9.31723 130.437 9.25578 129.814 10.3345C129.523 10.8387 129.242 11.4169 129.065 11.7916L128.991 11.9463L128.952 12.0292L128.887 12.1692C128.871 12.2007 128.843 12.2247 128.809 12.2364C128.776 12.248 128.739 12.2463 128.706 12.2316C128.674 12.217 128.648 12.1905 128.635 12.1576C128.621 12.1246 128.62 12.0877 128.633 12.0544C128.645 12.024 128.672 11.967 128.714 11.8804L128.755 11.7938L128.768 11.7649C129.516 10.1746 129.52 9.73258 129.453 9.61042C129.45 9.60294 129.444 9.59661 129.437 9.59216C129.43 9.5877 129.422 9.58531 129.414 9.58524C129.408 9.58524 129.246 9.5734 128.844 10.2893C128.593 10.7373 128.345 11.2955 128.163 11.7035C128.047 11.9641 127.963 12.1521 127.913 12.2365C127.454 13.0058 127.242 13.8965 126.923 15.2454C126.82 15.6778 126.701 16.1679 126.564 16.7151C126.478 17.0519 126.071 17.5236 125.865 17.7471Z" fill="#2F2C41"/>
<path d="M138.427 11.2085L139.624 18.9425C139.845 20.937 132.925 21.3117 132.604 19.152V16.0676L138.427 11.2085Z" fill="#FDB98D"/>
<path d="M139.853 11.684C139.762 15.756 136.625 18.3244 133.664 18.1504C131.607 18.0297 130.356 15.9293 129.886 14.724C129.883 14.7192 129.881 14.7142 129.879 14.7091C129.654 14.1703 129.517 13.5989 129.472 13.0166C129.457 12.77 129.458 12.5227 129.477 12.2763C129.487 12.0904 129.503 11.9024 129.513 11.7077C129.53 11.3952 129.513 11.0635 129.5 10.6845C129.46 9.50356 129.675 8.98678 129.911 8.57439C131.038 6.60425 132.887 7.78293 134.455 4.60005C135.466 2.55069 139.93 8.22715 139.853 11.684Z" fill="#FDB98D"/>
<path d="M135.702 13.0156C135.555 13.9433 136.441 14.7281 137.397 14.3675C137.541 14.3128 137.673 14.2292 137.784 14.1218C137.895 14.0143 137.983 13.8853 138.043 13.7426C138.444 12.7801 137.666 11.8539 136.718 12.002C136.463 12.0415 136.228 12.1609 136.045 12.343C135.863 12.5252 135.743 12.7607 135.702 13.0156Z" fill="#EE715D"/>
<path d="M130.836 13.5277C130.832 13.804 130.735 14.0708 130.561 14.2855C130.388 14.5003 130.148 14.6506 129.879 14.7123C129.654 14.1735 129.517 13.6021 129.472 13.0198C129.457 12.7732 129.458 12.5258 129.477 12.2794C129.651 12.2601 129.827 12.2784 129.993 12.3329C130.159 12.3874 130.312 12.4769 130.44 12.5955C130.569 12.714 130.671 12.8588 130.739 13.0201C130.807 13.1815 130.84 13.3555 130.836 13.5307V13.5277Z" fill="#EE715D"/>
<path d="M133.102 14.3326C132.942 14.3489 132.781 14.3282 132.63 14.2719C132.513 14.2315 132.408 14.1615 132.325 14.0686C132.242 13.9758 132.185 13.8632 132.158 13.7418C132.097 13.4331 132.288 13.1784 132.472 12.9326C132.566 12.8156 132.648 12.6893 132.717 12.5557C132.923 12.1115 132.934 11.3637 132.934 11.3563C132.933 11.3374 132.935 11.3184 132.942 11.3006C132.948 11.2827 132.958 11.2663 132.971 11.2525C132.984 11.2386 132.999 11.2275 133.017 11.22C133.034 11.2124 133.053 11.2085 133.071 11.2085C133.09 11.2085 133.109 11.2124 133.126 11.22C133.144 11.2275 133.159 11.2386 133.172 11.2525C133.185 11.2663 133.195 11.2827 133.201 11.3006C133.207 11.3184 133.21 11.3374 133.208 11.3563C133.208 11.3896 133.196 12.1707 132.966 12.6682C132.89 12.8194 132.797 12.9621 132.691 13.094C132.53 13.3102 132.391 13.4967 132.427 13.6863C132.446 13.762 132.483 13.8318 132.535 13.8891C132.588 13.9464 132.654 13.9892 132.728 14.0135C132.841 14.0561 132.962 14.0709 133.082 14.0568C133.201 14.0426 133.316 13.9998 133.415 13.9321C133.43 13.9213 133.446 13.9135 133.464 13.9091C133.482 13.9047 133.5 13.9038 133.518 13.9065C133.536 13.9092 133.553 13.9154 133.568 13.9247C133.584 13.934 133.597 13.9464 133.608 13.9609C133.619 13.9755 133.627 13.9921 133.631 14.0097C133.636 14.0273 133.636 14.0456 133.634 14.0635C133.631 14.0815 133.625 14.0987 133.616 14.1143C133.606 14.1298 133.594 14.1434 133.579 14.1542C133.439 14.256 133.274 14.3176 133.102 14.3326Z" fill="#EE715D"/>
<path d="M134.141 18.3225C133.703 18.329 133.266 18.2704 132.845 18.1485C132.811 18.1355 132.784 18.1101 132.769 18.0775C132.754 18.0449 132.752 18.0077 132.763 17.9736C132.774 17.9395 132.799 17.9111 132.83 17.8944C132.862 17.8776 132.899 17.8737 132.934 17.8835C132.945 17.8872 133.746 18.1463 134.841 17.9945C136.307 17.7909 137.575 16.9847 138.609 15.5987C138.619 15.5826 138.633 15.5688 138.649 15.5581C138.665 15.5475 138.683 15.5403 138.701 15.5369C138.72 15.5335 138.74 15.534 138.758 15.5384C138.777 15.5428 138.794 15.551 138.809 15.5625C138.825 15.574 138.837 15.5885 138.847 15.6051C138.856 15.6218 138.862 15.6402 138.864 15.6592C138.866 15.6782 138.864 15.6975 138.859 15.7157C138.853 15.734 138.843 15.7508 138.831 15.7653C137.484 17.5755 135.932 18.1285 134.867 18.2729C134.627 18.306 134.384 18.3225 134.141 18.3225Z" fill="#EE715D"/>
<path d="M134.094 15.8456C134.058 15.8456 134.024 15.8318 133.998 15.8071C133.647 15.4665 133.289 15.2962 132.933 15.3081C132.63 15.3234 132.343 15.449 132.126 15.6612C132.101 15.688 132.067 15.7039 132.031 15.7055C131.995 15.707 131.959 15.694 131.932 15.6694C131.906 15.6447 131.89 15.6104 131.888 15.5741C131.887 15.5377 131.9 15.5022 131.924 15.4754C132.191 15.2079 132.548 15.0495 132.925 15.0312C133.359 15.0208 133.783 15.214 134.188 15.6072C134.208 15.6261 134.222 15.6506 134.228 15.6774C134.233 15.7043 134.231 15.7323 134.221 15.7577C134.21 15.7832 134.193 15.805 134.17 15.8202C134.147 15.8355 134.12 15.8436 134.093 15.8433L134.094 15.8456Z" fill="#EE715D"/>
<path d="M131.247 11.5617C130.257 11.6617 129.809 11.1316 129.787 11.1042C129.764 11.076 129.753 11.0398 129.757 11.0036C129.761 10.9673 129.778 10.934 129.807 10.911C129.835 10.8879 129.871 10.8769 129.907 10.8806C129.943 10.8842 129.976 10.902 129.999 10.9302C130.024 10.9591 130.566 11.5788 131.85 11.1464C131.868 11.1393 131.886 11.1358 131.905 11.1362C131.924 11.1367 131.942 11.1409 131.96 11.1488C131.977 11.1566 131.992 11.1679 132.004 11.1819C132.017 11.1959 132.027 11.2123 132.033 11.2302C132.038 11.248 132.041 11.2669 132.039 11.2856C132.038 11.3044 132.032 11.3226 132.023 11.3392C132.014 11.3558 132.002 11.3703 131.987 11.382C131.973 11.3937 131.956 11.4022 131.938 11.407C131.714 11.4844 131.483 11.5363 131.247 11.5617Z" fill="#2F2C41"/>
<path d="M135.385 11.6849C135.009 11.7143 134.631 11.6459 134.29 11.4865C134.274 11.4782 134.259 11.4669 134.248 11.4531C134.236 11.4394 134.227 11.4235 134.222 11.4063C134.217 11.3892 134.214 11.3711 134.216 11.3532C134.218 11.3352 134.223 11.3178 134.231 11.3018C134.239 11.2858 134.25 11.2716 134.264 11.26C134.278 11.2483 134.294 11.2396 134.311 11.2341C134.328 11.2286 134.346 11.2266 134.364 11.2281C134.382 11.2296 134.399 11.2347 134.415 11.2429C134.459 11.2651 135.486 11.7767 136.52 10.9268C136.533 10.9143 136.55 10.9047 136.567 10.8986C136.585 10.8925 136.603 10.8901 136.622 10.8915C136.64 10.8928 136.659 10.898 136.675 10.9065C136.692 10.9151 136.706 10.927 136.718 10.9414C136.73 10.9558 136.739 10.9724 136.744 10.9903C136.749 11.0082 136.751 11.027 136.748 11.0455C136.746 11.064 136.74 11.0818 136.731 11.098C136.721 11.1141 136.709 11.1281 136.694 11.1393C136.326 11.4546 135.867 11.6455 135.385 11.6849Z" fill="#2F2C41"/>
<path d="M136.14 1.51606C136.709 0.886 141.133 -0.57328 145.442 8.74582C147.603 13.4191 139.94 18.6165 138.482 11.5496C137.493 6.75792 132.314 7.49089 133.344 4.73817C134.835 0.754956 136.14 1.51606 136.14 1.51606Z" fill="#002869"/>
<path d="M141.488 11.4162C141.288 11.069 139.975 8.37177 139.161 8.52355C138.993 8.55538 138.809 8.70198 138.933 8.88929C138.743 8.52429 138.399 8.35845 138.179 8.45099C137.929 8.55539 137.926 8.82118 138.059 9.14028C137.912 8.9426 137.75 8.83599 137.567 8.90484C137.267 9.01886 137.371 9.45124 137.571 9.854C137.468 9.71407 137.306 9.61931 137.141 9.71629C136.636 10.0124 137.853 12.0285 138.133 12.774C138.406 13.5011 138.345 14.565 138.54 15.4801C138.794 16.6647 139.528 18.3054 139.528 18.3054L142.705 17.5857C142.435 13.4463 142.208 12.6652 141.488 11.4162Z" fill="#FDB98D"/>
<path d="M139.527 18.4451C139.5 18.445 139.474 18.4371 139.451 18.4224C139.429 18.4077 139.411 18.3868 139.4 18.3621C139.37 18.2948 138.661 16.6933 138.404 15.5095C138.327 15.1027 138.273 14.6915 138.246 14.2782C138.198 13.7355 138.152 13.2225 138.003 12.8227C137.929 12.6316 137.795 12.354 137.638 12.0319C137.022 10.7733 136.621 9.85745 137.071 9.59536C137.138 9.55548 137.215 9.53546 137.292 9.53761C137.228 9.3229 137.223 9.1467 137.275 9.01121C137.297 8.95668 137.329 8.90732 137.371 8.86646C137.413 8.8256 137.463 8.79417 137.518 8.77429C137.619 8.73393 137.732 8.73393 137.833 8.77429C137.829 8.67807 137.855 8.58293 137.907 8.50203C137.959 8.42113 138.035 8.35845 138.124 8.32266C138.351 8.22715 138.631 8.32266 138.849 8.53811C138.927 8.46083 139.027 8.4092 139.135 8.39003C139.859 8.2538 140.779 9.79008 141.5 11.1435C141.55 11.2375 141.589 11.3116 141.611 11.3501C142.358 12.6457 142.582 13.5142 142.848 17.5803C142.85 17.614 142.841 17.6475 142.821 17.6747C142.801 17.7019 142.772 17.721 142.739 17.7284L139.562 18.4473C139.55 18.4479 139.538 18.4472 139.527 18.4451ZM137.28 9.81747C137.256 9.81779 137.232 9.82442 137.211 9.83672C137.187 9.85153 137.075 9.95222 137.281 10.5453C137.459 11.0106 137.662 11.4659 137.889 11.909C138.049 12.2378 138.184 12.5213 138.263 12.7234C138.427 13.1588 138.474 13.6904 138.523 14.2531C138.551 14.6549 138.602 15.0547 138.677 15.4503C138.888 16.4357 139.446 17.7639 139.609 18.143L142.559 17.4767C142.295 13.4831 142.08 12.7227 141.368 11.487C141.342 11.4441 141.305 11.3715 141.252 11.2716C140.055 9.01935 139.468 8.60622 139.186 8.66175C139.156 8.66589 139.127 8.67625 139.101 8.69218C139.075 8.7081 139.052 8.72925 139.035 8.7543C139.031 8.76428 139.031 8.7754 139.035 8.78539C139.042 8.79798 139.049 8.8113 139.056 8.82463C139.073 8.8564 139.077 8.89333 139.067 8.92779C139.057 8.96225 139.034 8.99162 139.003 9.00985C138.973 9.02808 138.936 9.03377 138.901 9.02576C138.866 9.01775 138.836 8.99664 138.816 8.96678C138.804 8.94927 138.794 8.93096 138.785 8.91199C138.627 8.64324 138.373 8.52108 138.232 8.58031C138.178 8.60326 138.011 8.67211 138.187 9.08672C138.2 9.11803 138.201 9.15296 138.19 9.18503C138.18 9.2171 138.157 9.24414 138.128 9.26114C138.099 9.27813 138.065 9.28393 138.031 9.27745C137.998 9.27098 137.969 9.25267 137.948 9.22592C137.761 8.98159 137.66 9.02009 137.616 9.03638C137.598 9.04233 137.581 9.05241 137.567 9.06588C137.552 9.07935 137.542 9.09584 137.535 9.11412C137.486 9.2385 137.546 9.49171 137.695 9.7923C137.715 9.82382 137.721 9.86184 137.713 9.89801C137.704 9.93418 137.682 9.96553 137.65 9.98517C137.619 10.0048 137.581 10.0111 137.545 10.0027C137.509 9.99432 137.478 9.97189 137.458 9.94038C137.439 9.90803 137.413 9.88025 137.383 9.859C137.352 9.83776 137.317 9.82358 137.28 9.81747Z" fill="#2F2C41"/>
<path d="M138.722 12.2493C138.694 12.2492 138.667 12.2408 138.644 12.2251C138.621 12.2094 138.603 12.1872 138.592 12.1612C138.285 11.3836 137.906 10.6369 137.458 9.93115C137.447 9.91581 137.44 9.89843 137.436 9.88007C137.432 9.8617 137.431 9.84272 137.435 9.82426C137.438 9.8058 137.445 9.78823 137.456 9.77261C137.466 9.75698 137.48 9.74363 137.495 9.73333C137.511 9.72303 137.529 9.716 137.547 9.71267C137.566 9.70934 137.585 9.70976 137.603 9.71392C137.621 9.71808 137.638 9.72589 137.654 9.73688C137.669 9.74787 137.682 9.76182 137.691 9.77789C138.149 10.4996 138.538 11.2632 138.852 12.0583C138.859 12.0754 138.862 12.0936 138.862 12.112C138.862 12.1304 138.858 12.1485 138.85 12.1654C138.843 12.1822 138.832 12.1974 138.819 12.2102C138.806 12.2229 138.79 12.2329 138.773 12.2396C138.757 12.2461 138.74 12.2494 138.722 12.2493Z" fill="#2F2C41"/>
<path d="M139.528 11.7876C139.501 11.7877 139.475 11.78 139.452 11.7656C139.43 11.7512 139.412 11.7305 139.401 11.7062C138.993 10.8347 138.506 10.003 137.946 9.2215C137.934 9.20661 137.925 9.18944 137.92 9.17105C137.915 9.15266 137.914 9.13343 137.916 9.11455C137.919 9.09566 137.926 9.07752 137.936 9.06124C137.945 9.04496 137.959 9.03087 137.974 9.01986C137.99 9.00884 138.007 9.00112 138.026 8.99717C138.044 8.99322 138.064 8.99313 138.082 8.9969C138.101 9.00067 138.119 9.00822 138.134 9.01909C138.15 9.02995 138.163 9.04391 138.173 9.0601C138.743 9.85562 139.238 10.7023 139.651 11.5892C139.659 11.6059 139.663 11.624 139.664 11.6424C139.665 11.6608 139.662 11.6792 139.655 11.6964C139.649 11.7137 139.639 11.7295 139.627 11.743C139.614 11.7565 139.599 11.7674 139.582 11.7751C139.565 11.7827 139.547 11.787 139.528 11.7876Z" fill="#2F2C41"/>
<path d="M140.432 11.5126C140.406 11.5127 140.38 11.5053 140.358 11.4913C140.336 11.4773 140.318 11.4572 140.306 11.4334C139.873 10.5618 139.37 9.72734 138.801 8.9383C138.788 8.92348 138.779 8.90632 138.774 8.88787C138.769 8.86943 138.767 8.85009 138.77 8.83107C138.773 8.81205 138.779 8.79375 138.789 8.77731C138.799 8.76086 138.812 8.74663 138.827 8.73549C138.843 8.72435 138.861 8.71653 138.879 8.71254C138.898 8.70854 138.917 8.70845 138.936 8.71227C138.955 8.71608 138.973 8.72372 138.988 8.73471C139.004 8.7457 139.017 8.75981 139.027 8.77616C139.606 9.5783 140.118 10.4267 140.558 11.3127C140.574 11.3462 140.576 11.3846 140.564 11.4196C140.552 11.4546 140.526 11.4832 140.493 11.4993C140.474 11.5083 140.453 11.5129 140.432 11.5126Z" fill="#2F2C41"/>
<path d="M123.682 43.8376C123.682 43.8376 120.062 45.6781 117.711 44.6327C112.504 42.3139 113.411 35.378 114.629 31.306C116.445 25.2393 120.78 20.9148 125.777 16.5962C126.671 15.8225 129.435 17.9503 129.594 18.918C128.236 23.7208 128.881 41.5143 123.682 43.8376Z" fill="#D9C3B8"/>
<path d="M143.425 17.7914C142.786 17.0636 139.257 17.5041 139.116 18.3392C138.747 20.5344 136.092 39.8316 144.022 44.3301C146.292 45.6184 154.134 46.5698 153.831 37.0796C153.595 29.6833 146.171 20.9217 143.425 17.7914Z" fill="#D9C3B8"/>
<path d="M147.294 45.3648C145.466 45.3648 143.9 44.794 142.616 43.656C140.011 41.346 138.583 36.8001 138.372 30.1441C138.287 27.0344 138.441 23.9228 138.834 20.8369C138.836 20.819 138.842 20.8019 138.852 20.7864C138.861 20.7709 138.873 20.7574 138.887 20.7466C138.902 20.7358 138.918 20.7279 138.936 20.7235C138.953 20.719 138.971 20.7181 138.989 20.7206C139.007 20.7232 139.024 20.7293 139.039 20.7385C139.055 20.7477 139.068 20.7599 139.079 20.7743C139.09 20.7888 139.098 20.8052 139.102 20.8226C139.107 20.8401 139.108 20.8583 139.105 20.8761C138.715 23.9476 138.562 27.0447 138.648 30.1397C138.796 34.656 139.629 40.639 142.801 43.4502C144.648 45.0879 147.116 45.501 150.136 44.6777C150.153 44.6729 150.171 44.6715 150.189 44.6736C150.207 44.6758 150.224 44.6815 150.24 44.6904C150.256 44.6992 150.269 44.7111 150.281 44.7253C150.292 44.7395 150.3 44.7558 150.305 44.7732C150.31 44.7906 150.311 44.8088 150.309 44.8268C150.307 44.8447 150.301 44.862 150.292 44.8778C150.283 44.8935 150.271 44.9074 150.257 44.9185C150.243 44.9297 150.227 44.9379 150.209 44.9428C149.261 45.2124 148.28 45.3543 147.294 45.3648Z" fill="#2F2C41"/>
<path d="M119.4 45.1772C118.72 45.1684 118.045 45.045 117.405 44.8122C117.371 44.8002 117.343 44.7751 117.327 44.7423C117.311 44.7096 117.309 44.6719 117.321 44.6375C117.333 44.6031 117.358 44.5749 117.391 44.5591C117.423 44.5433 117.461 44.5411 117.495 44.5531C119.094 45.1098 120.512 44.9973 121.707 44.2221C123.827 42.8458 125.132 39.4837 125.584 34.2389C126.387 24.9228 129.018 20.0726 129.045 20.0237C129.062 19.9919 129.092 19.9684 129.127 19.9584C129.162 19.9484 129.199 19.9527 129.231 19.9704C129.263 19.9881 129.286 20.0176 129.296 20.0526C129.306 20.0876 129.302 20.1252 129.284 20.157C129.258 20.2043 126.654 25.0101 125.857 34.2619C125.397 39.5985 124.051 43.0272 121.857 44.4517C121.127 44.9305 120.273 45.183 119.4 45.1772Z" fill="#2F2C41"/>
<path d="M139.531 7.26562C140.84 8.7249 142.195 10.8002 142.598 14.3532C142.621 14.5687 142.643 14.7901 142.66 15.0196C142.83 17.2659 142.433 22.5322 148.853 28.5877C154.667 34.0731 148.618 39.9983 158.002 48.0314H162.105C160.655 42.8377 154.051 19.8379 149.298 14.3555C149.025 14.0264 148.709 13.7359 148.358 13.4922C144.05 10.6521 140.573 8.34139 139.531 7.26562Z" fill="#002869"/>
<path d="M8.0451 83.0668L7.95865 80.1704L89.9346 103.862V105.047C89.9346 105.304 89.8842 105.558 89.7862 105.795C89.6882 106.032 89.5445 106.247 89.3635 106.428C89.1824 106.61 88.9674 106.754 88.7308 106.852C88.4942 106.95 88.2407 107 87.9846 107H30.6448C30.1798 107 29.7199 106.903 29.2941 106.716C28.8682 106.529 28.4858 106.255 28.1709 105.913L8.56013 84.3891C8.22902 84.0286 8.04519 83.5566 8.0451 83.0668Z" fill="#D9C3B8"/>
<path d="M0.17936 41.8257L6.70842 77.3194C6.79183 77.7072 7.00532 78.0547 7.31333 78.3041C7.62134 78.5534 8.00529 78.6896 8.40127 78.6898H65.3835C65.6709 78.69 65.9548 78.6257 66.2142 78.5018C66.4737 78.3778 66.7022 78.1973 66.8831 77.9735C67.0639 77.7496 67.1925 77.488 67.2594 77.208C67.3264 76.9279 67.3299 76.6363 67.2699 76.3546L60.817 41.018C60.7212 40.3995 60.4079 39.8357 59.9337 39.4284C59.4594 39.0211 58.8554 38.7971 58.2308 38.7969H2.7663C2.38826 38.7969 2.01472 38.879 1.67134 39.0374C1.32795 39.1959 1.02288 39.4269 0.777081 39.7147C0.531281 40.0025 0.350583 40.3402 0.247404 40.7046C0.144225 41.069 0.121011 41.4515 0.17936 41.8257Z" fill="#F8EADD"/>
<path d="M63.3396 75.6407H10.6343L8.04806 62.4368L7.39486 59.1051L7.18723 58.0464L4.68895 45.2882C4.63815 44.9636 4.65814 44.6318 4.74752 44.3157C4.83691 43.9995 4.99358 43.7065 5.20676 43.4568C5.41993 43.2072 5.68456 43.0067 5.98243 42.8692C6.28031 42.7318 6.60436 42.6606 6.9323 42.6606H55.0401C55.5817 42.6607 56.1055 42.8547 56.5168 43.2077C56.9282 43.5607 57.2001 44.0494 57.2835 44.5856L60.9965 63.6281L61.1081 64.1982L63.3396 75.6407Z" fill="#FFFBF8"/>
<path d="M8.20618 80.7123L28.1709 102.775C28.4856 103.119 28.868 103.392 29.2939 103.58C29.7197 103.767 30.1797 103.864 30.6448 103.864H89.9346L68.566 80.2703C68.3143 79.9925 68.0075 79.7705 67.6652 79.6185C67.3229 79.4665 66.9527 79.3879 66.5783 79.3877H8.79066C8.59315 79.3857 8.40011 79.4466 8.23943 79.5617C7.90397 79.8068 7.79313 80.2755 8.20618 80.7123Z" fill="#F8EADD"/>
<path d="M69.7666 92.6929H72.8502L74.5482 94.5423H71.4647L69.7666 92.6929Z" fill="white"/>
<path d="M67.5063 90.2539H70.5898L72.2879 92.1034H69.2044L67.5063 90.2539Z" fill="white"/>
<path d="M65.2032 87.771H68.2859L69.984 89.6205H66.9012L65.2032 87.771Z" fill="white"/>
<path d="M62.8993 85.2891H65.9827L67.6808 87.1385H64.5973L62.8993 85.2891Z" fill="white"/>
<path d="M60.6389 82.8501H63.7224L65.4204 84.6996H62.3369L60.6389 82.8501Z" fill="white"/>
<path d="M65.7684 92.6929H68.8512L70.5492 94.5423H67.4657L65.7684 92.6929Z" fill="white"/>
<path d="M63.5081 90.2539H66.5908L68.2889 92.1034H65.2061L63.5081 90.2539Z" fill="white"/>
<path d="M61.2042 87.771H64.2877L65.9857 89.6205H62.9022L61.2042 87.771Z" fill="white"/>
<path d="M58.9002 85.2891H61.9837L63.6818 87.1385H60.5983L58.9002 85.2891Z" fill="white"/>
<path d="M56.6406 82.8501H59.7234L61.4214 84.6996H58.3387L56.6406 82.8501Z" fill="white"/>
<path d="M61.6823 92.6929H64.7657L66.4638 94.5423H63.3803L61.6823 92.6929Z" fill="white"/>
<path d="M59.4219 90.2539H62.5054L64.2034 92.1034H61.1199L59.4219 90.2539Z" fill="white"/>
<path d="M57.1187 87.771H60.2014L61.8994 89.6205H58.8167L57.1187 87.771Z" fill="white"/>
<path d="M54.8147 85.2891H57.8982L59.5963 87.1385H56.5128L54.8147 85.2891Z" fill="white"/>
<path d="M52.5544 82.8501H55.6379L57.3359 84.6996H54.2524L52.5544 82.8501Z" fill="white"/>
<path d="M57.5968 92.6929H60.6795L62.3775 94.5423H59.2948L57.5968 92.6929Z" fill="white"/>
<path d="M55.3364 90.2539H58.4192L60.1172 92.1034H57.0344L55.3364 90.2539Z" fill="white"/>
<path d="M53.0325 87.771H56.116L57.814 89.6205H54.7305L53.0325 87.771Z" fill="white"/>
<path d="M50.7293 85.2891H53.812L55.5101 87.1385H52.4273L50.7293 85.2891Z" fill="white"/>
<path d="M48.4689 82.8501H51.5517L53.2497 84.6996H50.167L48.4689 82.8501Z" fill="white"/>
<path d="M53.5106 92.6929H56.5941L58.2921 94.5423H55.2086L53.5106 92.6929Z" fill="white"/>
<path d="M51.2502 90.2539H54.3337L56.0317 92.1034H52.9482L51.2502 90.2539Z" fill="white"/>
<path d="M48.947 87.771H52.0298L53.7278 89.6205H50.645L48.947 87.771Z" fill="white"/>
<path d="M46.6431 85.2891H49.7266L51.4246 87.1385H48.3411L46.6431 85.2891Z" fill="white"/>
<path d="M44.3828 82.8501H47.4662L49.1643 84.6996H46.0808L44.3828 82.8501Z" fill="white"/>
<path d="M49.5988 92.6929H52.6823L54.3803 94.5423H51.2968L49.5988 92.6929Z" fill="white"/>
<path d="M47.3384 90.2539H50.4219L52.1199 92.1034H49.0364L47.3384 90.2539Z" fill="white"/>
<path d="M45.0352 87.771H48.118L49.816 89.6205H46.7332L45.0352 87.771Z" fill="white"/>
<path d="M42.7313 85.2891H45.8148L47.5128 87.1385H44.4293L42.7313 85.2891Z" fill="white"/>
<path d="M40.4709 82.8501H43.5545L45.2525 84.6996H42.169L40.4709 82.8501Z" fill="white"/>
<path d="M45.5997 92.6929H48.6832L50.3812 94.5423H47.2978L45.5997 92.6929Z" fill="white"/>
<path d="M43.3401 90.2539H46.4229L48.1209 92.1034H45.0374L43.3401 90.2539Z" fill="white"/>
<path d="M41.0362 87.771H44.1197L45.8177 89.6205H42.7342L41.0362 87.771Z" fill="white"/>
<path d="M38.7323 85.2891H41.8158L43.5138 87.1385H40.4303L38.7323 85.2891Z" fill="white"/>
<path d="M36.4719 82.8501H39.5554L41.2534 84.6996H38.1699L36.4719 82.8501Z" fill="white"/>
<path d="M41.6015 92.6929H44.6842L46.3823 94.5423H43.2988L41.6015 92.6929Z" fill="white"/>
<path d="M39.3411 90.2539H42.4239L44.1219 92.1034H41.0392L39.3411 90.2539Z" fill="white"/>
<path d="M37.0372 87.771H40.1207L41.8187 89.6205H38.7352L37.0372 87.771Z" fill="white"/>
<path d="M34.734 85.2891H37.8167L39.5148 87.1385H36.4313L34.734 85.2891Z" fill="white"/>
<path d="M32.4736 82.8501H35.5564L37.2544 84.6996H34.1717L32.4736 82.8501Z" fill="white"/>
<path d="M37.6896 92.6929H40.7724L42.4704 94.5423H39.3869L37.6896 92.6929Z" fill="white"/>
<path d="M35.4293 90.2539H38.5121L40.2101 92.1034H37.1274L35.4293 90.2539Z" fill="white"/>
<path d="M33.1254 87.771H36.2088L37.9069 89.6205H34.8234L33.1254 87.771Z" fill="white"/>
<path d="M30.8214 85.2891H33.9049L35.6029 87.1385H32.5195L30.8214 85.2891Z" fill="white"/>
<path d="M28.5618 82.8501H31.6446L33.3426 84.6996H30.2591L28.5618 82.8501Z" fill="white"/>
<path d="M33.6906 92.6929H36.7734L38.4714 94.5423H35.3887L33.6906 92.6929Z" fill="white"/>
<path d="M31.4303 90.2539H34.5138L36.2118 92.1034H33.1283L31.4303 90.2539Z" fill="white"/>
<path d="M29.1264 87.771H32.2099L33.9079 89.6205H30.8244L29.1264 87.771Z" fill="white"/>
<path d="M26.8232 85.2891H29.9059L31.604 87.1385H28.5205L26.8232 85.2891Z" fill="white"/>
<path d="M24.5628 82.8501H27.6456L29.3436 84.6996H26.2608L24.5628 82.8501Z" fill="white"/>
<path d="M29.6916 92.6929H32.7751L34.4731 94.5423H31.3896L29.6916 92.6929Z" fill="white"/>
<path d="M27.4313 90.2539H30.5148L32.2128 92.1034H29.1293L27.4313 90.2539Z" fill="white"/>
<path d="M25.1281 87.771H28.2108L29.9088 89.6205H26.8254L25.1281 87.771Z" fill="white"/>
<path d="M22.8241 85.2891H25.9069L27.6049 87.1385H24.5222L22.8241 85.2891Z" fill="white"/>
<path d="M20.5638 82.8501H23.6473L25.3453 84.6996H22.2618L20.5638 82.8501Z" fill="white"/>
<path d="M25.6926 92.6929H28.7761L30.4741 94.5423H27.3906L25.6926 92.6929Z" fill="white"/>
<path d="M23.4323 90.2539H26.5158L28.2138 92.1034H25.1303L23.4323 90.2539Z" fill="white"/>
<path d="M21.1291 87.771H24.2118L25.9099 89.6205H22.8271L21.1291 87.771Z" fill="white"/>
<path d="M18.8251 85.2891H21.9086L23.6067 87.1385H20.5232L18.8251 85.2891Z" fill="white"/>
<path d="M16.5648 82.8501H19.6483L21.3463 84.6996H18.2628L16.5648 82.8501Z" fill="white"/>
<path d="M44.4877 95.813H59.4803L64.5684 101.51H49.5759L44.4877 95.813Z" fill="white"/>
<path d="M70.9341 47.5144C69.03 57.0541 64.8167 58.7415 60.3366 62.3145C60.1017 62.5018 60.5376 64.0055 60.3255 64.198C58.4243 65.9275 57.5036 67.9325 58.8189 71.025C59.5578 72.7568 30.0751 75.3799 28.2507 75.6413H10.6343L8.04806 62.4374L7.39486 59.1057L7.18723 58.047C11.2165 51.4406 19.8463 52.3646 22.134 44.3737C22.3064 43.7735 22.486 43.2034 22.6727 42.6635C27.0596 29.9868 34.9955 33.4976 38.781 26.8661C43.3009 18.9396 47.648 15.6294 52.8426 17.41C58.9489 13.3646 66.2509 22.1625 66.8598 30.0889C67.4487 37.7992 72.6728 38.8039 70.9341 47.5144Z" fill="#002869"/>
<path d="M63.3396 75.6409H28.2108C33.7527 70.4627 39.3899 66.5498 40.4207 63.0752C41.2734 60.2018 60.483 61.3413 60.8583 63.4454C61.6918 68.1216 62.9532 71.2578 63.3396 75.6409Z" fill="#D9C3B8"/>
<path d="M63.6404 60.2242C63.5532 62.1403 63.8406 70.3 62.297 70.5895C52.165 72.4856 49.6231 68.512 37.4739 67.4532C35.4744 67.2793 38.5549 56.2069 38.9517 53.9525C39.5702 50.4387 31.3904 48.935 31.7192 47.9458C32.6547 45.1324 37.9438 33.2079 53.9909 35.6608C64.2485 37.2289 66.0743 45.6781 71.8985 48.2908C71.8985 48.2908 63.7394 58.0283 63.6404 60.2242Z" fill="#EE715D"/>
<path d="M50.4884 27.0986L48.3625 35.5907C47.9133 37.7897 55.98 38.8913 56.1559 36.5473L56.4721 33.1134L50.4884 27.0986Z" fill="#FDB98D"/>
<path d="M49.4207 28.7629C50.0428 33.0689 53.6975 35.3826 56.8143 34.8147C58.9778 34.4208 60.033 32.0331 60.3766 30.6945C60.3766 30.6893 60.3766 30.6827 60.381 30.6782C60.5498 30.0781 60.6216 29.4547 60.5938 28.8317C60.578 28.5682 60.5447 28.306 60.494 28.0469C60.4586 27.8522 60.4202 27.6545 60.3817 27.4495C60.3241 27.12 60.299 26.7668 60.2642 26.3633C60.1541 25.1047 59.8601 24.5864 59.5564 24.18C58.1081 22.238 56.3 23.7261 54.2281 20.5566C52.8921 18.5154 48.8924 25.1091 49.4207 28.7629Z" fill="#FDB98D"/>
<path d="M53.9909 29.6362C54.2709 30.5987 53.4315 31.5464 52.3697 31.2887C52.2095 31.2494 52.059 31.1779 51.9272 31.0785C51.7955 30.9791 51.6853 30.8539 51.6034 30.7105C51.0551 29.748 51.7601 28.6589 52.7857 28.6937C53.0602 28.7028 53.3248 28.799 53.5414 28.9683C53.758 29.1377 53.9153 29.3715 53.9909 29.6362Z" fill="#EE715D"/>
<path d="M59.215 29.5486C59.2559 29.8401 59.3929 30.1096 59.6041 30.3142C59.8154 30.5187 60.0889 30.6467 60.381 30.6777C60.5498 30.0775 60.6217 29.4541 60.5939 28.8312C60.5781 28.5677 60.5448 28.3055 60.4941 28.0464C60.441 28.0474 60.3879 28.0514 60.3352 28.0582C59.9895 28.1072 59.6774 28.2917 59.4673 28.5712C59.2573 28.8506 59.1665 29.2022 59.215 29.5486Z" fill="#EE715D"/>
<path d="M56.7766 30.6149C56.9484 30.6116 57.117 30.5685 57.2694 30.489C57.3888 30.4313 57.4911 30.3436 57.5666 30.2345C57.6421 30.1254 57.6881 29.9986 57.7002 29.8664C57.7253 29.5317 57.4911 29.2867 57.2643 29.052C57.1492 28.9393 57.0457 28.8153 56.9554 28.6818C56.6805 28.2375 56.5719 27.4468 56.5704 27.4387C56.5704 27.4176 56.5658 27.3968 56.5571 27.3776C56.5483 27.3584 56.5356 27.3413 56.5198 27.3275C56.5039 27.3136 56.4853 27.3033 56.4651 27.2973C56.4449 27.2912 56.4237 27.2895 56.4029 27.2923C56.382 27.2952 56.362 27.3024 56.3442 27.3136C56.3264 27.3248 56.3111 27.3397 56.2995 27.3572C56.2879 27.3748 56.2801 27.3947 56.2767 27.4155C56.2734 27.4363 56.2745 27.4576 56.28 27.4779C56.2852 27.5127 56.399 28.3382 56.7064 28.8365C56.8072 28.9869 56.9233 29.1263 57.0529 29.2526C57.2517 29.4607 57.4224 29.6398 57.4083 29.8449C57.399 29.9273 57.3687 30.0059 57.3205 30.0733C57.2722 30.1407 57.2076 30.1946 57.1327 30.2299C57.0185 30.289 56.8918 30.3199 56.7633 30.3199C56.6347 30.3199 56.508 30.289 56.3938 30.2299C56.3772 30.2172 56.358 30.2082 56.3376 30.2035C56.3172 30.1988 56.2961 30.1985 56.2756 30.2026C56.2551 30.2067 56.2356 30.2151 56.2186 30.2273C56.2016 30.2395 56.1873 30.2551 56.1768 30.2732C56.1663 30.2914 56.1597 30.3115 56.1575 30.3323C56.1553 30.3532 56.1576 30.3743 56.1641 30.3942C56.1706 30.4141 56.1813 30.4324 56.1955 30.4478C56.2096 30.4633 56.2268 30.4756 56.246 30.4838C56.4077 30.575 56.5911 30.6203 56.7766 30.6149Z" fill="#EE715D"/>
<path d="M55.7606 31.638C55.734 31.6507 55.7118 31.671 55.6969 31.6964C55.6819 31.7218 55.6749 31.7511 55.6766 31.7805C55.6784 31.8099 55.6888 31.8381 55.7067 31.8615C55.7245 31.885 55.7489 31.9025 55.7768 31.912C55.8315 31.9268 57.1261 32.277 58.0468 31.6336C58.067 31.6252 58.0852 31.6124 58.0999 31.5962C58.1146 31.5799 58.1255 31.5605 58.1319 31.5395C58.1382 31.5185 58.1398 31.4963 58.1365 31.4746C58.1332 31.4529 58.1252 31.4322 58.1129 31.414C58.1007 31.3957 58.0846 31.3805 58.0657 31.3693C58.0468 31.3581 58.0257 31.3513 58.0039 31.3493C57.9821 31.3472 57.9601 31.3501 57.9395 31.3577C57.9189 31.3652 57.9003 31.3773 57.8849 31.393C57.0766 31.9571 55.8699 31.6336 55.8581 31.6299C55.8256 31.6214 55.7912 31.6243 55.7606 31.638Z" fill="#EE715D"/>
<path d="M55.5049 35.1092C52.9438 34.8412 51.6322 33.8039 50.9835 32.9813C50.2682 32.0744 50.1581 31.1993 50.1662 31.0986C50.1751 31.0657 50.1951 31.0369 50.2227 31.017C50.2503 30.9972 50.284 30.9874 50.3179 30.9895C50.3518 30.9916 50.384 31.0054 50.409 31.0285C50.434 31.0516 50.4503 31.0826 50.4551 31.1163C50.4596 31.1859 50.8142 34.3266 55.5352 34.8182C55.5677 34.8282 55.5958 34.849 55.6147 34.8773C55.6336 34.9056 55.6423 34.9395 55.6391 34.9734C55.636 35.0073 55.6213 35.0391 55.5975 35.0634C55.5738 35.0878 55.5423 35.1031 55.5086 35.107L55.5049 35.1092Z" fill="#EE715D"/>
<path d="M58.533 27.5239C59.5955 27.4839 59.9901 26.8575 60.0108 26.8257C60.0241 26.8093 60.0338 26.7903 60.0392 26.7699C60.0446 26.7494 60.0455 26.7281 60.042 26.7073C60.0385 26.6864 60.0305 26.6666 60.0187 26.6491C60.0069 26.6316 59.9915 26.6168 59.9735 26.6058C59.9555 26.5947 59.9354 26.5877 59.9145 26.5851C59.8935 26.5825 59.8723 26.5844 59.8522 26.5908C59.832 26.5971 59.8135 26.6076 59.7978 26.6217C59.7821 26.6358 59.7695 26.6531 59.761 26.6724C59.7396 26.7072 59.2571 27.4417 57.8354 27.1744C57.8154 27.1675 57.7941 27.165 57.773 27.1671C57.7518 27.1692 57.7314 27.1758 57.7131 27.1865C57.6948 27.1972 57.6789 27.2117 57.6667 27.2291C57.6545 27.2465 57.6461 27.2663 57.6422 27.2872C57.6383 27.3081 57.6389 27.3295 57.644 27.3502C57.6492 27.3708 57.6586 27.3901 57.6719 27.4067C57.6851 27.4233 57.7017 27.4369 57.7206 27.4465C57.7395 27.4562 57.7603 27.4616 57.7815 27.4624C58.0289 27.5113 58.281 27.5319 58.533 27.5239Z" fill="#2F2C41"/>
<path d="M54.1719 28.1766C54.5731 28.1416 54.9584 28.0033 55.2906 27.7753C55.3093 27.7652 55.3255 27.7511 55.3383 27.7341C55.351 27.7172 55.36 27.6976 55.3645 27.6769C55.369 27.6561 55.3691 27.6346 55.3646 27.6138C55.3601 27.5931 55.3512 27.5735 55.3385 27.5565C55.3258 27.5395 55.3096 27.5254 55.291 27.5152C55.2724 27.505 55.2518 27.4989 55.2306 27.4974C55.2095 27.4959 55.1882 27.499 55.1684 27.5065C55.1485 27.5139 55.1305 27.5256 55.1155 27.5406C55.0741 27.5717 54.081 28.2913 52.8441 27.5776C52.8273 27.5654 52.8082 27.5569 52.788 27.5526C52.7678 27.5482 52.7469 27.5482 52.7267 27.5525C52.7064 27.5568 52.6873 27.5652 52.6706 27.5774C52.6538 27.5895 52.6398 27.605 52.6294 27.623C52.619 27.6409 52.6125 27.6608 52.6102 27.6814C52.608 27.702 52.6101 27.7228 52.6164 27.7425C52.6227 27.7623 52.6331 27.7805 52.6468 27.7959C52.6606 27.8114 52.6774 27.8238 52.6963 27.8323C53.1398 28.0998 53.6561 28.2202 54.1719 28.1766Z" fill="#2F2C41"/>
<path d="M86.0376 45.063C86.5815 44.2138 87.4002 43.7303 87.7844 43.3127C88.6482 42.3703 89.2157 41.6099 89.4189 41.7957C90.0633 42.388 88.5322 43.8266 88.6017 44.6462C88.6043 44.683 88.6149 44.7188 88.6328 44.7512C88.6506 44.7835 88.6752 44.8115 88.705 44.8334C88.7347 44.8552 88.7688 44.8703 88.805 44.8776C88.8411 44.8849 88.8784 44.8843 88.9142 44.8757C89.3147 44.7854 89.9835 44.3522 90.446 43.9872C91.1177 43.4556 92.6724 41.6084 93.1061 41.8772C93.5753 42.1659 92.181 43.6474 91.7472 44.085C92.2017 43.6333 93.6034 41.7809 94.0741 42.177C94.5174 42.5516 92.3081 44.8609 92.0051 45.16C92.1581 45.0223 94.1184 42.5894 94.4591 43.0003C94.8847 43.5134 92.6539 45.7034 92.3509 46.0033C92.546 45.83 94.3017 43.7688 94.6948 44.3086C94.9475 44.6543 92.9598 46.7688 92.6576 47.0687C91.3275 48.391 86.9192 50.4322 86.3288 50.5877L82.9298 47.7298C82.9298 47.7298 84.3832 47.1272 84.8325 46.7244C85.4229 46.2002 85.8359 45.3858 86.0376 45.063Z" fill="#FDB98D"/>
<path d="M19.4673 66.5764C18.9242 67.4256 18.1047 67.9091 17.7205 68.3267C16.8567 69.2699 16.2892 70.0295 16.0867 69.8437C15.4416 69.2514 16.969 67.8129 16.904 66.9933C16.9011 66.9564 16.8903 66.9207 16.8724 66.8884C16.8544 66.8561 16.8297 66.8282 16.8 66.8064C16.7702 66.7846 16.7361 66.7695 16.7 66.7621C16.6638 66.7548 16.6265 66.7553 16.5907 66.7638C16.1902 66.8548 15.5222 67.2872 15.0596 67.6522C14.388 68.1838 12.8333 70.031 12.3995 69.763C11.9296 69.4743 13.3239 67.9928 13.7577 67.5552C13.3032 68.0068 11.9015 69.8585 11.4308 69.4624C10.9875 69.0878 13.1968 66.7786 13.4998 66.4795C13.3476 66.6172 11.3865 69.05 11.0458 68.6391C10.621 68.126 12.851 65.936 13.154 65.6369C12.9589 65.8094 11.204 67.8714 10.8101 67.3309C10.5582 66.9851 12.5451 64.8714 12.8473 64.5708C14.1774 63.2485 18.5857 61.2072 19.1761 61.0518L22.5751 63.9096C22.5751 63.9096 21.1217 64.5123 20.6732 64.915C20.0842 65.4385 19.6712 66.2581 19.4673 66.5764Z" fill="#FDB98D"/>
<path d="M87.112 51.5136C85.3386 53.1076 75.0285 62.8487 63.916 60.9163C63.8192 60.9001 63.7231 60.8823 63.6256 60.8638C61.962 60.5418 60.3555 59.9737 58.8588 59.1779C50.2933 54.6543 51.4549 46.7744 54.7209 46.1925C57.5377 45.6905 63.0566 39.3618 66.0743 43.325C72.5073 51.7742 76.9002 48.2322 84.0691 46.2865C84.9085 45.8823 87.9418 50.446 87.112 51.5136Z" fill="#EE715D"/>
<path d="M63.916 60.9171C63.8168 60.9169 63.7185 60.8991 63.6256 60.8645C63.5857 58.7663 63.4224 55.4346 62.846 52.1281C62.8395 52.0899 62.8483 52.0506 62.8704 52.0188C62.8925 51.9869 62.9262 51.965 62.9642 51.9578C62.9826 51.9542 63.0016 51.9542 63.02 51.9578C63.0383 51.9615 63.0558 51.9688 63.0714 51.9792C63.087 51.9897 63.1004 52.0031 63.1107 52.0188C63.1211 52.0344 63.1284 52.0519 63.132 52.0704C63.7165 55.4265 63.8783 58.8078 63.916 60.9171Z" fill="#F8EADD"/>
<path d="M21.6382 64.5765C26.1389 62.7122 38.8387 64.1678 42.7859 57.7443C46.1968 52.1915 36.1254 43.444 33.6847 45.6888C28.8818 50.1059 24.2399 52.8023 17.965 61.0523C17.2187 61.9659 20.2779 65.0429 21.6382 64.5765Z" fill="#EE715D"/>
<path d="M37.751 61.8806C37.7613 61.8816 37.7717 61.8816 37.782 61.8806C37.8766 61.8621 40.1244 61.3934 41.9776 59.0346C41.9928 59.0042 41.997 58.9694 41.9896 58.9362C41.9823 58.903 41.9637 58.8734 41.9371 58.8523C41.9105 58.8312 41.8774 58.8199 41.8435 58.8203C41.8096 58.8208 41.7768 58.8329 41.7507 58.8547C39.9626 61.1313 37.748 61.5941 37.7259 61.5941C37.6942 61.6045 37.667 61.6253 37.6486 61.6532C37.6302 61.6811 37.6218 61.7144 37.6247 61.7477C37.6277 61.781 37.6417 61.8123 37.6646 61.8365C37.6876 61.8608 37.718 61.8766 37.751 61.8813V61.8806Z" fill="#F8EADD"/>
<path d="M56.1928 18.2278C56.1928 18.2278 52.468 19.1074 42.998 23.7273C39.7076 25.3347 29.1286 42.5418 29.8239 48.9875C35.5616 44.72 40.0379 43.6161 46.6017 39.2323C49.731 37.1415 50.4263 35.6607 51.2089 28.257C51.8355 22.3266 55.8197 24.1753 55.9032 20.6792C55.9955 16.8033 56.1928 18.2278 56.1928 18.2278Z" fill="#002869"/>
</svg>
