<svg width="618" height="530" viewBox="0 0 618 530" fill="none" xmlns="http://www.w3.org/2000/svg">
<path d="M228.14 128.97L235.779 505.452C235.779 515.737 223.79 523.486 213.856 523.486H37.989C28.055 523.486 20.005 515.155 20.005 504.869L11.5096 129.175C11.5096 118.89 20.0735 107.816 30.0075 107.816H197.311C217.076 107.816 228.14 118.684 228.14 128.97Z" fill="#01609A"/>
<path d="M596.351 504.835C596.351 510.149 594.228 514.915 590.768 518.309C587.548 521.497 583.163 523.452 578.367 523.452H402.535C402.329 523.452 402.089 523.452 401.884 523.417C392.087 523.109 380.611 515.463 380.611 505.418L373.589 127.393C373.589 117.107 384.619 106.239 404.419 106.239H571.722C581.656 106.239 590.22 117.313 590.22 127.598L596.351 504.835Z" fill="#E8E2E4"/>
<path d="M594.193 518.309C590.973 521.497 586.588 523.452 581.793 523.452H405.96C405.754 523.452 405.515 523.452 405.309 523.417C412.023 482.755 418.874 450.151 418.326 431.602C414.764 418.746 535.068 385.352 539.864 403.455C546.167 430.265 571.859 459.27 594.193 518.309Z" fill="#01609A"/>
<path d="M606.833 414.049C605.703 413.534 604.538 413.02 603.374 412.437C600.702 411.134 597.721 410.38 594.536 409.9C581.108 407.843 564.048 410.62 552.504 397.592C552.71 398.449 552.915 399.306 553.155 400.197C558.568 421.523 570.214 449.911 567.234 453.339C558.705 463.179 480.328 479.121 416.511 470.55C395.307 467.704 409.111 375.992 408.426 376.849C397.465 391.283 411.92 274.818 464.639 271.629C515.611 268.543 553.737 284.212 592.96 322.199C594.536 323.742 596.146 325.319 597.721 326.931C599.811 329.056 602.38 331.285 605.36 333.65L606.08 373.112L606.833 414.049Z" fill="#ED715D"/>
<path d="M529.348 381.889C539.11 395.192 550.518 399.375 553.121 400.198C552.881 399.306 552.676 398.449 552.47 397.592C552.333 397.558 540.138 393.512 530.786 380.826C530.478 380.415 529.93 380.346 529.519 380.621C529.142 380.929 529.074 381.478 529.348 381.889Z" fill="#002869"/>
<path d="M397.499 518.275C398.047 519.063 398.664 519.817 399.315 520.537C401.781 523.212 404.967 525.132 408.598 526.4C414.558 528.491 422.06 529.143 430.898 529.143H580.08C596.42 529.143 605.806 526.057 611.15 518.857C616.391 511.829 617.555 501.304 617.555 485.567L611.424 146.592C611.424 123.244 607.793 108.776 591.555 103.119C586.451 101.336 579.977 100.582 572.064 100.582H545.996L559.013 108.536C572.304 108.536 580.114 111.039 584.396 116.833C588.37 122.25 590.014 130.821 590.014 146.592L596.146 485.567C596.146 499.246 595.358 508.572 591.487 513.818C587.856 518.72 580.525 520.606 567.063 520.606H417.881C409.351 520.606 403.288 520.16 398.938 518.823C398.424 518.617 397.944 518.446 397.499 518.275Z" fill="#ED715D"/>
<path d="M603.408 414.048L602.654 373.078L601.935 333.616L598.544 146.592C598.544 123.244 594.81 108.776 578.573 103.119C573.469 101.336 566.892 100.582 558.979 100.582H412.743C402.055 100.582 393.971 102.193 387.976 105.896C385.064 107.679 382.701 109.77 380.748 112.479C375.473 119.713 373.452 129.861 373.452 147.552L378.967 488.412C378.967 503.292 380.097 513.817 386.366 520.572C388.832 523.246 391.915 525.166 395.546 526.434C401.507 528.526 409.009 529.177 417.847 529.177H567.029C582.135 529.177 591.384 526.537 596.899 520.434C597.345 519.954 597.79 519.44 598.167 518.892C603.408 511.863 604.641 501.338 604.641 485.601L603.408 414.048ZM592.446 488.412C592.446 488.927 592.035 489.338 591.521 489.338H390.922C390.408 489.338 389.997 488.927 389.997 488.412L384.482 147.449C384.482 147.106 384.482 146.764 384.482 146.421C384.482 144.089 386.4 142.204 388.73 142.204H582.135C584.465 142.204 586.383 144.124 586.383 146.455V146.489L589.534 322.199L589.98 347.056L591.11 409.9L592.48 485.532C592.446 486.527 592.446 487.487 592.446 488.412Z" fill="#FDB88E"/>
<path d="M505.027 290.657C491.599 310.44 354.44 328.199 380.2 266.829C388.798 246.327 356.632 250.544 387.976 209.196C399.28 194.317 383.763 159.346 429.596 158.318C446.381 157.941 474.642 131.918 480.157 184.717C482.315 205.802 505.027 290.657 505.027 290.657Z" fill="#012869"/>
<path d="M30.2474 263.058C30.2816 263.264 30.3501 263.435 30.3844 263.607C30.7612 264.841 31.275 265.972 31.9944 266.864C52.5476 293.571 136.405 296.417 218.72 284.76C241.671 281.88 264.485 277.903 285.69 273.001C321.041 264.772 352.008 253.938 372.082 241.253C383.215 234.224 390.991 226.647 394.279 218.625C394.724 217.562 394.93 216.362 394.964 215.059C394.964 214.888 394.964 214.716 394.964 214.511C394.656 209.368 388.387 199.391 386.709 195.551C360.606 136.273 282.572 117.073 199.846 126.398V126.33C199.126 126.433 198.407 126.536 197.688 126.638C196.968 126.707 196.249 126.81 195.529 126.878V126.947C113.282 139.598 42.9561 178.546 33.2618 242.624C32.6452 246.738 29.1855 257.984 30.2474 263.058Z" fill="#A9D3E0"/>
<path d="M350.796 228.843C355.615 215.244 348.508 200.31 334.921 195.487C321.334 190.663 306.412 197.777 301.593 211.376C296.774 224.975 303.881 239.909 317.468 244.732C331.056 249.556 345.977 242.442 350.796 228.843Z" fill="#ED715D"/>
<g opacity="0.85">
<g opacity="0.85">
<path opacity="0.85" d="M283.497 269.366C284.114 270.669 284.833 271.869 285.655 272.966C321.007 264.738 351.974 253.904 372.047 241.219C369.444 238.99 366.121 237.55 362.422 237.173C361.291 237.07 360.332 236.384 359.818 235.424C355.708 227.367 346.733 223.15 337.963 225.105C333.955 225.996 329.708 225.276 326.351 222.979C321.281 219.516 314.635 218.385 308.435 220.716C301.276 223.39 296.994 229.596 296.172 236.59C296.035 237.756 295.281 238.75 294.185 239.299C282.744 244.681 278.119 258.121 283.497 269.366Z" fill="white"/>
</g>
</g>
<path d="M395.82 214.339C394.553 206.899 391.847 202.237 389.894 198.842C389.312 197.848 388.832 196.957 388.421 196.168C376.432 171.723 350.638 151.152 315.766 138.261C291.616 129.347 264.143 124.444 235.985 123.896C224.064 123.656 212.041 124.204 200.085 125.541C199.983 125.507 199.846 125.507 199.743 125.507C199.263 125.576 198.784 125.644 198.304 125.713L196.865 125.918C196.386 125.987 195.906 126.021 195.427 126.09C195.29 126.09 195.187 126.158 195.084 126.193C173.435 129.553 152.539 135.141 133.425 142.581C115.783 149.438 99.6487 157.838 85.7753 167.54C54.2604 189.586 35.1802 217.356 30.5557 247.87C30.4187 248.727 30.2474 249.618 30.0761 250.613C29.391 254.418 28.5346 259.115 29.391 263.298C29.4253 263.538 29.4938 263.709 29.5623 263.915C30.0076 265.321 30.59 266.521 31.3093 267.446C41.0721 280.132 65.5647 288.326 102.115 291.103C111.467 291.823 121.504 292.166 132.089 292.166C158.602 292.166 188.439 289.937 218.823 285.652C222.077 285.24 225.332 284.829 228.586 284.349C232.662 283.8 236.67 283.183 240.678 282.566C256.298 280.132 271.405 277.218 285.861 273.858C323.37 265.149 353.344 254.11 372.527 242.007C384.208 234.636 391.813 226.853 395.067 218.968C395.512 217.871 395.786 216.568 395.82 215.093V214.991C395.855 214.785 395.855 214.545 395.82 214.339ZM394.142 214.853V214.991C394.108 216.259 393.902 217.356 393.525 218.282C390.408 225.859 383.043 233.333 371.636 240.533C352.625 252.533 322.857 263.469 285.518 272.143C271.2 275.469 256.161 278.383 240.678 280.783C236.67 281.4 232.662 282.018 228.586 282.566C225.297 283.012 221.975 283.458 218.618 283.869C141.235 294.84 53.7466 293.64 32.6795 266.315C32.0629 265.527 31.5834 264.532 31.2066 263.332C31.1723 263.195 31.1038 263.058 31.0695 262.887V262.852C30.2474 259.012 31.1038 254.487 31.7546 250.853C31.9259 249.858 32.0972 248.933 32.2342 248.041C36.7902 217.973 55.6306 190.614 86.7345 168.843C101.567 158.455 119.072 149.541 138.22 142.478C156.17 135.861 175.559 130.856 195.632 127.736C195.735 127.736 195.838 127.701 195.906 127.633C196.283 127.598 196.626 127.564 197.002 127.496L198.51 127.29C198.886 127.221 199.229 127.187 199.606 127.118C199.709 127.153 199.811 127.153 199.914 127.153C212.075 125.781 224.27 125.233 236.362 125.507C264.177 126.124 291.307 130.958 315.149 139.77C349.576 152.489 375.027 172.752 386.846 196.82C387.257 197.677 387.805 198.637 388.387 199.597C390.374 203.094 392.875 207.414 394.108 214.545C394.142 214.682 394.142 214.751 394.142 214.853Z" fill="#ED715D"/>
<g opacity="0.85">
<g opacity="0.85">
<g opacity="0.85">
<g opacity="0.85">
<path opacity="0.85" d="M53.2669 211.596C55.5278 200.968 64.9138 193.357 75.807 193.46C79.8148 193.494 83.6857 191.677 86.0836 188.557C90.6738 182.591 98.0729 178.923 106.157 179.677C114.961 180.5 121.606 186.123 124.621 193.665C125.135 194.934 126.265 195.825 127.635 196.065C142.091 198.602 151.271 212.179 148.668 226.339C146.065 240.601 131.883 249.447 118.044 247.047C114.207 246.396 110.199 247.801 107.664 250.715C102.252 256.921 94.1336 260.555 85.3985 259.664C80.0204 259.115 74.9848 256.921 71.0455 253.424C70.2576 252.738 69.6067 251.778 68.7846 251.161C67.0376 249.858 66.6265 250.613 64.5369 251.435C61.6938 252.533 58.645 252.978 55.6306 252.738C45.6965 251.881 38.6057 243.79 37.9548 234.464C37.3382 225.619 42.5108 217.562 50.9033 214.339C52.1023 213.859 52.9929 212.831 53.2669 211.596Z" fill="white"/>
</g>
</g>
</g>
</g>
<path d="M233.793 503.052C206.286 517.726 160.349 523.932 118.181 523.794C117.633 523.794 117.085 523.794 116.537 523.794C69.2301 523.452 26.9933 515.155 21.4096 501.921C21.2041 501.406 20.2792 488.79 22.5743 484.23L21.1013 393.546L20.4847 355.559C23.6705 351.273 27.2673 347.124 31.3094 343.182C46.5188 328.234 67.6886 316.097 96.7371 309.445C109.103 306.6 127.224 311.022 127.224 311.022C220.673 331.868 213.89 388.643 229.031 425.363C231.635 431.637 233.724 438.494 235.437 445.419C242.836 475.693 235.369 503.086 233.793 503.052Z" fill="#002869"/>
<path d="M94.168 276.292L90.0916 318.565C88.4131 334.336 140.653 337.456 141.132 323.639V298.988L94.168 276.292Z" fill="#FDB88E"/>
<path d="M150.347 270.429C149.353 271.355 149.319 273.275 152.436 275.915C150.552 275.092 148.6 275.812 148.257 277.423C147.538 280.612 158.157 289.149 161.617 293.4C164.494 296.931 168.228 301.56 167.68 303.651C164.631 307.183 148.771 296.931 147.058 302.177C146.544 303.754 150.381 306.634 157.472 310.577C163.432 313.902 167.132 317.468 171.037 320.142C175.559 323.194 181.211 324.154 184.808 324.325C190.7 324.565 197.002 319.799 198.304 312.257C199.435 305.537 189.74 286.543 181.177 278.178C179.224 276.292 164.22 262.852 160.795 265.835C160.041 266.486 159.938 267.652 161.137 269.263C157.54 266.864 155.828 266.486 154.526 267.721C153.875 268.338 154.012 269.469 154.629 270.601C153.258 269.641 151.614 269.229 150.347 270.429Z" fill="#FDB88E"/>
<path d="M162.062 283.697C165.796 287.606 167.44 289.903 167.543 290.04C167.851 290.452 167.748 291.034 167.337 291.343C166.926 291.652 166.344 291.549 166.036 291.137C166.001 291.103 162.268 285.926 153.395 277.903C153.019 277.56 152.984 276.978 153.327 276.6C153.67 276.223 154.252 276.189 154.629 276.532C157.712 279.275 160.144 281.709 162.062 283.697Z" fill="#EE715D"/>
<path d="M167.817 281.503C170.558 284.349 172.031 286.234 172.065 286.303C172.373 286.714 172.305 287.297 171.893 287.606C171.482 287.914 170.9 287.846 170.592 287.434C170.523 287.366 164.631 279.926 154.834 272.212C154.423 271.903 154.355 271.321 154.663 270.909C154.971 270.498 155.554 270.429 155.965 270.738C161.035 274.715 165.077 278.623 167.817 281.503Z" fill="#EE715D"/>
<path d="M176.792 282.086C176.826 282.12 176.826 282.12 176.86 282.155C177.169 282.532 177.134 283.115 176.758 283.423C176.107 284.006 175.49 283.389 175.25 283.149C169.393 277.149 164.22 272.418 161.034 270.155C160.623 269.846 160.521 269.298 160.795 268.852C161.103 268.441 161.651 268.338 162.096 268.612C166.584 271.766 173.092 278.246 176.586 281.812C176.689 281.915 176.758 281.983 176.758 282.018C176.792 282.052 176.792 282.052 176.792 282.086Z" fill="#EE715D"/>
<path d="M234.923 455.053C233.553 456.116 237.184 465.133 235.745 466.093C233.176 467.841 230.539 469.419 227.832 470.824C213.342 478.333 197.037 480.458 182.718 472.093C131.952 442.402 189.946 418.643 179.772 384.838C171.106 356.004 188.37 355.044 173.606 326.451C171.345 322.062 198.51 306.017 203.306 309.891C211.253 316.268 218.652 319.594 225.263 323.571C229.785 326.245 228.963 330.051 232.628 334.473L233.211 355.627L233.793 370.472L234.375 440.174L234.923 455.053Z" fill="#002869"/>
<path d="M173.263 420.22C173.229 420.22 173.195 420.186 173.161 420.186C172.784 420.014 172.578 419.568 172.75 419.157C177.203 408.494 178.539 400.232 176.963 393.101C173.88 379.352 176.209 372.461 178.231 366.358C180.628 359.193 182.718 352.987 176.004 337.319C175.833 336.942 176.004 336.462 176.415 336.291C176.792 336.119 177.271 336.29 177.443 336.702C184.396 352.919 182.136 359.707 179.738 366.873C177.648 373.044 175.524 379.455 178.505 392.792C180.183 400.232 178.813 408.803 174.223 419.774C174.051 420.151 173.64 420.323 173.263 420.22Z" fill="#016099"/>
<path d="M162.61 276.909C153.224 277.012 155.828 277.32 144.832 276.086C139.659 275.503 105.541 282.84 98.0389 286.2C98.724 295.731 94.305 312.36 90.537 312.874C81.7333 314.451 86.4948 286.235 86.4948 286.2C80.2946 272.486 78.5476 251.915 84.0284 238.064C84.0284 238.064 84.0284 238.064 84.0284 238.03C87.2142 229.939 92.9006 224.145 101.567 223.356C114.139 206.522 142.091 222.019 142.091 222.019C168.297 217.836 180.628 232.304 185.561 243.653C187.48 248.11 188.302 252.052 188.37 254.247C188.541 261.138 186.007 276.669 162.61 276.909Z" fill="#002869"/>
<path d="M160.247 286.372C160.11 288.086 159.425 298.543 157.712 302.554C157.061 304.097 156.239 305.708 155.28 307.423C151.888 313.525 141.852 325.216 129.074 323.571C115.68 321.822 102.595 308.897 101.019 288.977C91.3592 289.354 88.2077 275.469 92.2841 269.161C94.1339 266.281 98.5528 264.155 102.458 267.378C102.013 260.829 99.4434 259.595 100.231 256.955C112.94 215.813 156.342 246.43 161.959 252.087C168.125 264.498 160.418 283.32 160.247 286.372Z" fill="#FDB88E"/>
<path d="M123.73 288.703C123.011 293.16 118.832 296.211 114.344 295.491C109.891 294.771 106.842 290.589 107.562 286.097C108.281 281.64 112.46 278.589 116.948 279.309C121.435 280.029 124.45 284.212 123.73 288.703Z" fill="#ED715D"/>
<path d="M160.247 286.372C160.11 288.086 160.144 289.697 160.075 290.691C159.801 295.354 159.424 298.577 157.712 302.554C153.293 301.8 150.278 297.617 150.998 293.194C151.717 288.737 155.828 285.72 160.247 286.372Z" fill="#ED715D"/>
<path d="M146.99 259.287C166.139 257.332 163.261 269.332 175.079 267.138C184.739 265.321 171.722 239.093 159.253 242.556C144.934 246.567 123.491 202.099 94.8189 251.915C91.2563 258.121 97.251 262.235 102.321 267.241C104.582 269.469 104.787 272.589 104.102 276.532C104.034 277.012 104.273 277.492 104.719 277.663C106.123 278.212 108.59 278.623 110.2 272.075C112.46 262.921 113.42 245.881 123.148 248.761C131.643 251.298 133.014 260.727 146.99 259.287Z" fill="#002869"/>
<path d="M127.122 278.863C121.812 278.795 117.736 275.263 117.53 275.058C117.222 274.783 117.188 274.269 117.462 273.961C117.736 273.652 118.25 273.618 118.558 273.892C118.626 273.926 124.347 278.897 130.65 276.703C131.061 276.566 131.506 276.772 131.643 277.183C131.78 277.595 131.575 278.04 131.164 278.178C129.759 278.692 128.423 278.863 127.122 278.863Z" fill="#002869"/>
<path d="M152.608 282.978C149.079 282.943 146.682 281.229 146.545 281.092C146.202 280.852 146.133 280.338 146.373 279.995C146.613 279.652 147.127 279.583 147.469 279.823C147.675 279.96 152.368 283.32 158.157 279.789C158.534 279.583 159.013 279.686 159.219 280.063C159.459 280.44 159.322 280.92 158.945 281.126C156.65 282.566 154.492 283.012 152.608 282.978Z" fill="#002869"/>
<path d="M137.946 296.52C136.645 296.52 135.069 296.074 133.253 294.977C132.877 294.771 132.774 294.257 132.979 293.914C133.185 293.537 133.699 293.434 134.041 293.64C137.227 295.56 139.556 295.149 140.413 293.88C141.201 292.714 140.516 291.377 139.419 289.663L139.008 289.012C137.124 285.823 137.398 281.366 137.398 281.16C137.433 280.715 137.809 280.406 138.22 280.44C138.666 280.475 138.974 280.852 138.94 281.263C138.94 281.297 138.666 285.446 140.31 288.189L140.687 288.806C141.714 290.417 143.085 292.646 141.646 294.737C141.029 295.766 139.762 296.554 137.946 296.52Z" fill="#ED715D"/>
<path d="M140.241 306.634C140.002 306.634 139.796 306.497 139.659 306.291C136.097 301.286 128.389 304.303 128.321 304.337C127.91 304.508 127.464 304.303 127.293 303.891C127.122 303.48 127.327 303.034 127.738 302.863C128.115 302.726 136.679 299.366 140.927 305.365C141.166 305.708 141.098 306.223 140.755 306.463C140.618 306.6 140.413 306.634 140.241 306.634Z" fill="#ED715D"/>
<path d="M130.17 323.811C132.157 323.845 134.247 323.742 136.439 323.536C136.816 323.502 137.124 323.159 137.056 322.748C137.021 322.371 136.679 322.062 136.268 322.131C117.975 323.982 106.466 316.371 102.115 299.503C102.013 299.126 101.636 298.886 101.259 298.989C100.882 299.091 100.642 299.469 100.745 299.846C104.821 315.48 114.687 323.502 130.17 323.811Z" fill="#ED715D"/>
<path d="M118.181 523.794C117.633 523.794 117.085 523.794 116.537 523.794C115.646 520.88 114.481 517.966 112.837 515.052C109.788 509.635 105.198 504.355 98.1417 499.521C89.8519 493.829 85.1589 485.944 83.7887 475.384C82.624 466.196 84.0627 456.185 85.4672 446.551C87.5568 432.117 89.5436 418.437 82.1102 410.071C81.8361 409.763 81.8361 409.249 82.1787 408.974C82.487 408.7 83.0008 408.7 83.2748 409.043C91.1878 417.957 89.1325 431.945 87.0087 446.756C84.1997 466.059 81.3223 486.047 99.0323 498.218C106.671 503.463 111.501 509.189 114.653 515.017C116.194 517.966 117.325 520.88 118.181 523.794Z" fill="#016099"/>
<path d="M7.33063 112.959C9.31744 110.25 11.6468 108.296 14.5585 106.513C20.5532 102.845 28.6375 101.37 39.3251 101.37H48.4713C37.7836 101.37 29.6994 102.845 23.7047 106.513C20.793 108.296 18.4294 110.319 16.4768 113.027C11.2015 120.261 9.18043 130.376 9.18043 148.066L14.6955 488.892C14.6955 503.772 15.826 514.298 22.0947 521.017C24.5611 523.692 27.6441 525.749 31.2751 527.017C37.2355 529.109 44.7375 529.897 53.5753 529.897H44.3949C35.557 529.897 28.0551 529.109 22.0947 527.017C18.4636 525.749 15.3806 523.76 12.9142 521.086C6.64552 514.332 5.5151 503.806 5.5151 488.892L0 148.032C0 130.375 2.02105 120.193 7.33063 112.959Z" fill="#01609A"/>
<path d="M239.959 463.076L239.821 456.185L238.348 373.627L238.109 360.324L237.629 333.685L234.272 147.175C234.272 123.827 230.538 109.427 214.301 103.805C209.197 102.022 202.62 101.405 194.707 101.405H48.4712C37.7835 101.405 29.6992 102.879 23.7045 106.582C20.7928 108.365 18.4292 110.319 16.4767 113.027C11.2014 120.261 9.1803 130.41 9.1803 148.101L12.5373 355.627L13.1539 393.615L14.6269 484.298L14.6954 488.961C14.6954 495.646 14.9009 501.441 15.7231 506.412C16.7165 512.515 18.6348 517.383 22.0946 521.12C24.5952 523.794 27.6439 525.851 31.275 527.12C34.632 528.286 38.4686 529.04 42.7505 529.486C46.1076 529.829 49.7044 530 53.5752 530H202.757C217.864 530 227.113 527.223 232.628 521.12C233.073 520.64 233.518 519.989 233.895 519.44C239.136 512.412 240.404 501.886 240.404 486.15L239.959 463.076ZM228.106 488.961C228.106 489.475 227.695 489.921 227.181 489.921H26.582C26.0682 489.921 25.6571 489.441 25.6571 488.927L25.6229 487.692L24.0129 387.066L23.2935 343.182L20.142 147.895V146.832C20.142 144.501 22.0603 142.512 24.3897 142.512H217.795C220.125 142.512 222.146 144.638 222.146 146.969V147.004L225.263 323.605L225.571 342.016L225.674 347.57L227.387 445.419L227.764 466.127L227.832 470.859L228.106 486.047C228.14 487.041 228.14 488.001 228.106 488.961Z" fill="#A9D3E0"/>
<path d="M171.922 128.917C174.689 127.783 176.013 124.62 174.88 121.851C173.747 119.083 170.586 117.757 167.82 118.891C165.054 120.025 163.73 123.189 164.863 125.957C165.995 128.726 169.156 130.051 171.922 128.917Z" fill="#01609A"/>
<path d="M231.395 379.455C230.984 384.426 232.491 399.375 240.884 401.055C258.833 404.655 263.252 400.609 271.474 399.649L269.761 383.672C269.761 383.672 262.259 379.695 258.457 378.598C253.695 377.158 231.84 374.141 231.395 379.455Z" fill="#FDB88E"/>
<path d="M233.587 373.524C234.717 370.61 239.547 373.695 246.467 375.067C249.481 375.65 256.435 375.889 262.704 378.015C266.678 379.352 268.425 382.575 270.925 384.221L258.456 392.963C257.155 384.666 231.326 379.318 233.587 373.524Z" fill="#FDB88E"/>
<path d="M364.545 337.353C349.37 362.655 299.357 367.73 265.582 378.392C261.3 380.689 258.491 402.186 264.074 405.374C288.361 409.317 293.808 430.642 336.593 425.945C378.282 421.386 394.245 445.934 429.665 400.232C432.165 397.009 544.215 302.623 545.551 297.377L446.69 270.052C404.384 276.292 386.811 300.223 364.545 337.353Z" fill="#ED715D"/>
<path d="M403.699 422.483C403.22 422.483 402.843 422.071 402.843 421.625C403.288 395.158 409.762 368.93 409.831 368.655C409.934 368.21 410.413 367.901 410.858 368.038C411.304 368.141 411.612 368.621 411.475 369.067C411.406 369.341 405.001 395.398 404.521 421.625C404.556 422.105 404.179 422.483 403.699 422.483Z" fill="#002869"/>
<path d="M480.294 234.464L490.845 267.241C492.9 276.978 443.881 287.709 441.277 277.218L439.496 261.892L480.294 234.464Z" fill="#FDB88E"/>
<path d="M478.444 230.144C475.841 261.275 452.171 267.446 435.111 263.435C423.259 260.624 418.84 245.127 417.333 237.619C417.333 237.584 417.333 237.55 417.299 237.516C416.511 234.156 416.339 230.624 416.648 227.265C416.785 225.79 417.093 224.385 417.436 222.945C417.675 221.882 417.984 220.785 418.224 219.688C418.635 217.87 418.874 215.951 419.183 213.722C420.142 206.796 421.923 204.019 423.739 201.859C432.302 191.574 441.86 200.317 454.26 183.414C462.242 172.546 480.157 209.814 478.444 230.144Z" fill="#FDB88E"/>
<path d="M452.924 233.642C451.109 238.887 455.459 244.338 461.419 243.241C463.235 242.898 464.845 241.836 465.804 240.259C469.127 235.081 465.53 228.876 459.878 228.773C456.726 228.739 453.952 230.693 452.924 233.642Z" fill="#ED715D"/>
<path d="M424.081 231.653C423.43 235.013 420.587 237.379 417.299 237.55C416.511 234.19 416.339 230.659 416.648 227.299C416.785 225.825 417.093 224.419 417.436 222.979C417.71 223.013 418.018 223.048 418.326 223.082C422.266 223.836 424.835 227.676 424.081 231.653Z" fill="#ED715D"/>
<path d="M441.894 265.835C441.483 265.801 441.209 265.492 441.209 265.081C441.243 264.669 441.551 264.395 441.962 264.395C442.168 264.395 461.796 265.218 471.593 253.835C471.867 253.527 472.313 253.493 472.621 253.767C472.929 254.041 472.963 254.487 472.689 254.795C462.413 266.658 442.716 265.869 441.894 265.835Z" fill="#ED715D"/>
<path d="M428.466 220.613C422.608 220.168 420.553 216.636 420.45 216.465C420.244 216.088 420.381 215.573 420.758 215.368C421.135 215.162 421.649 215.299 421.854 215.676C421.957 215.882 424.492 220.03 432.405 218.831C432.85 218.762 433.261 219.071 433.33 219.516C433.398 219.962 433.09 220.373 432.645 220.442C431.069 220.682 429.699 220.716 428.466 220.613Z" fill="#002869"/>
<path d="M452.89 224.933C449.293 224.453 446.93 222.602 446.793 222.499C446.45 222.225 446.382 221.71 446.656 221.368C446.93 221.025 447.443 220.956 447.786 221.23C448.026 221.402 453.37 225.585 460.358 221.882C460.769 221.676 461.248 221.813 461.454 222.225C461.659 222.636 461.522 223.116 461.111 223.322C458.028 224.967 455.185 225.242 452.89 224.933Z" fill="#002869"/>
<path d="M436.447 238.647C435.523 238.579 434.563 238.304 433.741 237.824C432.371 237.001 431.583 235.699 431.549 234.259C431.515 232.407 432.885 231.104 434.187 229.87C434.837 229.253 435.523 228.602 436.002 227.916C437.646 225.55 438.469 221.196 438.503 221.162C438.571 220.716 439.017 220.442 439.462 220.51C439.907 220.579 440.181 221.025 440.113 221.47C440.079 221.676 439.222 226.202 437.372 228.842C436.79 229.664 436.071 230.35 435.351 231.036C434.187 232.133 433.193 233.059 433.227 234.19C433.262 235.39 434.118 236.076 434.632 236.384C435.865 237.104 437.544 237.207 438.708 236.624C439.119 236.419 439.599 236.59 439.805 236.967C440.01 237.379 439.839 237.859 439.462 238.064C438.537 238.544 437.475 238.716 436.447 238.647Z" fill="#ED715D"/>
<path d="M438.605 246.944C442.305 246.773 445.045 245.367 445.217 245.264C445.662 245.024 445.833 244.476 445.593 244.064C445.354 243.618 444.806 243.447 444.394 243.687C444.326 243.721 437.578 247.218 431.24 243.276C430.829 243.001 430.281 243.138 430.007 243.584C429.733 243.996 429.87 244.544 430.315 244.818C433.193 246.601 436.139 247.047 438.605 246.944Z" fill="#ED715D"/>
<path d="M442.305 169.289C442.305 169.289 491.222 125.987 526.025 183.551C537.124 201.928 566.172 199.288 557.403 238.853C554.423 252.258 556.889 257.332 561.205 268.201C568.912 287.537 560.349 303.788 539.076 305.4C522.394 306.703 526.128 327.582 504.718 324.016C487.282 321.136 487.385 301.183 472.895 296.691C440.935 286.749 469.709 252.395 474.299 236.59C474.642 235.459 475.019 234.293 475.396 233.093C476.526 229.15 476.183 225.722 475.396 221.882C471.045 200.797 439.359 206.179 446.21 180.946L442.305 169.289Z" fill="#012869"/>
<path d="M235.437 440.928C230.641 442.608 225.297 442.471 220.672 440.413C216.63 438.596 209.676 433.659 208.717 421.043C208.649 420.048 209.402 419.157 210.396 419.088C211.389 419.02 212.28 419.774 212.348 420.768C212.965 428.722 216.425 434.517 222.18 437.088C227.489 439.488 234.032 438.665 238.828 435.031C241.705 432.871 246.261 427.797 244.823 418.403C232.354 336.702 208.923 170.489 208.615 168.329C208.478 167.335 209.163 166.409 210.156 166.272C211.15 166.135 212.074 166.82 212.211 167.815C212.52 169.975 235.916 336.119 248.385 417.82C249.653 426.048 246.946 433.351 240.986 437.876C239.307 439.248 237.389 440.242 235.437 440.928Z" fill="#ED715D"/>
<path d="M202.243 159.861C205.463 149.884 215.466 143.369 226.325 144.295C230.333 144.638 234.341 143.198 237.013 140.421C242.117 135.073 249.824 132.158 257.806 133.495C266.506 134.935 272.604 140.832 274.933 148.272C275.31 149.506 276.372 150.466 277.742 150.809C291.924 154.341 299.837 167.986 296 181.289C292.129 194.694 277.194 202.031 263.629 198.705C259.861 197.78 255.75 198.842 252.976 201.414C247.015 206.899 238.588 209.745 229.956 208.237C224.646 207.311 219.816 204.808 216.22 201.174C215.5 200.454 213.342 198.26 209.917 198.774C206.902 199.22 203.888 199.802 200.907 199.322C191.076 197.711 184.739 189.483 184.944 180.534C185.15 172.066 191.008 164.763 199.674 162.329C200.873 161.918 201.867 160.992 202.243 159.861Z" fill="white"/>
<path d="M30.2473 263.058C30.2815 263.264 30.3158 263.435 30.3843 263.607C34.0839 216.191 117.016 181.94 203.408 169.563C247.358 164.146 291.924 164.42 327.241 171.826C330.941 172.614 334.503 173.437 337.997 174.397C366.84 182.146 387.976 195.345 394.998 215.059C394.998 214.888 394.998 214.716 394.998 214.511C394.793 209.196 389.517 196.58 385.475 190.237C361.942 153.072 329.468 129.107 293.226 116.456C262.567 105.759 229.202 103.153 196.283 107.542C195.906 107.576 195.564 107.645 195.187 107.679C194.81 107.713 194.467 107.782 194.091 107.816C186.246 108.879 178.47 110.285 170.831 112.136C108.452 126.981 54.4316 168.02 33.0905 237.104C30.8639 244.304 29.0483 257.847 30.2473 263.058Z" fill="#ED715D"/>
<path d="M240.644 280.783C236.636 281.4 232.628 282.018 228.552 282.566C228.414 283.149 228.414 283.732 228.586 284.28C232.662 283.732 236.67 283.115 240.678 282.498C240.918 281.915 240.952 281.332 240.644 280.783ZM236.396 125.541C236.259 124.959 236.122 124.376 235.985 123.827C224.064 123.587 212.04 124.136 200.085 125.473C199.983 125.439 199.846 125.439 199.743 125.439C199.263 125.507 198.784 125.576 198.304 125.644L196.865 125.85C196.386 125.919 195.906 125.953 195.427 126.021C195.29 126.021 195.187 126.09 195.084 126.124C173.435 129.484 152.539 135.073 133.424 142.512H138.254C156.204 135.895 175.593 130.89 195.666 127.77C195.769 127.77 195.872 127.736 195.94 127.667C196.317 127.633 196.66 127.598 197.037 127.53L198.544 127.324C198.921 127.256 199.263 127.221 199.64 127.153C199.743 127.187 199.846 127.187 199.948 127.187C212.109 125.85 224.338 125.301 236.396 125.541Z" fill="#ED715D"/>
<path d="M250.749 384.358C249.995 380.209 232.765 374.278 232.491 380.107L238.383 399.066C238.383 399.066 245.576 402.975 247.529 399.443C249.55 395.775 252.016 391.249 250.749 384.358Z" fill="#FDB88E"/>
<path d="M248.351 400.198C248.248 400.198 248.18 400.198 248.077 400.163C247.632 400.026 247.392 399.512 247.529 399.066C250.749 389.363 249.79 384.666 248.385 382.438C247.152 380.449 245.405 380.209 245.405 380.209C244.926 380.141 244.617 379.729 244.652 379.249C244.72 378.769 245.131 378.461 245.611 378.495C245.713 378.495 248.146 378.838 249.824 381.512C252.153 385.215 251.914 391.283 249.173 399.615C249.036 399.992 248.728 400.198 248.351 400.198Z" fill="#ED715D"/>
<path d="M245.165 34.275C231.189 27.2809 228.415 11.887 215.809 8.14991C200.257 3.52146 192.858 10.0699 171.379 2.56148C145.243 -6.59258 128.869 10.5841 120.956 25.7723C114.105 38.8692 96.7028 40.8577 94.6132 53.9888C92.832 65.1999 103.006 74.7311 120.51 76.0682C138.049 77.4053 145.243 70.1712 165.83 81.3138C170.626 83.9195 176.381 86.7651 182.512 87.4165C192.001 88.4451 200.599 85.4966 207.176 81.1081C213.788 76.6854 227.216 74.9025 238.897 74.834C259.998 74.7654 272.741 48.0918 245.165 34.275Z" fill="#01609A"/>
<path d="M230.641 102.502C229.956 108.159 226.668 110.147 222.934 109.702C222.728 109.667 222.557 109.633 222.386 109.599C218.96 108.947 216.528 106.239 217.179 100.856C217.727 96.1935 223.037 90.605 224.886 88.7537C225.297 88.3422 225.537 88.1365 225.537 88.1365C225.537 88.1365 231.292 96.8449 230.641 102.502Z" fill="#01609A"/>
<path d="M184.945 118.307C184.259 123.964 180.971 125.953 177.237 125.507C177.032 125.473 176.86 125.438 176.689 125.404C173.263 124.753 170.831 122.044 171.482 116.662C172.03 111.999 177.34 106.41 179.19 104.559C179.601 104.148 179.84 103.942 179.84 103.942C179.84 103.942 185.63 112.616 184.945 118.307Z" fill="#01609A"/>
<path d="M140.858 102.502C140.173 108.159 136.884 110.147 133.185 109.702C132.979 109.667 132.808 109.633 132.637 109.599C129.211 108.947 126.779 106.239 127.43 100.856C127.978 96.1935 133.287 90.605 135.137 88.7537C135.548 88.3422 135.788 88.1365 135.788 88.1365C135.788 88.1365 141.543 96.8449 140.858 102.502Z" fill="#01609A"/>
</svg>
