<svg width="283" height="390" viewBox="0 0 283 390" fill="none" xmlns="http://www.w3.org/2000/svg">
<path d="M28.6432 352.427C43.9405 352.427 56.3415 348.972 56.3415 344.71C56.3415 340.448 43.9405 336.993 28.6432 336.993C13.3459 336.993 0.944916 340.448 0.944916 344.71C0.944916 348.972 13.3459 352.427 28.6432 352.427Z" fill="#016099"/>
<path d="M56.3461 344.608C56.3461 344.608 61.6549 389.945 28.6478 390C-5.74422 390.065 0.949526 344.604 0.949526 344.604L56.3461 344.608Z" fill="#016099"/>
<path d="M28.7586 350.839C42.9724 350.839 54.4949 348.05 54.4949 344.608C54.4949 341.167 42.9724 338.378 28.7586 338.378C14.5448 338.378 3.02231 341.167 3.02231 344.608C3.02231 348.05 14.5448 350.839 28.7586 350.839Z" fill="#012869"/>
<path d="M160.3 258.538C146.797 263.691 136.336 276.02 136.336 276.02C136.336 276.02 152.454 282.542 165.42 281.803C178.858 281.04 185.339 271.95 183.922 265.525C182.505 259.101 172.873 253.738 160.3 258.538Z" fill="#016099"/>
<path d="M175.592 266.873V266.843C175.589 266.802 175.578 266.762 175.559 266.725C175.541 266.688 175.515 266.656 175.484 266.629C175.453 266.602 175.417 266.582 175.378 266.569C175.339 266.556 175.298 266.551 175.257 266.554C175.128 266.554 162.264 267.586 150.728 271.525C150.65 271.552 150.585 271.609 150.549 271.683C150.512 271.758 150.507 271.843 150.534 271.922C150.561 272 150.618 272.065 150.692 272.101C150.767 272.137 150.853 272.143 150.931 272.116C162.393 268.193 175.167 267.186 175.303 267.177C175.381 267.171 175.453 267.137 175.506 267.081C175.56 267.024 175.59 266.95 175.592 266.873Z" fill="#A9D3E1"/>
<path d="M70.3291 304.73C56.0183 302.694 40.8927 308.422 40.8927 308.422C40.8927 308.422 51.8312 321.936 63.5407 327.576C75.6656 333.419 85.7385 328.607 87.6151 322.303C89.4916 315.998 83.6542 306.627 70.3291 304.73Z" fill="#016099"/>
<path d="M79.6587 319.432L79.6726 319.404C79.7071 319.329 79.7105 319.243 79.6819 319.166C79.6533 319.089 79.5952 319.026 79.5203 318.991C79.4025 318.938 67.6562 313.598 55.6559 311.452C55.577 311.444 55.4979 311.465 55.4345 311.513C55.3711 311.561 55.328 311.63 55.314 311.708C55.2999 311.787 55.316 311.867 55.3588 311.934C55.4017 312 55.4683 312.048 55.5451 312.068C67.4692 314.198 79.1417 319.506 79.2594 319.559C79.3299 319.591 79.4098 319.596 79.4836 319.572C79.5574 319.549 79.6199 319.499 79.6587 319.432Z" fill="#A9D3E1"/>
<path d="M24.5485 344.892C26.7882 345.395 29.1164 345.349 31.3345 344.758C30.6698 302.507 70.7169 294.913 108.306 291.122C126.056 289.331 137.689 282.583 143.868 270.491C149.177 260.123 149.625 247.678 150.063 235.645C150.412 226.085 150.742 217.057 153.565 210.462C156.531 203.539 161.9 200.161 170.971 199.515L170.541 193.482C159.231 194.288 151.866 199.062 148.004 208.081C144.736 215.712 144.387 225.286 144.018 235.424C143.603 246.801 143.176 258.563 138.478 267.731C133.234 277.986 123.452 283.504 107.694 285.096C93.6441 286.515 72.4134 288.659 55.3351 296.828C45.9846 301.303 38.7161 307.213 33.7443 314.367C27.9554 322.716 24.3615 333.001 24.5485 344.892Z" fill="#016099"/>
<path d="M160.944 214.967C152.93 217.251 146.301 223.809 146.301 223.809C146.301 223.809 155.234 228.365 162.726 228.591C170.484 228.822 174.664 223.929 174.172 220.168C173.681 216.407 168.411 212.841 160.944 214.967Z" fill="#016099"/>
<path d="M133.832 228.187C142.141 227.636 150.005 222.614 150.005 222.614C150.005 222.614 142.227 216.284 134.949 214.491C127.413 212.645 122.3 216.545 121.991 220.327C121.682 224.109 126.086 228.695 133.832 228.187Z" fill="#016099"/>
<path d="M88.049 263.104C82.8048 276.567 84.9214 292.599 84.9214 292.599C84.9214 292.599 100.578 285.032 108.742 274.922C117.197 264.452 114.81 253.548 109.095 250.285C103.38 247.022 92.9331 250.565 88.049 263.104Z" fill="#016099"/>
<path d="M93.3486 278.309C93.3601 278.291 93.3694 278.272 93.3763 278.252C97.9073 264.883 105.254 256.001 105.328 255.914C105.355 255.882 105.375 255.846 105.388 255.807C105.4 255.767 105.405 255.726 105.401 255.685C105.398 255.644 105.386 255.604 105.367 255.568C105.347 255.531 105.321 255.499 105.289 255.473C105.225 255.421 105.144 255.395 105.062 255.403C104.979 255.41 104.904 255.449 104.85 255.512C104.776 255.602 97.3533 264.574 92.7854 278.051C92.7609 278.124 92.7642 278.203 92.7948 278.274C92.8253 278.344 92.8809 278.401 92.9508 278.433C93.0207 278.465 93.1 278.47 93.1734 278.448C93.2469 278.425 93.3093 278.376 93.3486 278.309Z" fill="#A9D3E1"/>
<path d="M250.132 170.86C215.475 195.109 152.597 221.793 145.673 216.15C138.748 210.508 171.483 160.409 195.68 127.043C208.262 109.691 218.36 106.075 229.488 110.397C237.336 113.446 240.9 119.416 249.498 121.317C260.949 123.856 269.835 125.57 273.911 128.979C283.786 137.231 280.723 149.455 250.132 170.86Z" fill="#016099"/>
<path d="M130.979 114.646C123.764 146.074 143.33 212.772 151.291 214.524C159.252 216.275 195.047 159.629 204.804 128.88C214.561 98.13 213.418 87.5217 177.376 86.4556C161.163 85.9779 143.236 61.256 130.979 114.646Z" fill="#016099"/>
<path d="M82.2231 134.773C98.7982 162.435 141.204 216.1 148.157 211.849C155.109 207.598 151.619 128.277 144.283 96.8631C139.235 75.2381 117.079 64.9783 90.348 89.1717C78.3292 100.062 54.0679 87.7871 82.2231 134.773Z" fill="#016099"/>
<path d="M28.9432 161.101C56.0806 193.538 138.501 219.43 145.968 214.544C153.435 209.659 109.455 184.45 96.9702 145.174C84.506 105.974 77.6622 106.001 65.071 106.175C52.1267 106.357 45.4514 116.111 39.9487 122.273C33.1811 129.856 21.4716 128.01 16.6221 133.811C10.5585 141.092 15.6758 145.245 28.9432 161.101Z" fill="#016099"/>
<path d="M106.037 133.594L104.176 165.717L75.8456 168.899L87.9175 160.873C87.9175 160.873 88.7623 159.421 88.8408 158.978C90.0941 152.748 88.7946 132.117 88.7946 132.117L106.037 133.594Z" fill="#FDB88E"/>
<path d="M104.673 157.524C104.915 157.199 112.634 166.4 108.25 170.447C105.171 173.295 101.557 172.441 95.4583 174.031C85.8539 176.537 76.3811 179.569 71.1715 178.469C68.3232 177.864 67.1599 173.913 70.6314 171.084C72.9396 169.21 87.8182 160.993 87.8598 160.891C90.3965 164.595 102.845 161.773 104.673 157.524Z" fill="#012869"/>
<path d="M88.3745 166.388C88.4354 166.385 88.4945 166.366 88.5465 166.335C88.5985 166.303 88.6417 166.258 88.6723 166.206C88.7211 166.121 88.7344 166.02 88.7093 165.926C88.6842 165.831 88.6228 165.75 88.5384 165.7L84.5937 163.404C84.5518 163.377 84.5047 163.358 84.4553 163.349C84.4059 163.34 84.3552 163.342 84.3063 163.353C84.2574 163.365 84.2114 163.386 84.1711 163.416C84.1307 163.445 84.0968 163.483 84.0715 163.527C84.0462 163.57 84.03 163.618 84.0239 163.668C84.0178 163.718 84.022 163.768 84.0361 163.816C84.0501 163.864 84.0739 163.909 84.1059 163.948C84.1379 163.987 84.1774 164.018 84.2221 164.041L88.1668 166.349C88.2308 166.382 88.303 166.395 88.3745 166.388Z" fill="#E8E2E4"/>
<path d="M84.6745 168.146C84.7282 168.143 84.7805 168.128 84.8279 168.103C84.8753 168.077 84.9167 168.042 84.9491 167.999C85.0072 167.921 85.032 167.823 85.0181 167.726C85.0043 167.63 84.953 167.543 84.8753 167.484L81.4615 164.923C81.4227 164.894 81.3785 164.872 81.3315 164.86C81.2845 164.848 81.2357 164.846 81.1877 164.853C81.1396 164.859 81.0934 164.876 81.0517 164.9C81.01 164.925 80.9735 164.958 80.9444 164.997C80.8868 165.075 80.8623 165.173 80.8761 165.27C80.8899 165.367 80.9409 165.454 81.0183 165.513L84.4321 168.073C84.5014 168.126 84.5874 168.152 84.6745 168.146Z" fill="#E8E2E4"/>
<path d="M149.689 117.893C147.15 113.547 131.84 62.2136 107.117 62.7859C73.879 63.5544 80.8497 106.075 84.9745 154.746C85.2745 158.286 107.946 156.269 108.486 153.131C110.914 139.026 120.913 65.9382 103.89 103.955C109.134 127.91 120.075 154.312 131.761 159.041C148.09 165.645 158.721 159.29 164.111 156.329C165.63 156.133 152.157 122.107 149.689 117.893Z" fill="#016099"/>
<path d="M112.322 127.389C112.407 127.39 112.49 127.361 112.555 127.306C112.621 127.252 112.664 127.175 112.677 127.091C115.477 109.179 113.963 89.46 113.947 89.2616C113.95 89.2114 113.942 89.1612 113.924 89.1143C113.906 89.0674 113.878 89.0249 113.843 88.9897C113.807 88.9545 113.764 88.9274 113.716 88.9102C113.669 88.8931 113.619 88.8863 113.569 88.8903C113.519 88.8943 113.47 88.909 113.426 88.9334C113.382 88.9579 113.344 88.9915 113.314 89.0319C113.284 89.0724 113.264 89.1188 113.253 89.1679C113.243 89.2171 113.243 89.2679 113.254 89.317C113.271 89.5131 114.78 109.163 111.992 126.983C111.985 127.028 111.986 127.075 111.997 127.12C112.008 127.165 112.028 127.207 112.055 127.244C112.082 127.281 112.117 127.313 112.156 127.337C112.196 127.361 112.239 127.377 112.285 127.384L112.322 127.389Z" fill="#002869"/>
<path d="M205.757 120.526C193.164 134.358 162.982 125.866 151.09 117.496C141.894 105.298 137.01 155.044 162.647 159.251C175.437 161.35 243.665 178.866 250.331 147.631C256.466 118.85 212.61 122.019 205.757 120.526Z" fill="#012869"/>
<path d="M145.412 174.869C140.103 175.586 111.842 174.936 118.665 170.12C120.835 168.587 122.448 167.35 128.634 165.331C131.302 164.461 147.935 159.827 148.775 160.612C149.003 160.825 149.274 160.986 149.57 161.084C149.867 161.182 150.18 161.214 150.49 161.18L159.176 159.807L161.946 172.697L145.412 174.869Z" fill="#FDB88E"/>
<path d="M116.426 177.248C111.075 177.017 109.963 171.479 116.093 167.205C120.751 163.958 130.037 162.76 132.775 161.436C144.283 155.863 149.673 161.12 149.673 161.12C149.673 161.12 140.87 168.144 145.53 174.809C145.53 174.809 124.498 177.596 116.426 177.248Z" fill="#002869"/>
<path d="M139.785 175.095C139.819 175.097 139.853 175.093 139.886 175.083C139.933 175.071 139.977 175.05 140.016 175.022C140.055 174.993 140.088 174.956 140.112 174.915C140.137 174.873 140.153 174.827 140.16 174.779C140.167 174.731 140.164 174.682 140.152 174.636L138.864 169.591C138.853 169.543 138.832 169.498 138.804 169.458C138.775 169.418 138.738 169.384 138.696 169.358C138.654 169.333 138.607 169.316 138.559 169.309C138.51 169.301 138.46 169.304 138.413 169.316C138.365 169.328 138.32 169.35 138.281 169.379C138.242 169.409 138.209 169.446 138.184 169.489C138.159 169.532 138.144 169.579 138.137 169.628C138.131 169.676 138.135 169.726 138.148 169.773L139.436 174.818C139.456 174.896 139.501 174.965 139.564 175.015C139.627 175.065 139.704 175.093 139.785 175.095Z" fill="#E8E2E4"/>
<path d="M136.004 175.192C136.036 175.195 136.069 175.195 136.101 175.192C136.196 175.169 136.278 175.109 136.329 175.026C136.38 174.942 136.396 174.842 136.373 174.746L135.286 170.272C135.276 170.224 135.256 170.178 135.227 170.138C135.199 170.098 135.163 170.064 135.121 170.038C135.08 170.011 135.033 169.994 134.985 169.986C134.936 169.978 134.886 169.98 134.839 169.991C134.791 170.003 134.746 170.024 134.706 170.053C134.667 170.082 134.633 170.119 134.608 170.161C134.583 170.204 134.566 170.25 134.559 170.299C134.553 170.348 134.556 170.398 134.568 170.445L135.651 174.908C135.67 174.988 135.715 175.059 135.779 175.11C135.843 175.161 135.922 175.19 136.004 175.192Z" fill="#E8E2E4"/>
<path d="M153.205 153.973C153.205 153.973 178.175 141.465 202.736 137.392C229.37 132.978 251.64 128.104 249.523 148.273C246.73 174.869 167.527 176.643 156.159 175.196C153.558 174.696 150.806 154.388 153.205 153.973Z" fill="#012869"/>
<path d="M154.675 130.253C154.721 130.253 154.767 130.245 154.811 130.229C154.855 130.213 154.895 130.187 154.929 130.155C154.963 130.123 154.99 130.084 155.008 130.041C155.027 129.998 155.037 129.952 155.038 129.905C155.038 129.858 155.029 129.811 155.012 129.768L146.933 108.752C146.917 108.709 146.892 108.67 146.86 108.636C146.828 108.603 146.79 108.576 146.748 108.557C146.706 108.539 146.661 108.528 146.615 108.527C146.569 108.526 146.523 108.534 146.48 108.55C146.437 108.567 146.397 108.592 146.364 108.623C146.33 108.655 146.304 108.693 146.285 108.735C146.266 108.777 146.256 108.823 146.255 108.869C146.253 108.915 146.261 108.961 146.278 109.004L154.356 130.02C154.38 130.086 154.423 130.143 154.48 130.185C154.537 130.226 154.605 130.25 154.675 130.253Z" fill="#002869"/>
<path d="M154.961 156.823C155.015 156.825 155.069 156.814 155.118 156.791L158.781 155.104C191.557 140.019 206.501 133.133 232.532 135.646C232.618 135.643 232.699 135.609 232.761 135.551C232.823 135.492 232.861 135.413 232.87 135.329C232.878 135.244 232.855 135.159 232.805 135.09C232.755 135.021 232.682 134.972 232.599 134.953C219.932 133.73 209.541 134.692 197.856 138.168C186.666 141.498 174.846 146.937 158.488 154.471L154.823 156.158C154.751 156.192 154.693 156.249 154.658 156.32C154.623 156.391 154.613 156.471 154.629 156.548C154.645 156.626 154.686 156.695 154.746 156.746C154.807 156.797 154.882 156.827 154.961 156.83V156.823Z" fill="#016099"/>
<path d="M105.476 83.4994C104.483 96.1408 140.099 121.225 147.628 121.419C165.863 121.88 200.716 132.809 216.253 121.435C217.236 120.717 225.211 100.703 221.058 82.0733C216.246 60.4644 194.678 44.4262 178.588 43.7108C169.646 43.3116 165.807 41.5139 159.395 42.8731C107.004 53.966 105.476 83.4994 105.476 83.4994Z" fill="#016099"/>
<path d="M168.626 123.904C187.144 127.259 207.544 132.886 223.417 121.158C239.422 109.334 234.61 77.4741 211.86 58.7636C202.591 51.1484 184.665 38.9063 152.189 44.7654L190.484 74.6726C190.484 74.6726 165.477 123.334 168.626 123.904Z" fill="#016099"/>
<path d="M181.434 26.2442L182.722 47.8716C183.292 54.9814 159.741 55.7914 159.684 49.5677L160.037 35.9064L181.434 26.2442Z" fill="#FDB88E"/>
<path d="M178.68 3.73763C173.221 -3.9907 160.445 2.66227 160.445 2.66227C144.108 -0.381531 139.425 13.1113 139.233 16.6305C139.067 19.7112 140.041 26.7357 150.569 27.1165C154.79 27.2688 153.62 27.3842 158.58 26.9526C160.912 26.7496 176.067 26.2027 179.407 27.8019C180.561 33.2825 179.869 45.4762 182.639 45.5477C186.678 45.6516 184.397 31.051 184.397 31.051C187.807 25.0581 189.229 4.97454 178.68 3.73763Z" fill="#002869"/>
<path d="M151.527 31.3903C151.563 32.1679 151.757 36.8802 152.482 38.6917C152.792 39.4491 153.14 40.19 153.525 40.9116C154.989 43.6993 159.37 49.0715 165.138 48.4761C171.197 47.8415 177.226 42.1878 178.179 33.2341C182.523 33.5133 184.1 27.3034 182.334 24.4165C181.533 23.1035 179.564 22.0858 177.778 23.4935C178.048 20.5512 179.227 20.0204 178.899 18.8389C173.657 0.190751 153.74 13.4482 151.16 15.9313C148.23 21.4673 151.476 30.0241 151.527 31.3903Z" fill="#FDB88E"/>
<path d="M168.083 32.8626C168.179 33.5873 168.488 34.2672 168.971 34.8162C169.453 35.3653 170.088 35.7587 170.795 35.9466C171.501 36.1345 172.248 36.1086 172.94 35.872C173.632 35.6354 174.238 35.1988 174.681 34.6176C175.124 34.0363 175.385 33.3366 175.43 32.607C175.476 31.8774 175.303 31.1508 174.935 30.5193C174.567 29.8877 174.02 29.3796 173.362 29.0594C172.705 28.7392 171.967 28.6212 171.243 28.7204C170.763 28.7846 170.301 28.9427 169.883 29.1857C169.464 29.4287 169.098 29.7518 168.804 30.1365C168.511 30.5212 168.296 30.96 168.172 31.4278C168.048 31.8956 168.018 32.3832 168.083 32.8626Z" fill="#ED715D"/>
<path d="M151.527 31.3902C151.563 32.1679 151.538 32.8879 151.554 33.331C151.621 35.4263 151.753 36.8801 152.477 38.6917C153.389 38.5019 154.196 37.9745 154.735 37.2154C155.275 36.4562 155.508 35.5213 155.387 34.5979C155.266 33.6745 154.8 32.8308 154.084 32.236C153.367 31.6412 152.452 31.3391 151.522 31.3902H151.527Z" fill="#ED715D"/>
<path d="M157.798 19.3628C149.204 18.2597 150.356 23.6966 145.061 22.5658C140.726 21.6428 146.894 9.98218 152.477 11.6968C158.88 13.6583 169.05 -6.09526 181.378 16.6536C182.911 19.4851 180.167 21.2689 177.817 23.4681C176.767 24.4489 176.649 25.8496 176.894 27.6219C176.911 27.7274 176.891 27.8356 176.838 27.9282C176.784 28.0208 176.701 28.092 176.6 28.1296C175.968 28.3603 174.839 28.5126 174.193 25.5473C173.288 21.3935 173.05 13.7229 168.637 14.9136C164.801 15.9521 164.083 20.1682 157.798 19.3628Z" fill="#002869"/>
<path d="M166.516 28.7042C168.91 28.7365 170.786 27.1927 170.881 27.1119C170.952 27.0507 170.997 26.9636 171.004 26.8697C171.011 26.7758 170.981 26.6828 170.92 26.6112C170.859 26.5396 170.772 26.4952 170.678 26.4878C170.584 26.4805 170.491 26.5107 170.419 26.5719C170.394 26.5927 167.749 28.7619 164.942 27.7027C164.898 27.6819 164.85 27.6705 164.801 27.6691C164.753 27.6677 164.704 27.6763 164.659 27.6945C164.614 27.7126 164.573 27.7399 164.539 27.7745C164.505 27.8092 164.479 27.8505 164.461 27.8959C164.444 27.9413 164.436 27.9898 164.438 28.0383C164.441 28.0869 164.453 28.1345 164.474 28.1781C164.496 28.2217 164.526 28.2604 164.563 28.2917C164.6 28.3231 164.644 28.3465 164.69 28.3604C165.274 28.5814 165.892 28.6978 166.516 28.7042Z" fill="#002869"/>
<path d="M155.275 29.9618C156.249 29.9769 157.206 29.7074 158.029 29.1864C158.105 29.1332 158.157 29.0517 158.174 28.96C158.19 28.8682 158.17 28.7737 158.116 28.6972C158.063 28.6207 157.982 28.5685 157.89 28.552C157.798 28.5356 157.704 28.5563 157.627 28.6095C157.535 28.6718 155.374 30.1187 152.812 28.4687C152.733 28.419 152.638 28.4023 152.547 28.4222C152.456 28.442 152.376 28.4969 152.325 28.5749C152.3 28.6136 152.282 28.657 152.274 28.7025C152.265 28.748 152.266 28.7947 152.276 28.84C152.285 28.8852 152.304 28.9281 152.33 28.9662C152.357 29.0043 152.39 29.0368 152.429 29.0618C153.273 29.6263 154.26 29.9386 155.275 29.9618Z" fill="#002869"/>
<path d="M161.445 36.2225C162.199 36.1999 162.934 35.9786 163.575 35.581C163.616 35.5584 163.651 35.5281 163.68 35.4918C163.708 35.4555 163.729 35.414 163.742 35.3695C163.755 35.325 163.758 35.2785 163.753 35.2327C163.747 35.1868 163.733 35.1424 163.71 35.1021C163.688 35.0618 163.657 35.0264 163.621 34.9978C163.585 34.9692 163.543 34.948 163.499 34.9355C163.454 34.9229 163.408 34.9193 163.362 34.9247C163.316 34.9301 163.272 34.9446 163.231 34.9671C161.768 35.791 160.736 35.5764 160.367 34.9994C160.021 34.4641 160.355 33.8802 160.863 33.1095L161.05 32.8233C161.943 31.4133 161.863 29.3988 161.86 29.3134C161.85 29.2244 161.807 29.1425 161.739 29.0844C161.67 29.0263 161.583 28.9962 161.493 29.0003C161.404 29.0044 161.319 29.0424 161.257 29.1065C161.194 29.1706 161.158 29.2561 161.156 29.3457C161.156 29.3641 161.228 31.2264 160.464 32.4472L160.286 32.7218C159.811 33.4372 159.162 34.4179 159.783 35.3825C159.967 35.6504 160.216 35.8677 160.507 36.0145C160.797 36.1612 161.12 36.2327 161.445 36.2225Z" fill="#ED715D"/>
<path d="M160.771 38.6386C160.82 38.6232 160.873 38.619 160.924 38.6262C160.976 38.6333 161.025 38.6518 161.069 38.6802C163.377 40.1917 166.117 37.6602 166.147 37.6348C166.18 37.6029 166.22 37.578 166.263 37.5615C166.307 37.5451 166.353 37.5374 166.399 37.5389C166.446 37.5404 166.491 37.5511 166.533 37.5703C166.576 37.5895 166.614 37.617 166.645 37.651C166.708 37.7195 166.742 37.8102 166.739 37.9035C166.736 37.9968 166.697 38.0851 166.629 38.1494C166.502 38.2694 163.453 41.0824 160.685 39.2686C160.647 39.2434 160.613 39.2108 160.587 39.1726C160.561 39.1345 160.543 39.0915 160.533 39.0463C160.524 39.001 160.524 38.9544 160.532 38.909C160.541 38.8636 160.558 38.8203 160.584 38.7817C160.627 38.7134 160.694 38.6627 160.771 38.6386Z" fill="#ED715D"/>
<path d="M164.628 48.5801C163.685 48.5706 162.743 48.5051 161.807 48.3839C161.729 48.3677 161.659 48.3226 161.613 48.2575C161.566 48.1924 161.546 48.1122 161.556 48.0327C161.566 47.9533 161.605 47.8805 161.666 47.8289C161.727 47.7772 161.806 47.7505 161.886 47.754C170.11 48.797 175.372 45.504 177.526 37.9649C177.549 37.8841 177.603 37.8157 177.676 37.7748C177.75 37.7339 177.836 37.7238 177.917 37.7468C177.998 37.7697 178.066 37.8238 178.107 37.8972C178.148 37.9706 178.158 38.0572 178.135 38.1379C176.141 45.1232 171.603 48.6262 164.628 48.5801Z" fill="#ED715D"/>
<path d="M118.803 78.3258C115.205 87.0049 63.7715 104.822 68.7849 79.1588C70.4606 70.5744 58.398 74.7743 67.1691 56.3523C70.3291 49.7155 61.5626 37.4987 79.144 33.4349C85.5839 31.9465 94.4012 19.6606 100.739 39.5525C103.269 47.4793 118.803 78.3258 118.803 78.3258Z" fill="#012869"/>
<path d="M85.6093 127.036C93.1293 164.039 101.767 175.28 127.618 167.223C153.47 159.167 160.215 128.256 160.487 128.081C165.565 124.885 149.045 102.381 146.278 98.2269C129.446 72.958 105.919 67.5766 92.9885 76.4403C76.2426 87.9278 80.6051 102.413 85.6093 127.036Z" fill="#ED715D"/>
<path d="M73.9229 140.734C74.3222 142.712 76.6004 148.331 80.0466 148.033C87.4143 147.396 87.622 146.295 90.715 144.994L90.3388 137.482C90.3388 137.482 86.9757 136.79 85.3762 136.79C83.375 136.779 73.4982 138.62 73.9229 140.734Z" fill="#FDB88E"/>
<path d="M93.6072 128.785C91.202 133.102 81.3737 169.344 57.5994 143.803C36.1333 120.727 62.6774 104.342 67.063 94.4192C74.9477 76.5834 88.0859 72.5357 101.349 70.3342L93.6072 128.785Z" fill="#ED715D"/>
<path d="M101.88 191.311C101.88 191.311 91.4306 104.603 57.9618 123.484C33.9035 137.056 87.4674 195.065 87.4674 195.065C89.3139 198.287 101.444 193.533 101.88 191.311Z" fill="#E8E2E4"/>
<path d="M160.487 128.081C152.528 131.658 141.098 134.842 132.175 129.018C111.789 115.714 78.9548 104.511 66.8368 116.903C59.8083 124.091 57.9479 139.056 89.4709 165.391C92.333 167.782 105.972 173.099 128.512 175.743C168.819 180.465 178.846 143.528 160.487 128.081Z" fill="#E8E2E4"/>
<path d="M112.652 184.178C112.652 184.178 102.196 97.47 68.7226 116.351C44.6667 129.927 98.2281 187.932 98.2281 187.932C100.086 191.154 112.216 186.4 112.652 184.178Z" fill="#E8E2E4"/>
<path d="M74.7862 151.894C74.8596 151.895 74.9318 151.875 74.994 151.835C75.0562 151.796 75.1057 151.74 75.1367 151.674C75.1677 151.607 75.1788 151.533 75.1686 151.46C75.1584 151.387 75.1274 151.319 75.0793 151.264C66.8183 142.015 64.187 134.757 63.4368 130.301C62.6267 125.49 63.7715 122.822 63.7831 122.794C63.8229 122.703 63.8252 122.599 63.7893 122.506C63.7535 122.413 63.6824 122.337 63.5915 122.296C63.5462 122.275 63.4973 122.264 63.4477 122.263C63.3981 122.261 63.3486 122.27 63.3023 122.288C63.256 122.306 63.2136 122.332 63.1777 122.367C63.1417 122.401 63.1129 122.442 63.0929 122.487C63.0421 122.6 61.8511 125.34 62.6798 130.349C63.4322 134.919 66.0982 142.349 74.5138 151.767C74.5483 151.805 74.5902 151.836 74.637 151.858C74.6838 151.88 74.7346 151.892 74.7862 151.894Z" fill="#016099"/>
<path d="M94.3827 146.42C108.964 142.513 120.308 148.218 133.767 140.986C138.704 138.334 143.949 133.276 147.155 125.619C147.332 125.224 147.494 124.816 147.653 124.405C154.578 106.458 150.245 78.7319 124.615 69.3766L113.231 89.864C106.332 96.847 116.082 109.941 110.538 113.487C99.5023 120.57 100.202 126.392 96.8571 131.256C96.6055 131.628 94.3181 133.813 91.9152 134.822C89.4201 135.86 92.0745 147.036 94.3827 146.42Z" fill="#ED715D"/>
<path d="M106.605 58.8514L113.298 70.6205C114.87 74.2066 96.8386 82.2603 94.9828 78.425L93.0739 72.6558L106.605 58.8514Z" fill="#FDB88E"/>
<path d="M105.547 57.3352C107.036 69.5311 98.392 73.8049 91.4998 73.6134C86.7103 73.4795 83.765 67.865 82.5833 65.1028L82.5671 65.0681C81.7462 63.3139 81.3659 61.3858 81.4592 59.4513C81.4592 59.0198 81.4915 58.5813 81.503 58.129C81.5192 57.4021 81.4569 56.6337 81.3992 55.7567C81.2214 53.0176 81.6854 51.8037 82.2047 50.8299C84.6837 46.1777 89.0692 48.7807 92.4877 41.2831C94.692 36.4532 104.573 49.3669 105.547 57.3352Z" fill="#FDB88E"/>
<path d="M95.9892 60.7206C95.9211 61.2297 95.9901 61.7477 96.1892 62.2212C96.3883 62.6947 96.7103 63.1064 97.1218 63.4139C97.5334 63.7213 98.0195 63.9133 98.5301 63.9701C99.0407 64.0269 99.5572 63.9463 100.026 63.7367C100.359 63.6001 100.659 63.397 100.91 63.1398C101.161 62.8827 101.357 62.5769 101.485 62.2414C101.687 61.7603 101.754 61.2335 101.68 60.7172C101.605 60.2008 101.392 59.7144 101.063 59.3096C100.734 58.9048 100.301 58.5969 99.8111 58.4186C99.3207 58.2404 98.7912 58.1986 98.2789 58.2976C97.6897 58.4067 97.1504 58.7003 96.7388 59.1358C96.3273 59.5713 96.0648 60.1263 95.9892 60.7206Z" fill="#ED715D"/>
<path d="M84.7091 62.2575C84.7171 62.8978 84.5105 63.5224 84.1224 64.0318C83.7342 64.5411 83.1867 64.906 82.5671 65.0682C81.7462 63.3139 81.3659 61.3859 81.4591 59.4514C81.5739 59.4351 81.6895 59.4259 81.8054 59.4237C82.5661 59.4151 83.2992 59.7087 83.8436 60.24C84.3881 60.7713 84.6993 61.4969 84.7091 62.2575Z" fill="#ED715D"/>
<path d="M92.8154 74.2042C92.743 74.2084 92.6718 74.1847 92.6163 74.138C92.5609 74.0913 92.5253 74.0252 92.5171 73.9532C92.5088 73.8812 92.5284 73.8088 92.5719 73.7507C92.6153 73.6927 92.6793 73.6535 92.7508 73.6412C92.8293 73.6412 100.509 72.6973 103.599 67.662C103.641 67.6049 103.704 67.5656 103.773 67.552C103.843 67.5384 103.915 67.5514 103.976 67.5885C104.037 67.6256 104.081 67.6841 104.101 67.7524C104.12 67.8207 104.113 67.8938 104.082 67.9574C100.834 73.2304 93.1293 74.1673 92.8154 74.2042Z" fill="#ED715D"/>
<path d="M85.5239 57.6652C83.2157 57.9698 82.1516 56.7722 82.0986 56.7099C82.071 56.6783 82.0499 56.6417 82.0364 56.602C82.023 56.5624 82.0176 56.5204 82.0204 56.4787C82.0231 56.4369 82.0341 56.396 82.0527 56.3585C82.0713 56.321 82.097 56.2874 82.1286 56.2599C82.1601 56.2323 82.1967 56.2112 82.2364 56.1978C82.2761 56.1844 82.318 56.1789 82.3598 56.1817C82.4016 56.1845 82.4425 56.1955 82.48 56.214C82.5175 56.2326 82.5511 56.2584 82.5787 56.2899C82.6364 56.3568 83.9405 57.7552 86.8973 56.6591C86.9769 56.6285 87.0654 56.6308 87.1433 56.6654C87.2212 56.7 87.2822 56.7641 87.3128 56.8437C87.3434 56.9233 87.3412 57.0117 87.3065 57.0896C87.2719 57.1675 87.2077 57.2285 87.1281 57.2591C86.6105 57.4548 86.0724 57.5911 85.5239 57.6652Z" fill="#002869"/>
<path d="M95.5853 57.3837C94.7134 57.4493 93.8392 57.2904 93.0462 56.9222C92.9727 56.8825 92.9178 56.8155 92.8932 56.7357C92.8686 56.6559 92.8764 56.5696 92.9148 56.4954C92.9533 56.4213 93.0193 56.3652 93.0987 56.3393C93.1781 56.3133 93.2646 56.3196 93.3394 56.3568C93.4386 56.4076 95.8345 57.5891 98.2328 55.6068C98.2989 55.5609 98.38 55.5415 98.4598 55.5526C98.5396 55.5637 98.6123 55.6044 98.6635 55.6666C98.7147 55.7288 98.7406 55.808 98.736 55.8884C98.7315 55.9688 98.6969 56.0446 98.639 56.1007C97.7814 56.8388 96.7128 57.2878 95.5853 57.3837Z" fill="#002869"/>
<path d="M90.0456 63.9628C89.6746 64.0121 89.2971 63.9758 88.9423 63.8567C88.6662 63.7715 88.4169 63.6165 88.2183 63.4066C88.0198 63.1968 87.8788 62.9393 87.809 62.659C87.6451 61.9459 88.0698 61.3436 88.4807 60.7575C88.691 60.4796 88.8728 60.1812 89.0231 59.8667C89.4686 58.8214 89.4432 57.0975 89.4432 57.0675C89.4425 56.983 89.4751 56.9016 89.5337 56.8408C89.5924 56.78 89.6726 56.7446 89.7571 56.7422C89.7989 56.7415 89.8405 56.7492 89.8793 56.7646C89.9182 56.7801 89.9537 56.803 89.9837 56.8322C90.0137 56.8613 90.0377 56.8961 90.0542 56.9345C90.0708 56.9729 90.0796 57.0142 90.0802 57.056C90.0802 57.1322 90.1102 58.946 89.6186 60.116C89.4508 60.4729 89.2466 60.8116 89.0092 61.1267C88.6492 61.639 88.3376 62.0821 88.4368 62.5113C88.4841 62.6856 88.5754 62.8448 88.7019 62.9737C88.8284 63.1026 88.9859 63.1969 89.1593 63.2475C89.4238 63.3392 89.7066 63.3662 89.9837 63.326C90.2609 63.2859 90.5243 63.1798 90.7519 63.0167C90.7847 62.9905 90.8222 62.971 90.8625 62.9593C90.9028 62.9476 90.945 62.9439 90.9867 62.9485C91.0284 62.9531 91.0687 62.9659 91.1055 62.9861C91.1422 63.0063 91.1746 63.0336 91.2009 63.0663C91.2271 63.099 91.2466 63.1366 91.2583 63.1769C91.27 63.2171 91.2736 63.2593 91.269 63.301C91.2644 63.3427 91.2516 63.383 91.2314 63.4198C91.2112 63.4565 91.184 63.4889 91.1512 63.5151C90.8294 63.7606 90.4476 63.9152 90.0456 63.9628Z" fill="#ED715D"/>
<path d="M91.5413 66.9859C92.4185 66.7625 93.2403 66.3611 93.9557 65.8067C94.0276 65.7455 94.0723 65.6582 94.0799 65.5641C94.0874 65.4699 94.0573 65.3766 93.9961 65.3047C93.9349 65.2328 93.8476 65.1882 93.7534 65.1806C93.6593 65.173 93.566 65.2032 93.4941 65.2644C93.471 65.2828 91.1535 67.1636 88.3952 66.162C88.3516 66.1461 88.3053 66.139 88.2588 66.141C88.2124 66.143 88.1668 66.1541 88.1247 66.1737C88.0826 66.1933 88.0448 66.221 88.0134 66.2552C87.982 66.2895 87.9576 66.3295 87.9417 66.3732C87.9258 66.4168 87.9186 66.4632 87.9206 66.5096C87.9226 66.556 87.9337 66.6015 87.9534 66.6436C87.973 66.6858 88.0007 66.7236 88.0349 66.755C88.0692 66.7864 88.1093 66.8107 88.1529 66.8266C89.2397 67.2238 90.422 67.2794 91.5413 66.9859Z" fill="#ED715D"/>
<path d="M86.7587 36.7947C86.7587 36.7947 102.15 16.2128 120.161 35.5948C125.906 41.7747 136.902 38.447 136.671 54.3745C136.593 59.7675 137.943 61.5282 140.484 65.3728C144.999 72.2011 143.002 79.1356 134.944 81.4687C128.615 83.2986 131.731 91.0431 123.187 91.3916C116.232 91.6731 114.674 83.9909 108.737 83.414C95.6199 82.1379 103.964 66.6097 104.476 60.1598C104.513 59.6982 104.569 59.2159 104.619 58.7313C104.735 57.1275 104.336 55.8352 103.719 54.4114C100.359 46.6415 88.5753 51.2476 89.2031 40.9831L86.7587 36.7947Z" fill="#012869"/>
<path d="M137.033 139.702C137.093 139.722 137.155 139.726 137.217 139.715C137.278 139.704 137.335 139.678 137.384 139.64C145.232 133.409 149.438 120.39 149.479 120.256C149.504 120.162 149.493 120.062 149.446 119.976C149.399 119.891 149.322 119.827 149.229 119.797C149.136 119.767 149.036 119.774 148.948 119.817C148.861 119.859 148.793 119.934 148.759 120.025C148.72 120.154 144.581 132.948 136.913 139.042C136.835 139.105 136.785 139.196 136.774 139.295C136.762 139.395 136.791 139.495 136.853 139.573C136.898 139.634 136.961 139.68 137.033 139.702Z" fill="#E8E2E4"/>
<path d="M105.531 117.004C105.598 117.026 105.67 117.028 105.738 117.011C105.806 116.994 105.868 116.958 105.917 116.907C106.468 116.34 107.225 115.855 108.103 115.292C109.363 114.487 110.93 113.483 112.453 111.831C114.122 110.017 113.825 107.984 113.511 105.831C113.183 103.606 112.818 101.084 114.328 98.0446C114.354 97.9999 114.37 97.9503 114.376 97.899C114.382 97.8476 114.378 97.7956 114.363 97.7461C114.348 97.6966 114.323 97.6507 114.29 97.6111C114.256 97.5716 114.215 97.5393 114.169 97.5163C114.123 97.4932 114.072 97.4799 114.021 97.4771C113.969 97.4743 113.917 97.4821 113.869 97.5001C113.82 97.518 113.776 97.5457 113.739 97.5814C113.701 97.6171 113.672 97.6601 113.651 97.7077C112.036 100.957 112.419 103.606 112.761 105.941C113.074 108.081 113.321 109.772 111.897 111.321C110.473 112.869 108.982 113.834 107.696 114.657C106.773 115.241 105.988 115.749 105.388 116.379C105.353 116.414 105.325 116.455 105.305 116.501C105.286 116.547 105.276 116.596 105.276 116.645C105.276 116.695 105.286 116.744 105.305 116.79C105.325 116.836 105.353 116.877 105.388 116.912C105.429 116.952 105.478 116.984 105.531 117.004Z" fill="#E8E2E4"/>
<path d="M157.643 99.849C155.709 97.6222 152.881 95.8499 151.852 94.9522C149.668 93.0392 148.041 90.6669 146.726 91.1307C143.764 92.1738 150.465 98.2083 149.604 99.7683C148.708 100.156 145.978 98.9537 144.166 97.906C141.994 96.653 137.133 92.1946 136.004 93.1822C134.222 94.7445 138.986 97.6568 140.426 98.7391C138.919 97.6245 134.317 92.8199 133.333 94.6822C132.29 96.653 139.127 101.22 140.131 101.961C139.628 101.624 134.054 95.8937 132.669 97.1399C130.797 98.8291 138.476 103.804 139.48 104.543C138.843 104.125 134.289 99.1614 132.659 100.897C131.831 101.778 138.037 107.014 139.042 107.755C143.459 111.018 154.241 114.353 156.166 116.003L164.245 108.618C164.245 108.618 162.19 105.505 161.039 104.169C159.608 102.487 158.368 100.684 157.643 99.849Z" fill="#FDB88E"/>
<path d="M154.46 117.217C161.893 125.346 191.936 142.278 223.417 121.158C223.417 121.158 200.259 83.9586 198.258 89.5155C193.021 104.028 183.97 106.223 164.252 103.65C160.697 102.787 153.521 113.201 154.46 117.217Z" fill="#016099"/>
<path d="M173.473 104.808C173.373 104.798 173.281 104.749 173.216 104.672C173.152 104.595 173.119 104.496 173.126 104.396C173.133 104.296 173.179 104.202 173.253 104.135C173.328 104.068 173.425 104.032 173.526 104.035C176.726 104.128 179.922 103.733 183.003 102.863C187.673 101.545 193.949 98.4785 197.339 91.387C197.391 91.3082 197.469 91.2509 197.56 91.2257C197.651 91.2005 197.748 91.2093 197.833 91.2502C197.917 91.2912 197.984 91.3617 198.021 91.4484C198.058 91.5352 198.062 91.6323 198.032 91.7217C196.511 94.9404 194.196 97.7197 191.306 99.7985C188.846 101.539 186.099 102.832 183.19 103.62C180.033 104.519 176.756 104.922 173.475 104.813L173.473 104.808Z" fill="#002969"/>
<path d="M220.117 124.246C220.029 124.245 219.943 124.216 219.873 124.162C219.803 124.108 219.753 124.033 219.73 123.949C219.706 123.864 219.712 123.773 219.744 123.692C219.777 123.61 219.836 123.541 219.911 123.496C227.196 119.199 230.192 111.129 230.222 111.048C230.239 110.997 230.266 110.95 230.301 110.909C230.337 110.868 230.38 110.835 230.429 110.812C230.477 110.788 230.53 110.774 230.584 110.771C230.638 110.769 230.692 110.777 230.743 110.795C230.794 110.813 230.84 110.842 230.88 110.878C230.919 110.915 230.951 110.959 230.974 111.009C230.996 111.058 231.008 111.111 231.009 111.165C231.011 111.219 231.001 111.273 230.981 111.323C230.857 111.664 227.863 119.743 220.322 124.19C220.26 124.227 220.189 124.247 220.117 124.246Z" fill="#002969"/>
<path d="M107.415 171.811C115.724 208.415 137.774 220.041 147.686 220.558C157.597 221.075 188.508 185.08 195.149 148.158C201.106 115.05 172.847 120.367 151.693 135.466C137.887 145.319 93.9303 112.389 107.415 171.811Z" fill="#A9D3E1"/>
<path d="M34.9353 175.52C57.0432 200.592 92.64 217.75 135.166 219.891C135.692 219.919 136.207 220.023 136.717 220.083C143.035 220.814 148.397 220.939 152.337 220.447C160.759 219.39 123.715 198.446 106.69 165.172C106.325 164.455 105.968 163.732 105.617 163.003C104.626 160.926 103.717 158.796 102.905 156.627C87.8321 116.448 71.5432 123.627 54.9173 134.586C40.0803 144.35 -25.3476 107.148 34.9353 175.52Z" fill="#A9D3E1"/>
<path d="M137.77 220.198C143.75 220.744 149.762 220.844 155.757 220.498C156.253 220.472 156.748 220.442 157.242 220.408C189.529 218.31 224.426 208.221 251.157 184.891C292.635 148.677 289.012 122.856 262.961 128.51C217.437 138.387 216.798 113.423 194.669 157.843C194.035 159.112 193.368 160.367 192.668 161.609C191.992 162.803 191.289 163.983 190.558 165.149C170.186 197.678 129.234 219.39 137.77 220.198Z" fill="#A9D3E1"/>
<path d="M106.328 165.779C106.345 166.34 106.392 166.899 106.471 167.454C107.292 173.759 111.549 187.833 118.496 201.264C122.813 209.62 128.828 219.033 136.022 224.34C136.544 224.407 137.063 224.472 137.571 224.532C129.474 219.081 122.893 208.249 119.131 200.959C112.961 189.003 108.913 176.569 107.546 169.621C107.275 168.351 107.105 167.062 107.038 165.765C107.033 165.674 106.992 165.588 106.924 165.526C106.857 165.465 106.768 165.432 106.676 165.435C106.63 165.434 106.585 165.442 106.542 165.459C106.5 165.475 106.461 165.501 106.429 165.533C106.396 165.565 106.37 165.603 106.353 165.645C106.336 165.688 106.327 165.733 106.328 165.779Z" fill="#016099"/>
<path d="M155.757 220.498C156.346 220.75 156.808 220.75 157.242 220.408C164.45 215.44 171.972 205.535 179.728 190.782C184.317 182.05 188.077 173.27 190.59 166.958C190.618 166.915 190.636 166.867 190.643 166.817C190.65 166.767 190.646 166.716 190.632 166.667C190.618 166.618 190.593 166.573 190.56 166.535C190.527 166.496 190.486 166.465 190.44 166.444C190.394 166.423 190.344 166.412 190.293 166.411C190.242 166.411 190.192 166.422 190.146 166.442C190.099 166.463 190.058 166.493 190.024 166.531C189.991 166.569 189.966 166.614 189.951 166.663C187.442 172.963 183.684 181.748 179.102 190.485C171.105 205.671 163.188 215.816 155.757 220.498Z" fill="#016099"/>
<path d="M75.3078 137.75C75.4163 136.49 77.6484 137.148 80.4782 136.887C81.7108 136.774 84.4367 136.077 87.1096 136.195C88.7992 136.271 89.6186 136.624 90.7727 136.986L87.1535 142.472C85.7201 139.412 75.0886 140.259 75.3078 137.75Z" fill="#FDB88E"/>
<path d="M86.371 147.583C84.3167 142.017 81.6623 138.645 76.5843 136.993C73.4521 135.973 67.6146 134.935 62.2735 137.337C61.99 137.466 61.7407 137.66 61.5459 137.903C61.351 138.145 61.216 138.431 61.1517 138.735C60.4893 141.812 58.188 144.285 55.1689 144.987C54.9388 145.041 54.7257 145.152 54.5489 145.309C54.3721 145.466 54.2369 145.665 54.1556 145.887C52.4429 150.502 53.0477 155.531 53.5208 158.717L41.1259 150.954C40.7658 150.781 38.4253 153.431 39.9556 155.438C43.0763 159.532 62.0473 178.803 69.0088 176.899C72.4549 175.958 79.3449 174.052 82.7264 172.9C86.9319 171.465 90.805 159.601 86.371 147.583ZM65.6596 138.955C69.4473 137.503 78.9086 135.876 83.9428 149.064C85.5354 153.234 62.3473 140.222 65.6596 138.955Z" fill="#016099"/>
<path d="M76.0742 140.261C76.4712 142.239 78.7494 147.855 82.1978 147.56C89.5655 146.923 89.704 146.526 92.797 145.225C91.4306 142.822 90.9804 139.949 90.932 136.866C89.8234 136.543 88.6791 136.357 87.5251 136.312C85.5239 136.303 75.6472 138.147 76.0742 140.261Z" fill="#FDB88E"/>
<path d="M83.6427 139.885C82.8764 138.357 75.5225 138.013 76.0673 140.295L82.0385 147.218C82.0385 147.218 83.7258 147.68 84.0859 146.092C84.4621 144.447 84.9053 142.407 83.6427 139.885Z" fill="#FDB88E"/>
<path d="M31.8123 270.378C30.0304 269.78 28.9848 271.64 27.6253 273.577C26.2612 271.661 25.1901 269.739 23.2166 270.577C21.6286 271.246 21.7348 273.916 23.0482 278.109C23.796 280.502 25.391 284.127 27.3298 284.157C29.3657 284.189 31.136 280.763 32.214 278.033C33.8597 273.863 33.435 270.925 31.8123 270.378Z" fill="#ED715D"/>
<path d="M44.4589 228.404C42.9239 227.889 42.0214 229.491 40.8512 231.159C39.6763 229.509 38.753 227.855 37.0542 228.57C35.6878 229.147 35.7778 231.446 36.9088 235.059C37.5528 237.12 38.9285 240.242 40.6019 240.268C42.3561 240.298 43.8818 237.344 44.8097 234.992C46.2224 231.404 45.8554 228.873 44.4589 228.404Z" fill="#ED715D"/>
<path d="M36.7565 171.43C35.0877 170.796 34.1713 172.374 32.9687 174.003C31.6461 172.229 30.5982 170.47 28.7932 171.087C27.3414 171.58 27.1613 173.994 28.8602 177.726C29.9012 180.015 32.0293 183.165 33.0149 183.322C34.0974 183.497 36.3987 180.137 37.3612 178.208C39.0739 174.767 38.2776 172.007 36.7565 171.43Z" fill="#ED715D"/>
<path d="M27.7107 196.748C25.5225 196.101 24.2484 198.416 22.6096 200.839C20.9177 198.564 19.5859 196.27 17.1761 197.378C15.2372 198.264 14.3209 201.963 17.0399 206.569C18.7526 209.472 21.13 213.557 22.3488 213.75C23.6275 213.953 26.7343 209.068 28.2785 206.061C30.836 201.104 29.705 197.338 27.7107 196.748Z" fill="#ED715D"/>
<path d="M94.3827 146.42C108.973 142.513 120.052 147.696 133.767 140.985C138.845 138.495 143.506 132.768 146.693 125.111C146.871 124.716 116.207 110.598 110.455 113.804C98.452 120.496 100.183 126.392 96.8363 131.247C96.5847 131.619 94.2973 133.804 91.8945 134.812C89.4201 135.86 92.0745 147.036 94.3827 146.42Z" fill="#ED715D"/>
</svg>
