<svg width="235" height="144" viewBox="0 0 235 144" fill="none" xmlns="http://www.w3.org/2000/svg">
<path d="M12.394 74.5174L12.2766 70.626L122.634 102.458V104.049C122.634 104.394 122.566 104.735 122.434 105.053C122.302 105.372 122.109 105.661 121.865 105.905C121.621 106.148 121.332 106.342 121.014 106.473C120.695 106.605 120.354 106.673 120.01 106.673H42.818C42.192 106.673 41.5729 106.543 40.9997 106.292C40.4264 106.04 39.9116 105.673 39.4876 105.212L13.0863 76.294C12.6409 75.8096 12.3937 75.1755 12.394 74.5174Z" fill="#01609A"/>
<path d="M0.157771 18.1721L10.5946 66.7958C10.7066 67.3167 10.9937 67.7835 11.4079 68.1185C11.8222 68.4535 12.3387 68.6365 12.8715 68.6371H89.5836C89.9707 68.6377 90.353 68.5517 90.7024 68.3853C91.0519 68.2188 91.3596 67.9763 91.6031 67.6754C91.8466 67.3745 92.0196 67.0229 92.1094 66.6464C92.1992 66.2699 92.2036 65.8781 92.1222 65.4997L81.7899 17.0819C81.6606 16.2511 81.2387 15.4938 80.6004 14.9466C79.962 14.3994 79.1491 14.0983 78.3083 14.0977H3.63935C3.13002 14.0978 2.62676 14.2082 2.16422 14.4215C1.70167 14.6347 1.29082 14.9456 0.959944 15.3328C0.629069 15.7201 0.386028 16.1744 0.247549 16.6645C0.109069 17.1547 0.0784396 17.669 0.157771 18.1721Z" fill="#A9D3E0"/>
<path d="M86.8312 64.5405H15.8786L13.4495 54.037L10.3847 40.7911L10.1648 39.8382L6.22867 22.8282C6.16027 22.3919 6.18719 21.9461 6.30759 21.5212C6.42798 21.0964 6.63898 20.7027 6.92607 20.3672C7.21316 20.0317 7.56953 19.7624 7.97065 19.5778C8.37177 19.3932 8.80812 19.2977 9.24968 19.2979H74.012C74.7412 19.2979 75.4464 19.5586 76.0004 20.0328C76.5544 20.5071 76.9206 21.1637 77.033 21.8842L77.8288 25.3449L78.1641 26.8051L83.5187 50.1148L83.6351 50.6241L86.3378 62.3918L86.8053 64.4301L86.8183 64.4848L86.8312 64.5405Z" fill="#01609A"/>
<path d="M12.6099 71.3545L39.4877 100.998C39.9112 101.459 40.4258 101.827 40.9989 102.078C41.572 102.33 42.1911 102.46 42.8171 102.46H122.634L93.676 70.5478C93.3975 70.2408 93.0578 69.9955 92.6789 69.8276C92.2999 69.6597 91.8901 69.573 91.4756 69.5729H13.3977C13.2355 69.5701 13.0743 69.5998 12.9237 69.6601C12.773 69.7204 12.6359 69.8101 12.5204 69.9241C12.1792 70.2732 12.1135 70.8313 12.6099 71.3545Z" fill="#A9D3E0"/>
<path d="M95.4834 87.4517H99.6344L101.92 89.9365H97.7693L95.4834 87.4517Z" fill="#E8E2E4"/>
<path d="M92.4406 84.1743H96.5916L98.8775 86.6582H94.7264L92.4406 84.1743Z" fill="#E8E2E4"/>
<path d="M89.3399 80.8394H93.49L95.7759 83.3232H91.6248L89.3399 80.8394Z" fill="#E8E2E4"/>
<path d="M86.2383 77.5039H90.3893L92.6752 79.9887H88.5242L86.2383 77.5039Z" fill="#E8E2E4"/>
<path d="M83.1954 74.2271H87.3465L89.6324 76.7109H85.4813L83.1954 74.2271Z" fill="#E8E2E4"/>
<path d="M90.0999 87.4517H94.2509L96.5368 89.9365H92.3858L90.0999 87.4517Z" fill="#E8E2E4"/>
<path d="M87.057 84.1743H91.208L93.494 86.6582H89.3429L87.057 84.1743Z" fill="#E8E2E4"/>
<path d="M83.9564 80.8394H88.1074L90.3933 83.3232H86.2423L83.9564 80.8394Z" fill="#E8E2E4"/>
<path d="M80.8548 77.5039H85.0058L87.2917 79.9887H83.1407L80.8548 77.5039Z" fill="#E8E2E4"/>
<path d="M77.812 74.2271H81.963L84.2489 76.7109H80.0979L77.812 74.2271Z" fill="#E8E2E4"/>
<path d="M84.6 87.4517H88.7511L91.036 89.9365H86.8859L84.6 87.4517Z" fill="#E8E2E4"/>
<path d="M81.5571 84.1743H85.7081L87.994 86.6582H83.843L81.5571 84.1743Z" fill="#E8E2E4"/>
<path d="M78.4565 80.8394H82.6065L84.8924 83.3232H80.7414L78.4565 80.8394Z" fill="#E8E2E4"/>
<path d="M75.3549 77.5039H79.506L81.7909 79.9887H77.6408L75.3549 77.5039Z" fill="#E8E2E4"/>
<path d="M72.312 74.2271H76.463L78.7489 76.7109H74.5979L72.312 74.2271Z" fill="#E8E2E4"/>
<path d="M52.2999 87.4517H83.2501L85.536 89.9365H54.5858L52.2999 87.4517Z" fill="#E8E2E4"/>
<path d="M76.0573 84.1743H80.2073L82.4932 86.6582H78.3432L76.0573 84.1743Z" fill="#E8E2E4"/>
<path d="M72.9556 80.8394H77.1067L79.3926 83.3232H75.2415L72.9556 80.8394Z" fill="#E8E2E4"/>
<path d="M69.854 77.5039H74.005L76.291 79.9887H72.1399L69.854 77.5039Z" fill="#E8E2E4"/>
<path d="M66.8121 74.2271H70.9622L73.2481 76.7109H69.097L66.8121 74.2271Z" fill="#E8E2E4"/>
<path d="M73.5992 87.4517H77.7502L80.0361 89.9365H75.8851L73.5992 87.4517Z" fill="#E8E2E4"/>
<path d="M70.5563 84.1743H74.7074L76.9933 86.6582H72.8422L70.5563 84.1743Z" fill="#E8E2E4"/>
<path d="M67.4557 80.8394H71.6058L73.8917 83.3232H69.7407L67.4557 80.8394Z" fill="#E8E2E4"/>
<path d="M64.3541 77.5039H68.5052L70.7911 79.9887H66.64L64.3541 77.5039Z" fill="#E8E2E4"/>
<path d="M61.3112 74.2271H65.4623L67.7482 76.7109H63.5971L61.3112 74.2271Z" fill="#E8E2E4"/>
<path d="M68.3331 87.4517H72.4841L74.77 89.9365H70.619L68.3331 87.4517Z" fill="#E8E2E4"/>
<path d="M65.2902 84.1743H69.4412L71.7271 86.6582H67.5761L65.2902 84.1743Z" fill="#E8E2E4"/>
<path d="M62.1896 80.8394H66.3396L68.6255 83.3232H64.4745L62.1896 80.8394Z" fill="#E8E2E4"/>
<path d="M59.088 77.5039H63.238L65.5239 79.9887H61.3739L59.088 77.5039Z" fill="#E8E2E4"/>
<path d="M56.045 74.2271H60.1961L62.482 76.7109H58.3309L56.045 74.2271Z" fill="#E8E2E4"/>
<path d="M62.9495 87.4517H67.1005L69.3865 89.9365H65.2354L62.9495 87.4517Z" fill="#E8E2E4"/>
<path d="M59.9066 84.1743H64.0577L66.3436 86.6582H62.1925L59.9066 84.1743Z" fill="#E8E2E4"/>
<path d="M56.806 80.8394H60.9561L63.242 83.3232H59.0919L56.806 80.8394Z" fill="#E8E2E4"/>
<path d="M53.7045 77.5039H57.8555L60.1414 79.9887H55.9904L53.7045 77.5039Z" fill="#E8E2E4"/>
<path d="M50.6616 74.2271H54.8126L57.0985 76.7109H52.9475L50.6616 74.2271Z" fill="#E8E2E4"/>
<path d="M57.566 87.4517H61.717L64.0029 89.9365H59.8519L57.566 87.4517Z" fill="#E8E2E4"/>
<path d="M54.5241 84.1743H58.6741L60.96 86.6582H56.809L54.5241 84.1743Z" fill="#E8E2E4"/>
<path d="M51.4225 80.8394H55.5736L57.8595 83.3232H53.7084L51.4225 80.8394Z" fill="#E8E2E4"/>
<path d="M48.321 77.5039H52.472L54.7579 79.9887H50.6069L48.321 77.5039Z" fill="#E8E2E4"/>
<path d="M45.279 74.2271H49.429L51.715 76.7109H47.5639L45.279 74.2271Z" fill="#E8E2E4"/>
<path d="M52.2999 87.4517H56.4509L58.7368 89.9365H54.5858L52.2999 87.4517Z" fill="#E8E2E4"/>
<path d="M49.258 84.1743H53.408L55.6939 86.6582H51.5429L49.258 84.1743Z" fill="#E8E2E4"/>
<path d="M46.1564 80.8394H50.3064L52.5923 83.3232H48.4423L46.1564 80.8394Z" fill="#E8E2E4"/>
<path d="M43.0548 77.5039H47.2058L49.4918 79.9887H45.3407L43.0548 77.5039Z" fill="#E8E2E4"/>
<path d="M40.0119 74.2271H44.1629L46.4488 76.7109H42.2978L40.0119 74.2271Z" fill="#E8E2E4"/>
<path d="M46.9174 87.4517H51.0675L53.3534 89.9365H49.2023L46.9174 87.4517Z" fill="#E8E2E4"/>
<path d="M43.8745 84.1743H48.0245L50.3104 86.6582H46.1604L43.8745 84.1743Z" fill="#E8E2E4"/>
<path d="M40.7729 80.8394H44.9239L47.2098 83.3232H43.0588L40.7729 80.8394Z" fill="#E8E2E4"/>
<path d="M37.6713 77.5039H41.8223L44.1082 79.9887H39.9572L37.6713 77.5039Z" fill="#E8E2E4"/>
<path d="M34.6294 74.2271H38.7794L41.0653 76.7109H36.9143L34.6294 74.2271Z" fill="#E8E2E4"/>
<path d="M41.5338 87.4517H45.6848L47.9697 89.9365H43.8197L41.5338 87.4517Z" fill="#E8E2E4"/>
<path d="M38.491 84.1743H42.642L44.9279 86.6582H40.7769L38.491 84.1743Z" fill="#E8E2E4"/>
<path d="M35.3894 80.8394H39.5404L41.8263 83.3232H37.6753L35.3894 80.8394Z" fill="#E8E2E4"/>
<path d="M32.2887 77.5039H36.4387L38.7246 79.9887H34.5746L32.2887 77.5039Z" fill="#E8E2E4"/>
<path d="M29.2458 74.2271H33.3959L35.6818 76.7109H31.5318L29.2458 74.2271Z" fill="#E8E2E4"/>
<path d="M36.1503 87.4517H40.3014L42.5873 89.9365H38.4362L36.1503 87.4517Z" fill="#E8E2E4"/>
<path d="M33.1074 84.1743H37.2585L39.5444 86.6582H35.3933L33.1074 84.1743Z" fill="#E8E2E4"/>
<path d="M30.0068 80.8394H34.1569L36.4428 83.3232H32.2917L30.0068 80.8394Z" fill="#E8E2E4"/>
<path d="M26.9052 77.5039H31.0562L33.3422 79.9887H29.1911L26.9052 77.5039Z" fill="#E8E2E4"/>
<path d="M23.8624 74.2271H28.0134L30.2993 76.7109H26.1483L23.8624 74.2271Z" fill="#E8E2E4"/>
<path d="M61.4525 91.6445H81.6357L88.4855 99.2981H68.3023L61.4525 91.6445Z" fill="#E8E2E4"/>
<path d="M223.52 111.563L223.637 107.671L113.28 139.503V141.095C113.28 141.79 113.557 142.458 114.049 142.95C114.541 143.442 115.208 143.719 115.904 143.719H193.096C193.722 143.719 194.341 143.589 194.914 143.337C195.488 143.086 196.002 142.718 196.426 142.257L222.827 113.343C223.273 112.858 223.521 112.222 223.52 111.563Z" fill="#002869"/>
<path d="M223.041 105.735H146.33C145.943 105.734 145.562 105.648 145.212 105.481C144.863 105.314 144.556 105.072 144.313 104.771C144.069 104.47 143.896 104.119 143.806 103.743C143.716 103.366 143.711 102.975 143.792 102.596L152.478 55.1156C152.607 54.2846 153.028 53.5271 153.667 52.9798C154.305 52.4326 155.118 52.1316 155.959 52.1313H230.626C231.135 52.1314 231.638 52.2417 232.1 52.4545C232.562 52.6674 232.973 52.9779 233.304 53.3646C233.635 53.7512 233.878 54.205 234.017 54.6946C234.156 55.1842 234.187 55.698 234.108 56.2008L225.317 103.888C225.207 104.41 224.921 104.878 224.506 105.215C224.092 105.551 223.575 105.734 223.041 105.735Z" fill="#01609A"/>
<path d="M149.083 101.639H220.035L223.517 83.8985L224.396 79.4222L224.676 77.9968L228.039 60.8584C228.107 60.4223 228.08 59.9766 227.96 59.5519C227.84 59.1272 227.629 58.7336 227.342 58.3982C227.055 58.0628 226.699 57.7935 226.298 57.609C225.897 57.4244 225.46 57.3289 225.019 57.3291H160.256C159.526 57.329 158.821 57.5895 158.267 58.0638C157.713 58.5381 157.347 59.1948 157.235 59.9154L152.858 82.3179L152.236 85.5011L152.086 86.267L149.083 101.639Z" fill="#A9D3E0"/>
<path d="M222.517 106.618H144.723C144.219 106.618 143.72 106.724 143.259 106.928C142.798 107.132 142.385 107.43 142.046 107.804L113.28 139.503H193.097C193.723 139.503 194.342 139.373 194.915 139.122C195.489 138.87 196.003 138.502 196.427 138.042L223.304 108.399C224.106 107.554 223.441 106.618 222.517 106.618Z" fill="#01609A"/>
<path d="M140.431 124.497H136.28L133.994 126.981H138.145L140.431 124.497Z" fill="#A9D3E0"/>
<path d="M143.474 121.22H139.323L137.037 123.705H141.188L143.474 121.22Z" fill="#A9D3E0"/>
<path d="M146.575 117.885H142.424L140.138 120.37H144.289L146.575 117.885Z" fill="#A9D3E0"/>
<path d="M149.676 114.549H145.526L143.24 117.034H147.39L149.676 114.549Z" fill="#A9D3E0"/>
<path d="M152.718 111.272H148.567L146.282 113.757H150.433L152.718 111.272Z" fill="#A9D3E0"/>
<path d="M145.814 124.497H141.663L139.377 126.981H143.528L145.814 124.497Z" fill="#A9D3E0"/>
<path d="M148.857 121.22H144.706L142.42 123.705H146.571L148.857 121.22Z" fill="#A9D3E0"/>
<path d="M151.958 117.885H147.808L145.522 120.37H149.672L151.958 117.885Z" fill="#A9D3E0"/>
<path d="M155.059 114.549H150.908L148.622 117.034H152.773L155.059 114.549Z" fill="#A9D3E0"/>
<path d="M158.102 111.272H153.951L151.665 113.757H155.816L158.102 111.272Z" fill="#A9D3E0"/>
<path d="M151.314 124.497H147.163L144.878 126.981H149.028L151.314 124.497Z" fill="#A9D3E0"/>
<path d="M154.357 121.22H150.206L147.92 123.705H152.071L154.357 121.22Z" fill="#A9D3E0"/>
<path d="M157.458 117.885H153.307L151.021 120.37H155.173L157.458 117.885Z" fill="#A9D3E0"/>
<path d="M160.559 114.549H156.409L154.123 117.034H158.273L160.559 114.549Z" fill="#A9D3E0"/>
<path d="M163.602 111.272H159.452L157.166 113.757H161.316L163.602 111.272Z" fill="#A9D3E0"/>
<path d="M156.815 124.497H152.664L150.378 126.981H154.529L156.815 124.497Z" fill="#A9D3E0"/>
<path d="M159.857 121.22H155.707L153.421 123.705H157.572L159.857 121.22Z" fill="#A9D3E0"/>
<path d="M162.958 117.885H158.807L156.522 120.37H160.673L162.958 117.885Z" fill="#A9D3E0"/>
<path d="M166.06 114.549H161.909L159.623 117.034H163.774L166.06 114.549Z" fill="#A9D3E0"/>
<path d="M169.103 111.272H164.952L162.666 113.757H166.817L169.103 111.272Z" fill="#A9D3E0"/>
<path d="M162.315 124.497H158.164L155.878 126.981H160.029L162.315 124.497Z" fill="#A9D3E0"/>
<path d="M165.358 121.22H161.207L158.921 123.705H163.072L165.358 121.22Z" fill="#A9D3E0"/>
<path d="M168.459 117.885H164.308L162.022 120.37H166.173L168.459 117.885Z" fill="#A9D3E0"/>
<path d="M171.56 114.549H167.41L165.124 117.034H169.274L171.56 114.549Z" fill="#A9D3E0"/>
<path d="M174.603 111.272H170.452L168.166 113.757H172.317L174.603 111.272Z" fill="#A9D3E0"/>
<path d="M167.581 124.497H163.431L161.145 126.981H165.295L167.581 124.497Z" fill="#A9D3E0"/>
<path d="M170.624 121.22H166.473L164.187 123.705H168.338L170.624 121.22Z" fill="#A9D3E0"/>
<path d="M173.725 117.885H169.574L167.289 120.37H171.44L173.725 117.885Z" fill="#A9D3E0"/>
<path d="M176.826 114.549H172.676L170.39 117.034H174.54L176.826 114.549Z" fill="#A9D3E0"/>
<path d="M179.869 111.272H175.718L173.432 113.757H177.583L179.869 111.272Z" fill="#A9D3E0"/>
<path d="M172.964 124.497H168.813L166.527 126.981H170.678L172.964 124.497Z" fill="#A9D3E0"/>
<path d="M176.007 121.22H171.856L169.57 123.705H173.721L176.007 121.22Z" fill="#A9D3E0"/>
<path d="M179.108 117.885H174.958L172.672 120.37H176.823L179.108 117.885Z" fill="#A9D3E0"/>
<path d="M182.21 114.549H178.058L175.773 117.034H179.924L182.21 114.549Z" fill="#A9D3E0"/>
<path d="M185.252 111.272H181.101L178.815 113.757H182.966L185.252 111.272Z" fill="#A9D3E0"/>
<path d="M178.348 124.497H174.197L171.911 126.981H176.062L178.348 124.497Z" fill="#A9D3E0"/>
<path d="M181.39 121.22H177.24L174.954 123.705H179.105L181.39 121.22Z" fill="#A9D3E0"/>
<path d="M184.491 117.885H180.341L178.055 120.37H182.206L184.491 117.885Z" fill="#A9D3E0"/>
<path d="M187.593 114.549H183.442L181.156 117.034H185.307L187.593 114.549Z" fill="#A9D3E0"/>
<path d="M190.636 111.272H186.485L184.199 113.757H188.35L190.636 111.272Z" fill="#A9D3E0"/>
<path d="M183.614 124.497H152.664L150.378 126.981H181.328L183.614 124.497Z" fill="#A9D3E0"/>
<path d="M186.657 121.22H182.506L180.22 123.705H184.371L186.657 121.22Z" fill="#A9D3E0"/>
<path d="M189.758 117.885H185.608L183.322 120.37H187.472L189.758 117.885Z" fill="#A9D3E0"/>
<path d="M192.859 114.549H188.708L186.422 117.034H190.573L192.859 114.549Z" fill="#A9D3E0"/>
<path d="M195.902 111.272H191.751L189.465 113.757H193.616L195.902 111.272Z" fill="#A9D3E0"/>
<path d="M188.998 124.497H184.847L182.561 126.981H186.712L188.998 124.497Z" fill="#A9D3E0"/>
<path d="M192.04 121.22H187.889L185.604 123.705H189.755L192.04 121.22Z" fill="#A9D3E0"/>
<path d="M195.141 117.885H190.99L188.704 120.37H192.855L195.141 117.885Z" fill="#A9D3E0"/>
<path d="M198.243 114.549H194.092L191.806 117.034H195.957L198.243 114.549Z" fill="#A9D3E0"/>
<path d="M201.285 111.272H197.135L194.849 113.757H199L201.285 111.272Z" fill="#A9D3E0"/>
<path d="M194.38 124.497H190.23L187.944 126.981H192.094L194.38 124.497Z" fill="#A9D3E0"/>
<path d="M197.423 121.22H193.273L190.987 123.705H195.137L197.423 121.22Z" fill="#A9D3E0"/>
<path d="M200.525 117.885H196.374L194.088 120.37H198.239L200.525 117.885Z" fill="#A9D3E0"/>
<path d="M203.625 114.549H199.475L197.189 117.034H201.34L203.625 114.549Z" fill="#A9D3E0"/>
<path d="M206.668 111.272H202.518L200.232 113.757H204.382L206.668 111.272Z" fill="#A9D3E0"/>
<path d="M199.764 124.497H195.613L193.327 126.981H197.478L199.764 124.497Z" fill="#A9D3E0"/>
<path d="M202.807 121.22H198.656L196.37 123.705H200.521L202.807 121.22Z" fill="#A9D3E0"/>
<path d="M205.908 117.885H201.757L199.471 120.37H203.622L205.908 117.885Z" fill="#A9D3E0"/>
<path d="M209.009 114.549H204.858L202.573 117.034H206.723L209.009 114.549Z" fill="#A9D3E0"/>
<path d="M212.052 111.272H207.901L205.615 113.757H209.766L212.052 111.272Z" fill="#A9D3E0"/>
<path d="M174.462 128.689H154.278L147.429 136.342H167.612L174.462 128.689Z" fill="#A9D3E0"/>
<path d="M155.24 86.4148C155.08 88.9613 151.499 98.7216 152.103 101.634H205.736C205.205 97.9249 197.838 83.7837 194.589 77.2483C192.065 72.1751 211.318 84.284 211.226 82.2568C211.055 78.5006 209.277 66.4225 201.31 57.3247C195.355 50.5197 185.936 45.3829 171.138 46.6452C149.751 49.9278 149.751 67.5347 139.704 72.1104C137.771 72.9908 148.89 77.6591 152.858 82.3115C154.304 84.0095 155.298 85.4837 155.24 86.4148Z" fill="#002869"/>
<path d="M117.72 66.1758C116.854 64.826 115.55 64.06 114.934 63.3906C113.559 61.8925 112.655 60.6849 112.332 60.9803C111.306 61.9184 113.738 64.2072 113.633 65.5104C113.629 65.5688 113.612 65.6255 113.583 65.6767C113.555 65.7279 113.516 65.7724 113.468 65.807C113.421 65.8417 113.367 65.8657 113.31 65.8776C113.252 65.8894 113.193 65.8886 113.136 65.8754C112.498 65.7312 111.434 65.0428 110.698 64.4619C109.628 63.6164 107.153 60.6819 106.458 61.1076C105.71 61.5672 107.931 63.9218 108.621 64.6171C107.898 63.8989 105.666 60.9555 104.917 61.5851C104.207 62.182 107.729 65.8496 108.21 66.326C107.966 66.1062 104.844 62.2397 104.302 62.8932C103.625 63.7089 107.177 67.1895 107.659 67.6679C107.349 67.3934 104.553 64.1177 103.927 64.9752C103.529 65.5253 106.69 68.8845 107.171 69.361C109.292 71.4629 116.308 74.7077 117.248 74.9544L122.659 70.4154C122.659 70.4154 120.345 69.4585 119.63 68.8179C118.707 67.9843 118.044 66.6822 117.72 66.1758Z" fill="#FDB88E"/>
<path d="M116.013 76.4258C121.004 80.0725 123.591 89.0251 136.965 90.8893C144.909 91.9974 153.523 98.5955 164.176 89.9204C176.13 80.1859 174.481 65.4151 169.28 64.49C164.796 63.6942 153.961 57.4612 149.155 63.7588C138.91 77.1878 132.274 71.2134 120.858 68.1208C119.52 67.4772 114.691 74.7288 116.013 76.4258Z" fill="#002869"/>
<path d="M154.87 91.7639C154.842 91.7672 154.814 91.7647 154.787 91.7568C154.76 91.7488 154.735 91.7354 154.714 91.7174C154.692 91.6994 154.675 91.6772 154.662 91.6522C154.649 91.6272 154.642 91.5999 154.64 91.5719C154.64 91.4843 154.381 82.7416 155.889 74.0953C155.894 74.0659 155.905 74.0379 155.922 74.0129C155.938 73.9879 155.96 73.9665 155.984 73.9498C156.009 73.9331 156.037 73.9216 156.066 73.9158C156.096 73.9101 156.126 73.9102 156.155 73.9163C156.216 73.9277 156.269 73.9625 156.304 74.0131C156.339 74.0638 156.353 74.1262 156.342 74.1869C154.843 82.7844 155.098 91.4674 155.101 91.555C155.102 91.5838 155.096 91.6125 155.085 91.6392C155.074 91.6658 155.058 91.6898 155.037 91.7096C155.015 91.7293 154.99 91.7444 154.963 91.7537C154.936 91.7631 154.907 91.7665 154.878 91.7639H154.87Z" fill="#E8E2E4"/>
<path d="M151.516 67.6824C154.788 66.5772 158.425 67.1144 161.387 68.9974C161.39 69.0004 161.395 69.0023 161.399 69.003C161.404 69.0036 161.408 69.003 161.413 69.0011C161.417 68.9992 161.421 68.9962 161.423 68.9924C161.426 68.9886 161.427 68.9841 161.427 68.9795C162.078 65.5318 164.259 62.657 167.218 60.8784C173.94 56.8368 182.96 62.1318 185.636 70.9969C189.941 85.2494 178.984 101.781 177.162 104.404C177.088 104.515 176.983 104.601 176.861 104.654C176.739 104.707 176.604 104.724 176.473 104.703C173.314 104.237 153.728 101.447 146.303 88.0397C141.896 80.0848 144.058 70.2001 151.516 67.6824Z" fill="#ED715D"/>
<path d="M158.916 90.6676C158.717 91.0357 159.612 91.6823 160.689 92.2881C159.763 91.924 158.947 91.736 158.786 92.1359C158.62 92.5536 159.466 93.1644 160.516 93.7334C160.167 93.6817 159.896 93.7334 159.778 93.9652C159.432 94.6486 165.162 96.8559 165.846 97.0131C169.129 97.77 174.423 97.1394 174.423 97.1394C175.986 95.9308 177.35 92.5338 175.937 91.9668C175.306 91.7151 173.659 90.4299 172.686 89.8151C170.985 88.7378 169.901 88.7209 168.518 87.8535C166.749 86.7394 165.652 85.9138 165.523 86.3226C164.966 88.0843 168.79 89.7167 168.358 90.8337C167.954 91.2038 166.286 91.0625 165.134 90.8337C163.753 90.5632 160.312 88.9825 159.768 89.7226C159.47 90.1295 160.183 90.4319 160.836 90.8168C159.952 90.4508 159.149 90.2329 158.916 90.6676ZM163.7 93.7145L163.726 93.7225C163.718 93.7203 163.709 93.7176 163.7 93.7145Z" fill="#FDB88E"/>
<path d="M173.218 98.543C186.599 102.025 201.226 101.509 206.349 96.1875C216.595 85.5438 208.775 72.1447 203.265 62.1675L187.15 65.6491C183.669 73.9501 193.915 78.4712 189.239 80.7691C182.973 83.8527 183.825 89.8331 175.711 90.9154C174.505 91.0775 171.842 98.1839 173.218 98.543Z" fill="#002869"/>
<path d="M181.783 37.6035L181.87 48.1756C181.939 52.2888 168.342 52.3465 168.541 48.7605L169.111 42.3832L181.783 37.6035Z" fill="#FDB88E"/>
<path d="M183.968 24.4355C182.092 19.3106 173.979 21.0952 173.979 21.0952C165.341 16.9412 160.702 23.7511 160.067 25.6839C159.51 27.375 158.995 31.4335 164.8 33.229C167.127 33.9492 166.459 33.8368 169.286 34.3421C170.615 34.5798 178.566 38.9388 180.185 40.3314C179.31 42.6491 180.185 47.0459 181.086 47.4448C183.162 48.4853 183.06 41.1889 183.06 41.1879C187.125 36.5066 189.66 26.7135 183.968 24.4355Z" fill="#002869"/>
<path d="M164.69 35.7567C164.591 36.1954 163.994 38.8493 164.124 39.9684C164.181 40.4368 164.263 40.9017 164.371 41.361C164.769 43.1337 166.397 46.7853 169.699 47.3215C173.168 47.8795 177.375 45.6374 179.253 40.794C181.63 41.6037 183.443 38.3818 182.898 36.5087C182.65 35.6572 181.704 34.7938 180.5 35.3091C181.096 33.7095 181.83 33.5931 181.825 32.8849C181.713 21.71 168.631 26.0988 166.816 27.0915C164.351 29.7306 164.868 34.9848 164.69 35.7567Z" fill="#FDB88E"/>
<path d="M173.604 39.0397C173.55 39.4564 173.62 39.8799 173.806 40.2566C173.992 40.6333 174.286 40.9464 174.65 41.1562C175.014 41.366 175.432 41.4631 175.852 41.4353C176.271 41.4074 176.673 41.2559 177.006 40.9998C177.339 40.7437 177.589 40.3945 177.723 39.9965C177.858 39.5984 177.872 39.1693 177.763 38.7635C177.654 38.3577 177.427 37.9933 177.111 37.7165C176.794 37.4397 176.403 37.2629 175.987 37.2084C175.71 37.1722 175.429 37.1909 175.159 37.2633C174.89 37.3357 174.637 37.4606 174.416 37.6306C174.195 37.8007 174.009 38.0126 173.87 38.2544C173.731 38.4962 173.64 38.763 173.604 39.0397Z" fill="#ED715D"/>
<path d="M164.69 35.7573C164.591 36.196 164.472 36.5939 164.413 36.8426C164.135 38.0204 163.99 38.85 164.124 39.969C164.683 40.0441 165.248 39.8942 165.696 39.5524C166.144 39.2105 166.438 38.7047 166.513 38.1462C166.588 37.5877 166.438 37.0222 166.096 36.5742C165.754 36.1262 165.249 35.8324 164.69 35.7573Z" fill="#ED715D"/>
<path d="M169.993 29.9982C165.375 28.0903 165.198 31.2914 162.419 29.8659C160.145 28.6981 165.333 23.1335 168.189 24.9281C171.458 26.9842 180.094 17.5123 183.535 32.0374C183.963 33.8449 182.165 34.4248 180.527 35.2962C179.794 35.6851 179.519 36.4471 179.392 37.4727C179.386 37.5339 179.359 37.5911 179.315 37.6345C179.271 37.678 179.214 37.7051 179.153 37.7114C178.766 37.7472 178.114 37.6607 178.201 35.9109C178.321 33.4649 179.345 29.1527 176.709 29.1527C174.406 29.1527 173.372 31.3928 169.993 29.9982Z" fill="#002869"/>
<path d="M173.493 36.3438C174.821 36.7218 176.097 36.1449 176.164 36.113C176.212 36.0904 176.25 36.0492 176.269 35.9987C176.287 35.9481 176.285 35.8923 176.262 35.8435C176.239 35.7947 176.198 35.7569 176.148 35.7384C176.097 35.7199 176.041 35.7223 175.992 35.745C175.975 35.753 174.175 36.5627 172.771 35.546C172.75 35.5304 172.725 35.5191 172.699 35.5129C172.673 35.5067 172.646 35.5057 172.62 35.5099C172.567 35.5183 172.519 35.5476 172.487 35.5913C172.456 35.635 172.443 35.6894 172.451 35.7427C172.46 35.7959 172.489 35.8436 172.533 35.8753C172.823 36.0868 173.148 36.2454 173.493 36.3438Z" fill="#002869"/>
<path d="M166.84 35.4766C167.38 35.6304 167.953 35.6245 168.489 35.4597C168.54 35.4416 168.582 35.4041 168.605 35.3554C168.628 35.3067 168.631 35.2508 168.613 35.2C168.594 35.1493 168.557 35.1077 168.508 35.0846C168.46 35.0615 168.404 35.0586 168.353 35.0767C168.292 35.0976 166.871 35.5741 165.693 34.2749C165.675 34.2553 165.654 34.2395 165.63 34.2282C165.606 34.2169 165.58 34.2105 165.553 34.2092C165.527 34.208 165.5 34.2119 165.475 34.2209C165.451 34.2299 165.428 34.2437 165.408 34.2615C165.388 34.2793 165.373 34.3009 165.361 34.3248C165.35 34.3488 165.344 34.3748 165.342 34.4012C165.341 34.4277 165.345 34.4541 165.354 34.4791C165.363 34.504 165.377 34.5269 165.395 34.5465C165.778 34.9878 166.279 35.3105 166.84 35.4766Z" fill="#002869"/>
<path d="M169.487 39.9379C169.811 40.0304 170.235 40.0374 170.77 39.9011C170.796 39.8946 170.821 39.883 170.842 39.867C170.864 39.8509 170.882 39.8308 170.896 39.8077C170.91 39.7846 170.919 39.759 170.923 39.7324C170.927 39.7057 170.926 39.6786 170.919 39.6524C170.913 39.6263 170.901 39.6017 170.885 39.5801C170.869 39.5585 170.849 39.5402 170.826 39.5263C170.803 39.5125 170.777 39.5033 170.75 39.4993C170.724 39.4954 170.697 39.4967 170.671 39.5032C169.732 39.742 169.19 39.4674 169.07 39.0904C168.958 38.7403 169.232 38.4647 169.631 38.1126L169.778 37.9813C170.488 37.3297 170.746 36.1908 170.757 36.148C170.763 36.1219 170.764 36.0948 170.759 36.0685C170.754 36.0421 170.744 36.0169 170.73 35.9943C170.716 35.9718 170.697 35.9522 170.675 35.9368C170.653 35.9215 170.629 35.9106 170.602 35.9048C170.576 35.899 170.549 35.8983 170.523 35.903C170.497 35.9076 170.471 35.9174 170.449 35.9317C170.426 35.9461 170.407 35.9648 170.391 35.9867C170.376 36.0086 170.365 36.0333 170.359 36.0594C170.359 36.0704 170.115 37.1178 169.502 37.6819L169.36 37.8072C168.988 38.1345 168.48 38.5831 168.68 39.2138C168.779 39.5191 169.04 39.8106 169.487 39.9379Z" fill="#ED715D"/>
<path d="M168.627 41.2868C168.657 41.2844 168.688 41.2887 168.716 41.2994C168.744 41.31 168.769 41.3268 168.79 41.3484C169.893 42.4974 171.76 41.429 171.775 41.4181C171.821 41.3917 171.876 41.3849 171.928 41.3992C171.98 41.4134 172.023 41.4476 172.05 41.4942C172.076 41.5407 172.083 41.5959 172.069 41.6475C172.054 41.699 172.02 41.7428 171.974 41.7692C171.886 41.8209 169.809 43.0077 168.492 41.6299C168.473 41.611 168.458 41.5884 168.448 41.5636C168.438 41.5388 168.434 41.5122 168.434 41.4854C168.435 41.4587 168.441 41.4323 168.452 41.4079C168.463 41.3835 168.478 41.3616 168.498 41.3435C168.533 41.3098 168.579 41.2897 168.627 41.2868Z" fill="#ED715D"/>
<path d="M170.843 47.7507C170.3 47.7127 169.759 47.6429 169.224 47.5418C169.176 47.5329 169.134 47.5053 169.107 47.4652C169.079 47.4251 169.069 47.3757 169.078 47.328C169.087 47.2802 169.115 47.238 169.155 47.2105C169.195 47.1831 169.244 47.1728 169.292 47.1817C173.991 48.0631 177.134 46.3461 178.631 42.0777C178.638 42.0539 178.65 42.0317 178.666 42.0125C178.682 41.9933 178.701 41.9775 178.723 41.9662C178.745 41.9548 178.77 41.948 178.794 41.9463C178.819 41.9445 178.844 41.9478 178.867 41.956C178.891 41.9642 178.913 41.9771 178.931 41.9938C178.949 42.0106 178.964 42.031 178.974 42.0536C178.984 42.0763 178.99 42.1007 178.99 42.1256C178.991 42.1504 178.986 42.1751 178.977 42.1981C177.589 46.1532 174.856 48.0153 170.843 47.7507Z" fill="#ED715D"/>
<path d="M86.7755 64.5407H15.8786L10.3846 40.7913C10.4682 40.7844 15.5453 39.0307 17.6512 30.1367C20.5857 17.7493 27.7876 21.2408 32.3524 10.5911C36.3125 1.35002 43.9421 -2.05695 49.9702 1.21474C57.0786 -1.70282 62.7128 4.11639 66.0571 11.6446C70.8696 22.4772 80.8309 19.7288 82.2096 32.2257C83.7017 45.7541 96.2354 51.1257 86.7755 64.5407Z" fill="#002869"/>
<path d="M68.1948 59.1849C68.2943 61.0172 68.3937 62.8436 68.4266 64.5406H23.6097C23.3063 64.0621 29.976 34.4707 31.7665 33.4123C35.5555 28.9151 40.4705 25.7598 49.5793 25.7598C73.5574 25.7598 67.9252 54.4559 68.1948 59.1849Z" fill="#01609A"/>
<path d="M48.8263 62.8933L48.1379 64.5545H33.5491C33.5293 64.5056 33.5197 64.4532 33.5211 64.4005C33.5225 64.3477 33.5347 64.2959 33.5571 64.2481C33.6476 64.0362 33.9639 63.9765 34.3847 64.0044C33.7799 63.7587 33.3392 63.4593 33.3561 63.1042C33.376 62.6864 33.9241 62.6585 34.6035 62.7729C34.2305 62.574 34.0186 62.3143 34.1708 61.9682C34.4464 61.3425 37.3172 62.2457 38.4571 62.3442C39.4081 62.4277 40.7699 62.3979 41.0653 62.0637C41.119 61.253 37.1859 60.0513 38.2065 59.0486C38.6601 58.603 39.7921 59.2695 41.0643 59.6375C41.6612 59.8116 43.1742 59.9976 44.4037 60.5447C44.8652 60.7506 45.7257 61.2559 46.6448 61.6697C47.3759 62.002 48.8263 62.8933 48.8263 62.8933Z" fill="#FDB88E"/>
<path d="M77.4866 64.5408H46.1524C46.5951 62.4518 47.2198 60.4902 47.9917 61.0502C61.8653 59.1045 69.5556 39.9748 51.4733 25.5889C61.5201 26.3568 71.2466 33.4274 76.6351 40.9794C84.6617 52.2249 81.0896 60.332 77.4866 64.5408Z" fill="#01609A"/>
<path d="M43.0001 50.1284C42.8867 50.6715 42.5186 51.1599 42.2391 51.6274C41.9596 52.095 41.689 52.5764 41.5328 53.0947C41.2453 53.3076 41.0703 53.42 41.0703 53.42C40.9857 53.3152 40.8849 53.2245 40.7718 53.1514C40.9129 52.5917 41.1348 52.0555 41.4304 51.5598C41.7099 51.0694 42.2311 50.4885 42.2978 49.9105C42.3883 49.1257 41.113 48.7924 40.6067 48.4741C40.2914 48.2752 39.981 48.0185 39.8806 47.6435C39.7542 47.1631 40.0158 46.7124 40.3073 46.3504C40.6863 45.8808 41.1638 45.5058 41.5706 45.0632C41.9377 44.6653 41.9934 44.2614 41.8412 43.7382C41.4851 42.5137 40.3361 41.497 39.1793 40.9907C39.7214 41.2056 40.1879 41.5348 40.6485 41.886C40.7371 41.6733 40.8631 41.4783 41.0205 41.31C41.6879 41.862 42.1975 42.5806 42.4977 43.393C42.6748 43.9033 42.7524 44.5519 42.4898 45.0483C42.2172 45.5615 41.7099 45.9435 41.303 46.3494C41.0623 46.5871 40.4505 47.0895 40.5978 47.4913C40.7151 47.8067 41.2314 47.9887 41.501 48.128C42.2938 48.5368 43.2169 49.0829 43.0001 50.1284Z" fill="#01609A"/>
<path d="M44.2902 16.5557L43.4696 27.3983C43.382 30.1836 53.0191 29.9498 53.228 26.9258L52.8937 22.6564L44.2902 16.5557Z" fill="#FDB88E"/>
<path d="M44.2406 16.6832C44.4535 22.3383 48.8711 25.8348 52.9943 25.5363C55.8531 25.3245 57.5492 22.381 58.1798 20.6979C58.1798 20.691 58.1858 20.683 58.1878 20.677C58.4889 19.9241 58.6679 19.1279 58.718 18.3185C58.7342 17.9752 58.7269 17.6313 58.6961 17.289C58.6772 17.0323 58.6523 16.7707 58.6334 16.5011C58.6036 16.0674 58.6205 15.6059 58.6334 15.0797C58.6643 13.4383 58.3539 12.7251 58.0167 12.1581C56.4072 9.44548 53.8587 11.1216 51.6106 6.73482C50.1523 3.90678 44.0595 11.8846 44.2406 16.6832Z" fill="#FDB98D"/>
<path d="M56.2132 16.3315C57.5939 16.4489 58.2027 15.7038 58.2345 15.665C58.2632 15.6252 58.2755 15.5759 58.2688 15.5273C58.2622 15.4787 58.237 15.4345 58.1986 15.4039C58.1603 15.3733 58.1116 15.3587 58.0627 15.3631C58.0138 15.3674 57.9685 15.3904 57.9361 15.4273C57.9033 15.4691 57.1622 16.3405 55.3657 15.7675C55.3418 15.7599 55.3166 15.757 55.2916 15.7591C55.2666 15.7612 55.2422 15.7682 55.2199 15.7797C55.1976 15.7912 55.1778 15.8069 55.1616 15.8261C55.1454 15.8453 55.1331 15.8674 55.1255 15.8913C55.1178 15.9152 55.115 15.9404 55.1171 15.9654C55.1191 15.9904 55.1261 16.0148 55.1376 16.0371C55.1491 16.0594 55.1649 16.0792 55.1841 16.0954C55.2032 16.1117 55.2254 16.1239 55.2493 16.1316C55.5622 16.2337 55.8855 16.3008 56.2132 16.3315Z" fill="#002869"/>
<path d="M50.4447 16.5936C50.9674 16.6398 51.4931 16.5511 51.9717 16.3359C52.0149 16.3121 52.0472 16.2725 52.0619 16.2253C52.0765 16.1782 52.0723 16.1272 52.0502 16.0831C52.0281 16.0389 51.9897 16.0051 51.9432 15.9886C51.8966 15.9721 51.8455 15.9743 51.8006 15.9947C51.7399 16.0246 50.3015 16.7189 48.877 15.5212C48.8382 15.4892 48.7883 15.4738 48.7381 15.4783C48.6879 15.4829 48.6416 15.5071 48.6092 15.5457C48.5768 15.5842 48.561 15.634 48.5651 15.6842C48.5692 15.7344 48.593 15.781 48.6313 15.8137C49.1388 16.2577 49.7733 16.5306 50.4447 16.5936Z" fill="#002869"/>
<path d="M50.0439 18.4445C50.2736 19.7287 49.0551 20.8378 47.7142 20.3573C47.5122 20.2845 47.3271 20.1712 47.1703 20.0245C47.0134 19.8777 46.8881 19.7006 46.802 19.5039C46.2241 18.1789 47.2864 16.8718 48.6094 17.0578C48.9647 17.107 49.2951 17.2678 49.5529 17.5171C49.8108 17.7663 49.9827 18.0911 50.0439 18.4445Z" fill="#EE715D"/>
<path d="M56.8269 19.0521C56.8386 19.4357 56.9785 19.8044 57.2243 20.0992C57.47 20.394 57.8075 20.598 58.1827 20.6785C58.4839 19.9256 58.6629 19.1294 58.7129 18.32C58.7291 17.9767 58.7218 17.6327 58.6911 17.2904C58.6219 17.2844 58.5525 17.2824 58.4832 17.2845C58.0294 17.3 57.6003 17.4948 57.2899 17.8261C56.9794 18.1575 56.813 18.5983 56.8269 19.0521Z" fill="#EE715D"/>
<path d="M53.6896 20.2183C53.9128 20.238 54.1375 20.2056 54.3461 20.1238C54.5086 20.0654 54.6534 19.9661 54.7663 19.8354C54.8792 19.7047 54.9565 19.5471 54.9907 19.3777C55.0693 18.948 54.7987 18.5979 54.5371 18.2607C54.4038 18.0999 54.2869 17.9263 54.1879 17.7424C53.8895 17.1296 53.8706 16.3498 53.8706 16.3438C53.8693 16.2931 53.8479 16.2451 53.8111 16.2102C53.7744 16.1753 53.7253 16.1565 53.6746 16.1578C53.624 16.1591 53.5759 16.1805 53.541 16.2172C53.5062 16.254 53.4873 16.3031 53.4886 16.3537C53.4886 16.3995 53.5135 17.2212 53.8437 17.9075C53.9537 18.1162 54.0851 18.3129 54.2357 18.4944C54.4645 18.7928 54.6624 19.0465 54.6147 19.3091C54.591 19.4145 54.5409 19.5121 54.469 19.5927C54.3971 19.6733 54.3058 19.7342 54.2038 19.7697C54.0478 19.8308 53.8794 19.8537 53.7128 19.8364C53.5461 19.8191 53.386 19.7621 53.2459 19.6702C53.2258 19.6533 53.2025 19.6408 53.1774 19.6334C53.1522 19.6259 53.1258 19.6237 53.0998 19.6269C53.0738 19.6301 53.0487 19.6386 53.0261 19.652C53.0035 19.6653 52.9839 19.6831 52.9685 19.7043C52.9532 19.7255 52.9423 19.7497 52.9366 19.7753C52.931 19.8009 52.9306 19.8273 52.9357 19.8531C52.9407 19.8788 52.951 19.9032 52.9658 19.9248C52.9807 19.9464 52.9998 19.9647 53.0221 19.9786C53.2186 20.1178 53.4494 20.2007 53.6896 20.2183Z" fill="#EE715D"/>
<path d="M52.2084 21.8723C52.1565 21.8637 52.1094 21.837 52.0755 21.7969C52.0415 21.7568 52.0228 21.706 52.0228 21.6534C52.0228 21.6009 52.0415 21.55 52.0755 21.51C52.1094 21.4699 52.1565 21.4432 52.2084 21.4346C53.0311 21.3099 53.8651 21.2766 54.6952 21.3351C54.7242 21.3369 54.7526 21.3445 54.7787 21.3572C54.8048 21.37 54.8281 21.3878 54.8473 21.4096C54.8665 21.4314 54.8812 21.4568 54.8907 21.4843C54.9001 21.5118 54.904 21.5409 54.9021 21.5699C54.9003 21.5989 54.8928 21.6272 54.88 21.6533C54.8672 21.6794 54.8494 21.7027 54.8276 21.7219C54.8058 21.7411 54.7804 21.7559 54.7529 21.7653C54.7255 21.7747 54.6964 21.7786 54.6674 21.7768C53.8703 21.7221 53.0697 21.7555 52.28 21.8762C52.2561 21.8788 52.2319 21.8774 52.2084 21.8723Z" fill="#EE715D"/>
<path d="M51.6275 25.698C50.8074 25.5591 50.0063 25.3254 49.2401 25.0017C47.1631 24.1173 45.8093 22.6571 45.3248 20.777C45.3183 20.753 45.3165 20.7279 45.3197 20.7032C45.3229 20.6785 45.3309 20.6546 45.3433 20.633C45.3556 20.6114 45.3721 20.5924 45.3919 20.5772C45.4116 20.562 45.4341 20.5508 45.4581 20.5442C45.4821 20.5377 45.5072 20.536 45.5319 20.5391C45.5566 20.5423 45.5805 20.5503 45.6021 20.5627C45.6237 20.5751 45.6427 20.5916 45.6579 20.6113C45.6731 20.631 45.6843 20.6535 45.6909 20.6775C46.7871 24.9559 52.2174 25.3976 52.2721 25.4015C52.2971 25.403 52.3216 25.4093 52.3441 25.4203C52.3666 25.4313 52.3867 25.4466 52.4033 25.4654C52.4198 25.4842 52.4325 25.5061 52.4405 25.5299C52.4485 25.5536 52.4517 25.5787 52.4499 25.6037C52.4481 25.6287 52.4414 25.653 52.4301 25.6754C52.4188 25.6978 52.4032 25.7177 52.3841 25.7339C52.3651 25.7502 52.343 25.7625 52.3192 25.7702C52.2953 25.7778 52.2702 25.7807 52.2452 25.7785C52.2213 25.7766 51.9925 25.7596 51.6275 25.698Z" fill="#ED715D"/>
<path d="M45.7764 19.4017C45.3168 34.3197 32.9701 35.409 32.1644 44.9555C31.6471 51.1009 35.3177 56.7113 29.018 64.5408H22.8029L23.5758 28.028C33.4148 17.8986 43.1532 2.139 43.2826 2.27627C43.2826 2.27627 51.0266 1.38101 53.1842 6.87395C54.6743 10.6788 46.03 11.1662 45.7764 19.4017Z" fill="#002869"/>
<path d="M49.5315 61.4713C49.4721 61.4709 49.4147 61.4493 49.3698 61.4104C49.3249 61.3714 49.2955 61.3176 49.2868 61.2588C49.2782 61.2 49.2909 61.14 49.3226 61.0898C49.3544 61.0395 49.4031 61.0023 49.4599 60.9848C49.5276 60.9639 56.3306 58.9148 60.9591 58.687C62.3458 58.6184 63.2181 58.2971 63.624 57.7042C64.2507 56.791 63.7444 55.2611 63.2082 53.6417C62.5467 51.6442 61.8633 49.5792 63.0679 48.1318C63.1101 48.081 63.1708 48.0491 63.2366 48.043C63.3023 48.037 63.3678 48.0573 63.4186 48.0995C63.4694 48.1417 63.5013 48.2024 63.5074 48.2681C63.5134 48.3339 63.4931 48.3994 63.4509 48.4501C62.4224 49.6856 63.062 51.6174 63.6797 53.4845C64.2557 55.2253 64.7998 56.8666 64.0348 57.9857C63.5375 58.7158 62.5367 59.1068 60.984 59.1794C56.4161 59.4082 49.6718 61.4404 49.6042 61.4633C49.5804 61.4693 49.556 61.472 49.5315 61.4713Z" fill="#002869"/>
</svg>
