<svg width="143" height="154" viewBox="0 0 143 154" fill="none" xmlns="http://www.w3.org/2000/svg">
<path d="M103.713 9.63786L101.205 145.478C101.205 149.174 96.8928 151.954 93.3159 151.954H30.0732C26.5015 151.954 23.6052 148.961 23.6052 145.268L25.8023 9.71281C25.8023 6.01681 28.8823 2.04053 32.4541 2.04053H92.6239C99.7377 2.04053 103.713 5.94494 103.713 9.63786Z" fill="#E8E2E4"/>
<path d="M106.569 76.7572C108.115 82.677 105.982 86.5434 102.236 89.5146C100.857 90.6111 99.2591 91.5864 97.5426 92.4919C89.9822 96.5062 80.1898 99.2782 77.0585 105.777C63.1821 134.606 38.7638 131.039 23.756 146.741C23.65 146.258 23.5969 145.765 23.5979 145.271L25.8032 9.71178C25.8032 6.01578 28.8832 2.04053 32.4539 2.04053H86.4135C87.4319 5.12053 88.3457 8.26623 89.1917 11.3668C90.8857 17.576 94.1936 21.4733 97.674 24.6026C99.5938 26.3274 101.567 27.8181 103.349 29.3334C106.501 32.011 109.058 34.7686 109.688 39.0293C109.702 39.1155 109.715 39.2038 109.725 39.2921C111.179 50.7168 100.074 58.3881 106.029 75.0201C106.119 75.2706 106.204 75.5191 106.282 75.7675C106.36 76.016 106.433 76.2521 106.497 76.4862C106.524 76.5786 106.546 76.6689 106.569 76.7572Z" fill="#012869"/>
<path d="M84.8817 151.957H30.0701C26.9901 151.957 24.407 149.727 23.7602 146.741C23.6541 146.259 23.6011 145.766 23.6021 145.271L23.8074 132.736C33.8544 123.243 44.2853 116.136 46.1559 109.841C47.6671 104.757 80.7258 106.816 81.3911 110.541C83.8469 124.305 87.0316 130.411 84.8817 151.957Z" fill="#01609A"/>
<path d="M87.1385 104.383C87.3439 107.668 87.7545 119.783 85.0174 120.296C67.0508 123.652 44.537 117.289 42.1202 114.505C40.7927 112.976 46.2382 101.363 50.2473 93.2968C53.0573 87.644 26.9184 85.3371 28.251 84.0568C37.3113 75.3794 41.7917 55.1377 70.2098 59.6694C100.075 64.4311 93.0932 84.4634 108.391 91.65C111.31 93.0237 86.8962 100.502 87.1385 104.383Z" fill="#EE715D"/>
<path d="M65.3895 46.1924L61.6196 61.2125C60.8249 65.1036 75.1244 67.0532 75.4365 62.9055L75.997 56.8297L65.3895 46.1924Z" fill="#FDB88E"/>
<path d="M62.8907 49.4854C64.1227 57.0828 70.6728 61.0673 76.1798 59.9677C80.0032 59.2039 81.8008 54.9483 82.3696 52.5695C82.3696 52.5603 82.3758 52.549 82.3768 52.5408C82.7941 51.0209 82.8353 49.4222 82.4969 47.8828C82.4292 47.5389 82.3511 47.1908 82.2803 46.8294C82.1674 46.2483 82.113 45.6241 82.039 44.9116C81.806 42.6909 81.268 41.7793 80.7177 41.0698C78.0915 37.6818 74.9314 40.3666 71.1636 34.8226C68.7334 31.2467 61.8435 43.0339 62.8907 49.4854Z" fill="#FDB88E"/>
<path d="M71.0187 50.8878C71.5433 52.5838 70.0844 54.285 68.1943 53.8651C67.9092 53.8009 67.6403 53.6792 67.4039 53.5074C67.1675 53.3357 66.9687 53.1174 66.8196 52.8661C65.8176 51.1742 67.0342 49.2328 68.8503 49.2625C69.3372 49.2694 69.8093 49.4305 70.1989 49.7225C70.5884 50.0145 70.8755 50.4224 71.0187 50.8878Z" fill="#EE715D"/>
<path d="M80.2762 50.5744C80.3572 51.089 80.6079 51.5617 80.9886 51.9172C81.3693 52.2727 81.8579 52.4907 82.3768 52.5364C82.7941 51.0165 82.8353 49.4178 82.4969 47.8784C82.4027 47.8815 82.3088 47.89 82.2156 47.9041C81.6044 48.0013 81.0569 48.3371 80.6932 48.8378C80.3295 49.3386 80.1796 49.9632 80.2762 50.5744Z" fill="#EE715D"/>
<path d="M75.9785 52.5348C76.2831 52.5244 76.5811 52.4436 76.8491 52.2986C77.0587 52.1925 77.2375 52.0342 77.368 51.8389C77.4986 51.6436 77.5766 51.4179 77.5945 51.1837C77.6284 50.5892 77.2054 50.1632 76.7958 49.7515C76.5886 49.5568 76.4015 49.3419 76.2373 49.1098C75.7373 48.3326 75.5186 46.9363 75.5186 46.923C75.5063 46.8567 75.4687 46.7977 75.4138 46.7586C75.3588 46.7195 75.2908 46.7033 75.2241 46.7134C75.1574 46.7235 75.0973 46.7592 75.0565 46.8129C75.0156 46.8666 74.9972 46.934 75.0052 47.001C75.0145 47.0626 75.2414 48.5195 75.8019 49.3911C75.9849 49.6542 76.1948 49.8975 76.4282 50.117C76.7875 50.4784 77.0976 50.7915 77.0771 51.1539C77.0627 51.3 77.0113 51.44 76.9278 51.5607C76.8443 51.6815 76.7313 51.7789 76.5997 51.8438C76.3994 51.9527 76.1759 52.012 75.948 52.0168C75.7201 52.0216 75.4944 51.9718 75.2896 51.8715C75.2597 51.8529 75.2264 51.8406 75.1916 51.8353C75.1567 51.83 75.1212 51.8318 75.0871 51.8407C75.0531 51.8495 75.0211 51.8652 74.9933 51.8868C74.9655 51.9084 74.9423 51.9354 74.9253 51.9662C74.9082 51.997 74.8976 52.0309 74.894 52.0659C74.8905 52.101 74.8941 52.1364 74.9046 52.17C74.9152 52.2035 74.9325 52.2346 74.9554 52.2613C74.9783 52.2881 75.0065 52.3098 75.0381 52.3253C75.3268 52.479 75.6519 52.5514 75.9785 52.5348Z" fill="#EE715D"/>
<path d="M74.7157 55.6676C74.6623 55.6674 74.6104 55.6506 74.567 55.6195C74.5237 55.5884 74.4911 55.5445 74.4738 55.4941C74.4565 55.4436 74.4554 55.389 74.4706 55.3378C74.4858 55.2867 74.5166 55.2415 74.5586 55.2087C74.6377 55.1471 76.5247 53.7015 78.4671 54.1338C78.5008 54.1402 78.5329 54.1534 78.5614 54.1725C78.5899 54.1916 78.6143 54.2162 78.6331 54.2448C78.652 54.2735 78.6649 54.3056 78.6711 54.3394C78.6773 54.3731 78.6766 54.4078 78.6692 54.4413C78.6618 54.4748 78.6478 54.5064 78.6279 54.5344C78.608 54.5624 78.5828 54.5861 78.5536 54.6041C78.5244 54.6222 78.4919 54.6342 78.458 54.6394C78.4241 54.6447 78.3895 54.6431 78.3562 54.6348C76.651 54.257 74.8902 55.5998 74.8728 55.6142C74.8278 55.6491 74.7725 55.6678 74.7157 55.6676Z" fill="#EE715D"/>
<path d="M74.9211 60.3908H74.9149C70.3503 60.282 67.8863 58.6393 66.6225 57.281C65.2303 55.7831 64.9111 54.2554 64.9111 54.0768C64.9097 54.0087 64.9354 53.9429 64.9826 53.8938C65.0298 53.8447 65.0945 53.8164 65.1626 53.815C65.2307 53.8136 65.2965 53.8394 65.3456 53.8865C65.3947 53.9337 65.423 53.9985 65.4244 54.0665C65.4418 54.1887 66.5147 59.6773 74.9272 59.8775C74.9953 59.8783 75.0603 59.9061 75.1078 59.9548C75.1554 60.0035 75.1816 60.0691 75.1808 60.1372C75.18 60.2053 75.1522 60.2702 75.1035 60.3178C75.0547 60.3654 74.9891 60.3916 74.9211 60.3908Z" fill="#EE715D"/>
<path d="M79.0092 47.0138C80.8911 46.9111 81.5759 45.79 81.6046 45.7325C81.6353 45.6735 81.6421 45.6051 81.6238 45.5412C81.6055 45.4774 81.5635 45.4229 81.5063 45.3891C81.4491 45.3553 81.3811 45.3448 81.3163 45.3595C81.2516 45.3743 81.1949 45.4134 81.158 45.4686C81.1201 45.5313 80.2885 46.8454 77.7598 46.4152C77.7261 46.4095 77.6916 46.4105 77.6582 46.4181C77.6249 46.4257 77.5934 46.4398 77.5655 46.4596C77.5376 46.4793 77.5139 46.5044 77.4957 46.5334C77.4775 46.5623 77.4652 46.5946 77.4595 46.6283C77.4538 46.662 77.4547 46.6965 77.4623 46.7298C77.4699 46.7631 77.484 46.7947 77.5038 46.8225C77.5236 46.8504 77.5487 46.8741 77.5776 46.8923C77.6066 46.9105 77.6388 46.9228 77.6725 46.9286C78.1135 47.0067 78.5619 47.0353 79.0092 47.0138Z" fill="#002869"/>
<path d="M71.2949 48.3017C72.0049 48.2266 72.6836 47.9703 73.2661 47.5574C73.3205 47.5152 73.356 47.4531 73.3647 47.3847C73.3733 47.3164 73.3545 47.2474 73.3123 47.1929C73.2701 47.1385 73.208 47.103 73.1396 47.0943C73.0713 47.0857 73.0023 47.1045 72.9478 47.1467C72.8749 47.2032 71.1378 48.5071 68.9223 47.2822C68.8619 47.2489 68.7908 47.2409 68.7246 47.2599C68.6584 47.279 68.6024 47.3236 68.5691 47.3839C68.5357 47.4442 68.5277 47.5153 68.5468 47.5815C68.5658 47.6478 68.6104 47.7037 68.6707 47.7371C69.6532 48.2802 70.5557 48.3828 71.2949 48.3017Z" fill="#002869"/>
<path d="M94.6085 150.273C93.0428 150.757 90.8622 150.92 87.7935 150.92H34.144C29.2971 150.92 26.6709 150.244 25.3598 148.485C23.9646 146.606 23.6853 143.257 23.6853 138.338L25.8834 16.5293C25.8834 10.8601 26.4686 7.77803 27.9029 5.83352C29.4357 3.75863 32.2498 2.85619 37.0279 2.85619L36.4027 0H32.3381C29.4952 0 27.1637 0.2772 25.329 0.91476C19.4924 2.9414 18.1834 8.14147 18.1834 16.5324L15.9833 138.338C15.9833 143.996 16.4011 147.773 18.282 150.304C20.2029 152.889 23.5775 154 29.4511 154H83.1026C86.2853 154 88.9741 153.762 91.124 153.016C92.433 152.563 93.5726 151.875 94.4637 150.915C94.7025 150.658 94.9215 150.383 95.1187 150.094C94.9586 150.16 94.7871 150.218 94.6085 150.273Z" fill="#01609A"/>
<path d="M101.134 4.27073C100.433 3.31682 99.5478 2.51375 98.5302 1.9094C96.8876 0.905321 94.8137 0.32628 92.2224 0.106573C91.4072 0.0381285 90.5394 0.00390625 89.6188 0.00390625H37.4292C34.5874 0.00390625 31.8174 0.281107 29.9838 0.917641C24.1462 2.94428 22.7971 8.14537 22.7971 16.5353L21.329 97.9294L20.598 138.341C20.598 142.895 20.8916 146.232 21.9881 148.68C22.2417 149.256 22.5585 149.802 22.9327 150.308C23.0744 150.501 23.2273 150.687 23.3906 150.862C25.3802 153.049 28.7025 154 34.1439 154H87.7954C90.9781 154 93.6679 153.762 95.8157 153.016C97.1237 152.562 98.2284 151.875 99.1216 150.916C101.38 148.493 101.785 144.713 101.785 139.366L102.534 93.0035L103.625 25.5453L103.764 16.8803C103.762 10.517 103.033 6.87231 101.134 4.27073ZM98.5035 97.1779L97.8218 139.366C97.8213 139.454 97.7858 139.539 97.7231 139.601C97.6604 139.663 97.5756 139.698 97.4871 139.698H25.3433C25.2553 139.699 25.1707 139.664 25.1077 139.603C25.0448 139.541 25.0084 139.458 25.0065 139.37C25.0024 139.031 25.0004 138.684 25.0004 138.329L25.8956 88.5683L27.1933 16.4963V16.484C27.1941 16.0799 27.3549 15.6927 27.6403 15.4068C27.9258 15.1209 28.3129 14.9597 28.7169 14.9583H98.2736C98.6771 14.9581 99.0642 15.1175 99.3505 15.4018C99.6367 15.6862 99.7988 16.0723 99.8013 16.4757V16.8433L99.7602 19.3709L98.5035 97.1779Z" fill="#A9D3E0"/>
<path d="M74.492 9.3867H47.8951C47.5742 9.38643 47.2665 9.25881 47.0395 9.03187C46.8126 8.80493 46.685 8.49721 46.6847 8.17626C46.6852 7.8554 46.8129 7.54783 47.0398 7.32095C47.2667 7.09407 47.5743 6.96636 47.8951 6.96582H74.492C74.8129 6.96609 75.1206 7.09371 75.3476 7.32065C75.5745 7.54759 75.7021 7.85532 75.7024 8.17626C75.7019 8.49712 75.5741 8.80469 75.3473 9.03157C75.1204 9.25845 74.8128 9.38616 74.492 9.3867Z" fill="#E8E2E4"/>
<path d="M81.2114 10.1199C82.2848 10.1199 83.1549 9.24975 83.1549 8.17639C83.1549 7.10304 82.2848 6.23291 81.2114 6.23291C80.1381 6.23291 79.2679 7.10304 79.2679 8.17639C79.2679 9.24975 80.1381 10.1199 81.2114 10.1199Z" fill="#E8E2E4"/>
<path d="M106.569 76.7577C108.686 84.8601 103.906 89.1167 97.5425 92.4965C92.6227 67.7702 90.7481 44.3294 97.6739 24.603C102.988 29.375 108.702 32.3564 109.686 39.0297C109.7 39.116 109.713 39.2043 109.723 39.2926C111.177 50.7173 100.072 58.3886 106.027 75.0206C106.117 75.2711 106.201 75.5195 106.279 75.768C106.357 76.0164 106.431 76.2526 106.495 76.4866C106.524 76.579 106.546 76.6694 106.569 76.7577Z" fill="#012869"/>
<path d="M15.0746 113.396C14.2307 114.969 12.5983 116.247 12.1763 117.161C11.2297 119.208 11.0881 120.296 10.2924 120.263C8.64972 120.193 10.7174 116.471 10.5573 114.983C10.548 114.91 10.5226 114.84 10.4829 114.778C10.4432 114.716 10.3902 114.664 10.3277 114.625C10.2652 114.587 10.1949 114.562 10.1218 114.554C10.0488 114.546 9.97479 114.554 9.90534 114.578C9.20618 114.822 8.1251 115.649 7.37974 116.339C6.26581 117.366 3.97121 121.062 3.23714 120.534C2.41581 119.937 4.35518 117.178 5.06152 116.346C4.32027 117.206 1.80699 121.081 0.852191 120.236C0.165351 119.629 3.96402 115.055 4.45682 114.487C4.20632 114.751 1.15506 119.297 0.470274 118.241C-0.126219 117.323 3.23509 113.621 3.72994 113.048C3.40859 113.379 0.949729 117.141 0.189996 116.11C-0.245311 115.52 2.55132 111.781 3.04104 111.21C5.2145 108.694 12.7215 104.486 13.744 104.126L17.8096 107.339C17.8096 107.339 17.0119 109.451 16.5109 110.394C15.8826 111.575 15.3918 112.805 15.0746 113.396Z" fill="#FDB88E"/>
<path d="M126.679 111.354C128.137 112.386 130.17 112.802 130.953 113.432C132.713 114.842 133.623 115.61 134.022 115.368C135.614 114.393 131.848 112.09 131.411 110.701C131.391 110.639 131.385 110.573 131.393 110.508C131.401 110.443 131.423 110.381 131.458 110.325C131.492 110.27 131.538 110.222 131.593 110.186C131.647 110.15 131.709 110.126 131.774 110.117C132.492 110 133.877 110.264 134.88 110.557C136.337 110.983 139.92 113.196 140.458 112.466C141.038 111.68 137.961 109.961 136.958 109.53C138.006 109.97 142.061 112.347 142.46 111.136C142.784 110.158 137.365 107.885 136.67 107.595C137.012 107.719 141.626 110.079 141.912 109.177C142.27 108.048 137.375 106.273 136.676 105.982C137.111 106.136 140.921 108.293 141.21 107.145C141.395 106.41 137.169 104.322 136.473 104.031C133.406 102.747 124.81 102.328 123.742 102.466L121.536 107.155C121.536 107.155 123.191 108.695 124.06 109.311C125.146 110.085 126.133 110.967 126.679 111.354Z" fill="#FDB88E"/>
<path d="M17.6987 110.451C25.4614 106.642 48.125 107.771 54.3877 95.9644C59.8003 85.7603 40.965 71.4383 36.8964 75.6856C28.8884 84.0417 20.9728 89.3403 10.7923 104.638C9.57573 105.758 15.3425 111.431 17.6987 110.451Z" fill="#EE715D"/>
<path d="M123.076 109.345C118.213 109.345 91.934 112.974 81.3932 104.178C68.2128 93.1834 80.9096 62.0692 85.9105 65.1646C90.2225 67.8339 94.284 73.1018 98.6412 80.7699C103.775 89.8046 113.425 95.3486 125.191 101.262C126.775 101.722 125.433 108.919 123.076 109.345Z" fill="#EE715D"/>
<path d="M87.549 110.337C87.5801 110.341 87.6116 110.339 87.6416 110.33C87.6716 110.321 87.6995 110.306 87.7236 110.286C87.7476 110.266 87.7673 110.241 87.7814 110.213C87.7956 110.186 87.8038 110.155 87.8057 110.124C87.8057 110.021 88.0952 100.292 86.4166 90.6664C86.4105 90.6336 86.3979 90.6024 86.3795 90.5745C86.3611 90.5467 86.3374 90.5228 86.3096 90.5042C86.2819 90.4857 86.2507 90.4728 86.218 90.4665C86.1852 90.4601 86.1515 90.4604 86.1189 90.4673C86.052 90.4805 85.993 90.5194 85.9546 90.5756C85.9162 90.6319 85.9015 90.701 85.9135 90.7681C87.5829 100.341 87.2985 110.009 87.2954 110.105C87.2947 110.137 87.3008 110.169 87.3133 110.199C87.3257 110.228 87.3443 110.255 87.3677 110.277C87.3912 110.299 87.419 110.316 87.4493 110.326C87.4797 110.336 87.5119 110.34 87.5439 110.337H87.549Z" fill="#E8E2E4"/>
<path d="M45.9383 103.85C45.9566 103.849 45.9749 103.847 45.9927 103.842C46.158 103.798 50.087 102.713 53.1023 98.3319C53.141 98.2758 53.1558 98.2066 53.1435 98.1396C53.1312 98.0726 53.0927 98.0132 53.0366 97.9746C52.9805 97.9359 52.9114 97.9211 52.8444 97.9334C52.7774 97.9458 52.718 97.9842 52.6793 98.0403C49.7708 102.268 45.9034 103.336 45.8602 103.346C45.7994 103.363 45.7467 103.401 45.7124 103.454C45.678 103.507 45.6644 103.571 45.674 103.633C45.6837 103.695 45.716 103.752 45.7647 103.792C45.8134 103.832 45.8752 103.853 45.9383 103.85Z" fill="#E8E2E4"/>
<path d="M75.3481 30.4916C75.3481 30.4916 65.0466 20.7958 52.0541 34.2061C47.7863 38.6115 28.8237 83.4388 28.8237 83.4388C39.3861 73.7122 51.8878 75.7943 61.444 65.5841C65.2047 61.5657 66.1769 54.1491 66.8515 46.4244C67.4233 39.8712 74.8174 42.864 74.9621 36.6783C75.1284 29.8202 75.3481 30.4916 75.3481 30.4916Z" fill="#012869"/>
</svg>
