<svg width="160" height="124" viewBox="0 0 160 124" fill="none" xmlns="http://www.w3.org/2000/svg">
<path d="M73.5592 118.482C90.5823 120.186 141.441 93.822 141.441 93.822C126.014 83.0053 77.1616 84.5125 77.1616 84.5125C74.6985 85.3397 72.0972 117.877 73.5592 118.482Z" fill="#002869"/>
<path d="M84.5426 118.218C67.5195 119.923 18.0586 93.4662 18.0586 93.4662C27.8309 80.2041 76.3919 86.8848 76.3919 86.8848C78.8541 87.712 86.0047 117.613 84.5426 118.218Z" fill="#002869"/>
<path d="M104.469 97.723C104.469 97.723 103.215 82.5972 101.721 75.5176C91.0256 76.7588 68.4727 76.9982 57.9467 75.8164C57.9467 75.8164 55.4642 90.6016 54.2318 96.847C53.0455 102.838 98.9618 108.987 104.469 97.723Z" fill="#002869"/>
<path d="M82.0113 120.156C85.6775 120.688 105.226 120.437 100.542 117.058C99.0522 115.984 97.9448 115.117 93.6819 113.677C91.8422 113.056 80.3737 109.733 79.7868 110.27C79.6277 110.416 79.4389 110.525 79.2333 110.591C79.0277 110.656 78.8102 110.677 78.5961 110.65L72.5999 109.64L70.5952 118.536L82.0113 120.156Z" fill="#FDB88E"/>
<path d="M101.255 120.46C104.959 120.338 106.711 117.256 102.497 114.254C99.2996 111.976 92.7288 111.887 90.8448 110.952C82.9255 107.017 79.1609 110.615 79.1609 110.615C79.1609 110.615 85.1988 115.535 81.9298 120.113C81.9298 120.113 95.6724 120.645 101.255 120.46Z" fill="#ED715D"/>
<path d="M85.9009 120.352C85.8773 120.352 85.8537 120.349 85.8309 120.343C85.7662 120.325 85.7113 120.282 85.6781 120.224C85.6449 120.165 85.6361 120.096 85.6535 120.031L86.5801 116.55C86.5999 116.488 86.6431 116.435 86.7006 116.404C86.7582 116.372 86.8257 116.364 86.8891 116.381C86.9526 116.398 87.0071 116.438 87.0413 116.494C87.0755 116.55 87.0869 116.617 87.073 116.681L86.1465 120.162C86.132 120.216 86.1001 120.264 86.0557 120.299C86.0113 120.333 85.957 120.352 85.9009 120.352Z" fill="#E8E2E4"/>
<path d="M88.5182 120.444C88.4958 120.444 88.4735 120.441 88.4517 120.436C88.3861 120.419 88.3298 120.377 88.295 120.319C88.2603 120.261 88.25 120.192 88.2664 120.126L89.0457 117.046C89.0644 116.982 89.1069 116.929 89.1642 116.896C89.2215 116.864 89.2892 116.854 89.3532 116.871C89.4171 116.887 89.4723 116.927 89.5072 116.983C89.5422 117.039 89.5541 117.106 89.5405 117.171L88.7611 120.251C88.7476 120.305 88.7165 120.354 88.6726 120.389C88.6286 120.424 88.5744 120.443 88.5182 120.444Z" fill="#E8E2E4"/>
<path d="M73.3216 119.698C73.3216 119.698 13.0589 123.967 16.5629 97.3547C19.1491 77.717 64.1096 100.581 76.7909 109.22C78.2733 110.23 74.9228 120.077 73.3216 119.698Z" fill="#016099"/>
<path d="M76.3396 122.912C72.6406 123.123 53.1891 121.17 58.1497 118.213C59.727 117.272 60.9071 116.504 65.2782 115.44C67.1649 114.982 78.8798 112.671 79.418 113.257C79.564 113.416 79.7426 113.541 79.9415 113.624C80.1405 113.708 80.355 113.747 80.5706 113.739L86.6315 113.255L87.855 122.292L76.3396 122.912Z" fill="#FDB88E"/>
<path d="M56.2276 123.01C52.5499 122.566 52.0746 118.688 56.5334 116.066C59.9168 114.075 66.5265 114.036 68.3414 112.974C76.3547 108.283 80.0102 113.656 80.0102 113.656C80.0102 113.656 73.5663 118.031 76.4247 122.877C76.4247 122.876 61.7743 123.68 56.2276 123.01Z" fill="#ED715D"/>
<path d="M72.4483 122.768C72.4715 122.772 72.4951 122.772 72.5183 122.768C72.5514 122.762 72.5829 122.75 72.6113 122.732C72.6396 122.714 72.6641 122.691 72.6834 122.664C72.7027 122.636 72.7164 122.605 72.7236 122.572C72.7309 122.54 72.7316 122.506 72.7258 122.473L72.1051 118.926C72.0917 118.861 72.0534 118.804 71.9984 118.767C71.9435 118.729 71.8761 118.715 71.8107 118.727C71.7453 118.738 71.687 118.775 71.6481 118.828C71.6092 118.882 71.5928 118.949 71.6024 119.015L72.2231 122.561C72.2333 122.616 72.2607 122.665 72.3013 122.702C72.3419 122.739 72.3935 122.762 72.4483 122.768Z" fill="#E8E2E4"/>
<path d="M69.8363 122.631C69.8584 122.633 69.8807 122.633 69.9028 122.631C69.9696 122.62 70.0294 122.583 70.0691 122.528C70.1088 122.473 70.1252 122.405 70.1147 122.338L69.6066 119.201C69.5958 119.134 69.5589 119.074 69.5039 119.035C69.449 118.995 69.3805 118.979 69.3136 118.99C69.2467 119 69.1869 119.037 69.1472 119.092C69.1075 119.147 69.0913 119.216 69.1022 119.283L69.6102 122.419C69.6196 122.474 69.6467 122.524 69.6876 122.563C69.7284 122.601 69.7806 122.625 69.8363 122.631Z" fill="#E8E2E4"/>
<path d="M84.4814 123.346C106.686 123.967 149.155 120.332 144.633 99.3188C139.662 76.2188 84.3573 111.554 84.3573 111.554C82.8101 112.465 82.8359 123.3 84.4814 123.346Z" fill="#016099"/>
<path d="M103.228 85.222C105.711 83.5374 100.496 61.7266 98.6558 44.0962C96.7824 26.151 62.1076 32.1419 60.4088 42.3779C58.6586 52.9287 53.4887 83.6261 56.3304 85.3107C61.5454 88.4067 69.1863 90.6747 79.5598 90.5745C89.6451 90.4779 99.1913 87.9643 103.228 85.222Z" fill="#ED715D"/>
<path d="M1.18087 78.8318C0.771251 78.2759 -0.101182 75.9946 0.00964528 74.9945C0.194949 73.3188 1.74919 70.8043 2.50016 71.182C3.60311 71.7353 2.26875 72.8046 2.76614 74.5689C3.07291 75.6515 4.63602 74.9511 5.95797 75.8333C6.40572 76.1329 6.85168 74.4643 5.99255 73.7603C5.05894 72.9952 2.0471 71.9782 2.84594 70.9232C3.38589 70.2085 5.25666 71.8647 8.04951 72.0332C10.0284 72.1529 11.6182 74.0636 12.6644 74.4271C14.7727 75.1603 22.3179 73.661 29.2441 72.9012C30.6016 72.7522 50.4485 72.5643 40.3544 81.2283C37.198 83.9378 16.8306 80.9677 12.4533 80.887C11.2706 80.887 7.91031 80.7983 6.35607 80.6769C4.14484 80.496 1.57009 79.3558 1.18087 78.8318Z" fill="#FDB88E"/>
<path d="M8.98842 77.0675C8.05481 77.2644 6.93855 77.189 6.12907 76.2935C6.10225 76.2661 6.08125 76.2335 6.06731 76.1977C6.05338 76.1619 6.04681 76.1237 6.04799 76.0853C6.04917 76.0469 6.05807 76.0092 6.07417 75.9744C6.09027 75.9395 6.11324 75.9083 6.1417 75.8825C6.17015 75.8567 6.20352 75.8369 6.23979 75.8244C6.27606 75.8118 6.3145 75.8066 6.3528 75.8093C6.39111 75.8119 6.42849 75.8222 6.46271 75.8396C6.49694 75.857 6.5273 75.8811 6.55199 75.9105C7.82517 77.3185 9.92912 76.1286 10.0178 76.0772C10.0502 76.0575 10.0863 76.0445 10.1238 76.0389C10.1614 76.0334 10.1997 76.0353 10.2365 76.0447C10.2732 76.0541 10.3078 76.0707 10.338 76.0937C10.3683 76.1166 10.3937 76.1453 10.4128 76.1781C10.4318 76.2109 10.4441 76.2473 10.449 76.2849C10.4538 76.3226 10.4511 76.3608 10.441 76.3974C10.4309 76.434 10.4135 76.4682 10.3901 76.498C10.3666 76.5278 10.3374 76.5526 10.3042 76.571C9.89346 76.8027 9.44975 76.9701 8.98842 77.0675Z" fill="#ED715D"/>
<path d="M3.11904 77.3243C3.06135 77.3368 3.00121 77.3309 2.94703 77.3075C1.09932 76.5095 1.31211 74.1502 1.68272 73.0118C1.70743 72.9413 1.75875 72.8834 1.82568 72.8503C1.89262 72.8173 1.96983 72.8117 2.04079 72.8349C2.11175 72.8581 2.17081 72.9082 2.2053 72.9744C2.23979 73.0406 2.24698 73.1177 2.22533 73.1891C2.21646 73.2175 1.33871 75.9962 3.17312 76.7835C3.22887 76.8074 3.27554 76.8485 3.30636 76.9008C3.33718 76.953 3.35055 77.0138 3.34452 77.0741C3.33849 77.1345 3.31338 77.1914 3.27284 77.2365C3.23229 77.2817 3.17842 77.3127 3.11904 77.3252V77.3243Z" fill="#ED715D"/>
<path d="M77.2785 31.9976C44.8885 32.6448 46.7584 53.7978 38.2903 61.9564C29.8869 70.0566 13.5607 73.3238 13.5607 73.3238C12.6085 73.5082 11.9648 82.1102 13.0287 82.6546C13.0287 82.6546 35.5559 87.8856 48.4332 85.3144C51.9797 84.6051 55.0057 83.0819 56.3365 80.8068C60.3618 73.9249 58.9964 66.9756 60.7244 58.1714C64.7452 37.718 74.5752 33.5456 77.2785 31.9976Z" fill="#ED715D"/>
<path d="M47.9111 85.8594C47.9241 85.8607 47.9371 85.8607 47.9501 85.8594C48.9759 85.6767 52.1004 85.1182 54.7256 82.9256C57.7836 80.3703 59.2252 76.4586 59.0107 71.2967C58.7535 65.1284 60.0746 59.6234 60.0923 59.5685C60.0992 59.5402 60.1004 59.5108 60.096 59.482C60.0915 59.4533 60.0814 59.4257 60.0662 59.4008C60.0511 59.3759 60.0312 59.3543 60.0077 59.3371C59.9842 59.3199 59.9575 59.3076 59.9292 59.3007C59.9009 59.2938 59.8715 59.2926 59.8428 59.2971C59.814 59.3016 59.7864 59.3117 59.7615 59.3268C59.7367 59.342 59.715 59.3619 59.6979 59.3854C59.6807 59.4089 59.6683 59.4355 59.6615 59.4638C59.6482 59.5188 58.3076 65.085 58.5674 71.3153C58.8981 79.2363 55.1982 84.1145 47.8721 85.4232C47.8133 85.4283 47.759 85.4566 47.7211 85.5019C47.6831 85.5471 47.6648 85.6055 47.6699 85.6643C47.6751 85.7231 47.7034 85.7774 47.7486 85.8153C47.7939 85.8533 47.8523 85.8716 47.9111 85.8665V85.8594Z" fill="#002869"/>
<path d="M158.82 79.2752C159.229 78.7192 160.101 76.438 159.99 75.4379C159.805 73.7622 158.251 71.2477 157.5 71.6254C156.397 72.1787 157.731 73.2479 157.234 75.0123C156.927 76.0949 155.364 75.3944 154.042 76.2766C153.594 76.5763 153.148 74.9077 154.007 74.2037C154.941 73.4385 157.953 72.4216 157.154 71.3665C156.614 70.6519 154.743 72.3081 151.95 72.4766C149.972 72.5962 148.382 74.5069 147.34 74.8704C145.232 75.6037 137.687 74.1044 130.76 73.3446C129.403 73.1956 109.556 73.0076 119.65 81.6717C122.806 84.3812 143.174 81.411 147.551 81.3303C148.734 81.3303 152.094 81.2417 153.648 81.1202C155.856 80.9393 158.431 79.7991 158.82 79.2752Z" fill="#FDB88E"/>
<path d="M151.01 77.5109C151.943 77.7077 153.06 77.6324 153.869 76.7369C153.896 76.7094 153.917 76.6768 153.931 76.6411C153.945 76.6053 153.951 76.5671 153.95 76.5287C153.949 76.4903 153.94 76.4526 153.924 76.4177C153.908 76.3829 153.885 76.3516 153.856 76.3258C153.828 76.3001 153.795 76.2803 153.758 76.2677C153.722 76.2551 153.684 76.25 153.645 76.2526C153.607 76.2552 153.57 76.2656 153.535 76.283C153.501 76.3004 153.471 76.3245 153.446 76.3539C152.173 77.7618 150.069 76.572 149.98 76.5206C149.915 76.4843 149.838 76.4752 149.766 76.4951C149.694 76.515 149.633 76.5624 149.595 76.6271C149.558 76.6917 149.547 76.7685 149.565 76.8409C149.584 76.9134 149.63 76.9756 149.694 77.0144C150.105 77.246 150.548 77.4135 151.01 77.5109Z" fill="#ED715D"/>
<path d="M156.881 77.7677C156.939 77.7801 156.999 77.7743 157.053 77.7508C158.901 76.9529 158.688 74.5936 158.317 73.4552C158.293 73.3847 158.241 73.3267 158.174 73.2937C158.107 73.2606 158.03 73.2551 157.959 73.2783C157.888 73.3015 157.829 73.3515 157.795 73.4177C157.76 73.484 157.753 73.561 157.775 73.6325C157.784 73.6608 158.661 76.4395 156.827 77.2268C156.771 77.2508 156.724 77.2919 156.694 77.3441C156.663 77.3964 156.649 77.4571 156.655 77.5175C156.661 77.5779 156.687 77.6348 156.727 77.6799C156.768 77.725 156.822 77.7561 156.881 77.7686V77.7677Z" fill="#ED715D"/>
<path d="M82.7214 32.4409C115.111 33.0882 113.246 54.2411 121.71 62.3998C130.113 70.4999 146.439 73.7671 146.439 73.7671C147.391 73.9515 148.035 82.5535 146.971 83.0979C146.971 83.0979 124.362 88.4886 111.564 85.7578C108.006 84.997 104.957 83.5412 103.663 81.2502C99.7427 74.308 101.004 67.4189 99.2755 58.6148C95.2565 38.1614 85.4247 33.989 82.7214 32.4409Z" fill="#ED715D"/>
<path d="M112.088 86.3032C112.075 86.3045 112.061 86.3045 112.048 86.3032C111.022 86.1206 107.899 85.562 105.273 83.3694C102.215 80.8142 100.773 76.9024 100.988 71.7405C101.245 65.5723 99.9192 60.0673 99.9059 60.0123C99.892 59.9552 99.9014 59.8949 99.932 59.8446C99.9626 59.7944 100.012 59.7584 100.069 59.7445C100.126 59.7307 100.187 59.7401 100.237 59.7707C100.287 59.8013 100.323 59.8505 100.337 59.9077C100.35 59.9627 101.691 65.5288 101.431 71.7591C101.101 79.6802 104.8 84.5584 112.126 85.867C112.185 85.8721 112.239 85.9003 112.277 85.9454C112.315 85.9906 112.334 86.0489 112.329 86.1077C112.324 86.1665 112.296 86.2209 112.25 86.2589C112.205 86.2969 112.147 86.3154 112.088 86.3103V86.3032Z" fill="#002869"/>
<path d="M71.5917 20.5078L71.495 32.4275C71.4179 37.0654 86.7449 37.1266 86.5232 33.0881L85.8804 25.8976L71.5917 20.5078Z" fill="#FDB88E"/>
<path d="M69.588 5.166C71.9455 -0.517226 80.9987 1.87753 80.9987 1.87753C90.9289 -2.39066 95.8283 5.50114 96.4534 7.70794C96.9996 9.63811 97.3861 14.2352 90.7622 15.9828C88.1023 16.6832 88.8648 16.5883 85.6562 17.0237C84.1489 17.2285 74.9839 21.7591 73.0945 23.2513C73.9696 25.9031 73.9093 30.9462 72.8747 31.3541C70.4861 32.4269 69.8149 24.0838 69.8149 24.0838C65.4581 18.6134 63.0722 7.4588 69.588 5.166Z" fill="#002869"/>
<path d="M90.7657 18.835C90.8544 19.3333 91.4076 22.3513 91.2037 23.6059C91.1168 24.1307 91.0016 24.6504 90.8588 25.1628C90.3269 27.1409 88.3187 31.1767 84.5745 31.6245C80.6397 32.0873 76.0071 29.3618 74.1212 23.8169C71.4055 24.6149 69.5161 20.9008 70.2201 18.8164C70.5402 17.8695 71.644 16.9412 72.9784 17.5751C72.3852 15.746 71.5598 15.5793 71.6006 14.7823C72.2584 2.19936 86.7848 7.76467 88.7824 8.96959C91.4342 12.0577 90.6017 17.9572 90.7657 18.835Z" fill="#FDB88E"/>
<path d="M80.5688 22.1085C80.6101 22.58 80.5106 23.0532 80.283 23.4682C80.0555 23.8832 79.71 24.2215 79.2902 24.4402C78.8705 24.6589 78.3953 24.7483 77.9248 24.697C77.4542 24.6457 77.0095 24.4561 76.6467 24.1522C76.2838 23.8482 76.0193 23.4435 75.8864 22.9892C75.7535 22.5349 75.7583 22.0515 75.9002 21.5999C76.042 21.1483 76.3145 20.7489 76.6832 20.4522C77.052 20.1555 77.5004 19.9747 77.9719 19.9328C78.2853 19.9049 78.6012 19.9391 78.9014 20.0333C79.2016 20.1276 79.4802 20.2802 79.7214 20.4823C79.9626 20.6843 80.1616 20.932 80.307 21.211C80.4524 21.4901 80.5414 21.7951 80.5688 22.1085Z" fill="#ED715D"/>
<path d="M90.7657 18.8345C90.8544 19.3328 90.9714 19.7867 91.0264 20.0704C91.2835 21.4101 91.4076 22.3508 91.2037 23.6054C90.5711 23.6635 89.9412 23.4678 89.4528 23.0615C88.9644 22.6553 88.6574 22.0716 88.5993 21.4389C88.5412 20.8063 88.7368 20.1764 89.1431 19.688C89.5494 19.1996 90.1331 18.8926 90.7657 18.8345Z" fill="#ED715D"/>
<path d="M85.0657 12.0956C90.3588 10.1664 90.4067 13.7802 93.6047 12.3067C96.2211 11.1 90.6416 4.58421 87.3443 6.47005C83.5637 8.63163 74.2853 -2.44846 69.7218 13.7536C69.1535 15.7689 71.1511 16.5128 72.9553 17.5661C73.7622 18.0387 74.0361 18.9102 74.1301 20.0726C74.1349 20.1416 74.1631 20.207 74.21 20.2579C74.2569 20.3088 74.3197 20.3422 74.3881 20.3527C74.8226 20.4112 75.5602 20.3439 75.546 18.3694C75.5274 15.6084 74.5787 10.7019 77.5498 10.8269C80.1352 10.9333 81.1929 13.5063 85.0657 12.0956Z" fill="#002869"/>
<path d="M80.8223 19.0777C79.3079 19.4394 77.8965 18.7284 77.8246 18.6911C77.7734 18.6617 77.7355 18.6137 77.7187 18.557C77.702 18.5003 77.7078 18.4394 77.7349 18.3868C77.7619 18.3343 77.8082 18.2942 77.8641 18.2749C77.9199 18.2557 77.9811 18.2586 78.0348 18.2833C78.0543 18.2939 80.0438 19.2914 81.6699 18.2177C81.7206 18.1842 81.7825 18.1722 81.842 18.1843C81.9015 18.1964 81.9538 18.2317 81.9873 18.2824C82.0208 18.3331 82.0328 18.395 82.0207 18.4545C82.0086 18.514 81.9733 18.5663 81.9226 18.5998C81.5866 18.8223 81.2142 18.9841 80.8223 19.0777Z" fill="#002869"/>
<path d="M88.3568 18.4164C87.7416 18.5646 87.0965 18.5307 86.5002 18.3189C86.4439 18.2954 86.3992 18.2504 86.376 18.194C86.3528 18.1375 86.353 18.0742 86.3765 18.0179C86.4 17.9615 86.445 17.9169 86.5014 17.8937C86.5579 17.8705 86.6212 17.8707 86.6775 17.8942C86.744 17.9208 88.3222 18.5299 89.7115 17.1175C89.7326 17.096 89.7577 17.0789 89.7854 17.0671C89.8131 17.0553 89.8428 17.0491 89.8729 17.0488C89.903 17.0486 89.9329 17.0542 89.9608 17.0654C89.9887 17.0767 90.0141 17.0933 90.0356 17.1144C90.0571 17.1355 90.0742 17.1606 90.086 17.1883C90.0978 17.216 90.104 17.2457 90.1043 17.2758C90.1046 17.3059 90.0989 17.3357 90.0877 17.3636C90.0764 17.3916 90.0598 17.417 90.0387 17.4385C89.583 17.9184 88.9993 18.2577 88.3568 18.4164Z" fill="#002869"/>
<path d="M85.1641 23.3168C84.7943 23.4054 84.3164 23.3921 83.7198 23.2139C83.661 23.1965 83.6115 23.1565 83.5822 23.1026C83.553 23.0487 83.5463 22.9854 83.5637 22.9266C83.5811 22.8679 83.6211 22.8184 83.675 22.7891C83.7289 22.7599 83.7922 22.7532 83.851 22.7706C84.8972 23.0854 85.5205 22.8007 85.673 22.3823C85.8166 21.993 85.5205 21.673 85.0869 21.2545L84.9282 21.0993C84.1595 20.3315 83.9219 19.0424 83.9122 18.9874C83.9053 18.9293 83.9209 18.8707 83.9558 18.8237C83.9907 18.7767 84.0422 18.7448 84.0998 18.7345C84.1574 18.7242 84.2168 18.7363 84.2658 18.7683C84.3148 18.8003 84.3497 18.8498 84.3634 18.9067C84.3634 18.9191 84.5869 20.1099 85.2501 20.7757L85.4026 20.9238C85.806 21.3095 86.3583 21.8388 86.1021 22.5401C85.9815 22.8779 85.681 23.1935 85.1641 23.3168Z" fill="#ED715D"/>
<path d="M86.0676 24.8774C86.0339 24.8732 85.9996 24.8766 85.9674 24.8873C85.9352 24.8981 85.9058 24.9159 85.8814 24.9394C84.5851 26.1807 82.5317 24.8889 82.5122 24.8756C82.4611 24.8428 82.399 24.8317 82.3396 24.8446C82.2803 24.8576 82.2285 24.8936 82.1957 24.9448C82.1629 24.9959 82.1517 25.058 82.1647 25.1174C82.1777 25.1767 82.2137 25.2285 82.2648 25.2613C82.3606 25.3234 84.6454 26.7588 86.1979 25.2702C86.2293 25.2402 86.2516 25.202 86.2621 25.1599C86.2726 25.1178 86.2709 25.0736 86.2573 25.0324C86.2436 24.9913 86.2185 24.9548 86.1849 24.9274C86.1513 24.8999 86.1106 24.8826 86.0676 24.8774Z" fill="#ED715D"/>
<path d="M83.7775 31.9622C84.3872 31.891 84.992 31.7832 85.5888 31.6395C85.642 31.6268 85.6879 31.5935 85.7165 31.5469C85.7451 31.5004 85.754 31.4444 85.7413 31.3912C85.7286 31.3381 85.6953 31.2922 85.6488 31.2636C85.6022 31.235 85.5462 31.226 85.4931 31.2387C80.2496 32.48 76.6171 30.7192 74.7011 25.9926C74.6784 25.9451 74.6385 25.908 74.5894 25.889C74.5403 25.8699 74.4858 25.8704 74.437 25.8902C74.3882 25.91 74.3488 25.9477 74.3269 25.9956C74.3049 26.0434 74.3021 26.0979 74.319 26.1478C76.094 30.5268 79.2717 32.4773 83.7775 31.9622Z" fill="#ED715D"/>
</svg>
