<svg width="127" height="25" viewBox="0 0 127 25" fill="none" xmlns="http://www.w3.org/2000/svg">
<path d="M39.1493 0.876505H33.9759C33.3825 0.876505 33.0673 1.19173 33.0673 1.78509V12.4471C33.0673 12.9292 33.4567 13.3186 33.9388 13.3186C34.4209 13.3186 34.8103 12.9292 34.8103 12.4471V2.37845H39.1493C39.5572 2.37845 39.9095 2.04468 39.9095 1.61821C39.9095 1.21027 39.5572 0.876505 39.1493 0.876505Z" fill="#040202"/>
<path d="M49.2408 11.7239H43.882V7.77433H48.0726C48.4805 7.77433 48.8143 7.44057 48.8143 7.03263C48.8143 6.62469 48.4805 6.29093 48.0726 6.29093H43.882V2.37845H49.0739C49.4818 2.37845 49.8341 2.04468 49.8341 1.61821C49.8341 1.21027 49.4818 0.876505 49.0739 0.876505H43.0476C42.4542 0.876505 42.139 1.19173 42.139 1.78509V12.3173C42.139 12.9106 42.4542 13.2258 43.0476 13.2258H49.2408C49.6487 13.2258 50.001 12.8921 50.001 12.4841C50.001 12.0577 49.6487 11.7239 49.2408 11.7239Z" fill="#040202"/>
<path d="M63.9569 1.65529V11.7239H59.9517V1.65529C59.9517 1.17318 59.5623 0.783792 59.0802 0.783792C58.5981 0.783792 58.2087 1.17318 58.2087 1.65529V11.7239H54.222V1.65529C54.222 1.17318 53.8327 0.783792 53.3505 0.783792C52.8684 0.783792 52.479 1.17318 52.479 1.65529V12.3173C52.479 12.9106 52.7943 13.2258 53.3876 13.2258H64.7913C65.3847 13.2258 65.6999 12.9106 65.6999 12.3173V1.65529C65.6999 1.17318 65.3105 0.783792 64.8284 0.783792C64.3463 0.783792 63.9569 1.17318 63.9569 1.65529Z" fill="#040202"/>
<path d="M76.1293 0.876505H68.6382C68.2302 0.876505 67.8779 1.21027 67.8779 1.63675C67.8779 2.04468 68.2302 2.37845 68.6382 2.37845H71.5122V12.4471C71.5122 12.9292 71.9016 13.3186 72.3837 13.3186C72.8658 13.3186 73.2552 12.9292 73.2552 12.4471V2.37845H76.1293C76.5373 2.37845 76.8896 2.04468 76.8896 1.61821C76.8896 1.21027 76.5373 0.876505 76.1293 0.876505Z" fill="#040202"/>
<path d="M86.9872 12.1689L83.6495 1.91489C83.4455 1.2659 82.8336 0.783792 82.1105 0.783792C81.3873 0.783792 80.7754 1.2659 80.5714 1.91489L77.1967 12.2431C77.1782 12.3173 77.1596 12.41 77.1596 12.5027C77.1596 12.9477 77.5305 13.3186 77.9755 13.3186C78.3463 13.3186 78.6616 13.0775 78.7543 12.7437L79.737 9.5915H84.3541L85.3183 12.7066C85.4296 13.059 85.7634 13.3186 86.1527 13.3186C86.6348 13.3186 87.0242 12.9292 87.0242 12.4471C87.0242 12.3543 87.0057 12.2616 86.9872 12.1689ZM80.182 8.18227L81.9436 2.48971C81.9807 2.35991 82.0178 2.23011 82.0548 2.1374C82.0734 2.23011 82.1105 2.35991 82.1476 2.48971L83.9091 8.18227H80.182Z" fill="#040202"/>
<path d="M98.5551 12.0947L95.2916 1.72946C95.0876 1.06193 94.4757 0.598366 93.7526 0.598366C93.0109 0.598366 92.399 1.06193 92.195 1.72946L88.9315 12.1318C88.913 12.2245 88.8759 12.2987 88.8759 12.3914C88.8759 12.9106 89.3024 13.3186 89.803 13.3186C90.211 13.3186 90.5633 13.0404 90.6745 12.651L92.8811 5.234L93.5857 2.76784C93.6599 2.52679 93.6969 2.34137 93.734 2.17448C93.7711 2.34137 93.8082 2.52679 93.8824 2.76784L94.587 5.25254L96.775 12.651C96.8863 13.0219 97.2386 13.3186 97.6651 13.3186C98.1842 13.3186 98.5922 12.8921 98.5922 12.3729C98.5922 12.2802 98.5736 12.1689 98.5551 12.0947Z" fill="#040202"/>
<path d="M105.805 5.58631H102.987V1.78509C102.987 1.19173 102.672 0.876505 102.115 0.876505C101.559 0.876505 101.244 1.19173 101.244 1.78509V12.3173C101.244 12.9106 101.559 13.2258 102.152 13.2258H105.824C108.735 13.2258 110.051 11.5199 110.051 9.51733C110.051 7.44057 108.772 5.58631 105.805 5.58631ZM105.75 11.8166H102.987V6.99554L105.657 7.01409C107.289 7.01409 108.197 7.73725 108.197 9.51733C108.197 11.1862 107.122 11.8166 105.75 11.8166Z" fill="#040202"/>
<path d="M118.291 11.691C118.024 11.7727 117.778 11.8136 117.531 11.8136C116.833 11.8136 116.442 11.4048 116.442 10.4238V4.21038H118.229C118.599 4.21038 118.928 3.9038 118.928 3.51546C118.928 3.14757 118.599 2.84099 118.229 2.84099H116.442V0.919744C116.442 0.429214 116.032 0 115.518 0C115.005 0 114.594 0.429214 114.594 0.919744V2.84099L114.594 2.82447C114.224 2.82447 113.895 3.13106 113.895 3.51939C113.895 3.88729 114.224 4.19387 114.594 4.19387L114.594 4.21038V10.5464C114.594 12.6516 115.785 13.2239 117.387 13.2239C117.819 13.2239 118.209 13.183 118.62 13.0808C118.948 12.999 119.195 12.7333 119.195 12.3859C119.195 11.9158 118.722 11.5683 118.291 11.691Z" fill="#B66357"/>
<path d="M125.389 11.691C125.122 11.7727 124.875 11.8136 124.629 11.8136C123.93 11.8136 123.54 11.4048 123.54 10.4238V4.21038H125.327C125.697 4.21038 126.025 3.9038 126.025 3.51546C126.025 3.14757 125.697 2.84099 125.327 2.84099H123.54V0.919744C123.54 0.429214 123.129 0 122.616 0C122.102 0 121.691 0.429214 121.691 0.919744V2.84099L121.691 2.82447C121.322 2.82447 120.993 3.13106 120.993 3.51939C120.993 3.88729 121.322 4.19387 121.691 4.19387L121.691 4.21038V10.5464C121.691 12.6516 122.883 13.2239 124.485 13.2239C124.916 13.2239 125.307 13.183 125.717 13.0808C126.046 12.999 126.292 12.7333 126.292 12.3859C126.292 11.9158 125.82 11.5683 125.389 11.691Z" fill="#040202"/>
<path d="M35.4985 18.0776H35.1173L34.8804 18.0879L34.664 18.1188L34.4683 18.1909L34.2829 18.2321L34.1078 18.3558L33.9326 18.4691L33.7987 18.6133L33.6236 18.7266L33.5 18.9326L33.4073 19.1078L33.3146 19.2932L33.2424 19.458L33.16 19.6537L33.1291 19.8701L33.0879 20.2615L33.0776 20.4985L33.0673 20.8899V21.1268L33.0879 21.3432L33.1497 21.5286L33.1806 21.7346L33.2527 21.9097L33.3455 22.1055L33.4382 22.3115L33.5412 22.5072L33.7987 22.7751L33.9326 22.9296L34.1181 23.0532L34.2726 23.1459L34.4889 23.2283L34.664 23.3004L34.901 23.321H35.1173L35.5191 23.3313L35.7354 23.321L35.9311 23.2592L36.1165 23.2077L36.3329 23.1562L36.4874 23.0223L36.6625 22.9502L36.8376 22.8163L36.951 22.6617L37.1158 22.5072L37.1776 22.3321L37.2703 22.1261L37.3836 21.951L37.4145 21.7449L37.4969 21.508L37.5175 21.3226L37.569 21.1268L37.5484 20.9002L37.5381 20.4778L37.5484 20.3027L37.5072 20.0967L37.4763 19.8495L37.4145 19.6743L37.363 19.4683L37.2703 19.2829L37.2085 19.1078L37.0849 18.9017L36.9922 18.7575L36.6831 18.4588L36.4874 18.3764L36.3329 18.263L36.1371 18.16L35.9105 18.1394L35.7457 18.057L35.4985 18.0776ZM35.6839 22.6102H35.1276L34.8907 22.5999L34.7258 22.5175L34.5816 22.3939L34.4168 22.2291L34.3241 22.1055L34.2417 21.8788L34.149 21.6831L34.0769 21.508L34.0357 21.302L34.0563 21.1268L34.046 20.8899L34.0151 20.4985V20.2924L34.046 20.0658L34.1078 19.8598L34.149 19.6743L34.2108 19.4683L34.3138 19.3138L34.4477 19.1593L34.5713 18.9944L34.7465 18.8708L35.1173 18.7678L35.5191 18.7884H35.6839L35.8693 18.9017L36.0753 19.0047L36.199 19.1696L36.2917 19.3035L36.405 19.4889L36.4462 19.7155L36.5389 19.8804L36.5492 20.0761L36.5801 20.2924L36.611 20.5191L36.6007 20.9002V21.0959L36.5389 21.302L36.508 21.5286L36.4462 21.714L36.3844 21.9097L36.2814 22.1158L36.2093 22.2806L36.0341 22.4042L35.9002 22.4969L35.6839 22.6102Z" fill="#040202"/>
<path d="M41.851 18.3661L41.8201 18.7369V18.9326L41.851 19.1593L41.8201 19.3344L41.8407 19.5301L41.851 19.7361L41.8407 19.9525V20.1688L41.6141 20.3439L41.0269 20.3748L40.8209 20.3439H40.4088L40.244 20.3748L40.038 20.3645H39.8011L39.6156 20.1791V19.9628L39.6259 19.7258L39.6465 19.561L39.6362 19.3344L39.6259 19.1181V18.9532L39.6362 18.7575L39.5847 18.3764L39.4611 18.1909L39.3169 18.1188L38.977 18.1291L38.8327 18.2012L38.7091 18.3558L38.6782 18.7575V18.9532L38.6988 19.1284V19.3653L38.6782 19.5507L38.7194 19.7464V19.9731L38.7091 20.1894V20.5809L38.6782 20.7869L38.6988 21.0238L38.6885 21.2195L38.6782 21.4359L38.7194 21.6419L38.6988 21.8376V22.054L38.7194 22.4454L38.6782 22.6308L38.74 23.0223L38.843 23.1871L38.9873 23.2798L39.3169 23.2901L39.492 23.1768L39.5641 23.0326L39.6362 22.6514V22.4557L39.6053 22.2703V21.8685L39.6362 21.6728L39.6465 21.4874L39.6362 21.3226L39.8011 21.1268H40.0277L40.244 21.1062L40.4295 21.0959L40.6149 21.1062L40.8312 21.0856H41.0269L41.2124 21.1268L41.439 21.0959L41.6141 21.1268L41.8613 21.302L41.8304 21.508L41.851 21.7037V21.9097L41.8613 22.0952L41.8201 22.3012L41.8304 22.4763L41.8201 22.672L41.851 23.0635L41.9747 23.1768L42.1395 23.2695L42.5 23.2901L42.634 23.1665L42.7267 23.0326L42.7473 22.6308V22.4248L42.7576 22.2188L42.7679 22.0334L42.7473 21.8479L42.7679 21.6419L42.7576 21.4153L42.7679 21.1886V20.9826L42.7885 20.7766L42.7576 20.6015L42.7679 20.3954L42.7576 20.1688L42.7782 19.9834L42.7473 19.7671L42.7679 19.5816V19.3344L42.7576 19.1696L42.7782 18.9326L42.7679 18.7163L42.7164 18.3352L42.6134 18.2115L42.5 18.0982L42.1395 18.1188L41.9953 18.2012L41.851 18.3661Z" fill="#040202"/>
<path d="M47.8677 22.4454L47.8162 22.2291L47.775 22.0231L47.7132 21.8582L47.6205 21.6316L47.5587 21.4771L47.5175 21.2505L47.4454 21.065L47.3629 20.859L47.332 20.653L47.2496 20.4572L47.1775 20.2821L47.1157 20.107L47.0642 19.8701L46.9715 19.6846L46.9097 19.5198L46.8685 19.2932L46.7861 19.1078L46.714 18.9017L46.6625 18.706L46.4976 18.3352L46.374 18.16L46.1886 18.1085L45.9311 18.0467L45.6735 18.1085L45.5087 18.2012L45.3748 18.3455L45.1997 18.7266L45.1584 18.9017L45.0657 19.1078L45.0142 19.2623L44.9524 19.4683L44.87 19.664L44.8082 19.8804L44.7567 20.0658L44.7155 20.2512L44.664 20.4263L44.5713 20.6118L44.5095 20.8075L44.4683 20.9929L44.3858 21.2195L44.324 21.3947L44.2622 21.611L44.2313 21.7552L44.1386 21.9716L44.0871 22.157L44.0047 22.3424L43.9635 22.569L43.9017 22.9193L43.9532 23.1356L44.0768 23.2798L44.5301 23.2592L44.7361 23.1253L44.8391 22.7133L44.9318 22.4969L44.9833 22.3012L45.0554 22.0746L45.1172 21.8994L45.1481 21.6831L45.1997 21.4668L45.2821 21.2711L45.3851 20.859L45.4366 20.6736L45.5087 20.4985L45.5499 20.2718L45.622 20.0555L45.6838 19.8598L45.7559 19.664L45.8692 19.2726L45.9001 19.0357L45.9311 18.9532L45.9517 19.0357L46.0238 19.252L46.1371 19.6743L46.168 19.8495L46.2401 20.0761L46.2916 20.2512L46.3328 20.4572L46.4255 20.653L46.4461 20.8384L46.5079 21.0444L46.58 21.2299L46.6315 21.4256L46.6728 21.6316L46.7758 21.817L46.7964 22.0231L46.9406 22.4145L46.9818 22.5896L47.1157 22.9914L47.1981 23.1562L47.3835 23.2901L47.7338 23.3004L47.9295 23.1768L47.9604 22.9914L47.9707 22.8369L47.8677 22.4454Z" fill="#040202"/>
<path d="M53.0254 22.5999L52.7164 22.4454L52.6031 22.3012L52.5722 21.8788V21.7037L52.5928 21.4771V21.2402L52.5825 21.0753L52.6031 20.8487L52.6134 20.6427L52.5722 20.416V20.1894L52.5928 20.0143L52.6134 19.798L52.5516 19.3447L52.531 19.149L52.4588 18.9635L52.3764 18.7678L52.2734 18.5824L52.1395 18.4485L51.9438 18.3352L51.7687 18.2218L51.5729 18.1806L51.3875 18.1085L51.1506 18.0982L50.9548 18.0467L50.5428 18.0673L50.3677 18.0467L50.141 18.0776L49.935 18.1291L49.7702 18.1394L49.5641 18.2115L49.3787 18.263L48.9873 18.4588L48.9667 18.8605L49.1006 18.9841L49.3684 19.0253L49.6672 18.9326L49.8526 18.912L50.038 18.8193L50.2028 18.7781L50.4192 18.7575H50.8518L51.0373 18.7987L51.3978 18.9429L51.5008 19.0872L51.6141 19.2623L51.6656 19.4889L51.6862 19.8701L51.6759 20.004L51.4596 20.1894L51.3154 20.2203L51.1197 20.1997L50.7076 20.2306H50.5222L50.3162 20.2615L50.0792 20.2718L49.8526 20.3645L49.6775 20.3954L49.2963 20.5912L49.1315 20.7251L48.9873 20.8693L48.9152 21.0444L48.8328 21.2299L48.7709 21.4256L48.7091 21.611L48.7297 22.0231L48.7812 22.2497L48.8431 22.4454L48.9255 22.6411L49.1521 22.9708L49.3169 23.0738L49.5229 23.218L49.6981 23.2695L49.9041 23.321L50.0895 23.3725L50.5119 23.3416L50.7385 23.3004L50.9342 23.2489L51.13 23.218L51.4802 22.9708L51.6141 22.8163L51.7377 22.6927L51.7996 22.8678L52.0983 23.1974L52.3043 23.2798L52.4795 23.3313H52.9224L53.0666 23.1562L53.1387 22.7545L53.0254 22.5999ZM51.645 21.0856V21.7552L51.5626 21.9406L51.4699 22.1261L51.3566 22.3321L51.2124 22.4557L51.0373 22.5175L50.8415 22.6102L50.6561 22.6411L50.2234 22.6205L50.0689 22.5381L49.8732 22.3836L49.7805 22.1879L49.7084 21.9716V21.5492L49.7805 21.3844L49.8835 21.2092L50.0174 21.065L50.1925 20.9723L50.4295 20.9105L50.6252 20.8796L50.8312 20.859L51.233 20.8384H51.4184L51.645 21.0856Z" fill="#040202"/>
<path d="M54.7372 16.7178L54.7268 17.0372L55.0668 17.1917L55.2831 17.2638L55.4995 17.2535L55.6952 17.2844L55.9115 17.3153L56.1484 17.2947L56.3442 17.305L56.5399 17.2844L56.7562 17.2226H56.952L57.3022 17.0578L57.3434 16.7075L57.1683 16.6148L56.8077 16.6354L56.6223 16.6972L56.406 16.7281L56.2103 16.6972L56.0248 16.7178L55.7982 16.7281L55.6231 16.6869L55.4273 16.6663L55.2316 16.6251L54.8402 16.5942L54.7372 16.7178ZM55.4479 23.3519H55.8394L56.0763 23.321L56.4678 23.1974L56.6532 23.0738L56.7974 22.9811L56.9417 22.8266L57.0962 22.6824L57.261 22.7339L57.3434 23.115L57.4773 23.2386L57.9203 23.2695L58.0645 23.0944L58.116 22.6411L58.1366 22.4557L58.1469 22.2394L58.1263 22.0643L58.116 21.8273L58.1572 21.6213V21.405L58.116 21.1989V21.0238L58.1572 20.7972V20.5809L58.1366 20.4057L58.116 20.1791L58.1366 19.9834L58.1572 19.7567L58.1263 19.5507V19.355L58.1469 19.149L58.116 18.9635L58.1469 18.7472L58.1057 18.3352L58.0027 18.2012L57.8688 18.1085L57.5185 18.0982L57.3434 18.1806L57.2301 18.3558L57.1992 18.7266L57.2301 18.9635L57.1992 19.149L57.2301 19.3447V19.5713L57.2095 19.798L57.2301 19.9937L57.2198 20.21L57.1889 20.416L57.2301 20.5912V21.0238L57.1992 21.2402L57.158 21.4256L57.1271 21.611L57.0241 21.817L56.952 22.0231L56.8489 22.157L56.6841 22.3218L56.5193 22.4454L56.3648 22.5278L56.1793 22.5896H55.7467L55.5407 22.5072L55.3861 22.3939L55.2625 22.2394L55.1492 22.1055L55.0565 21.8788L55.0153 21.6934L54.9947 21.4874V20.8487L54.9844 20.6736L55.005 20.4366L54.9844 20.2203L55.005 19.7877L54.9947 19.6022L54.9741 19.3756L55.0153 19.149L54.9844 18.9738L54.9947 18.7369L54.9432 18.3455L54.8505 18.1806L54.7372 18.0879L54.3663 18.1188L54.2324 18.1806L54.0882 18.3558V18.7163L54.0676 18.9223L54.0573 19.1696L54.0779 19.3344V19.5507L54.0882 19.7567L54.0573 19.9525V20.1894L54.0779 20.3645L54.0676 20.6015L54.047 20.7972L54.0573 20.9826L54.047 21.1989L54.0573 21.6419L54.1088 21.817L54.15 22.0437L54.1706 22.2291L54.2427 22.4248L54.3457 22.6102L54.4281 22.7751L54.562 22.9502L54.7475 23.0635L54.8917 23.1459L55.0565 23.2489L55.2419 23.2798L55.4479 23.3519Z" fill="#040202"/>
<path d="M62.5344 18.3661L62.5035 18.7369V18.9326L62.5344 19.1593L62.5035 19.3344L62.5241 19.5301L62.5344 19.7361L62.5241 19.9525V20.1688L62.2974 20.3439L61.7102 20.3748L61.5042 20.3439H61.0922L60.9273 20.3748L60.7213 20.3645H60.4844L60.2989 20.1791V19.9628L60.3092 19.7258L60.3299 19.561L60.3195 19.3344L60.3092 19.1181V18.9532L60.3195 18.7575L60.268 18.3764L60.1444 18.1909L60.0002 18.1188L59.6603 18.1291L59.516 18.2012L59.3924 18.3558L59.3615 18.7575V18.9532L59.3821 19.1284V19.3653L59.3615 19.5507L59.4027 19.7464V19.9731L59.3924 20.1894V20.5809L59.3615 20.7869L59.3821 21.0238L59.3718 21.2195L59.3615 21.4359L59.4027 21.6419L59.3821 21.8376V22.054L59.4027 22.4454L59.3615 22.6308L59.4233 23.0223L59.5263 23.1871L59.6706 23.2798L60.0002 23.2901L60.1753 23.1768L60.2474 23.0326L60.3195 22.6514V22.4557L60.2886 22.2703V21.8685L60.3195 21.6728L60.3299 21.4874L60.3195 21.3226L60.4844 21.1268H60.711L60.9273 21.1062L61.1128 21.0959L61.2982 21.1062L61.5145 21.0856H61.7102L61.8957 21.1268L62.1223 21.0959L62.2974 21.1268L62.5447 21.302L62.5138 21.508L62.5344 21.7037V21.9097L62.5447 22.0952L62.5035 22.3012L62.5138 22.4763L62.5035 22.672L62.5344 23.0635L62.658 23.1768L62.8228 23.2695L63.1833 23.2901L63.3173 23.1665L63.41 23.0326L63.4306 22.6308V22.4248L63.4409 22.2188L63.4512 22.0334L63.4306 21.8479L63.4512 21.6419L63.4409 21.4153L63.4512 21.1886V20.9826L63.4718 20.7766L63.4409 20.6015L63.4512 20.3954L63.4409 20.1688L63.4615 19.9834L63.4306 19.7671L63.4512 19.5816V19.3344L63.4409 19.1696L63.4615 18.9326L63.4512 18.7163L63.3997 18.3352L63.2967 18.2115L63.1833 18.0982L62.8228 18.1188L62.6786 18.2012L62.5344 18.3661Z" fill="#040202"/>
<path d="M73.7643 22.0643L73.7437 21.8479L73.7334 21.611L73.7231 21.4153L73.754 21.2195L73.7334 21.0135L73.7437 20.8178V20.5912L73.7231 20.416V20.1688L73.7334 19.7877V19.561L73.7025 19.355L73.6407 19.1181L73.5377 18.8914L73.4656 18.6957L73.3317 18.5206L73.1978 18.4176L73.0329 18.2527L72.8681 18.1497L72.6827 18.0776L72.487 18.0673L72.0749 18.0364L71.8483 18.1085L71.632 18.1394L71.4259 18.2321L71.2714 18.3249L71.0654 18.4073L70.7975 18.7369L70.6533 18.9532L70.6224 18.8296L70.54 18.6545L70.2413 18.2939L70.0661 18.1806L69.8498 18.0982L69.6232 18.0776L69.2317 18.0364L69.036 18.0673L68.8197 18.1291L68.6754 18.2321L68.4694 18.3249L68.3458 18.4485L68.2016 18.5618L68.078 18.7163L67.9646 18.6545L67.8616 18.2733L67.6659 18.1291L67.2642 18.1085L67.0993 18.2836L67.0478 18.706L67.0684 18.9223L67.0272 19.355L67.0581 19.561L67.0684 19.7774L67.0581 19.9834V20.1482L67.0478 20.3851L67.0272 20.5603L67.0684 20.7766L67.0375 20.9929L67.0478 21.2195L67.0581 21.4256L67.0478 21.6213L67.0375 21.8376L67.0478 22.054V22.2497L67.0684 22.4454L67.0478 22.6411L67.0581 23.0223L67.1611 23.1665L67.3157 23.2798L67.6659 23.2695L67.8101 23.2077L67.9131 23.0532L67.9646 22.6617L67.9749 22.466L67.9543 22.26L67.9646 22.0128L67.9956 21.8479L67.9853 21.6213L67.9749 21.4256L67.9853 21.1989L67.9956 20.9929L67.9749 20.7663L67.9646 20.3542L67.9749 20.1276L68.0059 19.9319L68.0883 19.7258L68.1501 19.4786L68.3561 19.149L68.5003 19.015L68.6857 18.9017L68.8918 18.8296H69.2729L69.6541 18.9738L69.7777 19.1387L69.8498 19.3344L69.8704 19.5095L69.891 19.7258L69.9219 19.8907L69.9425 20.3233L69.9116 20.5088L69.9322 20.7148L69.9219 20.9517L69.9116 21.1577L69.9528 21.5698L69.9425 21.7964V22.6411L69.9734 23.0635L70.0455 23.1768L70.2207 23.2901L70.5812 23.2798L70.6945 23.1665L70.8181 23.0635L70.8387 22.6411L70.8593 22.4351L70.8799 22.26L70.8696 22.054L70.8799 21.8376L70.8696 21.5904L70.8387 21.3947L70.8799 21.1886V20.7869L70.8387 20.3336L70.8903 20.1585L70.9315 19.9319L70.9727 19.7155L71.0242 19.5095L71.1066 19.3035L71.2302 19.1181L71.3744 18.9841L71.5495 18.8708L71.7659 18.8296L72.1573 18.8193L72.3428 18.9017L72.5282 19.0047L72.6415 19.1387L72.7136 19.3344L72.7548 19.4992L72.796 19.6949L72.8269 19.8907L72.796 20.3027V20.5294L72.8166 20.9723V21.1577L72.8269 21.3638V21.5904L72.796 21.8067V21.9922L72.8372 22.2085L72.8166 22.4454V22.6411L72.8681 23.0223L72.9608 23.1665L73.1051 23.2901L73.4553 23.3107L73.5995 23.1871L73.7025 23.0223L73.7334 22.6617V22.4454L73.7231 22.2703L73.7643 22.0643Z" fill="#040202"/>
<path d="M78.9996 19.9422V19.7361L78.9584 19.5198L78.9171 19.3138L78.8244 19.149L78.7111 18.9635L78.6081 18.7884L78.4742 18.5927L78.33 18.4588L78.2063 18.3764L78.0312 18.2321L77.8355 18.1703L77.4131 18.057L77.2174 18.0776L76.7848 18.0364L76.589 18.057L76.3727 18.1085L76.2182 18.1909L76.0224 18.2424L75.837 18.3764L75.6619 18.4897L75.4868 18.6236L75.3735 18.7472L75.2498 18.9223L75.1365 19.1181L75.0232 19.2623L74.9717 19.4992L74.8996 19.6949L74.8275 19.901L74.8069 20.0864L74.7966 20.2718L74.776 20.4985L74.7863 20.9002V21.1165L74.8069 21.3226L74.8481 21.5183L74.9099 21.7346L74.9511 21.9406L75.0129 22.1364L75.1983 22.4866L75.3632 22.6102L75.4662 22.7751L75.631 22.909L75.8267 23.0017L75.9709 23.1253L76.1461 23.218L76.3727 23.2798L76.589 23.2901L76.7538 23.3107L76.9599 23.3725L77.3925 23.3622L77.5986 23.3416L77.8046 23.3004H78.0106L78.2166 23.2592L78.4021 23.2077L78.7626 22.9708L78.8141 22.5896L78.6699 22.4454L78.3712 22.4248L78.0724 22.5381L77.8664 22.6102L77.681 22.6308H77.4749L77.0629 22.6617L76.8672 22.6411L76.6611 22.5381L76.4757 22.4763L76.28 22.3424L76.1667 22.2085L76.0327 22.0643L75.9297 21.8994L75.837 21.714L75.7958 21.4668L75.7752 21.2917L75.734 21.065V21.0238L75.8164 21.0444H75.9915L76.2182 21.0753L76.4345 21.0547L76.6508 21.0444H76.8569L77.0423 21.0341L77.2483 21.0547L77.4543 21.0341L77.6913 21.0547L78.1136 21.0753L78.2888 21.0444L78.7111 21.0135L78.8862 20.9311L78.9996 20.756L79.0305 20.4469V20.1276L78.9996 19.9422ZM78.093 20.2306L77.8458 20.3954L77.6707 20.4263H77.4337L77.2483 20.4366L76.8569 20.416L76.6405 20.4263H76.4139L76.2182 20.3954L76.0121 20.4366L75.8267 20.416L75.7031 20.4469V20.2409L75.7649 20.0658V19.8598L75.8473 19.664L75.9297 19.4477L76.0224 19.2932L76.1358 19.149L76.2594 18.9738L76.4036 18.9017L76.589 18.8193L76.8054 18.7884L77.1968 18.7678L77.4337 18.8296L77.6192 18.912L77.784 19.0357L77.887 19.2211L78.0003 19.4271L78.0518 19.6537L78.093 19.8804V20.2306Z" fill="#040202"/>
<path d="M81.051 18.2733L80.8862 18.1291L80.4329 18.1188L80.299 18.3042L80.2166 18.7266L80.2269 18.9429L80.2372 19.1181V19.3447L80.2166 19.561L80.2269 19.7464L80.2475 19.9628L80.2269 20.1688L80.2372 20.3954V20.6118L80.2475 20.7972L80.2166 21.0135L80.2475 21.2402L80.2269 21.405L80.2372 21.6625L80.2063 21.8685L80.2269 22.0746L80.2063 22.2806L80.2269 22.466L80.2063 22.6927L80.2166 22.8987L80.2475 23.0841V23.5168L80.2166 23.7125V23.9391L80.2063 24.1349L80.2269 24.3512L80.2784 24.7323L80.3814 24.9075L80.5256 25.0002L80.8656 24.9899L81.0304 24.8869L81.1025 24.7323L81.1437 24.3615V24.1349L81.154 23.8979L81.1643 23.6919L81.154 23.5065L81.1437 23.2798L81.154 23.0429L81.1746 22.8163L81.3085 22.7751L81.463 22.9605L81.6176 23.0841L81.8133 23.1459L81.9884 23.2489L82.215 23.321L82.4314 23.3313L82.8537 23.321L83.0804 23.3107L83.2452 23.2798L83.4203 23.2077L83.616 23.0944L83.7809 22.9605L83.956 22.8266L84.059 22.6824L84.2753 22.363L84.3783 22.1673L84.4195 21.951L84.4608 21.7758L84.5329 21.5801L84.5741 21.3741L84.5535 21.1783L84.5947 20.9723L84.5741 20.5294L84.5638 20.3336L84.5432 20.1276L84.5329 19.8907L84.4608 19.6743L84.4505 19.4889L84.3783 19.2829L84.2753 19.0666L84.1929 18.8914L84.0693 18.7163L83.7706 18.4382L83.4306 18.2012L83.2349 18.1291L83.0392 18.0982L82.8537 18.057L82.3799 18.0776L82.1944 18.0673L81.9575 18.1291L81.7618 18.2424L81.6073 18.3352L81.4424 18.5L81.2982 18.6339L81.0922 18.6133L81.051 18.2733ZM82.1429 22.6205L81.9678 22.569L81.7721 22.4557L81.6176 22.3321L81.4939 22.1673L81.36 21.9922L81.2776 21.8067L81.2261 21.6007L81.1746 21.3741L81.1231 21.1577L81.1025 20.9311L81.1128 20.5191L81.154 20.3336L81.1849 20.0967L81.1746 19.9319L81.2673 19.7155L81.3394 19.5095L81.4012 19.3344L81.4939 19.1593L81.6794 19.0047L81.803 18.912L82.009 18.8296L82.2047 18.7369L82.6065 18.7678L82.7816 18.7987L82.998 18.8914L83.1525 19.0666L83.2864 19.2005L83.41 19.3859L83.4924 19.6125L83.5336 19.7774L83.5954 20.004L83.6057 20.2306L83.6366 20.4469L83.6057 20.8693L83.5851 21.0547L83.5645 21.2505V21.4668L83.513 21.6522L83.4203 21.8685L83.3482 22.054L83.2143 22.2085L83.1113 22.3527L82.967 22.466L82.7507 22.5587L82.5653 22.6514L82.1429 22.6205Z" fill="#040202"/>
<path d="M89.6639 22.5999L89.3548 22.4454L89.2415 22.3012L89.2106 21.8788V21.7037L89.2312 21.4771V21.2402L89.2209 21.0753L89.2415 20.8487L89.2518 20.6427L89.2106 20.416V20.1894L89.2312 20.0143L89.2518 19.798L89.19 19.3447L89.1694 19.149L89.0973 18.9635L89.0149 18.7678L88.9118 18.5824L88.7779 18.4485L88.5822 18.3352L88.4071 18.2218L88.2114 18.1806L88.0259 18.1085L87.789 18.0982L87.5933 18.0467L87.1812 18.0673L87.0061 18.0467L86.7795 18.0776L86.5734 18.1291L86.4086 18.1394L86.2026 18.2115L86.0172 18.263L85.6257 18.4588L85.6051 18.8605L85.739 18.9841L86.0069 19.0253L86.3056 18.9326L86.491 18.912L86.6764 18.8193L86.8413 18.7781L87.0576 18.7575H87.4903L87.6757 18.7987L88.0362 18.9429L88.1392 19.0872L88.2526 19.2623L88.3041 19.4889L88.3247 19.8701L88.3144 20.004L88.098 20.1894L87.9538 20.2203L87.7581 20.1997L87.346 20.2306H87.1606L86.9546 20.2615L86.7176 20.2718L86.491 20.3645L86.3159 20.3954L85.9347 20.5912L85.7699 20.7251L85.6257 20.8693L85.5536 21.0444L85.4712 21.2299L85.4094 21.4256L85.3476 21.611L85.3682 22.0231L85.4197 22.2497L85.4815 22.4454L85.5639 22.6411L85.7905 22.9708L85.9553 23.0738L86.1614 23.218L86.3365 23.2695L86.5425 23.321L86.7279 23.3725L87.1503 23.3416L87.3769 23.3004L87.5727 23.2489L87.7684 23.218L88.1186 22.9708L88.2526 22.8163L88.3762 22.6927L88.438 22.8678L88.7367 23.1974L88.9428 23.2798L89.1179 23.3313H89.5608L89.7051 23.1562L89.7772 22.7545L89.6639 22.5999ZM88.2835 21.0856V21.7552L88.201 21.9406L88.1083 22.1261L87.995 22.3321L87.8508 22.4557L87.6757 22.5175L87.4799 22.6102L87.2945 22.6411L86.8619 22.6205L86.7073 22.5381L86.5116 22.3836L86.4189 22.1879L86.3468 21.9716V21.5492L86.4189 21.3844L86.5219 21.2092L86.6558 21.065L86.831 20.9723L87.0679 20.9105L87.2636 20.8796L87.4697 20.859L87.8714 20.8384H88.0568L88.2835 21.0856Z" fill="#040202"/>
<path d="M93.5183 18.0364H93.1268L92.8899 18.0673L92.4984 18.1909L92.313 18.3146L92.1688 18.4073L92.0246 18.5618L91.87 18.706L91.7052 18.6545L91.6228 18.2733L91.4889 18.1497L91.0459 18.1188L90.9017 18.2939L90.8502 18.7472L90.8296 18.9326L90.8193 19.149L90.8399 19.3241L90.8502 19.561L90.809 19.7671V19.9834L90.8502 20.1894V20.3645L90.809 20.5912V20.8075L90.8296 20.9826L90.8502 21.2092L90.8296 21.405L90.809 21.6316L90.8399 21.8376V22.0334L90.8193 22.2394L90.8502 22.4248L90.8193 22.6411L90.8605 23.0532L90.9635 23.1871L91.0974 23.2798L91.4477 23.2901L91.6228 23.2077L91.7361 23.0326L91.767 22.6617L91.7361 22.4248L91.767 22.2394L91.7361 22.0437V21.817L91.7567 21.5904L91.7361 21.3947L91.7464 21.1783L91.7773 20.9723L91.7361 20.7972V20.3645L91.767 20.1482L91.8082 19.9628L91.8391 19.7774L91.9422 19.5713L92.0143 19.3653L92.1173 19.2314L92.2821 19.0666L92.4469 18.9429L92.6014 18.8605L92.7869 18.7987H93.2195L93.4256 18.8811L93.5801 18.9944L93.7037 19.149L93.817 19.2829L93.9097 19.5095L93.9509 19.6949L93.9715 19.901V20.5397L93.9818 20.7148L93.9612 20.9517L93.9818 21.168L93.9612 21.6007L93.9715 21.7861L93.9921 22.0128L93.9509 22.2394L93.9818 22.4145L93.9715 22.6514L94.023 23.0429L94.1158 23.2077L94.2291 23.3004L94.5999 23.2695L94.7338 23.2077L94.8781 23.0326V22.672L94.8987 22.466L94.909 22.2188L94.8884 22.054V21.8376L94.8781 21.6316L94.909 21.4359V21.1989L94.8884 21.0238L94.8987 20.7869L94.9193 20.5912L94.909 20.4057L94.9193 20.1894L94.909 19.7464L94.8575 19.5713L94.8162 19.3447L94.7956 19.1593L94.7235 18.9635L94.6205 18.7781L94.5381 18.6133L94.4042 18.4382L94.2188 18.3249L94.0745 18.2424L93.9097 18.1394L93.7243 18.1085L93.5183 18.0364Z" fill="#040202"/>
<path d="M97.5391 23.3519H97.9306L98.1675 23.321L98.559 23.1974L98.7444 23.0738L98.8886 22.9811L99.0328 22.8266L99.1873 22.6824L99.3522 22.7339L99.4346 23.115L99.5685 23.2386L100.011 23.2695L100.156 23.0944L100.207 22.6411L100.228 22.4557L100.238 22.2394L100.217 22.0643L100.207 21.8273L100.248 21.6213V21.405L100.207 21.1989V21.0238L100.248 20.7972V20.5809L100.228 20.4057L100.207 20.1791L100.228 19.9834L100.248 19.7567L100.217 19.5507V19.355L100.238 19.149L100.207 18.9635L100.238 18.7472L100.197 18.3352L100.094 18.2012L99.96 18.1085L99.6097 18.0982L99.4346 18.1806L99.3213 18.3558L99.2904 18.7266L99.3213 18.9635L99.2904 19.149L99.3213 19.3447V19.5713L99.3007 19.798L99.3213 19.9937L99.311 20.21L99.2801 20.416L99.3213 20.5912V21.0238L99.2904 21.2402L99.2492 21.4256L99.2183 21.611L99.1152 21.817L99.0431 22.0231L98.9401 22.157L98.7753 22.3218L98.6105 22.4454L98.4559 22.5278L98.2705 22.5896H97.8379L97.6318 22.5072L97.4773 22.3939L97.3537 22.2394L97.2404 22.1055L97.1477 21.8788L97.1065 21.6934L97.0859 21.4874V20.8487L97.0756 20.6736L97.0962 20.4366L97.0756 20.2203L97.0962 19.7877L97.0859 19.6022L97.0653 19.3756L97.1065 19.149L97.0756 18.9738L97.0859 18.7369L97.0344 18.3455L96.9416 18.1806L96.8283 18.0879L96.4575 18.1188L96.3236 18.1806L96.1793 18.3558V18.7163L96.1587 18.9223L96.1484 19.1696L96.169 19.3344V19.5507L96.1793 19.7567L96.1484 19.9525V20.1894L96.169 20.3645L96.1587 20.6015L96.1381 20.7972L96.1484 20.9826L96.1381 21.1989L96.1484 21.6419L96.1999 21.817L96.2411 22.0437L96.2617 22.2291L96.3339 22.4248L96.4369 22.6102L96.5193 22.7751L96.6532 22.9502L96.8386 23.0635L96.9828 23.1459L97.1477 23.2489L97.3331 23.2798L97.5391 23.3519Z" fill="#040202"/>
<path d="M103.373 18.1394H102.94L102.714 18.1806L102.528 18.2218L102.343 18.2836L102.127 18.3764L101.982 18.5206L101.797 18.6545L101.663 18.8193L101.56 18.9841L101.478 19.1799L101.457 19.3859L101.385 19.5507V19.9525L101.457 20.1791L101.478 20.3542L101.601 20.5088L101.694 20.7045L101.807 20.8487L102.116 21.1165L102.281 21.2092L102.374 21.4771L102.24 21.6419L102.147 21.8376L102.013 22.0231L101.931 22.2188L101.828 22.4248L101.622 22.6927L101.684 23.0326L101.766 23.1871L101.931 23.3004L102.291 23.2901L102.456 23.2283L102.662 22.8781L102.745 22.6927L102.858 22.5175L102.92 22.3527L103.054 22.1673L103.167 21.9613L103.218 21.7758L103.342 21.5801L103.682 21.4153H103.867L104.125 21.3844L104.341 21.6213L104.352 21.8376L104.321 22.0334L104.362 22.26L104.341 22.466L104.352 22.6308V23.0429L104.496 23.2077L104.64 23.2695H104.99L105.114 23.1768L105.217 23.0326L105.279 22.6617L105.268 22.4454L105.289 22.0746V21.8479L105.279 21.6625L105.248 21.4462L105.258 21.2299L105.248 21.065V20.8693L105.289 20.6221L105.258 20.4675L105.248 20.2203L105.258 20.0349L105.289 19.8392L105.268 19.6331L105.258 19.4168L105.268 19.2108L105.279 19.046L105.258 18.809V18.4485L105.124 18.263L104.959 18.1497L104.558 18.0982L104.383 18.1394H104.156L103.95 18.1085L103.744 18.1188H103.579L103.373 18.1394ZM104.352 20.4675L104.125 20.7045L103.919 20.6839L103.723 20.6736L103.486 20.7045L103.074 20.6942L102.879 20.6015L102.673 20.4881L102.518 20.3748L102.425 20.1894L102.353 19.9525V19.5404L102.415 19.3344L102.539 19.1696L102.673 19.0047L102.868 18.8914L103.095 18.8811L103.517 18.8399L103.723 18.8296H103.929L104.115 18.8502L104.341 19.0253L104.321 19.2417L104.352 19.458L104.362 19.664L104.341 19.8701V20.0555L104.331 20.2821L104.352 20.4675Z" fill="#040202"/>
<path fill-rule="evenodd" clip-rule="evenodd" d="M12.955 24.5V22.0563C19.1865 22.0563 23.5322 17.2187 23.5322 10.9871C23.5322 4.75563 18.0386 0 12.1351 0C6.23151 0 0 4.34566 0 12.217C0 22.5154 8.63666 24.3634 12.955 24.5ZM15.4241 8.16012C16.1033 8.36601 16.6249 8.88571 16.7862 9.53015C17.5052 9.82592 18.0024 10.4844 18.0009 11.2556C18.0009 11.4185 17.9788 11.5775 17.9361 11.7284C17.9788 11.8792 18.0009 12.0382 18.0009 12.2011C18.0009 12.576 17.8801 12.9267 17.6716 13.2204C17.553 13.6979 17.1051 14.0587 16.5586 14.1036C16.5026 14.689 15.9626 15.1477 15.3063 15.1477C15.0779 15.1477 14.865 15.0907 14.6816 14.9948C14.5313 15.1758 14.2963 15.2966 14.0296 15.3086L14.0989 16L13.5009 15.5169L12.5762 14.6991C12.0613 14.5321 11.64 14.1834 11.405 13.7388C11.0735 13.9406 10.6749 14.0586 10.247 14.0586C9.44549 14.0586 8.75082 13.6449 8.40608 13.0393C8.39363 13.0393 8.38157 13.0399 8.3698 13.0404C8.35858 13.0409 8.34762 13.0413 8.33683 13.0413C7.27534 13.0413 6.40166 12.3138 6.27864 11.3776C6.10405 11.098 6.00091 10.7761 6.00091 10.4314C6.00091 9.72596 6.42892 9.10968 7.05801 8.78578C7.41455 8.21108 8.09079 7.82348 8.86575 7.82348C8.96004 7.82348 9.04917 7.82951 9.13904 7.83957C9.35414 7.54988 9.71657 7.35809 10.1313 7.35809C10.2882 7.35809 10.4385 7.38491 10.5748 7.43588C10.7899 7.24611 11.0809 7.13009 11.4035 7.13009C11.6142 7.13009 11.8138 7.18106 11.9862 7.26891C12.1276 7.10394 12.3472 7 12.5932 7C12.882 7 13.1332 7.14283 13.265 7.35474C13.4042 7.32792 13.5471 7.31384 13.6952 7.31384C14.4164 7.31384 15.0521 7.65047 15.4241 8.16012ZM7.39541 10.4073C7.39541 10.0016 7.75858 9.66896 8.20646 9.66896C8.78694 9.66896 9.25987 9.23844 9.25913 8.71069C9.25913 8.64967 9.20535 8.60071 9.13832 8.60071C9.07129 8.60071 9.01751 8.64967 9.01751 8.71069C9.01751 9.11841 8.65213 9.45102 8.20425 9.45102C7.62671 9.45102 7.15379 9.87886 7.15379 10.4073C7.15379 10.4683 7.20756 10.5173 7.2746 10.5173C7.34163 10.5173 7.39541 10.4683 7.39541 10.4073ZM14.8644 9.54289C14.8644 8.8334 14.2301 8.25602 13.4508 8.25602C13.3859 8.25602 13.3277 8.30295 13.3285 8.36465C13.3285 8.42567 13.3822 8.47463 13.4493 8.47463C14.0961 8.47463 14.6228 8.95343 14.6228 9.54289C14.6228 9.60391 14.6765 9.65286 14.7436 9.65286C14.8106 9.65286 14.8644 9.60391 14.8644 9.54289ZM9.90672 9.70986C9.85958 9.75278 9.85958 9.82185 9.90672 9.86477C9.92956 9.88489 9.96048 9.89495 9.99216 9.89562C10.0238 9.89562 10.0555 9.88288 10.0776 9.86276C10.4518 9.52211 10.9513 9.33434 11.4802 9.33434C12.0084 9.33434 12.5056 9.5221 12.8798 9.86276C12.927 9.90568 13.0029 9.90568 13.05 9.86276C13.0971 9.81984 13.0971 9.75077 13.05 9.70786C12.6309 9.3263 12.0732 9.11639 11.4795 9.11639C10.8857 9.11639 10.3259 9.32829 9.90672 9.70986ZM14.2434 12.5438C14.3038 12.5706 14.376 12.5438 14.4025 12.4888C14.4298 12.4338 14.4003 12.3707 14.3399 12.3412C13.9944 12.2031 13.6092 12.195 13.2578 12.3191C12.9064 12.4438 12.6287 12.6866 12.4762 13.0004C12.4489 13.0554 12.4762 13.1211 12.5366 13.1453C12.5521 13.1533 12.5705 13.1553 12.586 13.1553C12.6331 13.1553 12.6758 13.1312 12.6957 13.0903C12.821 12.8294 13.0523 12.6296 13.3454 12.5256C13.6364 12.4217 13.9569 12.4298 14.2434 12.5438ZM11.3292 11.3058C11.8353 11.051 12.418 10.992 12.9734 11.1369C14.2456 11.4695 15.579 10.7982 15.9437 9.63807C15.9614 9.58107 15.9231 9.51938 15.8604 9.50328C15.7978 9.48719 15.7301 9.52206 15.7124 9.57906C15.3831 10.6212 14.1823 11.2267 13.0375 10.927C12.4217 10.766 11.7742 10.8311 11.2121 11.1147C10.6523 11.3984 10.2441 11.8631 10.0673 12.4237C10.0497 12.4807 10.088 12.5424 10.1506 12.5585C10.1624 12.5605 10.1734 12.5625 10.1845 12.5625C10.236 12.5625 10.2832 12.5297 10.2987 12.4827C10.4578 11.9785 10.8253 11.5607 11.3292 11.3058ZM14.8667 13.5027C14.8667 13.5637 14.9205 13.6127 14.9875 13.6127C15.9525 13.6127 16.737 12.8985 16.7385 12.0187C16.7385 11.9577 16.6847 11.9087 16.6177 11.9087C16.5507 11.9087 16.4969 11.9577 16.4969 12.0187C16.4969 12.7772 15.8207 13.3927 14.9875 13.3927C14.9205 13.3927 14.8667 13.4417 14.8667 13.5027Z" fill="url(#paint0_angular_1032_6681)"/>
<defs>
<radialGradient id="paint0_angular_1032_6681" cx="0" cy="0" r="1" gradientUnits="userSpaceOnUse" gradientTransform="translate(12.5005 12.9706) rotate(-93.7906) scale(11.7358 12.5613)">
<stop offset="0.497348" stop-color="#B66357"/>
<stop offset="0.497448" stop-color="#9C542D"/>
<stop offset="0.497548" stop-color="#D47365"/>
</radialGradient>
</defs>
</svg>
